<svg width="60" height="60" viewBox="0 0 60 60" fill="none" xmlns="http://www.w3.org/2000/svg">
<g id="message-circle">
<path id="Vector" d="M52.125 28.6772C52.1335 31.9218 51.3754 35.1226 49.9125 38.0188C48.178 41.4894 45.5115 44.4085 42.2116 46.4491C38.9118 48.4898 35.109 49.5715 31.2292 49.573C27.9845 49.5814 24.7837 48.8234 21.8875 47.3605L7.875 52.0313L12.5458 38.0188C11.083 35.1226 10.3249 31.9218 10.3333 28.6772C10.3348 24.7973 11.4165 20.9945 13.4572 17.6947C15.4979 14.3948 18.417 11.7283 21.8875 9.99382C24.7837 8.53094 27.9845 7.77286 31.2292 7.78132H32.4583C37.5824 8.06401 42.4221 10.2268 46.0508 13.8555C49.6795 17.4843 51.8423 22.324 52.125 27.448V28.6772Z" stroke="url(#paint0_linear_3004_74291)" stroke-width="2" stroke-linecap="round" stroke-linejoin="round"/>
</g>
<defs>
<linearGradient id="paint0_linear_3004_74291" x1="49.3766" y1="41.9546" x2="6.36335" y2="41.9546" gradientUnits="userSpaceOnUse">
<stop stop-color="#C985FE"/>
<stop offset="1" stop-color="#999DFF"/>
</linearGradient>
</defs>
</svg>
