<svg viewBox="0 0 553 153" fill="none" xmlns="http://www.w3.org/2000/svg">
  <g opacity="0.4">
    <path fill-rule="evenodd" clip-rule="evenodd" d="M543.481 44.7805C543.481 29.1058 543.481 21.2685 540.431 15.2816C537.748 10.0154 533.466 5.73377 528.2 3.05049C522.213 0 514.376 0 498.701 0H45.2985C29.6238 0 21.7866 0 15.7996 3.05049C10.5334 5.73377 6.25177 10.0154 3.56848 15.2816C0.518005 21.2685 0.518005 29.1058 0.518005 44.7805V108.22C0.518005 123.894 0.518005 131.731 3.56848 137.718C6.25177 142.985 10.5334 147.266 15.7996 149.95C21.7866 153 29.6238 153 45.2985 153H498.701C514.376 153 522.213 153 528.2 149.95C533.466 147.266 537.748 142.985 540.431 137.718C543.481 131.731 543.481 123.894 543.481 108.22V44.7805Z" fill="#007AFF"/>
    <path fill-rule="evenodd" clip-rule="evenodd" d="M543.535 126.878H515.494C515.494 141.305 527.189 153 541.616 153H552.811V152.386C550.141 150.145 547.93 147.378 546.329 144.236C544.235 140.126 543.681 135.081 543.535 126.878Z" fill="#007AFF"/>
  </g>
</svg>
