<svg viewBox="0 0 552 70" fill="none" xmlns="http://www.w3.org/2000/svg">
<path fill-rule="evenodd" clip-rule="evenodd" d="M541.963 35C541.963 28.4835 541.963 25.2252 541.423 22.5159C539.211 11.4229 530.54 2.75159 519.447 0.540116C516.738 0 513.479 0 506.963 0H34.9995C28.4829 0 25.2247 0 22.5154 0.540116C11.4224 2.75159 2.75104 11.4229 0.539551 22.5159C-0.000549316 25.2252 -0.000549316 28.4835 -0.000549316 35C-0.000549316 41.5165 -0.000549316 44.7748 0.539551 47.4841C2.75104 58.5771 11.4224 67.2484 22.5154 69.4599C25.2247 70 28.4829 70 34.9995 70H506.963C513.479 70 516.738 70 519.447 69.4599C530.54 67.2484 539.211 58.5771 541.423 47.4841C541.963 44.7748 541.963 41.5165 541.963 35Z" fill="#271E4A"/>
<path fill-rule="evenodd" clip-rule="evenodd" d="M542.018 43.8779H513.977C513.977 58.3047 525.672 69.9999 540.099 69.9999H551.294V69.3853C548.623 67.1441 546.413 64.3779 544.812 61.2361C542.718 57.1259 542.164 52.0811 542.018 43.8779Z" fill="#271E4A"/>
</svg>
