<svg viewBox="0 0 1440 900" fill="none" xmlns="http://www.w3.org/2000/svg">
<g clip-path="url(#clip0_3679_63043)">
<path d="M457.027 80L457.39 80.5287L458.005 80.71L457.614 81.218L457.631 81.8587L457.027 81.6439L456.424 81.8587L456.441 81.218L456.05 80.71L456.665 80.5287L457.027 80Z" fill="white" fill-opacity="0.4"/>
<path d="M1140.71 260L1140.96 260.365L1141.38 260.49L1141.11 260.84L1141.13 261.282L1140.71 261.134L1140.29 261.282L1140.3 260.84L1140.03 260.49L1140.46 260.365L1140.71 260Z" fill="white" fill-opacity="0.4"/>
<path d="M730.158 557L730.567 557.596L731.26 557.8L730.819 558.373L730.839 559.095L730.158 558.853L729.477 559.095L729.497 558.373L729.057 557.8L729.75 557.596L730.158 557Z" fill="white" fill-opacity="0.6"/>
<path d="M395.083 328L395.465 328.557L396.113 328.748L395.701 329.284L395.72 329.959L395.083 329.733L394.446 329.959L394.465 329.284L394.053 328.748L394.701 328.557L395.083 328Z" fill="white" fill-opacity="0.4"/>
<path d="M419.087 281L419.47 281.559L420.12 281.751L419.707 282.288L419.725 282.966L419.087 282.738L418.448 282.966L418.467 282.288L418.053 281.751L418.703 281.559L419.087 281Z" fill="white" fill-opacity="0.5"/>
<path d="M1009.33 511L1009.8 511.685L1010.6 511.92L1010.09 512.579L1010.11 513.409L1009.33 513.131L1008.55 513.409L1008.57 512.579L1008.07 511.92L1008.86 511.685L1009.33 511Z" fill="white" fill-opacity="0.5"/>
<path d="M1325.27 88L1325.72 88.6557L1326.49 88.8804L1326 89.5104L1326.02 90.3049L1325.27 90.0386L1324.53 90.3049L1324.55 89.5104L1324.06 88.8804L1324.82 88.6557L1325.27 88Z" fill="white" fill-opacity="0.5"/>
<path d="M284.213 380L284.641 380.624L285.366 380.838L284.905 381.438L284.926 382.194L284.213 381.941L283.5 382.194L283.521 381.438L283.059 380.838L283.785 380.624L284.213 380Z" fill="white" fill-opacity="0.4"/>
<path d="M1076.7 91L1076.95 91.3617L1077.37 91.4857L1077.1 91.8332L1077.12 92.2715L1076.7 92.1246L1076.29 92.2715L1076.3 91.8332L1076.03 91.4857L1076.45 91.3617L1076.7 91Z" fill="white" fill-opacity="0.3"/>
<path d="M1411.33 798L1411.8 798.683L1412.59 798.917L1412.09 799.574L1412.11 800.402L1411.33 800.124L1410.55 800.402L1410.57 799.574L1410.06 798.917L1410.86 798.683L1411.33 798Z" fill="white" fill-opacity="0.3"/>
<path d="M447.648 84L447.876 84.3334L448.264 84.4477L448.018 84.7681L448.029 85.1722L447.648 85.0367L447.267 85.1722L447.278 84.7681L447.032 84.4477L447.419 84.3334L447.648 84Z" fill="white" fill-opacity="0.6"/>
<path d="M302.83 414L303.122 414.427L303.618 414.573L303.303 414.983L303.317 415.501L302.83 415.327L302.342 415.501L302.356 414.983L302.041 414.573L302.537 414.427L302.83 414Z" fill="white" fill-opacity="0.6"/>
<path d="M226.834 410L227.128 410.429L227.628 410.576L227.31 410.989L227.325 411.509L226.834 411.335L226.344 411.509L226.358 410.989L226.041 410.576L226.54 410.429L226.834 410Z" fill="white" fill-opacity="0.4"/>
<path d="M386.734 665L386.993 665.378L387.432 665.507L387.153 665.87L387.165 666.327L386.734 666.174L386.302 666.327L386.315 665.87L386.036 665.507L386.475 665.378L386.734 665Z" fill="white" fill-opacity="0.3"/>
<path d="M226.902 661L227.22 661.464L227.759 661.623L227.416 662.069L227.431 662.631L226.902 662.443L226.372 662.631L226.387 662.069L226.044 661.623L226.584 661.464L226.902 661Z" fill="white" fill-opacity="0.5"/>
<path d="M1435.6 649L1435.81 649.309L1436.17 649.415L1435.94 649.712L1435.95 650.086L1435.6 649.96L1435.25 650.086L1435.26 649.712L1435.03 649.415L1435.39 649.309L1435.6 649Z" fill="white" fill-opacity="0.3"/>
<path d="M259.702 782L259.949 782.361L260.369 782.485L260.102 782.832L260.114 783.27L259.702 783.123L259.289 783.27L259.301 782.832L259.034 782.485L259.454 782.361L259.702 782Z" fill="white" fill-opacity="0.6"/>
<path d="M1398.77 635L1399.04 635.395L1399.5 635.531L1399.21 635.911L1399.22 636.39L1398.77 636.23L1398.32 636.39L1398.33 635.911L1398.04 635.531L1398.5 635.395L1398.77 635Z" fill="white" fill-opacity="0.4"/>
<path d="M881.152 405L881.559 405.593L882.248 405.796L881.81 406.366L881.83 407.085L881.152 406.844L880.475 407.085L880.495 406.366L880.056 405.796L880.746 405.593L881.152 405Z" fill="white" fill-opacity="0.6"/>
<path d="M263.716 730L263.968 730.368L264.397 730.495L264.124 730.849L264.137 731.295L263.716 731.145L263.295 731.295L263.307 730.849L263.035 730.495L263.463 730.368L263.716 730Z" fill="white" fill-opacity="0.3"/>
<path d="M1265.94 845L1266.28 845.485L1266.84 845.652L1266.48 846.118L1266.5 846.707L1265.94 846.51L1265.39 846.707L1265.41 846.118L1265.05 845.652L1265.61 845.485L1265.94 845Z" fill="white" fill-opacity="0.4"/>
<path d="M1430.16 487L1430.57 487.597L1431.26 487.802L1430.82 488.375L1430.84 489.099L1430.16 488.856L1429.48 489.099L1429.5 488.375L1429.06 487.802L1429.75 487.597L1430.16 487Z" fill="white" fill-opacity="0.4"/>
<path d="M1143.33 316L1143.79 316.682L1144.59 316.916L1144.08 317.571L1144.1 318.398L1143.33 318.121L1142.55 318.398L1142.57 317.571L1142.06 316.916L1142.86 316.682L1143.33 316Z" fill="white" fill-opacity="0.4"/>
<path d="M1212.53 49L1212.71 49.2706L1213.03 49.3634L1212.83 49.6233L1212.83 49.9513L1212.53 49.8414L1212.22 49.9513L1212.23 49.6233L1212.03 49.3634L1212.34 49.2706L1212.53 49Z" fill="white" fill-opacity="0.6"/>
<path d="M1115.33 492L1115.8 492.685L1116.6 492.919L1116.09 493.577L1116.11 494.407L1115.33 494.129L1114.55 494.407L1114.57 493.577L1114.07 492.919L1114.86 492.685L1115.33 492Z" fill="white" fill-opacity="0.4"/>
<path d="M305.37 873L305.853 873.705L306.672 873.946L306.151 874.624L306.175 875.478L305.37 875.191L304.565 875.478L304.588 874.624L304.067 873.946L304.887 873.705L305.37 873Z" fill="white" fill-opacity="0.5"/>
<path d="M314.136 498L314.536 498.584L315.216 498.785L314.784 499.346L314.803 500.054L314.136 499.817L313.468 500.054L313.488 499.346L313.056 498.785L313.735 498.584L314.136 498Z" fill="white" fill-opacity="0.4"/>
<path d="M641.279 409L641.729 409.658L642.495 409.883L642.008 410.516L642.03 411.313L641.279 411.046L640.527 411.313L640.549 410.516L640.063 409.883L640.828 409.658L641.279 409Z" fill="white" fill-opacity="0.5"/>
<path d="M510.952 704L511.288 704.49L511.857 704.658L511.495 705.128L511.512 705.722L510.952 705.523L510.392 705.722L510.409 705.128L510.047 704.658L510.616 704.49L510.952 704Z" fill="white" fill-opacity="0.6"/>
<path d="M1293.13 260L1293.53 260.581L1294.2 260.78L1293.77 261.339L1293.79 262.043L1293.13 261.807L1292.47 262.043L1292.48 261.339L1292.06 260.78L1292.73 260.581L1293.13 260Z" fill="white" fill-opacity="0.6"/>
<path d="M609.116 292L609.509 292.574L610.177 292.771L609.752 293.322L609.771 294.018L609.116 293.785L608.46 294.018L608.479 293.322L608.055 292.771L608.722 292.574L609.116 292Z" fill="white" fill-opacity="0.3"/>
<path d="M328.84 222L329.137 222.432L329.64 222.581L329.32 222.996L329.334 223.52L328.84 223.345L328.346 223.52L328.361 222.996L328.041 222.581L328.544 222.432L328.84 222Z" fill="white" fill-opacity="0.4"/>
<path d="M1096.99 738L1097.33 738.507L1097.92 738.681L1097.55 739.168L1097.56 739.783L1096.99 739.577L1096.41 739.783L1096.42 739.168L1096.05 738.681L1096.64 738.507L1096.99 738Z" fill="white" fill-opacity="0.6"/>
<path d="M954.797 398L955.078 398.41L955.554 398.55L955.251 398.944L955.265 399.441L954.797 399.275L954.328 399.441L954.342 398.944L954.039 398.55L954.516 398.41L954.797 398Z" fill="white" fill-opacity="0.4"/>
<path d="M17.7764 846L18.0503 846.4L18.5149 846.537L18.2195 846.92L18.2328 847.405L17.7764 847.242L17.3201 847.405L17.3334 846.92L17.038 846.537L17.5026 846.4L17.7764 846Z" fill="white" fill-opacity="0.5"/>
<path d="M152.375 784L152.861 784.708L153.684 784.95L153.16 785.631L153.184 786.488L152.375 786.201L151.567 786.488L151.591 785.631L151.067 784.95L151.89 784.708L152.375 784Z" fill="white" fill-opacity="0.4"/>
<path d="M876.381 397L876.868 397.711L877.695 397.954L877.17 398.637L877.193 399.499L876.381 399.21L875.569 399.499L875.593 398.637L875.068 397.954L875.894 397.711L876.381 397Z" fill="white" fill-opacity="0.5"/>
<path d="M18.9489 93L19.2836 93.4883L19.8514 93.6557L19.4904 94.1249L19.5067 94.7166L18.9489 94.5183L18.3912 94.7166L18.4074 94.1249L18.0464 93.6557L18.6143 93.4883L18.9489 93Z" fill="white" fill-opacity="0.4"/>
<path d="M1131.54 789L1131.73 789.277L1132.05 789.373L1131.85 789.639L1131.86 789.975L1131.54 789.863L1131.22 789.975L1131.23 789.639L1131.03 789.373L1131.35 789.277L1131.54 789Z" fill="white" fill-opacity="0.3"/>
<path d="M673.688 8L673.931 8.35414L674.343 8.47554L674.081 8.81581L674.093 9.24498L673.688 9.10113L673.284 9.24498L673.295 8.81581L673.034 8.47554L673.445 8.35414L673.688 8Z" fill="white" fill-opacity="0.3"/>
<path d="M278.485 622L279.009 622.764L279.898 623.026L279.333 623.76L279.358 624.687L278.485 624.376L277.612 624.687L277.638 623.76L277.073 623.026L277.961 622.764L278.485 622Z" fill="white" fill-opacity="0.4"/>
<path d="M1141.37 560L1141.85 560.704L1142.67 560.946L1142.15 561.623L1142.17 562.476L1141.37 562.19L1140.56 562.476L1140.59 561.623L1140.07 560.946L1140.89 560.704L1141.37 560Z" fill="white" fill-opacity="0.4"/>
<path d="M924.994 329L925.345 329.512L925.939 329.687L925.561 330.178L925.578 330.798L924.994 330.59L924.41 330.798L924.427 330.178L924.049 329.687L924.643 329.512L924.994 329Z" fill="white" fill-opacity="0.4"/>
<path d="M21.9066 244L22.2263 244.467L22.7689 244.626L22.424 245.075L22.4395 245.64L21.9066 245.451L21.3737 245.64L21.3893 245.075L21.0444 244.626L21.5869 244.467L21.9066 244Z" fill="white" fill-opacity="0.3"/>
<path d="M535.069 88L535.447 88.5503L536.086 88.7389L535.68 89.2677L535.698 89.9345L535.069 89.711L534.441 89.9345L534.459 89.2677L534.052 88.7389L534.692 88.5503L535.069 88Z" fill="white" fill-opacity="0.4"/>
<path d="M967.362 834L967.842 834.701L968.657 834.941L968.139 835.614L968.163 836.464L967.362 836.179L966.561 836.464L966.585 835.614L966.067 834.941L966.882 834.701L967.362 834Z" fill="white" fill-opacity="0.4"/>
<path d="M1108.85 163L1109.15 163.438L1109.66 163.587L1109.34 164.008L1109.35 164.538L1108.85 164.36L1108.35 164.538L1108.37 164.008L1108.04 163.587L1108.55 163.438L1108.85 163Z" fill="white" fill-opacity="0.5"/>
<path d="M126.995 879L127.346 879.512L127.941 879.688L127.563 880.18L127.58 880.8L126.995 880.592L126.41 880.8L126.427 880.18L126.049 879.688L126.644 879.512L126.995 879Z" fill="white" fill-opacity="0.5"/>
<path d="M367.581 181L367.786 181.299L368.134 181.402L367.913 181.689L367.923 182.051L367.581 181.93L367.24 182.051L367.25 181.689L367.028 181.402L367.376 181.299L367.581 181Z" fill="white" fill-opacity="0.3"/>
<path d="M1095.31 6L1095.78 6.67559L1096.56 6.90717L1096.06 7.55628L1096.08 8.375L1095.31 8.10058L1094.54 8.375L1094.56 7.55628L1094.06 6.90717L1094.85 6.67559L1095.31 6Z" fill="white" fill-opacity="0.3"/>
<path d="M363.294 408L363.75 408.666L364.524 408.894L364.032 409.533L364.054 410.34L363.294 410.07L362.533 410.34L362.555 409.533L362.063 408.894L362.837 408.666L363.294 408Z" fill="white" fill-opacity="0.5"/>
<path d="M825.467 397L825.985 397.755L826.863 398.014L826.305 398.739L826.33 399.655L825.467 399.348L824.605 399.655L824.63 398.739L824.072 398.014L824.95 397.755L825.467 397Z" fill="white" fill-opacity="0.3"/>
<path d="M1128.49 40L1129.01 40.7664L1129.91 41.0291L1129.34 41.7654L1129.36 42.6942L1128.49 42.3829L1127.61 42.6942L1127.64 41.7654L1127.07 41.0291L1127.96 40.7664L1128.49 40Z" fill="white" fill-opacity="0.5"/>
<path d="M971.514 838L971.695 838.264L972.002 838.355L971.807 838.609L971.816 838.929L971.514 838.822L971.212 838.929L971.221 838.609L971.025 838.355L971.333 838.264L971.514 838Z" fill="white" fill-opacity="0.6"/>
<path d="M1205.41 30L1205.91 30.7262L1206.75 30.9751L1206.22 31.6728L1206.24 32.5528L1205.41 32.2578L1204.58 32.5528L1204.61 31.6728L1204.07 30.9751L1204.91 30.7262L1205.41 30Z" fill="white" fill-opacity="0.5"/>
<path d="M975.398 474L975.891 474.719L976.727 474.966L976.196 475.657L976.22 476.529L975.398 476.237L974.576 476.529L974.6 475.657L974.068 474.966L974.905 474.719L975.398 474Z" fill="white" fill-opacity="0.5"/>
<path d="M1338.79 512L1339.07 512.408L1339.55 512.547L1339.24 512.939L1339.26 513.433L1338.79 513.268L1338.33 513.433L1338.34 512.939L1338.04 512.547L1338.51 512.408L1338.79 512Z" fill="white" fill-opacity="0.5"/>
<path d="M1030.27 492L1030.72 492.654L1031.48 492.878L1031 493.507L1031.02 494.3L1030.27 494.034L1029.52 494.3L1029.55 493.507L1029.06 492.878L1029.82 492.654L1030.27 492Z" fill="white" fill-opacity="0.6"/>
<path d="M446.071 444L446.449 444.551L447.091 444.74L446.683 445.27L446.701 445.938L446.071 445.714L445.442 445.938L445.46 445.27L445.052 444.74L445.694 444.551L446.071 444Z" fill="white" fill-opacity="0.5"/>
<path d="M1038.11 98L1038.5 98.5693L1039.16 98.7644L1038.74 99.3114L1038.76 100.001L1038.11 99.77L1037.46 100.001L1037.47 99.3114L1037.05 98.7644L1037.72 98.5693L1038.11 98Z" fill="white" fill-opacity="0.5"/>
<path d="M1429.98 104L1430.32 104.504L1430.91 104.676L1430.54 105.16L1430.55 105.77L1429.98 105.566L1429.4 105.77L1429.42 105.16L1429.05 104.676L1429.63 104.504L1429.98 104Z" fill="white" fill-opacity="0.4"/>
<path d="M776.117 891L776.512 891.575L777.18 891.772L776.755 892.325L776.774 893.021L776.117 892.788L775.461 893.021L775.48 892.325L775.055 891.772L775.723 891.575L776.117 891Z" fill="white" fill-opacity="0.4"/>
<path d="M639.628 215L639.85 215.323L640.226 215.434L639.987 215.745L639.998 216.137L639.628 216.005L639.259 216.137L639.27 215.745L639.031 215.434L639.407 215.323L639.628 215Z" fill="white" fill-opacity="0.6"/>
<path d="M1437.89 10L1438.2 10.4581L1438.74 10.6152L1438.4 11.0554L1438.41 11.6106L1437.89 11.4245L1437.37 11.6106L1437.38 11.0554L1437.04 10.6152L1437.58 10.4581L1437.89 10Z" fill="white" fill-opacity="0.4"/>
<path d="M754.091 210L754.475 210.561L755.128 210.754L754.713 211.293L754.732 211.973L754.091 211.745L753.45 211.973L753.468 211.293L753.053 210.754L753.706 210.561L754.091 210Z" fill="white" fill-opacity="0.5"/>
<path d="M160.561 159L160.759 159.289L161.095 159.388L160.882 159.665L160.891 160.015L160.561 159.898L160.231 160.015L160.241 159.665L160.027 159.388L160.363 159.289L160.561 159Z" fill="white" fill-opacity="0.6"/>
<path d="M548.798 6L549.079 6.41043L549.556 6.55112L549.253 6.94548L549.266 7.44286L548.798 7.27615L548.329 7.44286L548.342 6.94548L548.039 6.55112L548.516 6.41043L548.798 6Z" fill="white" fill-opacity="0.5"/>
<path d="M16.0064 309L16.3613 309.518L16.9635 309.695L16.5806 310.193L16.5979 310.821L16.0064 310.61L15.4148 310.821L15.4321 310.193L15.0493 309.695L15.6515 309.518L16.0064 309Z" fill="white" fill-opacity="0.4"/>
<path d="M1381.62 699L1381.84 699.319L1382.21 699.428L1381.97 699.735L1381.98 700.121L1381.62 699.992L1381.26 700.121L1381.27 699.735L1381.03 699.428L1381.4 699.319L1381.62 699Z" fill="white" fill-opacity="0.4"/>
<path d="M329.602 752L329.814 752.31L330.174 752.416L329.945 752.713L329.955 753.089L329.602 752.963L329.248 753.089L329.258 752.713L329.029 752.416L329.39 752.31L329.602 752Z" fill="white" fill-opacity="0.4"/>
<path d="M181.484 742L182.007 742.763L182.895 743.025L182.33 743.759L182.356 744.684L181.484 744.374L180.612 744.684L180.637 743.759L180.073 743.025L180.96 742.763L181.484 742Z" fill="white" fill-opacity="0.5"/>
<path d="M73.8146 794L74.1019 794.419L74.5894 794.563L74.2795 794.966L74.2934 795.474L73.8146 795.303L73.3358 795.474L73.3498 794.966L73.0399 794.563L73.5273 794.419L73.8146 794Z" fill="white" fill-opacity="0.4"/>
<path d="M1219.79 462L1220.07 462.408L1220.55 462.547L1220.24 462.939L1220.26 463.433L1219.79 463.267L1219.33 463.433L1219.34 462.939L1219.04 462.547L1219.51 462.408L1219.79 462Z" fill="white" fill-opacity="0.5"/>
<path d="M1372.77 152L1373.04 152.394L1373.49 152.529L1373.2 152.908L1373.22 153.385L1372.77 153.225L1372.32 153.385L1372.33 152.908L1372.04 152.529L1372.5 152.394L1372.77 152Z" fill="white" fill-opacity="0.3"/>
<path d="M1350.83 48L1351.13 48.4297L1351.63 48.577L1351.31 48.9898L1351.33 49.5105L1350.83 49.336L1350.34 49.5105L1350.36 48.9898L1350.04 48.577L1350.54 48.4297L1350.83 48Z" fill="white" fill-opacity="0.3"/>
<path d="M19.8391 212L20.1351 212.432L20.6372 212.58L20.318 212.995L20.3323 213.518L19.8391 213.343L19.3459 213.518L19.3603 212.995L19.0411 212.58L19.5432 212.432L19.8391 212Z" fill="white" fill-opacity="0.6"/>
<path d="M836.545 567L836.737 567.281L837.064 567.377L836.856 567.646L836.866 567.986L836.545 567.872L836.225 567.986L836.234 567.646L836.027 567.377L836.353 567.281L836.545 567Z" fill="white" fill-opacity="0.5"/>
<path d="M727.724 313L727.979 313.372L728.412 313.5L728.137 313.858L728.149 314.31L727.724 314.158L727.298 314.31L727.311 313.858L727.035 313.5L727.469 313.372L727.724 313Z" fill="white" fill-opacity="0.4"/>
<path d="M1381.3 434L1381.75 434.667L1382.53 434.895L1382.04 435.536L1382.06 436.344L1381.3 436.073L1380.53 436.344L1380.56 435.536L1380.06 434.895L1380.84 434.667L1381.3 434Z" fill="white" fill-opacity="0.4"/>
<path d="M466.997 399L467.349 399.513L467.946 399.689L467.567 400.182L467.584 400.804L466.997 400.596L466.411 400.804L466.428 400.182L466.049 399.689L466.646 399.513L466.997 399Z" fill="white" fill-opacity="0.5"/>
<path d="M626.647 723L626.875 723.333L627.262 723.447L627.016 723.767L627.027 724.171L626.647 724.035L626.267 724.171L626.278 723.767L626.032 723.447L626.419 723.333L626.647 723Z" fill="white" fill-opacity="0.6"/>
<path d="M289.553 316L289.747 316.284L290.078 316.382L289.868 316.655L289.877 317L289.553 316.884L289.228 317L289.237 316.655L289.027 316.382L289.358 316.284L289.553 316Z" fill="white" fill-opacity="0.6"/>
<path d="M569.804 254L570.088 254.414L570.569 254.556L570.263 254.953L570.277 255.455L569.804 255.287L569.331 255.455L569.345 254.953L569.039 254.556L569.521 254.414L569.804 254Z" fill="white" fill-opacity="0.5"/>
<path d="M464.524 110L464.709 110.27L465.023 110.362L464.824 110.622L464.833 110.949L464.524 110.839L464.216 110.949L464.225 110.622L464.026 110.362L464.339 110.27L464.524 110Z" fill="white" fill-opacity="0.3"/>
<path d="M877.998 143L878.35 143.513L878.947 143.689L878.567 144.183L878.584 144.805L877.998 144.596L877.411 144.805L877.428 144.183L877.049 143.689L877.646 143.513L877.998 143Z" fill="white" fill-opacity="0.6"/>
<path d="M931.875 202L932.184 202.45L932.707 202.605L932.374 203.037L932.389 203.583L931.875 203.4L931.361 203.583L931.376 203.037L931.043 202.605L931.566 202.45L931.875 202Z" fill="white" fill-opacity="0.4"/>
<path d="M1113.36 753L1113.83 753.697L1114.64 753.936L1114.13 754.607L1114.15 755.452L1113.36 755.168L1112.56 755.452L1112.58 754.607L1112.07 753.936L1112.88 753.697L1113.36 753Z" fill="white" fill-opacity="0.4"/>
<path d="M1163.02 259L1163.38 259.526L1163.99 259.706L1163.6 260.211L1163.62 260.848L1163.02 260.635L1162.42 260.848L1162.44 260.211L1162.05 259.706L1162.66 259.526L1163.02 259Z" fill="white" fill-opacity="0.4"/>
<path d="M522.198 420L522.62 420.616L523.336 420.827L522.881 421.42L522.901 422.166L522.198 421.916L521.494 422.166L521.514 421.42L521.059 420.827L521.775 420.616L522.198 420Z" fill="white" fill-opacity="0.4"/>
<path d="M86.8969 285L87.2132 285.462L87.7499 285.62L87.4087 286.063L87.4241 286.623L86.8969 286.435L86.3697 286.623L86.3851 286.063L86.0439 285.62L86.5806 285.462L86.8969 285Z" fill="white" fill-opacity="0.6"/>
<path d="M1143.51 35L1143.69 35.2636L1144 35.354L1143.8 35.6072L1143.81 35.9267L1143.51 35.8196L1143.21 35.9267L1143.22 35.6072L1143.03 35.354L1143.33 35.2636L1143.51 35Z" fill="white" fill-opacity="0.4"/>
<path d="M958.701 717L958.948 717.361L959.368 717.484L959.101 717.831L959.113 718.268L958.701 718.121L958.289 718.268L958.301 717.831L958.034 717.484L958.454 717.361L958.701 717Z" fill="white" fill-opacity="0.5"/>
<path d="M225.563 36L225.761 36.2895L226.098 36.3888L225.884 36.667L225.893 37.0179L225.563 36.9003L225.232 37.0179L225.242 36.667L225.028 36.3888L225.364 36.2895L225.563 36Z" fill="white" fill-opacity="0.6"/>
<path d="M832.406 643L832.901 643.723L833.742 643.971L833.208 644.666L833.232 645.543L832.406 645.249L831.579 645.543L831.604 644.666L831.069 643.971L831.91 643.723L832.406 643Z" fill="white" fill-opacity="0.5"/>
<path d="M960.306 83L960.766 83.6719L961.547 83.9022L961.051 84.5478L961.073 85.362L960.306 85.0891L959.538 85.362L959.561 84.5478L959.064 83.9022L959.845 83.6719L960.306 83Z" fill="white" fill-opacity="0.5"/>
<path d="M380.781 280L381.056 280.402L381.523 280.539L381.226 280.925L381.239 281.412L380.781 281.249L380.322 281.412L380.335 280.925L380.038 280.539L380.505 280.402L380.781 280Z" fill="white" fill-opacity="0.6"/>
<path d="M907.216 7L907.645 7.62596L908.373 7.84052L907.911 8.44195L907.931 9.20052L907.216 8.94627L906.501 9.20052L906.522 8.44195L906.06 7.84052L906.787 7.62596L907.216 7Z" fill="white" fill-opacity="0.6"/>
<path d="M583.546 138L583.738 138.281L584.065 138.377L583.857 138.647L583.867 138.988L583.546 138.873L583.225 138.988L583.234 138.647L583.027 138.377L583.353 138.281L583.546 138Z" fill="white" fill-opacity="0.4"/>
<path d="M685.835 798L686.13 798.43L686.629 798.577L686.312 798.99L686.326 799.511L685.835 799.336L685.344 799.511L685.359 798.99L685.041 798.577L685.541 798.43L685.835 798Z" fill="white" fill-opacity="0.6"/>
<path d="M215.261 869L215.706 869.649L216.461 869.871L215.981 870.495L216.003 871.282L215.261 871.018L214.52 871.282L214.542 870.495L214.062 869.871L214.816 869.649L215.261 869Z" fill="white" fill-opacity="0.6"/>
<path d="M1417.28 590L1417.74 590.66L1418.5 590.887L1418.02 591.521L1418.04 592.322L1417.28 592.053L1416.53 592.322L1416.55 591.521L1416.06 590.887L1416.83 590.66L1417.28 590Z" fill="white" fill-opacity="0.5"/>
<path d="M1026.66 363L1026.9 363.342L1027.3 363.459L1027.04 363.788L1027.06 364.203L1026.66 364.064L1026.27 364.203L1026.29 363.788L1026.03 363.459L1026.43 363.342L1026.66 363Z" fill="white" fill-opacity="0.5"/>
<path d="M54.593 732L54.8021 732.305L55.1569 732.41L54.9313 732.703L54.9415 733.073L54.593 732.949L54.2444 733.073L54.2546 732.703L54.029 732.41L54.3838 732.305L54.593 732Z" fill="white" fill-opacity="0.5"/>
<path d="M1346.2 640L1346.62 640.616L1347.34 640.828L1346.88 641.42L1346.9 642.166L1346.2 641.916L1345.49 642.166L1345.51 641.42L1345.06 640.828L1345.78 640.616L1346.2 640Z" fill="white" fill-opacity="0.6"/>
<path d="M262.283 80L262.735 80.6601L263.503 80.8864L263.015 81.5207L263.037 82.3206L262.283 82.0525L261.529 82.3206L261.551 81.5207L261.063 80.8864L261.83 80.6601L262.283 80Z" fill="white" fill-opacity="0.5"/>
<path d="M1276.03 313L1276.4 313.532L1277.02 313.715L1276.62 314.226L1276.64 314.872L1276.03 314.655L1275.43 314.872L1275.44 314.226L1275.05 313.715L1275.67 313.532L1276.03 313Z" fill="white" fill-opacity="0.4"/>
<path d="M1229.52 32L1229.7 32.2654L1230.01 32.3563L1229.81 32.6113L1229.82 32.9329L1229.52 32.8251L1229.21 32.9329L1229.22 32.6113L1229.03 32.3563L1229.33 32.2654L1229.52 32Z" fill="white" fill-opacity="0.5"/>
<path d="M603.232 558L603.667 558.634L604.404 558.851L603.935 559.46L603.956 560.229L603.232 559.971L602.508 560.229L602.529 559.46L602.06 558.851L602.798 558.634L603.232 558Z" fill="white" fill-opacity="0.6"/>
<path d="M196.656 97L196.887 97.3376L197.28 97.4533L197.03 97.7776L197.042 98.1867L196.656 98.0496L196.27 98.1867L196.282 97.7776L196.032 97.4533L196.425 97.3376L196.656 97Z" fill="white" fill-opacity="0.4"/>
<path d="M783.594 697L783.803 697.306L784.159 697.41L783.933 697.704L783.943 698.074L783.594 697.95L783.245 698.074L783.255 697.704L783.029 697.41L783.384 697.306L783.594 697Z" fill="white" fill-opacity="0.3"/>
<path d="M317.517 402L317.7 402.266L318.01 402.358L317.813 402.613L317.822 402.936L317.517 402.828L317.213 402.936L317.222 402.613L317.025 402.358L317.335 402.266L317.517 402Z" fill="white" fill-opacity="0.5"/>
<path d="M1289.49 574L1290.01 574.764L1290.9 575.026L1290.33 575.761L1290.36 576.687L1289.49 576.377L1288.61 576.687L1288.64 575.761L1288.07 575.026L1288.96 574.764L1289.49 574Z" fill="white" fill-opacity="0.5"/>
<path d="M1395.68 617L1395.92 617.349L1396.32 617.469L1396.07 617.805L1396.08 618.228L1395.68 618.086L1395.28 618.228L1395.29 617.805L1395.03 617.469L1395.44 617.349L1395.68 617Z" fill="white" fill-opacity="0.6"/>
<path d="M6.47889 867L7.00046 867.761L7.8854 868.022L7.3228 868.753L7.34816 869.675L6.47889 869.366L5.60962 869.675L5.63499 868.753L5.07238 868.022L5.95733 867.761L6.47889 867Z" fill="white" fill-opacity="0.3"/>
<path d="M790.007 536L790.362 536.518L790.965 536.696L790.582 537.194L790.599 537.822L790.007 537.612L789.415 537.822L789.432 537.194L789.049 536.696L789.652 536.518L790.007 536Z" fill="white" fill-opacity="0.3"/>
<path d="M1022.6 516L1022.81 516.306L1023.16 516.412L1022.94 516.706L1022.95 517.077L1022.6 516.953L1022.25 517.077L1022.26 516.706L1022.03 516.412L1022.39 516.306L1022.6 516Z" fill="white" fill-opacity="0.4"/>
<path d="M1004.13 24L1004.53 24.5805L1005.2 24.7795L1004.77 25.3373L1004.79 26.0408L1004.13 25.805L1003.47 26.0408L1003.48 25.3373L1003.06 24.7795L1003.73 24.5805L1004.13 24Z" fill="white" fill-opacity="0.3"/>
<path d="M1168.33 712L1168.8 712.686L1169.6 712.921L1169.09 713.58L1169.12 714.412L1168.33 714.133L1167.55 714.412L1167.57 713.58L1167.07 712.921L1167.86 712.686L1168.33 712Z" fill="white" fill-opacity="0.4"/>
<path d="M519.491 698L520.016 698.767L520.908 699.03L520.341 699.767L520.367 700.696L519.491 700.385L518.614 700.696L518.64 699.767L518.073 699.03L518.965 698.767L519.491 698Z" fill="white" fill-opacity="0.6"/>
<path d="M1436.16 571L1436.57 571.598L1437.27 571.803L1436.83 572.378L1436.85 573.102L1436.16 572.859L1435.48 573.102L1435.5 572.378L1435.06 571.803L1435.75 571.598L1436.16 571Z" fill="white" fill-opacity="0.4"/>
<path d="M954.078 633L954.458 633.555L955.103 633.745L954.693 634.278L954.711 634.95L954.078 634.725L953.444 634.95L953.463 634.278L953.053 633.745L953.698 633.555L954.078 633Z" fill="white" fill-opacity="0.4"/>
<path d="M581.497 154L582.025 154.77L582.921 155.034L582.351 155.775L582.377 156.708L581.497 156.395L580.617 156.708L580.643 155.775L580.073 155.034L580.969 154.77L581.497 154Z" fill="white" fill-opacity="0.6"/>
<path d="M710.864 534L711.169 534.445L711.686 534.597L711.358 535.025L711.372 535.564L710.864 535.383L710.356 535.564L710.371 535.025L710.042 534.597L710.56 534.445L710.864 534Z" fill="white" fill-opacity="0.5"/>
<path d="M1123.94 169L1124.27 169.484L1124.83 169.65L1124.48 170.115L1124.49 170.701L1123.94 170.505L1123.39 170.701L1123.4 170.115L1123.05 169.65L1123.61 169.484L1123.94 169Z" fill="white" fill-opacity="0.4"/>
<path d="M1091.02 448L1091.38 448.524L1091.99 448.703L1091.6 449.207L1091.62 449.842L1091.02 449.629L1090.42 449.842L1090.44 449.207L1090.05 448.703L1090.66 448.524L1091.02 448Z" fill="white" fill-opacity="0.5"/>
<path d="M181.19 726L181.609 726.612L182.321 726.822L181.868 727.41L181.889 728.152L181.19 727.903L180.49 728.152L180.511 727.41L180.058 726.822L180.77 726.612L181.19 726Z" fill="white" fill-opacity="0.5"/>
<path d="M1091.47 542L1091.99 542.756L1092.87 543.015L1092.31 543.742L1092.33 544.658L1091.47 544.351L1090.61 544.658L1090.63 543.742L1090.07 543.015L1090.95 542.756L1091.47 542Z" fill="white" fill-opacity="0.4"/>
<path d="M346.842 450L347.139 450.433L347.642 450.582L347.322 450.998L347.337 451.523L346.842 451.347L346.347 451.523L346.361 450.998L346.041 450.582L346.545 450.433L346.842 450Z" fill="white" fill-opacity="0.4"/>
<path d="M961.041 202L961.408 202.536L962.031 202.719L961.635 203.234L961.653 203.883L961.041 203.666L960.429 203.883L960.447 203.234L960.051 202.719L960.674 202.536L961.041 202Z" fill="white" fill-opacity="0.3"/>
<path d="M1111.35 737L1111.82 737.693L1112.63 737.931L1112.12 738.597L1112.14 739.437L1111.35 739.155L1110.56 739.437L1110.58 738.597L1110.07 737.931L1110.87 737.693L1111.35 737Z" fill="white" fill-opacity="0.4"/>
<path d="M292.552 348L292.747 348.284L293.078 348.382L292.868 348.655L292.877 348.999L292.552 348.884L292.228 348.999L292.237 348.655L292.027 348.382L292.358 348.284L292.552 348Z" fill="white" fill-opacity="0.5"/>
<path d="M1340.6 418L1340.81 418.309L1341.17 418.415L1340.94 418.711L1340.95 419.085L1340.6 418.96L1340.25 419.085L1340.26 418.711L1340.03 418.415L1340.39 418.309L1340.6 418Z" fill="white" fill-opacity="0.3"/>
<path d="M1203.47 204L1203.99 204.756L1204.87 205.015L1204.31 205.741L1204.33 206.657L1203.47 206.35L1202.61 206.657L1202.63 205.741L1202.07 205.015L1202.95 204.756L1203.47 204Z" fill="white" fill-opacity="0.6"/>
<path d="M18.6945 559L18.9394 559.357L19.3549 559.48L19.0907 559.823L19.1027 560.256L18.6945 560.111L18.2863 560.256L18.2982 559.823L18.034 559.48L18.4495 559.357L18.6945 559Z" fill="white" fill-opacity="0.3"/>
<path d="M927.307 535L927.767 535.672L928.549 535.903L928.052 536.549L928.075 537.364L927.307 537.091L926.539 537.364L926.561 536.549L926.064 535.903L926.846 535.672L927.307 535Z" fill="white" fill-opacity="0.6"/>
<path d="M300.458 525L300.972 525.75L301.845 526.008L301.29 526.728L301.315 527.638L300.458 527.333L299.601 527.638L299.626 526.728L299.071 526.008L299.944 525.75L300.458 525Z" fill="white" fill-opacity="0.3"/>
<path d="M560.892 699L561.207 699.459L561.741 699.616L561.401 700.058L561.417 700.614L560.892 700.428L560.368 700.614L560.383 700.058L560.044 699.616L560.578 699.459L560.892 699Z" fill="white" fill-opacity="0.4"/>
<path d="M329.813 330L330.099 330.418L330.586 330.562L330.277 330.963L330.291 331.47L329.813 331.3L329.335 331.47L329.349 330.963L329.04 330.562L329.526 330.418L329.813 330Z" fill="white" fill-opacity="0.4"/>
<path d="M148.446 875L148.956 875.744L149.821 875.999L149.271 876.714L149.296 877.616L148.446 877.313L147.596 877.616L147.621 876.714L147.071 875.999L147.936 875.744L148.446 875Z" fill="white" fill-opacity="0.4"/>
<path d="M1111.83 736L1112.12 736.427L1112.62 736.573L1112.3 736.983L1112.32 737.5L1111.83 737.327L1111.34 737.5L1111.36 736.983L1111.04 736.573L1111.54 736.427L1111.83 736Z" fill="white" fill-opacity="0.5"/>
<path d="M1237.82 312L1238.11 312.422L1238.6 312.566L1238.29 312.971L1238.3 313.482L1237.82 313.311L1237.34 313.482L1237.35 312.971L1237.04 312.566L1237.53 312.422L1237.82 312Z" fill="white" fill-opacity="0.5"/>
<path d="M205.009 198L205.364 198.519L205.968 198.697L205.584 199.196L205.602 199.825L205.009 199.614L204.416 199.825L204.433 199.196L204.049 198.697L204.653 198.519L205.009 198Z" fill="white" fill-opacity="0.3"/>
<path d="M1046.25 285L1046.69 285.645L1047.44 285.866L1046.97 286.485L1046.99 287.266L1046.25 287.004L1045.52 287.266L1045.54 286.485L1045.06 285.866L1045.81 285.645L1046.25 285Z" fill="white" fill-opacity="0.5"/>
<path d="M499.66 844L499.893 844.34L500.288 844.456L500.037 844.783L500.049 845.195L499.66 845.057L499.272 845.195L499.284 844.783L499.032 844.456L499.427 844.34L499.66 844Z" fill="white" fill-opacity="0.6"/>
<path d="M883.499 854L884.028 854.772L884.925 855.036L884.355 855.777L884.381 856.712L883.499 856.399L882.618 856.712L882.644 855.777L882.073 855.036L882.971 854.772L883.499 854Z" fill="white" fill-opacity="0.5"/>
<path d="M663.256 157L663.699 157.646L664.45 157.868L663.972 158.489L663.994 159.272L663.256 159.009L662.518 159.272L662.539 158.489L662.061 157.868L662.813 157.646L663.256 157Z" fill="white" fill-opacity="0.4"/>
<path d="M179.366 227L179.848 227.703L180.665 227.944L180.146 228.619L180.169 229.471L179.366 229.186L178.563 229.471L178.587 228.619L178.067 227.944L178.884 227.703L179.366 227Z" fill="white" fill-opacity="0.6"/>
<path d="M181.246 6L181.686 6.64132L182.432 6.86115L181.957 7.47735L181.979 8.25453L181.246 7.99404L180.514 8.25453L180.535 7.47735L180.061 6.86115L180.807 6.64132L181.246 6Z" fill="white" fill-opacity="0.6"/>
<path d="M1276.62 375L1276.84 375.319L1277.21 375.429L1276.98 375.736L1276.99 376.123L1276.62 375.993L1276.26 376.123L1276.27 375.736L1276.03 375.429L1276.4 375.319L1276.62 375Z" fill="white" fill-opacity="0.6"/>
<path d="M928.415 402L928.914 402.728L929.761 402.978L929.223 403.677L929.247 404.56L928.415 404.264L927.583 404.56L927.608 403.677L927.069 402.978L927.916 402.728L928.415 402Z" fill="white" fill-opacity="0.4"/>
<path d="M43.1658 576L43.5769 576.6L44.2745 576.806L43.831 577.382L43.851 578.109L43.1658 577.865L42.4806 578.109L42.5006 577.382L42.0571 576.806L42.7547 576.6L43.1658 576Z" fill="white" fill-opacity="0.5"/>
<path d="M1112.3 234L1112.75 234.666L1113.53 234.895L1113.03 235.535L1113.06 236.343L1112.3 236.072L1111.53 236.343L1111.56 235.535L1111.06 234.895L1111.84 234.666L1112.3 234Z" fill="white" fill-opacity="0.5"/>
<path d="M396.657 642L396.888 642.338L397.282 642.454L397.032 642.779L397.043 643.188L396.657 643.051L396.271 643.188L396.282 642.779L396.032 642.454L396.425 642.338L396.657 642Z" fill="white" fill-opacity="0.6"/>
<path d="M515.559 122L515.756 122.287L516.09 122.386L515.878 122.662L515.887 123.011L515.559 122.894L515.23 123.011L515.24 122.662L515.027 122.386L515.362 122.287L515.559 122Z" fill="white" fill-opacity="0.4"/>
<path d="M112.386 891L112.874 891.713L113.704 891.958L113.176 892.643L113.2 893.507L112.386 893.217L111.571 893.507L111.595 892.643L111.068 891.958L111.897 891.713L112.386 891Z" fill="white" fill-opacity="0.5"/>
<path d="M1176.06 746L1176.43 746.545L1177.07 746.732L1176.66 747.255L1176.68 747.916L1176.06 747.695L1175.44 747.916L1175.45 747.255L1175.05 746.732L1175.69 746.545L1176.06 746Z" fill="white" fill-opacity="0.3"/>
<path d="M399.22 267L399.65 267.628L400.38 267.843L399.916 268.446L399.937 269.207L399.22 268.952L398.503 269.207L398.524 268.446L398.06 267.843L398.79 267.628L399.22 267Z" fill="white" fill-opacity="0.5"/>
<path d="M156.037 833L156.402 833.533L157.022 833.716L156.628 834.229L156.646 834.875L156.037 834.658L155.427 834.875L155.445 834.229L155.051 833.716L155.671 833.533L156.037 833Z" fill="white" fill-opacity="0.5"/>
<path d="M1233.52 571L1233.7 571.266L1234.01 571.357L1233.81 571.613L1233.82 571.935L1233.52 571.827L1233.21 571.935L1233.22 571.613L1233.03 571.357L1233.33 571.266L1233.52 571Z" fill="white" fill-opacity="0.5"/>
<path d="M219.003 287L219.357 287.516L219.957 287.693L219.575 288.189L219.593 288.814L219.003 288.605L218.413 288.814L218.431 288.189L218.049 287.693L218.649 287.516L219.003 287Z" fill="white" fill-opacity="0.5"/>
<path d="M530.43 99L530.934 99.7357L531.789 99.9879L531.246 100.695L531.27 101.586L530.43 101.288L529.589 101.586L529.614 100.695L529.07 99.9879L529.925 99.7357L530.43 99Z" fill="white" fill-opacity="0.6"/>
<path d="M695.137 16L695.538 16.585L696.218 16.7856L695.786 17.3477L695.805 18.0566L695.137 17.819L694.469 18.0566L694.488 17.3477L694.056 16.7856L694.736 16.585L695.137 16Z" fill="white" fill-opacity="0.5"/>
<path d="M1145.87 99L1146.18 99.4494L1146.7 99.6035L1146.37 100.035L1146.39 100.58L1145.87 100.397L1145.36 100.58L1145.37 100.035L1145.04 99.6035L1145.57 99.4494L1145.87 99Z" fill="white" fill-opacity="0.3"/>
<path d="M587.966 807L588.307 807.497L588.885 807.668L588.517 808.145L588.534 808.748L587.966 808.546L587.398 808.748L587.415 808.145L587.047 807.668L587.625 807.497L587.966 807Z" fill="white" fill-opacity="0.5"/>
<path d="M380.654 65L380.884 65.3364L381.275 65.4517L381.027 65.7748L381.038 66.1825L380.654 66.0458L380.269 66.1825L380.281 65.7748L380.032 65.4517L380.423 65.3364L380.654 65Z" fill="white" fill-opacity="0.4"/>
<path d="M484.306 528L484.766 528.672L485.548 528.902L485.051 529.548L485.073 530.362L484.306 530.089L483.538 530.362L483.561 529.548L483.064 528.902L483.845 528.672L484.306 528Z" fill="white" fill-opacity="0.4"/>
<path d="M259.226 115L259.658 115.631L260.391 115.847L259.925 116.453L259.946 117.217L259.226 116.961L258.505 117.217L258.526 116.453L258.06 115.847L258.793 115.631L259.226 115Z" fill="white" fill-opacity="0.5"/>
<path d="M215.469 167L215.988 167.756L216.867 168.015L216.308 168.742L216.333 169.658L215.469 169.351L214.606 169.658L214.631 168.742L214.072 168.015L214.951 167.756L215.469 167Z" fill="white" fill-opacity="0.5"/>
<path d="M1306.79 280L1307.07 280.406L1307.54 280.545L1307.24 280.935L1307.25 281.426L1306.79 281.262L1306.33 281.426L1306.34 280.935L1306.04 280.545L1306.51 280.406L1306.79 280Z" fill="white" fill-opacity="0.6"/>
<path d="M606.902 362L607.221 362.464L607.761 362.624L607.417 363.07L607.433 363.633L606.902 363.444L606.372 363.633L606.387 363.07L606.044 362.624L606.584 362.464L606.902 362Z" fill="white" fill-opacity="0.5"/>
<path d="M117.741 651L118.002 651.381L118.445 651.512L118.163 651.878L118.176 652.34L117.741 652.185L117.305 652.34L117.318 651.878L117.036 651.512L117.479 651.381L117.741 651Z" fill="white" fill-opacity="0.4"/>
<path d="M344.349 628L344.824 628.694L345.631 628.932L345.118 629.599L345.141 630.44L344.349 630.158L343.556 630.44L343.579 629.599L343.066 628.932L343.873 628.694L344.349 628Z" fill="white" fill-opacity="0.5"/>
<path d="M1438.75 484L1439.01 484.386L1439.46 484.518L1439.18 484.888L1439.19 485.355L1438.75 485.199L1438.31 485.355L1438.32 484.888L1438.04 484.518L1438.48 484.386L1438.75 484Z" fill="white" fill-opacity="0.5"/>
<path d="M1205.44 446L1205.94 446.739L1206.8 446.992L1206.26 447.702L1206.28 448.598L1205.44 448.297L1204.59 448.598L1204.62 447.702L1204.07 446.992L1204.93 446.739L1205.44 446Z" fill="white" fill-opacity="0.6"/>
<path d="M839.102 589L839.491 589.567L840.151 589.762L839.731 590.307L839.75 590.994L839.102 590.764L838.454 590.994L838.473 590.307L838.054 589.762L838.714 589.567L839.102 589Z" fill="white" fill-opacity="0.6"/>
<path d="M620.286 478L620.739 478.662L621.508 478.888L621.019 479.524L621.041 480.326L620.286 480.057L619.53 480.326L619.552 479.524L619.063 478.888L619.832 478.662L620.286 478Z" fill="white" fill-opacity="0.4"/>
<path d="M580.616 564L580.834 564.317L581.202 564.426L580.968 564.73L580.978 565.115L580.616 564.986L580.254 565.115L580.265 564.73L580.03 564.426L580.399 564.317L580.616 564Z" fill="white" fill-opacity="0.6"/>
<path d="M947.597 371L947.807 371.307L948.164 371.412L947.937 371.707L947.948 372.08L947.597 371.955L947.246 372.08L947.256 371.707L947.029 371.412L947.386 371.307L947.597 371Z" fill="white" fill-opacity="0.4"/>
<path d="M1439.36 878L1439.84 878.7L1440.66 878.94L1440.14 879.613L1440.16 880.462L1439.36 880.178L1438.56 880.462L1438.58 879.613L1438.07 878.94L1438.88 878.7L1439.36 878Z" fill="white" fill-opacity="0.4"/>
<path d="M623.289 850L623.744 850.663L624.515 850.891L624.024 851.528L624.047 852.332L623.289 852.062L622.531 852.332L622.553 851.528L622.063 850.891L622.834 850.663L623.289 850Z" fill="white" fill-opacity="0.6"/>
<path d="M1335.3 459L1335.75 459.667L1336.53 459.895L1336.03 460.536L1336.06 461.343L1335.3 461.073L1334.53 461.343L1334.56 460.536L1334.06 459.895L1334.84 459.667L1335.3 459Z" fill="white" fill-opacity="0.6"/>
<path d="M1023.71 544L1023.96 544.365L1024.39 544.491L1024.12 544.842L1024.13 545.284L1023.71 545.136L1023.29 545.284L1023.3 544.842L1023.03 544.491L1023.46 544.365L1023.71 544Z" fill="white" fill-opacity="0.4"/>
<path d="M433.929 365L434.257 365.478L434.812 365.642L434.459 366.101L434.475 366.681L433.929 366.486L433.383 366.681L433.399 366.101L433.045 365.642L433.601 365.478L433.929 365Z" fill="white" fill-opacity="0.5"/>
<path d="M659.234 762L659.669 762.635L660.408 762.853L659.938 763.463L659.96 764.233L659.234 763.975L658.509 764.233L658.53 763.463L658.06 762.853L658.799 762.635L659.234 762Z" fill="white" fill-opacity="0.5"/>
<path d="M520.598 771L520.809 771.308L521.167 771.413L520.94 771.709L520.95 772.082L520.598 771.957L520.247 772.082L520.257 771.709L520.029 771.413L520.387 771.308L520.598 771Z" fill="white" fill-opacity="0.5"/>
<path d="M1143.86 471L1144.16 471.442L1144.68 471.594L1144.35 472.019L1144.36 472.555L1143.86 472.375L1143.35 472.555L1143.37 472.019L1143.04 471.594L1143.56 471.442L1143.86 471Z" fill="white" fill-opacity="0.3"/>
<path d="M80.0483 758L80.418 758.539L81.0453 758.724L80.6465 759.243L80.6645 759.896L80.0483 759.677L79.4321 759.896L79.4501 759.243L79.0513 758.724L79.6786 758.539L80.0483 758Z" fill="white" fill-opacity="0.5"/>
<path d="M1342.93 270L1343.25 270.476L1343.81 270.64L1343.45 271.097L1343.47 271.674L1342.93 271.481L1342.38 271.674L1342.4 271.097L1342.05 270.64L1342.6 270.476L1342.93 270Z" fill="white" fill-opacity="0.4"/>
<path d="M11.182 551L11.5988 551.608L12.3061 551.817L11.8565 552.401L11.8767 553.138L11.182 552.891L10.4872 553.138L10.5075 552.401L10.0579 551.817L10.7651 551.608L11.182 551Z" fill="white" fill-opacity="0.4"/>
<path d="M1114.68 2L1114.93 2.35192L1115.33 2.47255L1115.07 2.81068L1115.09 3.23715L1114.68 3.09421L1114.28 3.23715L1114.29 2.81068L1114.03 2.47255L1114.44 2.35192L1114.68 2Z" fill="white" fill-opacity="0.5"/>
<path d="M639.009 459L639.364 459.519L639.968 459.697L639.584 460.196L639.602 460.825L639.009 460.614L638.416 460.825L638.433 460.196L638.049 459.697L638.653 459.519L639.009 459Z" fill="white" fill-opacity="0.5"/>
<path d="M1306.37 512L1306.85 512.703L1307.66 512.944L1307.15 513.619L1307.17 514.471L1306.37 514.185L1305.56 514.471L1305.59 513.619L1305.07 512.944L1305.88 512.703L1306.37 512Z" fill="white" fill-opacity="0.4"/>
<path d="M370.042 530L370.41 530.536L371.033 530.72L370.637 531.235L370.655 531.885L370.042 531.667L369.43 531.885L369.447 531.235L369.051 530.72L369.675 530.536L370.042 530Z" fill="white" fill-opacity="0.3"/>
<path d="M1281.02 798L1281.38 798.527L1282 798.707L1281.61 799.213L1281.62 799.851L1281.02 799.637L1280.42 799.851L1280.44 799.213L1280.05 798.707L1280.66 798.527L1281.02 798Z" fill="white" fill-opacity="0.5"/>
<path d="M801.37 444L801.854 444.705L802.674 444.947L802.152 445.624L802.176 446.479L801.37 446.193L800.565 446.479L800.588 445.624L800.067 444.947L800.887 444.705L801.37 444Z" fill="white" fill-opacity="0.4"/>
<path d="M300.753 137L301.019 137.388L301.47 137.521L301.183 137.893L301.196 138.363L300.753 138.205L300.311 138.363L300.323 137.893L300.037 137.521L300.488 137.388L300.753 137Z" fill="white" fill-opacity="0.5"/>
<path d="M1389.69 746L1389.93 746.354L1390.34 746.475L1390.08 746.814L1390.09 747.243L1389.69 747.099L1389.28 747.243L1389.29 746.814L1389.03 746.475L1389.44 746.354L1389.69 746Z" fill="white" fill-opacity="0.5"/>
<path d="M974.623 416L974.843 416.321L975.216 416.431L974.979 416.739L974.99 417.128L974.623 416.998L974.257 417.128L974.268 416.739L974.031 416.431L974.404 416.321L974.623 416Z" fill="white" fill-opacity="0.4"/>
<path d="M383.8 368L384.082 368.411L384.56 368.553L384.256 368.948L384.27 369.447L383.8 369.279L383.33 369.447L383.343 368.948L383.039 368.553L383.518 368.411L383.8 368Z" fill="white" fill-opacity="0.5"/>
<path d="M16.0099 18L16.3661 18.5197L16.9704 18.6978L16.5862 19.1972L16.6035 19.8269L16.0099 19.6159L15.4163 19.8269L15.4336 19.1972L15.0494 18.6978L15.6537 18.5197L16.0099 18Z" fill="white" fill-opacity="0.3"/>
<path d="M1222.2 495L1222.63 495.62L1223.35 495.833L1222.89 496.428L1222.91 497.18L1222.2 496.928L1221.5 497.18L1221.52 496.428L1221.06 495.833L1221.78 495.62L1222.2 495Z" fill="white" fill-opacity="0.5"/>
<path d="M976.091 421L976.476 421.561L977.128 421.754L976.713 422.293L976.732 422.973L976.091 422.745L975.45 422.973L975.468 422.293L975.053 421.754L975.706 421.561L976.091 421Z" fill="white" fill-opacity="0.4"/>
<path d="M665.19 611L665.61 611.613L666.322 611.822L665.87 612.411L665.89 613.153L665.19 612.904L664.491 613.153L664.511 612.411L664.058 611.822L664.771 611.613L665.19 611Z" fill="white" fill-opacity="0.4"/>
<path d="M987.693 487L987.937 487.356L988.352 487.479L988.088 487.821L988.1 488.253L987.693 488.108L987.286 488.253L987.297 487.821L987.034 487.479L987.448 487.356L987.693 487Z" fill="white" fill-opacity="0.5"/>
<path d="M1186.32 104L1186.78 104.679L1187.57 104.912L1187.07 105.564L1187.1 106.387L1186.32 106.111L1185.54 106.387L1185.57 105.564L1185.06 104.912L1185.85 104.679L1186.32 104Z" fill="white" fill-opacity="0.5"/>
<path d="M846.433 825L846.938 825.737L847.795 825.99L847.25 826.698L847.275 827.592L846.433 827.292L845.591 827.592L845.615 826.698L845.07 825.99L845.927 825.737L846.433 825Z" fill="white" fill-opacity="0.5"/>
<path d="M1424.7 494L1424.95 494.361L1425.37 494.484L1425.1 494.831L1425.11 495.268L1424.7 495.121L1424.29 495.268L1424.3 494.831L1424.03 494.484L1424.45 494.361L1424.7 494Z" fill="white" fill-opacity="0.4"/>
<path d="M15.7276 842L15.9842 842.374L16.4196 842.503L16.1428 842.862L16.1553 843.316L15.7276 843.164L15.2999 843.316L15.3124 842.862L15.0356 842.503L15.471 842.374L15.7276 842Z" fill="white" fill-opacity="0.3"/>
<path d="M1171.63 720L1171.85 720.322L1172.22 720.432L1171.98 720.742L1171.99 721.132L1171.63 721.001L1171.26 721.132L1171.27 720.742L1171.03 720.432L1171.4 720.322L1171.63 720Z" fill="white" fill-opacity="0.5"/>
<path d="M100.659 769L100.892 769.339L101.287 769.456L101.036 769.782L101.047 770.193L100.659 770.055L100.272 770.193L100.283 769.782L100.032 769.456L100.427 769.339L100.659 769Z" fill="white" fill-opacity="0.3"/>
<path d="M297.235 74L297.671 74.6356L298.41 74.8534L297.94 75.4641L297.961 76.2343L297.235 75.9761L296.509 76.2343L296.53 75.4641L296.06 74.8534L296.8 74.6356L297.235 74Z" fill="white" fill-opacity="0.3"/>
<path d="M672.866 654L673.172 654.446L673.69 654.599L673.361 655.027L673.375 655.567L672.866 655.386L672.357 655.567L672.372 655.027L672.042 654.599L672.561 654.446L672.866 654Z" fill="white" fill-opacity="0.5"/>
<path d="M186.77 318L187.042 318.396L187.503 318.532L187.21 318.913L187.223 319.393L186.77 319.232L186.317 319.393L186.331 318.913L186.038 318.532L186.499 318.396L186.77 318Z" fill="white" fill-opacity="0.3"/>
<path d="M73.8173 887L74.1055 887.421L74.5946 887.565L74.2837 887.969L74.2977 888.478L73.8173 888.308L73.3369 888.478L73.3509 887.969L73.04 887.565L73.5291 887.421L73.8173 887Z" fill="white" fill-opacity="0.5"/>
<path d="M893.847 14L894.145 14.4357L894.652 14.5851L894.33 15.0037L894.344 15.5317L893.847 15.3547L893.349 15.5317L893.364 15.0037L893.041 14.5851L893.548 14.4357L893.847 14Z" fill="white" fill-opacity="0.5"/>
<path d="M83.096 857L83.4826 857.564L84.1384 857.757L83.7215 858.299L83.7403 858.983L83.096 858.754L82.4518 858.983L82.4706 858.299L82.0536 857.757L82.7095 857.564L83.096 857Z" fill="white" fill-opacity="0.5"/>
<path d="M1205.46 452L1205.97 452.751L1206.85 453.008L1206.29 453.73L1206.32 454.64L1205.46 454.335L1204.6 454.64L1204.63 453.73L1204.07 453.008L1204.94 452.751L1205.46 452Z" fill="white" fill-opacity="0.4"/>
<path d="M207.934 501L208.263 501.481L208.822 501.645L208.467 502.107L208.483 502.69L207.934 502.494L207.385 502.69L207.401 502.107L207.046 501.645L207.605 501.481L207.934 501Z" fill="white" fill-opacity="0.5"/>
<path d="M785.147 507L785.551 507.59L786.237 507.792L785.801 508.359L785.82 509.074L785.147 508.834L784.473 509.074L784.492 508.359L784.056 507.792L784.742 507.59L785.147 507Z" fill="white" fill-opacity="0.5"/>
<path d="M1379.68 207L1379.92 207.35L1380.33 207.47L1380.07 207.806L1380.08 208.23L1379.68 208.088L1379.28 208.23L1379.29 207.806L1379.03 207.47L1379.44 207.35L1379.68 207Z" fill="white" fill-opacity="0.5"/>
<path d="M896.119 847L896.513 847.576L897.182 847.773L896.757 848.326L896.776 849.023L896.119 848.79L895.461 849.023L895.48 848.326L895.055 847.773L895.724 847.576L896.119 847Z" fill="white" fill-opacity="0.3"/>
<path d="M857.91 661L858.232 661.469L858.776 661.629L858.43 662.079L858.446 662.647L857.91 662.457L857.375 662.647L857.391 662.079L857.045 661.629L857.589 661.469L857.91 661Z" fill="white" fill-opacity="0.6"/>
<path d="M160.253 440L160.695 440.645L161.444 440.866L160.968 441.485L160.989 442.266L160.253 442.004L159.516 442.266L159.538 441.485L159.061 440.866L159.811 440.645L160.253 440Z" fill="white" fill-opacity="0.4"/>
<path d="M868.072 778L868.449 778.551L869.091 778.74L868.683 779.27L868.701 779.938L868.072 779.714L867.442 779.938L867.46 779.27L867.052 778.74L867.694 778.551L868.072 778Z" fill="white" fill-opacity="0.3"/>
<path d="M930.072 210L930.451 210.552L931.092 210.741L930.684 211.271L930.703 211.94L930.072 211.716L929.442 211.94L929.46 211.271L929.052 210.741L929.694 210.552L930.072 210Z" fill="white" fill-opacity="0.4"/>
<path d="M795.708 438L795.957 438.364L796.381 438.489L796.112 438.839L796.124 439.28L795.708 439.132L795.292 439.28L795.304 438.839L795.035 438.489L795.458 438.364L795.708 438Z" fill="white" fill-opacity="0.4"/>
<path d="M1148.38 449L1148.87 449.71L1149.69 449.954L1149.17 450.636L1149.19 451.497L1148.38 451.209L1147.57 451.497L1147.59 450.636L1147.07 449.954L1147.89 449.71L1148.38 449Z" fill="white" fill-opacity="0.6"/>
<path d="M1132.03 899L1132.4 899.532L1133.02 899.714L1132.62 900.225L1132.64 900.869L1132.03 900.653L1131.43 900.869L1131.44 900.225L1131.05 899.714L1131.67 899.532L1132.03 899Z" fill="white" fill-opacity="0.5"/>
<path d="M1252.66 571L1252.89 571.34L1253.29 571.456L1253.04 571.783L1253.05 572.195L1252.66 572.057L1252.27 572.195L1252.28 571.783L1252.03 571.456L1252.43 571.34L1252.66 571Z" fill="white" fill-opacity="0.5"/>
<path d="M865.524 109L865.709 109.27L866.023 109.362L865.824 109.622L865.833 109.949L865.524 109.839L865.216 109.949L865.225 109.622L865.026 109.362L865.339 109.27L865.524 109Z" fill="white" fill-opacity="0.5"/>
<path d="M1311.03 300L1311.39 300.528L1312 300.709L1311.61 301.216L1311.63 301.856L1311.03 301.641L1310.42 301.856L1310.44 301.216L1310.05 300.709L1310.66 300.528L1311.03 300Z" fill="white" fill-opacity="0.5"/>
<path d="M525.846 638L526.144 638.435L526.65 638.584L526.328 639.003L526.343 639.53L525.846 639.353L525.349 639.53L525.363 639.003L525.041 638.584L525.547 638.435L525.846 638Z" fill="white" fill-opacity="0.6"/>
<path d="M474.189 225L474.609 225.612L475.32 225.822L474.868 226.41L474.888 227.151L474.189 226.903L473.49 227.151L473.511 226.41L473.058 225.822L473.77 225.612L474.189 225Z" fill="white" fill-opacity="0.4"/>
<path d="M1365.24 54L1365.68 54.6395L1366.42 54.8587L1365.95 55.4731L1365.97 56.2481L1365.24 55.9883L1364.51 56.2481L1364.53 55.4731L1364.06 54.8587L1364.8 54.6395L1365.24 54Z" fill="white" fill-opacity="0.6"/>
<path d="M1402.86 734L1403.17 734.445L1403.69 734.598L1403.36 735.025L1403.37 735.565L1402.86 735.384L1402.36 735.565L1402.37 735.025L1402.04 734.598L1402.56 734.445L1402.86 734Z" fill="white" fill-opacity="0.3"/>
<path d="M165.363 816L165.843 816.701L166.659 816.942L166.14 817.615L166.164 818.465L165.363 818.18L164.562 818.465L164.585 817.615L164.067 816.942L164.882 816.701L165.363 816Z" fill="white" fill-opacity="0.6"/>
<path d="M770.842 658L771.139 658.433L771.643 658.582L771.322 658.998L771.337 659.523L770.842 659.347L770.347 659.523L770.362 658.998L770.041 658.582L770.545 658.433L770.842 658Z" fill="white" fill-opacity="0.5"/>
<path d="M1084.8 649L1085.08 649.409L1085.55 649.55L1085.25 649.943L1085.26 650.439L1084.8 650.273L1084.33 650.439L1084.34 649.943L1084.04 649.55L1084.52 649.409L1084.8 649Z" fill="white" fill-opacity="0.5"/>
<path d="M209.336 284L209.807 284.687L210.607 284.923L210.098 285.584L210.121 286.417L209.336 286.138L208.551 286.417L208.574 285.584L208.065 284.923L208.865 284.687L209.336 284Z" fill="white" fill-opacity="0.4"/>
<path d="M1405.94 670L1406.28 670.486L1406.84 670.652L1406.48 671.119L1406.5 671.708L1405.94 671.51L1405.39 671.708L1405.41 671.119L1405.05 670.652L1405.61 670.486L1405.94 670Z" fill="white" fill-opacity="0.4"/>
<path d="M1417.24 561L1417.68 561.64L1418.43 561.859L1417.95 562.473L1417.97 563.249L1417.24 562.989L1416.51 563.249L1416.53 562.473L1416.06 561.859L1416.8 561.64L1417.24 561Z" fill="white" fill-opacity="0.5"/>
<path d="M1253.03 96L1253.39 96.5301L1254.01 96.7118L1253.62 97.2211L1253.64 97.8635L1253.03 97.6482L1252.42 97.8635L1252.44 97.2211L1252.05 96.7118L1252.67 96.5301L1253.03 96Z" fill="white" fill-opacity="0.5"/>
<path d="M114.145 227L114.548 227.589L115.233 227.791L114.798 228.357L114.818 229.071L114.145 228.832L113.472 229.071L113.492 228.357L113.056 227.791L113.741 227.589L114.145 227Z" fill="white" fill-opacity="0.4"/>
<path d="M1344.4 251L1344.9 251.721L1345.73 251.968L1345.2 252.661L1345.23 253.535L1344.4 253.242L1343.58 253.535L1343.6 252.661L1343.07 251.968L1343.91 251.721L1344.4 251Z" fill="white" fill-opacity="0.5"/>
<path d="M938.878 134L939.188 134.452L939.713 134.607L939.379 135.041L939.394 135.588L938.878 135.405L938.362 135.588L938.377 135.041L938.043 134.607L938.568 134.452L938.878 134Z" fill="white" fill-opacity="0.4"/>
<path d="M743.166 413L743.577 413.6L744.275 413.806L743.831 414.382L743.851 415.109L743.166 414.866L742.481 415.109L742.501 414.382L742.057 413.806L742.755 413.6L743.166 413Z" fill="white" fill-opacity="0.6"/>
<path d="M465.317 548L465.782 548.678L466.57 548.91L466.069 549.562L466.092 550.383L465.317 550.108L464.543 550.383L464.566 549.562L464.064 548.91L464.853 548.678L465.317 548Z" fill="white" fill-opacity="0.6"/>
<path d="M1006.28 78L1006.73 78.6577L1007.49 78.8832L1007.01 79.5151L1007.03 80.3122L1006.28 80.045L1005.53 80.3122L1005.55 79.5151L1005.06 78.8832L1005.83 78.6577L1006.28 78Z" fill="white" fill-opacity="0.6"/>
<path d="M1052.45 337L1052.96 337.745L1053.83 338.001L1053.27 338.717L1053.3 339.62L1052.45 339.317L1051.6 339.62L1051.62 338.717L1051.07 338.001L1051.94 337.745L1052.45 337Z" fill="white" fill-opacity="0.6"/>
<path d="M1049.16 858L1049.56 858.595L1050.26 858.799L1049.82 859.37L1049.84 860.091L1049.16 859.85L1048.48 860.091L1048.5 859.37L1048.06 858.799L1048.75 858.595L1049.16 858Z" fill="white" fill-opacity="0.4"/>
<path d="M928.043 800L928.411 800.537L929.036 800.721L928.639 801.237L928.657 801.888L928.043 801.67L927.43 801.888L927.448 801.237L927.051 800.721L927.675 800.537L928.043 800Z" fill="white" fill-opacity="0.6"/>
<path d="M1392.19 234L1392.62 234.614L1393.33 234.825L1392.88 235.416L1392.9 236.16L1392.19 235.911L1391.49 236.16L1391.51 235.416L1391.06 234.825L1391.77 234.614L1392.19 234Z" fill="white" fill-opacity="0.3"/>
<path d="M714.405 387L714.901 387.723L715.742 387.971L715.207 388.666L715.231 389.542L714.405 389.248L713.579 389.542L713.603 388.666L713.069 387.971L713.91 387.723L714.405 387Z" fill="white" fill-opacity="0.3"/>
<path d="M342.406 259L342.902 259.723L343.743 259.971L343.208 260.667L343.232 261.543L342.406 261.25L341.58 261.543L341.604 260.667L341.069 259.971L341.91 259.723L342.406 259Z" fill="white" fill-opacity="0.6"/>
<path d="M660.337 519L660.809 519.688L661.609 519.924L661.1 520.585L661.123 521.419L660.337 521.139L659.551 521.419L659.574 520.585L659.065 519.924L659.866 519.688L660.337 519Z" fill="white" fill-opacity="0.5"/>
<path d="M825.225 595L825.657 595.63L826.39 595.846L825.924 596.452L825.945 597.216L825.225 596.96L824.505 597.216L824.526 596.452L824.06 595.846L824.793 595.63L825.225 595Z" fill="white" fill-opacity="0.5"/>
<path d="M747.621 887L747.84 887.32L748.212 887.429L747.976 887.737L747.987 888.124L747.621 887.994L747.256 888.124L747.267 887.737L747.03 887.429L747.402 887.32L747.621 887Z" fill="white" fill-opacity="0.4"/>
<path d="M784.303 800L784.762 800.67L785.542 800.9L785.046 801.544L785.068 802.357L784.303 802.084L783.537 802.357L783.559 801.544L783.064 800.9L783.843 800.67L784.303 800Z" fill="white" fill-opacity="0.5"/>
<path d="M661.069 855L661.445 855.55L662.085 855.738L661.678 856.267L661.697 856.933L661.069 856.71L660.44 856.933L660.459 856.267L660.052 855.738L660.692 855.55L661.069 855Z" fill="white" fill-opacity="0.4"/>
<path d="M1274 329L1274.35 329.515L1274.95 329.692L1274.57 330.186L1274.59 330.811L1274 330.601L1273.41 330.811L1273.43 330.186L1273.05 329.692L1273.65 329.515L1274 329Z" fill="white" fill-opacity="0.5"/>
<path d="M721.752 702L722.017 702.387L722.467 702.52L722.181 702.892L722.194 703.361L721.752 703.203L721.31 703.361L721.323 702.892L721.037 702.52L721.487 702.387L721.752 702Z" fill="white" fill-opacity="0.4"/>
<path d="M693.786 606L694.063 606.404L694.534 606.543L694.235 606.932L694.248 607.422L693.786 607.258L693.324 607.422L693.337 606.932L693.038 606.543L693.509 606.404L693.786 606Z" fill="white" fill-opacity="0.4"/>
<path d="M542.417 115L542.917 115.729L543.766 115.979L543.226 116.68L543.251 117.564L542.417 117.268L541.584 117.564L541.609 116.68L541.069 115.979L541.918 115.729L542.417 115Z" fill="white" fill-opacity="0.3"/>
<path d="M1353.93 59L1354.26 59.4777L1354.81 59.6414L1354.46 60.1004L1354.47 60.6792L1353.93 60.4852L1353.38 60.6792L1353.4 60.1004L1353.05 59.6414L1353.6 59.4777L1353.93 59Z" fill="white" fill-opacity="0.5"/>
<path d="M1271.39 14L1271.88 14.717L1272.72 14.9628L1272.19 15.6517L1272.21 16.5206L1271.39 16.2294L1270.57 16.5206L1270.6 15.6517L1270.07 14.9628L1270.9 14.717L1271.39 14Z" fill="white" fill-opacity="0.3"/>
<path d="M111.578 693L111.782 693.298L112.129 693.4L111.908 693.686L111.918 694.046L111.578 693.925L111.238 694.046L111.248 693.686L111.028 693.4L111.374 693.298L111.578 693Z" fill="white" fill-opacity="0.5"/>
<path d="M889.492 669L890.018 669.768L890.911 670.031L890.344 670.769L890.369 671.699L889.492 671.387L888.615 671.699L888.641 670.769L888.073 670.031L888.966 669.768L889.492 669Z" fill="white" fill-opacity="0.3"/>
<path d="M1084.6 641L1084.81 641.309L1085.17 641.415L1084.94 641.712L1084.95 642.087L1084.6 641.961L1084.25 642.087L1084.26 641.712L1084.03 641.415L1084.39 641.309L1084.6 641Z" fill="white" fill-opacity="0.5"/>
<path d="M502.763 687L503.032 687.393L503.489 687.527L503.198 687.904L503.211 688.38L502.763 688.221L502.314 688.38L502.328 687.904L502.037 687.527L502.494 687.393L502.763 687Z" fill="white" fill-opacity="0.5"/>
<path d="M340.638 118L340.864 118.329L341.246 118.441L341.003 118.757L341.014 119.155L340.638 119.022L340.263 119.155L340.274 118.757L340.031 118.441L340.413 118.329L340.638 118Z" fill="white" fill-opacity="0.4"/>
<path d="M579.379 91L579.866 91.7097L580.691 91.953L580.166 92.635L580.19 93.4951L579.379 93.2068L578.569 93.4951L578.592 92.635L578.068 91.953L578.893 91.7097L579.379 91Z" fill="white" fill-opacity="0.3"/>
<path d="M846.593 120L846.803 120.305L847.158 120.41L846.932 120.703L846.942 121.074L846.593 120.949L846.245 121.074L846.255 120.703L846.029 120.41L846.384 120.305L846.593 120Z" fill="white" fill-opacity="0.5"/>
<path d="M69.2293 308L69.6628 308.633L70.3984 308.849L69.9307 309.457L69.9518 310.224L69.2293 309.967L68.5067 310.224L68.5278 309.457L68.0602 308.849L68.7957 308.633L69.2293 308Z" fill="white" fill-opacity="0.4"/>
<path d="M1426.5 678L1426.68 678.259L1426.98 678.347L1426.79 678.596L1426.8 678.909L1426.5 678.804L1426.21 678.909L1426.22 678.596L1426.02 678.347L1426.33 678.259L1426.5 678Z" fill="white" fill-opacity="0.4"/>
<path d="M1147.27 850L1147.72 850.653L1148.47 850.876L1147.99 851.503L1148.01 852.294L1147.27 852.029L1146.52 852.294L1146.54 851.503L1146.06 850.876L1146.82 850.653L1147.27 850Z" fill="white" fill-opacity="0.6"/>
<path d="M1417.59 94L1417.79 94.3022L1418.15 94.4058L1417.92 94.6962L1417.93 95.0625L1417.59 94.9397L1417.24 95.0625L1417.25 94.6962L1417.03 94.4058L1417.38 94.3022L1417.59 94Z" fill="white" fill-opacity="0.5"/>
<path d="M545.789 57L546.067 57.4058L546.539 57.545L546.239 57.9349L546.252 58.4267L545.789 58.2619L545.325 58.4267L545.339 57.9349L545.039 57.545L545.511 57.4058L545.789 57Z" fill="white" fill-opacity="0.4"/>
<path d="M1388.32 407L1388.78 407.679L1389.57 407.912L1389.07 408.564L1389.09 409.387L1388.32 409.111L1387.54 409.387L1387.57 408.564L1387.06 407.912L1387.85 407.679L1388.32 407Z" fill="white" fill-opacity="0.5"/>
<path d="M556.754 187L557.02 187.388L557.471 187.521L557.184 187.894L557.197 188.364L556.754 188.207L556.311 188.364L556.324 187.894L556.037 187.521L556.488 187.388L556.754 187Z" fill="white" fill-opacity="0.6"/>
<path d="M902.77 103L903.042 103.396L903.503 103.532L903.21 103.913L903.223 104.393L902.77 104.232L902.317 104.393L902.331 103.913L902.038 103.532L902.499 103.396L902.77 103Z" fill="white" fill-opacity="0.4"/>
<path d="M776.322 523L776.789 523.68L777.58 523.914L777.077 524.567L777.1 525.392L776.322 525.116L775.545 525.392L775.568 524.567L775.065 523.914L775.856 523.68L776.322 523Z" fill="white" fill-opacity="0.4"/>
<path d="M477.547 591L477.74 591.282L478.067 591.378L477.859 591.648L477.869 591.99L477.547 591.875L477.226 591.99L477.235 591.648L477.027 591.378L477.354 591.282L477.547 591Z" fill="white" fill-opacity="0.5"/>
<path d="M939.498 686L940.027 686.771L940.923 687.035L940.353 687.776L940.379 688.71L939.498 688.397L938.618 688.71L938.643 687.776L938.073 687.035L938.97 686.771L939.498 686Z" fill="white" fill-opacity="0.6"/>
<path d="M985.108 25L985.499 25.5703L986.162 25.7658L985.741 26.3137L985.76 27.0049L985.108 26.7732L984.457 27.0049L984.476 26.3137L984.054 25.7658L984.717 25.5703L985.108 25Z" fill="white" fill-opacity="0.3"/>
<path d="M756.601 27L756.814 27.3095L757.173 27.4156L756.945 27.7129L756.955 28.088L756.601 27.9623L756.248 28.088L756.258 27.7129L756.029 27.4156L756.389 27.3095L756.601 27Z" fill="white" fill-opacity="0.4"/>
<path d="M441.309 572L441.771 572.674L442.554 572.905L442.056 573.552L442.079 574.368L441.309 574.095L440.54 574.368L440.562 573.552L440.064 572.905L440.847 572.674L441.309 572Z" fill="white" fill-opacity="0.6"/>
<path d="M1074.96 364L1075.3 364.494L1075.87 364.663L1075.51 365.138L1075.52 365.737L1074.96 365.536L1074.4 365.737L1074.41 365.138L1074.05 364.663L1074.62 364.494L1074.96 364Z" fill="white" fill-opacity="0.5"/>
<path d="M1051 814L1051.36 814.517L1051.96 814.694L1051.58 815.191L1051.59 815.817L1051 815.607L1050.41 815.817L1050.43 815.191L1050.05 814.694L1050.65 814.517L1051 814Z" fill="white" fill-opacity="0.4"/>
<path d="M421.682 459L421.923 459.351L422.331 459.471L422.071 459.809L422.083 460.234L421.682 460.091L421.281 460.234L421.293 459.809L421.033 459.471L421.442 459.351L421.682 459Z" fill="white" fill-opacity="0.5"/>
<path d="M196.385 636L196.874 636.713L197.702 636.957L197.175 637.642L197.199 638.506L196.385 638.216L195.571 638.506L195.595 637.642L195.068 636.957L195.897 636.713L196.385 636Z" fill="white" fill-opacity="0.4"/>
<path d="M1401.49 668L1402.01 668.765L1402.9 669.028L1402.34 669.763L1402.36 670.691L1401.49 670.38L1400.61 670.691L1400.64 669.763L1400.07 669.028L1400.96 668.765L1401.49 668Z" fill="white" fill-opacity="0.3"/>
<path d="M250.413 424L250.911 424.727L251.756 424.976L251.219 425.675L251.243 426.556L250.413 426.26L249.582 426.556L249.607 425.675L249.069 424.976L249.914 424.727L250.413 424Z" fill="white" fill-opacity="0.5"/>
<path d="M1163.72 794L1163.97 794.369L1164.4 794.496L1164.13 794.851L1164.14 795.298L1163.72 795.148L1163.3 795.298L1163.31 794.851L1163.04 794.496L1163.46 794.369L1163.72 794Z" fill="white" fill-opacity="0.6"/>
<path d="M1042.79 692L1043.07 692.408L1043.55 692.548L1043.24 692.94L1043.26 693.434L1042.79 693.268L1042.33 693.434L1042.34 692.94L1042.04 692.548L1042.51 692.408L1042.79 692Z" fill="white" fill-opacity="0.5"/>
<path d="M161.391 696L161.881 696.716L162.713 696.961L162.184 697.649L162.208 698.516L161.391 698.225L160.573 698.516L160.597 697.649L160.068 696.961L160.9 696.716L161.391 696Z" fill="white" fill-opacity="0.5"/>
<path d="M779.224 701L779.656 701.63L780.388 701.846L779.922 702.451L779.943 703.214L779.224 702.958L778.505 703.214L778.526 702.451L778.06 701.846L778.792 701.63L779.224 701Z" fill="white" fill-opacity="0.5"/>
<path d="M746.086 138L746.469 138.559L747.118 138.75L746.705 139.287L746.724 139.964L746.086 139.737L745.448 139.964L745.466 139.287L745.053 138.75L745.703 138.559L746.086 138Z" fill="white" fill-opacity="0.4"/>
<path d="M791.326 633L791.793 633.682L792.586 633.916L792.082 634.571L792.105 635.398L791.326 635.121L790.546 635.398L790.569 634.571L790.065 633.916L790.858 633.682L791.326 633Z" fill="white" fill-opacity="0.5"/>
<path d="M891.413 843L891.911 843.727L892.756 843.976L892.219 844.675L892.243 845.556L891.413 845.26L890.582 845.556L890.607 844.675L890.069 843.976L890.915 843.727L891.413 843Z" fill="white" fill-opacity="0.4"/>
<path d="M1390.13 710L1390.53 710.58L1391.2 710.779L1390.77 711.336L1390.79 712.04L1390.13 711.804L1389.46 712.04L1389.48 711.336L1389.06 710.779L1389.73 710.58L1390.13 710Z" fill="white" fill-opacity="0.5"/>
<path d="M553.134 221L553.533 221.583L554.212 221.783L553.78 222.344L553.8 223.051L553.134 222.814L552.467 223.051L552.487 222.344L552.055 221.783L552.734 221.583L553.134 221Z" fill="white" fill-opacity="0.6"/>
<path d="M58.7834 217L59.0596 217.403L59.5284 217.541L59.2304 217.929L59.2438 218.417L58.7834 218.253L58.3229 218.417L58.3364 217.929L58.0383 217.541L58.5071 217.403L58.7834 217Z" fill="white" fill-opacity="0.5"/>
<path d="M349.74 682L350.001 682.381L350.443 682.511L350.162 682.877L350.175 683.338L349.74 683.184L349.305 683.338L349.318 682.877L349.036 682.511L349.479 682.381L349.74 682Z" fill="white" fill-opacity="0.4"/>
<path d="M787.145 596L787.549 596.589L788.235 596.791L787.799 597.358L787.819 598.072L787.145 597.833L786.472 598.072L786.492 597.358L786.056 596.791L786.741 596.589L787.145 596Z" fill="white" fill-opacity="0.5"/>
<path d="M358.322 115L358.789 115.681L359.58 115.914L359.077 116.568L359.1 117.392L358.322 117.116L357.545 117.392L357.568 116.568L357.065 115.914L357.856 115.681L358.322 115Z" fill="white" fill-opacity="0.5"/>
<path d="M68.0521 655L68.4231 655.541L69.0526 655.727L68.6524 656.247L68.6705 656.903L68.0521 656.683L67.4337 656.903L67.4517 656.247L67.0515 655.727L67.681 655.541L68.0521 655Z" fill="white" fill-opacity="0.3"/>
<path d="M785.681 470L785.921 470.35L786.329 470.471L786.07 470.807L786.081 471.232L785.681 471.09L785.281 471.232L785.292 470.807L785.033 470.471L785.441 470.35L785.681 470Z" fill="white" fill-opacity="0.6"/>
<path d="M619.2 306L619.624 306.618L620.342 306.829L619.885 307.423L619.906 308.171L619.2 307.92L618.495 308.171L618.515 307.423L618.059 306.829L618.777 306.618L619.2 306Z" fill="white" fill-opacity="0.6"/>
<path d="M1135.88 382L1136.19 382.454L1136.72 382.61L1136.39 383.046L1136.4 383.597L1135.88 383.412L1135.36 383.597L1135.38 383.046L1135.04 382.61L1135.57 382.454L1135.88 382Z" fill="white" fill-opacity="0.5"/>
<path d="M488.303 873L488.763 873.671L489.543 873.901L489.047 874.545L489.069 875.358L488.303 875.085L487.537 875.358L487.56 874.545L487.064 873.901L487.844 873.671L488.303 873Z" fill="white" fill-opacity="0.4"/>
<path d="M816.594 159L816.804 159.306L817.159 159.411L816.933 159.704L816.944 160.075L816.594 159.951L816.245 160.075L816.255 159.704L816.029 159.411L816.385 159.306L816.594 159Z" fill="white" fill-opacity="0.3"/>
<path d="M72.1419 784L72.5446 784.588L73.2279 784.789L72.7935 785.354L72.8131 786.066L72.1419 785.827L71.4707 786.066L71.4903 785.354L71.0559 784.789L71.7392 784.588L72.1419 784Z" fill="white" fill-opacity="0.4"/>
<path d="M632.281 370L632.733 370.659L633.499 370.885L633.012 371.519L633.034 372.317L632.281 372.05L631.528 372.317L631.55 371.519L631.063 370.885L631.829 370.659L632.281 370Z" fill="white" fill-opacity="0.5"/>
<path d="M584.764 387L585.033 387.393L585.49 387.528L585.199 387.905L585.212 388.381L584.764 388.222L584.315 388.381L584.328 387.905L584.037 387.528L584.494 387.393L584.764 387Z" fill="white" fill-opacity="0.5"/>
<path d="M41.488 85L42.0128 85.7657L42.9031 86.0282L42.3371 86.7639L42.3626 87.6918L41.488 87.3808L40.6134 87.6918L40.6389 86.7639L40.0728 86.0282L40.9632 85.7657L41.488 85Z" fill="white" fill-opacity="0.4"/>
<path d="M1185.68 380L1185.92 380.351L1186.33 380.471L1186.07 380.808L1186.08 381.233L1185.68 381.09L1185.28 381.233L1185.29 380.808L1185.03 380.471L1185.44 380.351L1185.68 380Z" fill="white" fill-opacity="0.6"/>
<path d="M43.7318 219L43.9899 219.377L44.4278 219.506L44.1494 219.868L44.162 220.324L43.7318 220.171L43.3017 220.324L43.3142 219.868L43.0358 219.506L43.4737 219.377L43.7318 219Z" fill="white" fill-opacity="0.4"/>
<path d="M1175.39 271L1175.88 271.716L1176.72 271.962L1176.19 272.65L1176.21 273.517L1175.39 273.227L1174.57 273.517L1174.6 272.65L1174.07 271.962L1174.9 271.716L1175.39 271Z" fill="white" fill-opacity="0.4"/>
<path d="M703.619 575L703.837 575.318L704.207 575.428L703.972 575.733L703.982 576.119L703.619 575.99L703.255 576.119L703.266 575.733L703.03 575.428L703.401 575.318L703.619 575Z" fill="white" fill-opacity="0.5"/>
<path d="M1314.51 573L1314.69 573.263L1315 573.353L1314.8 573.606L1314.81 573.925L1314.51 573.818L1314.21 573.925L1314.22 573.606L1314.03 573.353L1314.33 573.263L1314.51 573Z" fill="white" fill-opacity="0.6"/>
<path d="M251.926 13L252.252 13.4764L252.806 13.6397L252.454 14.0974L252.47 14.6746L251.926 14.4811L251.382 14.6746L251.397 14.0974L251.045 13.6397L251.599 13.4764L251.926 13Z" fill="white" fill-opacity="0.6"/>
<path d="M1195.63 347L1195.85 347.325L1196.23 347.436L1195.99 347.749L1196 348.143L1195.63 348.011L1195.26 348.143L1195.27 347.749L1195.03 347.436L1195.41 347.325L1195.63 347Z" fill="white" fill-opacity="0.6"/>
<path d="M521.98 9L522.326 9.50442L522.912 9.67732L522.54 10.162L522.556 10.7733L521.98 10.5684L521.404 10.7733L521.421 10.162L521.048 9.67732L521.635 9.50442L521.98 9Z" fill="white" fill-opacity="0.6"/>
<path d="M752.705 672L752.954 672.363L753.376 672.487L753.108 672.836L753.12 673.276L752.705 673.128L752.291 673.276L752.303 672.836L752.035 672.487L752.457 672.363L752.705 672Z" fill="white" fill-opacity="0.3"/>
<path d="M342.908 320L343.228 320.467L343.771 320.627L343.426 321.076L343.442 321.642L342.908 321.453L342.374 321.642L342.39 321.076L342.044 320.627L342.588 320.467L342.908 320Z" fill="white" fill-opacity="0.5"/>
<path d="M1091.5 438L1092.03 438.771L1092.92 439.035L1092.35 439.775L1092.38 440.71L1091.5 440.396L1090.62 440.71L1090.64 439.775L1090.07 439.035L1090.97 438.771L1091.5 438Z" fill="white" fill-opacity="0.5"/>
<path d="M337.69 696L337.933 696.355L338.346 696.477L338.083 696.818L338.095 697.248L337.69 697.104L337.284 697.248L337.296 696.818L337.034 696.477L337.447 696.355L337.69 696Z" fill="white" fill-opacity="0.6"/>
<path d="M173.165 844L173.576 844.6L174.273 844.805L173.83 845.381L173.85 846.108L173.165 845.864L172.48 846.108L172.5 845.381L172.057 844.805L172.754 844.6L173.165 844Z" fill="white" fill-opacity="0.5"/>
<path d="M226.82 404L227.11 404.422L227.601 404.567L227.288 404.972L227.303 405.484L226.82 405.313L226.338 405.484L226.352 404.972L226.04 404.567L226.531 404.422L226.82 404Z" fill="white" fill-opacity="0.4"/>
<path d="M626.758 46L627.026 46.3903L627.48 46.5241L627.191 46.899L627.204 47.372L626.758 47.2135L626.313 47.372L626.326 46.899L626.037 46.5241L626.491 46.3903L626.758 46Z" fill="white" fill-opacity="0.3"/>
<path d="M1420 155L1420.35 155.512L1420.94 155.688L1420.56 156.18L1420.58 156.801L1420 156.593L1419.41 156.801L1419.43 156.18L1419.05 155.688L1419.64 155.512L1420 155Z" fill="white" fill-opacity="0.6"/>
<path d="M225.744 614L226.007 614.383L226.452 614.514L226.169 614.882L226.181 615.346L225.744 615.191L225.307 615.346L225.319 614.882L225.036 614.514L225.482 614.383L225.744 614Z" fill="white" fill-opacity="0.4"/>
<path d="M957.485 430L958.008 430.764L958.897 431.026L958.332 431.76L958.358 432.686L957.485 432.376L956.612 432.686L956.638 431.76L956.073 431.026L956.961 430.764L957.485 430Z" fill="white" fill-opacity="0.5"/>
<path d="M471.984 197L472.331 197.506L472.919 197.68L472.545 198.166L472.562 198.78L471.984 198.574L471.406 198.78L471.422 198.166L471.048 197.68L471.637 197.506L471.984 197Z" fill="white" fill-opacity="0.5"/>
<path d="M171.156 606L171.563 606.595L172.255 606.799L171.815 607.37L171.835 608.091L171.156 607.849L170.476 608.091L170.496 607.37L170.057 606.799L170.748 606.595L171.156 606Z" fill="white" fill-opacity="0.4"/>
<path d="M235.092 167L235.476 167.562L236.13 167.754L235.714 168.294L235.733 168.975L235.092 168.746L234.45 168.975L234.469 168.294L234.053 167.754L234.707 167.562L235.092 167Z" fill="white" fill-opacity="0.5"/>
<path d="M528.283 580L528.736 580.66L529.504 580.887L529.016 581.521L529.038 582.322L528.283 582.053L527.529 582.322L527.551 581.521L527.063 580.887L527.831 580.66L528.283 580Z" fill="white" fill-opacity="0.4"/>
<path d="M1311.7 217L1311.94 217.358L1312.36 217.481L1312.09 217.825L1312.11 218.259L1311.7 218.114L1311.29 218.259L1311.3 217.825L1311.03 217.481L1311.45 217.358L1311.7 217Z" fill="white" fill-opacity="0.3"/>
<path d="M727.907 896L728.227 896.467L728.77 896.627L728.425 897.076L728.441 897.641L727.907 897.452L727.374 897.641L727.39 897.076L727.044 896.627L727.587 896.467L727.907 896Z" fill="white" fill-opacity="0.6"/>
<path d="M70.4363 363L70.9428 363.739L71.8023 363.992L71.2559 364.703L71.2805 365.598L70.4363 365.298L69.5921 365.598L69.6167 364.703L69.0703 363.992L69.9297 363.739L70.4363 363Z" fill="white" fill-opacity="0.5"/>
<path d="M797.558 350L797.755 350.287L798.089 350.386L797.876 350.662L797.886 351.01L797.558 350.893L797.23 351.01L797.24 350.662L797.027 350.386L797.361 350.287L797.558 350Z" fill="white" fill-opacity="0.4"/>
<path d="M322.65 235L322.879 235.334L323.268 235.449L323.021 235.77L323.032 236.175L322.65 236.04L322.268 236.175L322.279 235.77L322.032 235.449L322.421 235.334L322.65 235Z" fill="white" fill-opacity="0.4"/>
<path d="M1084.59 519L1084.79 519.302L1085.15 519.406L1084.92 519.697L1084.93 520.063L1084.59 519.94L1084.24 520.063L1084.25 519.697L1084.03 519.406L1084.38 519.302L1084.59 519Z" fill="white" fill-opacity="0.3"/>
<path d="M377.644 566L377.871 566.331L378.257 566.445L378.012 566.764L378.023 567.165L377.644 567.031L377.266 567.165L377.277 566.764L377.032 566.445L377.417 566.331L377.644 566Z" fill="white" fill-opacity="0.3"/>
<path d="M1234.26 483L1234.7 483.647L1235.45 483.869L1234.98 484.491L1235 485.275L1234.26 485.012L1233.52 485.275L1233.54 484.491L1233.06 483.869L1233.81 483.647L1234.26 483Z" fill="white" fill-opacity="0.3"/>
<path d="M1296.59 268L1296.8 268.306L1297.16 268.41L1296.93 268.704L1296.94 269.074L1296.59 268.95L1296.24 269.074L1296.25 268.704L1296.03 268.41L1296.38 268.306L1296.59 268Z" fill="white" fill-opacity="0.4"/>
<path d="M1361.71 827L1361.96 827.363L1362.38 827.488L1362.11 827.837L1362.12 828.278L1361.71 828.13L1361.29 828.278L1361.3 827.837L1361.03 827.488L1361.46 827.363L1361.71 827Z" fill="white" fill-opacity="0.3"/>
<path d="M470.67 12L470.907 12.3449L471.308 12.4631L471.053 12.7945L471.064 13.2125L470.67 13.0724L470.276 13.2125L470.288 12.7945L470.033 12.4631L470.434 12.3449L470.67 12Z" fill="white" fill-opacity="0.4"/>
<path d="M359.304 512L359.764 512.671L360.544 512.901L360.048 513.546L360.071 514.359L359.304 514.087L358.538 514.359L358.56 513.546L358.064 512.901L358.844 512.671L359.304 512Z" fill="white" fill-opacity="0.6"/>
<path d="M1181.95 300L1182.29 300.489L1182.85 300.657L1182.49 301.126L1182.51 301.719L1181.95 301.52L1181.39 301.719L1181.41 301.126L1181.05 300.657L1181.62 300.489L1181.95 300Z" fill="white" fill-opacity="0.5"/>
<path d="M1333.83 543L1334.13 543.43L1334.63 543.577L1334.31 543.99L1334.33 544.51L1333.83 544.336L1333.34 544.51L1333.36 543.99L1333.04 543.577L1333.54 543.43L1333.83 543Z" fill="white" fill-opacity="0.4"/>
<path d="M345.416 548L345.915 548.728L346.762 548.978L346.223 549.678L346.248 550.561L345.416 550.265L344.584 550.561L344.608 549.678L344.069 548.978L344.916 548.728L345.416 548Z" fill="white" fill-opacity="0.3"/>
<path d="M1161.91 211L1162.23 211.467L1162.77 211.627L1162.42 212.075L1162.44 212.64L1161.91 212.451L1161.37 212.64L1161.39 212.075L1161.04 211.627L1161.59 211.467L1161.91 211Z" fill="white" fill-opacity="0.5"/>
<path d="M1431.8 724L1432.09 724.414L1432.57 724.556L1432.26 724.954L1432.28 725.456L1431.8 725.288L1431.33 725.456L1431.35 724.954L1431.04 724.556L1431.52 724.414L1431.8 724Z" fill="white" fill-opacity="0.6"/>
<path d="M980.996 666L981.347 666.512L981.943 666.688L981.564 667.18L981.581 667.801L980.996 667.593L980.411 667.801L980.428 667.18L980.049 666.688L980.645 666.512L980.996 666Z" fill="white" fill-opacity="0.5"/>
<path d="M424.581 306L424.786 306.299L425.134 306.402L424.913 306.689L424.923 307.051L424.581 306.93L424.24 307.051L424.25 306.689L424.028 306.402L424.376 306.299L424.581 306Z" fill="white" fill-opacity="0.3"/>
<path d="M1113.92 434L1114.24 434.473L1114.79 434.636L1114.44 435.09L1114.46 435.664L1113.92 435.472L1113.38 435.664L1113.39 435.09L1113.05 434.636L1113.6 434.473L1113.92 434Z" fill="white" fill-opacity="0.5"/>
<path d="M1297.13 776L1297.52 776.58L1298.2 776.779L1297.77 777.336L1297.79 778.039L1297.13 777.803L1296.46 778.039L1296.48 777.336L1296.06 776.779L1296.73 776.58L1297.13 776Z" fill="white" fill-opacity="0.5"/>
<path d="M799.863 194L800.167 194.444L800.684 194.596L800.355 195.023L800.37 195.561L799.863 195.381L799.356 195.561L799.371 195.023L799.042 194.596L799.559 194.444L799.863 194Z" fill="white" fill-opacity="0.4"/>
<path d="M153.684 365L153.926 365.352L154.335 365.473L154.075 365.811L154.087 366.238L153.684 366.095L153.282 366.238L153.294 365.811L153.033 365.473L153.443 365.352L153.684 365Z" fill="white" fill-opacity="0.3"/>
<path d="M166.013 193L166.371 193.522L166.977 193.7L166.592 194.201L166.609 194.833L166.013 194.622L165.418 194.833L165.435 194.201L165.05 193.7L165.656 193.522L166.013 193Z" fill="white" fill-opacity="0.4"/>
<path d="M1071.74 820L1071.99 820.378L1072.43 820.508L1072.15 820.872L1072.17 821.33L1071.74 821.176L1071.3 821.33L1071.32 820.872L1071.04 820.508L1071.48 820.378L1071.74 820Z" fill="white" fill-opacity="0.5"/>
<path d="M314.021 600L314.382 600.526L314.993 600.706L314.604 601.211L314.622 601.848L314.021 601.634L313.421 601.848L313.439 601.211L313.05 600.706L313.661 600.526L314.021 600Z" fill="white" fill-opacity="0.3"/>
<path d="M905.579 899L905.783 899.298L906.13 899.4L905.909 899.686L905.919 900.047L905.579 899.926L905.239 900.047L905.249 899.686L905.028 899.4L905.375 899.298L905.579 899Z" fill="white" fill-opacity="0.5"/>
<path d="M679.668 529L679.904 529.344L680.304 529.462L680.05 529.792L680.061 530.209L679.668 530.069L679.275 530.209L679.287 529.792L679.033 529.462L679.433 529.344L679.668 529Z" fill="white" fill-opacity="0.6"/>
<path d="M1116.48 250L1117 250.761L1117.89 251.022L1117.32 251.753L1117.35 252.676L1116.48 252.367L1115.61 252.676L1115.64 251.753L1115.07 251.022L1115.96 250.761L1116.48 250Z" fill="white" fill-opacity="0.4"/>
<path d="M128.894 341L129.209 341.46L129.744 341.618L129.404 342.06L129.419 342.617L128.894 342.43L128.368 342.617L128.384 342.06L128.044 341.618L128.579 341.46L128.894 341Z" fill="white" fill-opacity="0.5"/>
<path d="M777.079 681L777.46 681.555L778.105 681.746L777.695 682.279L777.713 682.952L777.079 682.726L776.445 682.952L776.463 682.279L776.053 681.746L776.698 681.555L777.079 681Z" fill="white" fill-opacity="0.4"/>
<path d="M359.408 435L359.904 435.724L360.747 435.973L360.211 436.669L360.235 437.547L359.408 437.253L358.58 437.547L358.605 436.669L358.069 435.973L358.911 435.724L359.408 435Z" fill="white" fill-opacity="0.6"/>
<path d="M866.399 597L866.892 597.72L867.729 597.967L867.197 598.658L867.221 599.531L866.399 599.238L865.577 599.531L865.601 598.658L865.068 597.967L865.906 597.72L866.399 597Z" fill="white" fill-opacity="0.6"/>
<path d="M1042.14 651L1042.54 651.586L1043.22 651.786L1042.79 652.349L1042.81 653.059L1042.14 652.821L1041.47 653.059L1041.49 652.349L1041.06 651.786L1041.74 651.586L1042.14 651Z" fill="white" fill-opacity="0.5"/>
<path d="M1024.69 883L1024.93 883.354L1025.34 883.476L1025.08 883.816L1025.09 884.245L1024.69 884.101L1024.28 884.245L1024.3 883.816L1024.03 883.476L1024.45 883.354L1024.69 883Z" fill="white" fill-opacity="0.4"/>
<path d="M744.868 361L745.174 361.447L745.693 361.6L745.363 362.029L745.378 362.57L744.868 362.389L744.358 362.57L744.373 362.029L744.042 361.6L744.562 361.447L744.868 361Z" fill="white" fill-opacity="0.4"/>
<path d="M176.364 598L176.845 598.702L177.662 598.943L177.143 599.617L177.166 600.468L176.364 600.183L175.562 600.468L175.586 599.617L175.067 598.943L175.883 598.702L176.364 598Z" fill="white" fill-opacity="0.4"/>
<path d="M1353.7 391L1353.94 391.358L1354.36 391.481L1354.09 391.826L1354.11 392.26L1353.7 392.114L1353.29 392.26L1353.3 391.826L1353.03 391.481L1353.45 391.358L1353.7 391Z" fill="white" fill-opacity="0.3"/>
<path d="M1181.24 41L1181.68 41.6404L1182.43 41.8599L1181.95 42.4752L1181.98 43.2513L1181.24 42.9912L1180.51 43.2513L1180.53 42.4752L1180.06 41.8599L1180.81 41.6404L1181.24 41Z" fill="white" fill-opacity="0.5"/>
<path d="M164.797 283L165.078 283.41L165.555 283.551L165.252 283.945L165.266 284.442L164.797 284.275L164.329 284.442L164.342 283.945L164.039 283.551L164.516 283.41L164.797 283Z" fill="white" fill-opacity="0.4"/>
<path d="M1370.09 683L1370.47 683.559L1371.12 683.751L1370.71 684.289L1370.73 684.967L1370.09 684.739L1369.45 684.967L1369.47 684.289L1369.05 683.751L1369.7 683.559L1370.09 683Z" fill="white" fill-opacity="0.5"/>
<path d="M219.101 374L219.489 374.566L220.147 374.76L219.729 375.305L219.747 375.991L219.101 375.761L218.454 375.991L218.473 375.305L218.054 374.76L218.712 374.566L219.101 374Z" fill="white" fill-opacity="0.4"/>
<path d="M408.925 579L409.252 579.476L409.805 579.639L409.453 580.097L409.469 580.674L408.925 580.48L408.381 580.674L408.397 580.097L408.045 579.639L408.599 579.476L408.925 579Z" fill="white" fill-opacity="0.4"/>
<path d="M252.097 61L252.484 61.5646L253.141 61.7581L252.723 62.3006L252.742 62.9847L252.097 62.7554L251.452 62.9847L251.471 62.3006L251.054 61.7581L251.71 61.5646L252.097 61Z" fill="white" fill-opacity="0.5"/>
<path d="M337.778 225L338.053 225.4L338.518 225.538L338.222 225.923L338.236 226.408L337.778 226.245L337.321 226.408L337.334 225.923L337.038 225.538L337.504 225.4L337.778 225Z" fill="white" fill-opacity="0.6"/>
<path d="M228.001 847L228.353 847.515L228.952 847.691L228.572 848.186L228.589 848.81L228.001 848.601L227.412 848.81L227.43 848.186L227.049 847.691L227.648 847.515L228.001 847Z" fill="white" fill-opacity="0.6"/>
<path d="M1076.84 23L1077.13 23.4302L1077.63 23.5777L1077.31 23.9911L1077.33 24.5125L1076.84 24.3378L1076.34 24.5125L1076.36 23.9911L1076.04 23.5777L1076.54 23.4302L1076.84 23Z" fill="white" fill-opacity="0.6"/>
<path d="M835.846 832L836.144 832.435L836.65 832.584L836.328 833.003L836.343 833.53L835.846 833.353L835.349 833.53L835.363 833.003L835.041 832.584L835.547 832.435L835.846 832Z" fill="white" fill-opacity="0.3"/>
<path d="M1392.06 86L1392.44 86.5476L1393.08 86.7353L1392.67 87.2614L1392.69 87.925L1392.06 87.7026L1391.44 87.925L1391.46 87.2614L1391.05 86.7353L1391.69 86.5476L1392.06 86Z" fill="white" fill-opacity="0.4"/>
<path d="M859.073 709L859.451 709.552L860.093 709.741L859.685 710.271L859.703 710.94L859.073 710.716L858.442 710.94L858.461 710.271L858.052 709.741L858.694 709.552L859.073 709Z" fill="white" fill-opacity="0.4"/>
<path d="M282.192 832L282.612 832.613L283.326 832.824L282.872 833.413L282.893 834.156L282.192 833.907L281.491 834.156L281.512 833.413L281.058 832.824L281.772 832.613L282.192 832Z" fill="white" fill-opacity="0.4"/>
<path d="M712.923 674L713.249 674.475L713.801 674.638L713.45 675.094L713.466 675.67L712.923 675.477L712.381 675.67L712.396 675.094L712.045 674.638L712.598 674.475L712.923 674Z" fill="white" fill-opacity="0.5"/>
<path d="M754.284 731L754.737 731.661L755.506 731.887L755.017 732.522L755.039 733.323L754.284 733.055L753.529 733.323L753.551 732.522L753.063 731.887L753.831 731.661L754.284 731Z" fill="white" fill-opacity="0.5"/>
<path d="M128.504 702L128.682 702.259L128.983 702.348L128.792 702.598L128.8 702.912L128.504 702.807L128.208 702.912L128.216 702.598L128.025 702.348L128.326 702.259L128.504 702Z" fill="white" fill-opacity="0.5"/>
<path d="M674.468 359L674.986 359.755L675.864 360.014L675.306 360.74L675.331 361.656L674.468 361.349L673.605 361.656L673.63 360.74L673.072 360.014L673.95 359.755L674.468 359Z" fill="white" fill-opacity="0.3"/>
<path d="M184.914 299L185.236 299.47L185.782 299.631L185.435 300.083L185.45 300.653L184.914 300.462L184.377 300.653L184.392 300.083L184.045 299.631L184.591 299.47L184.914 299Z" fill="white" fill-opacity="0.6"/>
<path d="M1082.16 470L1082.57 470.597L1083.26 470.802L1082.82 471.376L1082.84 472.1L1082.16 471.857L1081.48 472.1L1081.5 471.376L1081.06 470.802L1081.75 470.597L1082.16 470Z" fill="white" fill-opacity="0.3"/>
<path d="M947.03 80L947.393 80.5298L948.009 80.7115L947.617 81.2205L947.635 81.8626L947.03 81.6474L946.424 81.8626L946.442 81.2205L946.05 80.7115L946.667 80.5298L947.03 80Z" fill="white" fill-opacity="0.5"/>
<path d="M494.485 326L495.009 326.764L495.898 327.026L495.333 327.761L495.359 328.687L494.485 328.377L493.612 328.687L493.638 327.761L493.073 327.026L493.962 326.764L494.485 326Z" fill="white" fill-opacity="0.5"/>
<path d="M11.1372 786L11.5383 786.585L12.2187 786.786L11.7861 787.348L11.8056 788.057L11.1372 787.82L10.4688 788.057L10.4883 787.348L10.0557 786.786L10.7361 786.585L11.1372 786Z" fill="white" fill-opacity="0.6"/>
<path d="M649.51 246L649.69 246.262L649.995 246.352L649.801 246.605L649.81 246.923L649.51 246.816L649.21 246.923L649.219 246.605L649.025 246.352L649.33 246.262L649.51 246Z" fill="white" fill-opacity="0.6"/>
<path d="M194.343 750L194.816 750.691L195.62 750.928L195.109 751.592L195.132 752.429L194.343 752.148L193.553 752.429L193.577 751.592L193.066 750.928L193.869 750.691L194.343 750Z" fill="white" fill-opacity="0.6"/>
<path d="M995.934 422L996.263 422.48L996.821 422.645L996.466 423.107L996.482 423.689L995.934 423.494L995.385 423.689L995.401 423.107L995.046 422.645L995.604 422.48L995.934 422Z" fill="white" fill-opacity="0.4"/>
</g>
<defs>
<clipPath id="clip0_3679_63043">
<rect width="1440" height="900" fill="white"/>
</clipPath>
</defs>
</svg>
