<svg width="297" height="221" viewBox="0 0 297 221" fill="none" xmlns="http://www.w3.org/2000/svg">
<g clip-path="url(#clip0_3024_77703)">
<path d="M29.845 157.504L222.669 208.582L247.894 36.6728L53.0716 21.8113L29.845 157.504Z" fill="#5C0B86"/>
<path d="M222.669 209.033C222.63 209.033 222.591 209.028 222.553 209.018L29.7293 157.939C29.6206 157.91 29.5266 157.842 29.4658 157.747C29.405 157.653 29.3817 157.539 29.4006 157.428L52.6273 21.7347C52.6462 21.6242 52.7058 21.5247 52.7942 21.4557C52.8827 21.3867 52.9937 21.3532 53.1056 21.3616L247.928 36.2232C247.99 36.2279 248.05 36.2453 248.104 36.2741C248.159 36.3029 248.207 36.3426 248.246 36.3908C248.324 36.4881 248.358 36.6137 248.34 36.7375L223.115 208.647C223.099 208.754 223.045 208.851 222.963 208.922C222.881 208.993 222.777 209.032 222.669 209.032V209.033ZM30.3585 157.174L222.296 208.017L247.378 37.0853L53.4463 22.2917L30.3585 157.174Z" fill="#5C0B86"/>
<path d="M229.687 125.444L212.22 122.412L212.882 118.052L230.353 120.998L229.687 125.444ZM228.308 134.651L210.85 131.442L211.513 127.073L228.975 130.196L228.308 134.651ZM219.37 194.319L201.97 189.955L202.642 185.53L220.046 189.806L219.37 194.319Z" fill="url(#paint0_linear_3024_77703)"/>
<path d="M201.971 190.407C201.934 190.407 201.897 190.403 201.861 190.393L40.9365 150.041C40.8791 150.027 40.8251 150.001 40.7775 149.966C40.73 149.931 40.6899 149.887 40.6595 149.836C40.6291 149.785 40.609 149.729 40.6003 149.67C40.5917 149.612 40.5946 149.552 40.609 149.495C40.6234 149.437 40.649 149.383 40.6842 149.336C40.7195 149.288 40.7638 149.248 40.8146 149.218C40.8654 149.187 40.9216 149.167 40.9802 149.159C41.0387 149.15 41.0984 149.153 41.1558 149.167L202.08 189.519C202.187 189.546 202.28 189.61 202.343 189.701C202.405 189.792 202.432 189.902 202.419 190.012C202.406 190.121 202.352 190.221 202.27 190.294C202.187 190.367 202.081 190.407 201.971 190.407ZM205.655 166.132C205.622 166.131 205.589 166.128 205.556 166.121L44.3243 130.194C44.209 130.167 44.1092 130.095 44.0463 129.995C43.9835 129.895 43.9627 129.774 43.9884 129.658C44.0141 129.542 44.0844 129.442 44.1839 129.377C44.2834 129.313 44.4042 129.291 44.5202 129.315L205.752 165.241C205.86 165.265 205.956 165.329 206.02 165.419C206.085 165.509 206.114 165.62 206.102 165.73C206.09 165.84 206.038 165.942 205.955 166.016C205.873 166.09 205.766 166.131 205.655 166.132ZM209.319 141.985C209.29 141.985 209.261 141.982 209.232 141.977L47.6976 110.434C47.639 110.423 47.5831 110.401 47.5332 110.368C47.4833 110.336 47.4403 110.294 47.4068 110.244C47.3732 110.195 47.3498 110.14 47.3378 110.081C47.3259 110.023 47.3256 109.963 47.337 109.904C47.3485 109.846 47.3714 109.79 47.4045 109.741C47.4376 109.691 47.4802 109.648 47.5298 109.615C47.5795 109.582 47.6351 109.56 47.6936 109.548C47.7522 109.537 47.8123 109.537 47.8707 109.549L209.406 141.092C209.516 141.114 209.614 141.175 209.681 141.265C209.748 141.355 209.779 141.466 209.768 141.578C209.757 141.689 209.705 141.793 209.623 141.868C209.54 141.943 209.432 141.985 209.32 141.985H209.319ZM212.964 117.966C212.939 117.966 212.914 117.964 212.889 117.96L51.056 90.7581C50.9969 90.7491 50.9402 90.7284 50.8891 90.6973C50.8381 90.6662 50.7938 90.6252 50.7587 90.5768C50.7237 90.5284 50.6986 90.4735 50.685 90.4153C50.6714 90.3571 50.6695 90.2967 50.6794 90.2378C50.6893 90.1788 50.7109 90.1225 50.7428 90.0719C50.7747 90.0214 50.8164 89.9777 50.8654 89.9434C50.9143 89.9092 50.9696 89.885 51.0281 89.8723C51.0865 89.8596 51.1468 89.8586 51.2056 89.8695L213.039 117.071C213.151 117.089 213.251 117.149 213.321 117.239C213.391 117.328 213.424 117.44 213.415 117.553C213.405 117.666 213.354 117.771 213.27 117.848C213.187 117.924 213.078 117.966 212.964 117.966ZM216.591 94.0733C216.569 94.0734 216.548 94.072 216.527 94.0691L54.3999 71.1676C54.2815 71.1509 54.1746 71.0878 54.1027 70.9922C54.0308 70.8967 53.9998 70.7765 54.0166 70.6581C54.0333 70.5397 54.0964 70.4328 54.1919 70.3609C54.2875 70.2891 54.4077 70.2581 54.5261 70.2748L216.653 93.1757C216.766 93.1913 216.869 93.2493 216.941 93.338C217.013 93.4267 217.049 93.5394 217.041 93.6534C217.033 93.7674 216.982 93.8741 216.898 93.952C216.815 94.0298 216.704 94.073 216.59 94.0727L216.591 94.0733ZM220.197 70.306C220.18 70.3059 220.163 70.3049 220.146 70.303L57.73 51.6612C57.6112 51.6476 57.5027 51.5874 57.4283 51.4937C57.3539 51.4001 57.3198 51.2808 57.3334 51.162C57.3471 51.0432 57.4073 50.9347 57.501 50.8603C57.5946 50.7859 57.714 50.7518 57.8328 50.7654L220.248 69.4072C220.364 69.4191 220.47 69.475 220.545 69.5631C220.62 69.6513 220.659 69.765 220.652 69.8807C220.646 69.9964 220.595 70.1051 220.51 70.1843C220.426 70.2635 220.314 70.3071 220.198 70.306H220.197ZM223.785 46.6625C223.772 46.6625 223.759 46.6625 223.745 46.6607L61.0451 32.2384C60.9855 32.2341 60.9273 32.2179 60.874 32.1909C60.8207 32.1639 60.7733 32.1265 60.7346 32.081C60.6958 32.0355 60.6666 31.9827 60.6484 31.9258C60.6303 31.8688 60.6236 31.8089 60.6289 31.7493C60.6342 31.6898 60.6512 31.6319 60.6791 31.579C60.7069 31.5262 60.745 31.4793 60.7911 31.4413C60.8372 31.4033 60.8904 31.3748 60.9477 31.3576C61.0049 31.3403 61.065 31.3346 61.1244 31.3408L223.824 45.7631C223.94 45.7735 224.047 45.8279 224.123 45.9152C224.199 46.0024 224.239 46.1157 224.234 46.2315C224.229 46.3473 224.18 46.4567 224.096 46.537C224.012 46.6173 223.901 46.6622 223.785 46.6625Z" fill="url(#paint1_linear_3024_77703)"/>
<path d="M126.847 114.148H126.833C126.76 114.145 126.69 114.126 126.627 114.09C126.564 114.055 126.51 114.005 126.47 113.945L109.622 88.3083L70.5213 111.438C70.4607 111.473 70.3926 111.495 70.3223 111.499C70.2521 111.504 70.1817 111.493 70.1168 111.465C70.0519 111.438 69.9943 111.396 69.9486 111.342C69.9029 111.289 69.8704 111.225 69.8537 111.157L56.4774 56.4086C56.4542 56.2943 56.4762 56.1755 56.5387 56.0771C56.6012 55.9786 56.6993 55.9082 56.8126 55.8806C56.9259 55.8529 57.0455 55.8702 57.1463 55.9287C57.2471 55.9873 57.3214 56.0826 57.3535 56.1947L70.5856 110.353L109.533 87.3146C109.633 87.2556 109.752 87.2373 109.864 87.2634C109.977 87.2896 110.076 87.3583 110.139 87.4552L126.873 112.917L168.725 57.4419C168.764 57.3895 168.815 57.3464 168.873 57.3155C168.931 57.2847 168.995 57.2669 169.06 57.2634C169.126 57.2599 169.191 57.2708 169.252 57.2953C169.313 57.3198 169.368 57.3574 169.413 57.4053L215.874 106.963C215.953 107.051 215.995 107.166 215.991 107.284C215.986 107.403 215.935 107.514 215.849 107.595C215.762 107.676 215.648 107.72 215.529 107.717C215.411 107.714 215.298 107.665 215.216 107.58L169.122 58.4122L127.208 113.97C127.166 114.026 127.111 114.071 127.049 114.102C126.986 114.133 126.917 114.149 126.848 114.149L126.847 114.148Z" fill="#86D1FD"/>
<path d="M121.927 161.708C121.727 161.708 121.533 161.641 121.375 161.519C121.217 161.397 121.105 161.225 121.055 161.032L112.516 127.96L98.5775 139.257C98.4252 139.381 98.2368 139.451 98.0408 139.458C97.8449 139.465 97.6521 139.407 97.4917 139.295L48.2882 104.716C48.0926 104.579 47.9596 104.369 47.9185 104.134C47.8773 103.899 47.9315 103.656 48.0689 103.461C48.2064 103.265 48.4159 103.132 48.6514 103.091C48.8869 103.05 49.1291 103.104 49.3248 103.241L97.9712 137.428L112.471 125.676C112.588 125.581 112.727 125.516 112.876 125.489C113.024 125.462 113.177 125.472 113.321 125.519C113.464 125.567 113.594 125.65 113.697 125.76C113.8 125.87 113.873 126.005 113.911 126.151L122.351 158.841L179.389 87.9017C179.487 87.7794 179.616 87.6849 179.761 87.6274C179.907 87.5698 180.065 87.5513 180.22 87.5736C180.376 87.596 180.522 87.6584 180.646 87.7547C180.769 87.851 180.866 87.9779 180.925 88.1228L208.473 154.947C208.518 155.057 208.542 155.174 208.541 155.292C208.541 155.411 208.518 155.528 208.472 155.637C208.427 155.746 208.36 155.845 208.276 155.929C208.192 156.012 208.093 156.079 207.984 156.124C207.874 156.169 207.757 156.192 207.639 156.192C207.52 156.192 207.403 156.168 207.294 156.123C207.185 156.077 207.085 156.011 207.002 155.927C206.918 155.843 206.852 155.743 206.807 155.634L179.84 90.2184L122.63 161.371C122.546 161.476 122.439 161.56 122.317 161.619C122.196 161.677 122.063 161.707 121.928 161.707L121.927 161.708Z" fill="#86D1FD"/>
<path d="M236.766 78.1818L219.256 76.0513L220.25 69.502L237.766 71.5056L236.766 78.1818Z" fill="url(#paint2_linear_3024_77703)"/>
<path d="M231.877 110.819L214.398 108.067L215.057 103.721L232.541 106.389L231.877 110.819ZM223.438 167.164L206.011 163.327L207.64 152.596L225.077 156.221L223.438 167.164Z" fill="#86D1FD"/>
<path d="M201.971 190.406C201.934 190.406 201.897 190.402 201.861 190.393L40.9363 150.041C40.8789 150.027 40.8249 150.001 40.7774 149.966C40.7298 149.93 40.6897 149.886 40.6593 149.835C40.6289 149.785 40.6088 149.728 40.6001 149.67C40.5915 149.611 40.5944 149.552 40.6088 149.494C40.6232 149.437 40.6488 149.383 40.6841 149.335C40.7193 149.288 40.7636 149.248 40.8144 149.217C40.8652 149.187 40.9214 149.167 40.98 149.158C41.0385 149.149 41.0982 149.152 41.1556 149.167L201.599 189.398L223.272 46.5846C223.291 46.467 223.355 46.3616 223.451 46.2913C223.548 46.221 223.668 46.1916 223.785 46.2094C223.903 46.2273 224.009 46.291 224.08 46.3866C224.151 46.4822 224.181 46.602 224.164 46.7198L202.416 190.023C202.4 190.13 202.346 190.227 202.265 190.298C202.183 190.368 202.078 190.407 201.971 190.407V190.406Z" fill="url(#paint3_linear_3024_77703)"/>
</g>
<g clip-path="url(#clip1_3024_77703)">
<path d="M254.89 186.361C250.615 215.233 227.043 232.781 203.421 225.63C180.972 218.835 167.085 192.116 171.377 165.876C175.629 139.881 196.451 122.289 218.893 126.55C242.485 131.029 259.12 157.785 254.89 186.361Z" fill="white"/>
<path d="M214.039 227.675C220.964 227.675 227.785 225.683 233.929 221.78C245.275 214.572 253.079 201.687 255.337 186.428C257.387 172.581 254.679 158.644 247.711 147.183C240.786 135.794 230.582 128.308 218.977 126.104C209.232 124.254 199.225 126.488 190.801 132.393C180.46 139.643 173.217 151.821 170.93 165.803C168.827 178.662 170.973 191.964 176.972 203.259C183.029 214.662 192.376 222.761 203.291 226.065C206.847 227.142 210.458 227.675 214.039 227.675ZM212.26 126.378C214.443 126.378 216.632 126.582 218.808 126.995C230.159 129.15 240.149 136.487 246.939 147.655C253.796 158.935 256.461 172.657 254.442 186.295C252.221 201.293 244.568 213.947 233.444 221.014C224.348 226.793 213.732 228.278 203.551 225.197C192.869 221.963 183.713 214.02 177.77 202.832C171.864 191.712 169.752 178.613 171.823 165.949C174.072 152.206 181.177 140.246 191.32 133.136C197.659 128.692 204.915 126.378 212.26 126.378Z" fill="#5C0B86"/>
<path d="M253.465 161.964C249.215 146.25 238.815 133.559 225.36 128.396L211.225 175.651L253.465 161.964Z" fill="#5C0B86"/>
<path d="M211.226 176.104C211.273 176.104 211.32 176.096 211.365 176.082L253.605 162.396C253.715 162.36 253.808 162.283 253.863 162.18C253.919 162.078 253.933 161.958 253.902 161.846C249.559 145.788 238.95 133.126 225.523 127.973C225.465 127.951 225.403 127.94 225.34 127.943C225.278 127.946 225.217 127.961 225.161 127.989C225.105 128.017 225.056 128.055 225.016 128.103C224.976 128.151 224.946 128.206 224.928 128.266L210.792 175.521C210.772 175.588 210.768 175.66 210.78 175.729C210.793 175.799 210.821 175.864 210.863 175.921C210.905 175.978 210.96 176.024 211.023 176.056C211.086 176.087 211.155 176.104 211.226 176.104ZM252.914 161.666L211.906 174.954L225.653 128.998C238.482 134.11 248.628 146.266 252.914 161.666Z" fill="#5C0B86"/>
<path d="M211.226 175.651L255.417 173.916C255.174 169.875 254.52 165.871 253.465 161.964L211.226 175.651Z" fill="white"/>
<path d="M211.225 176.104H211.243L255.435 174.369C255.495 174.366 255.554 174.352 255.608 174.326C255.663 174.3 255.712 174.264 255.752 174.219C255.792 174.175 255.823 174.122 255.843 174.066C255.863 174.009 255.872 173.948 255.868 173.888C255.623 169.817 254.964 165.783 253.902 161.846C253.885 161.787 253.857 161.732 253.819 161.684C253.781 161.636 253.734 161.596 253.68 161.567C253.626 161.537 253.567 161.519 253.506 161.514C253.445 161.508 253.384 161.515 253.326 161.533L211.086 175.22C210.983 175.253 210.896 175.322 210.84 175.414C210.784 175.506 210.762 175.615 210.779 175.721C210.796 175.828 210.85 175.925 210.932 175.995C211.013 176.065 211.117 176.104 211.225 176.104ZM254.936 173.481L214.492 175.069L253.151 162.542C254.086 166.124 254.684 169.787 254.936 173.481Z" fill="#5C0B86"/>
<path d="M254.89 186.361C255.496 182.242 255.672 178.071 255.417 173.915L211.226 175.651L213.438 227.195C233.396 227.498 251.238 211.026 254.89 186.361Z" fill="url(#paint4_linear_3024_77703)"/>
<path d="M213.984 227.653C234.444 227.653 251.786 210.412 255.337 186.428C255.946 182.278 256.124 178.075 255.867 173.888C255.859 173.77 255.806 173.66 255.718 173.581C255.631 173.502 255.516 173.459 255.398 173.463L211.207 175.198C211.087 175.203 210.974 175.256 210.892 175.344C210.811 175.433 210.768 175.55 210.772 175.67L212.985 227.214C212.99 227.33 213.039 227.439 213.122 227.52C213.204 227.601 213.315 227.647 213.43 227.648C213.615 227.651 213.801 227.653 213.984 227.653ZM254.442 186.295C250.958 209.827 233.989 226.746 213.984 226.746H213.872L211.697 176.086L254.99 174.386C255.205 178.364 255.021 182.354 254.442 186.295Z" fill="#5C0B86"/>
<path d="M211.225 176.104C211.318 176.104 211.408 176.076 211.485 176.023C211.561 175.97 211.619 175.895 211.651 175.808C211.683 175.721 211.688 175.626 211.664 175.536C211.641 175.447 211.59 175.366 211.52 175.306L178.258 146.829C178.213 146.79 178.161 146.761 178.104 146.742C178.048 146.724 177.988 146.717 177.929 146.722C177.87 146.726 177.812 146.742 177.759 146.769C177.706 146.796 177.659 146.834 177.62 146.879C177.581 146.924 177.552 146.977 177.534 147.033C177.515 147.09 177.508 147.149 177.513 147.209C177.517 147.268 177.534 147.326 177.561 147.379C177.588 147.432 177.625 147.479 177.67 147.518L210.931 175.995C211.013 176.065 211.117 176.104 211.225 176.104Z" fill="#5C0B86"/>
<path d="M304.293 144.668L267.178 137.551L269.958 118.657L307.048 125.027L304.293 144.668Z" fill="white"/>
<path d="M304.293 145.122C304.402 145.121 304.507 145.082 304.59 145.01C304.672 144.939 304.726 144.84 304.741 144.732L307.496 125.091C307.513 124.974 307.483 124.855 307.414 124.76C307.344 124.665 307.241 124.6 307.125 124.581L270.034 118.211C269.975 118.2 269.914 118.202 269.855 118.216C269.796 118.23 269.741 118.255 269.692 118.29C269.643 118.326 269.602 118.371 269.571 118.422C269.54 118.474 269.519 118.532 269.51 118.591L266.73 137.485C266.713 137.601 266.742 137.719 266.809 137.814C266.877 137.909 266.978 137.975 267.093 137.997L304.208 145.114C304.236 145.119 304.265 145.122 304.293 145.122ZM306.539 125.4L303.911 144.133L267.688 137.187L270.338 119.182L306.539 125.4Z" fill="#5C0B86"/>
<path d="M326.905 219.184L276.053 205.96L278.887 186.248L329.698 198.4L326.905 219.184Z" fill="white"/>
<path d="M326.904 219.638C327.013 219.638 327.119 219.598 327.201 219.526C327.284 219.454 327.337 219.354 327.352 219.245L330.145 198.462C330.16 198.351 330.133 198.238 330.07 198.145C330.006 198.052 329.911 197.987 329.802 197.96L278.991 185.808C278.93 185.794 278.867 185.792 278.805 185.803C278.743 185.815 278.684 185.839 278.632 185.874C278.58 185.91 278.536 185.955 278.503 186.009C278.469 186.062 278.447 186.122 278.438 186.184L275.604 205.896C275.588 206.007 275.613 206.119 275.675 206.212C275.737 206.305 275.83 206.372 275.938 206.4L326.79 219.623C326.827 219.633 326.865 219.638 326.904 219.638ZM329.194 198.746L326.524 218.617L276.558 205.624L279.264 186.805L329.194 198.746ZM242.32 141.046C242.387 141.046 242.453 141.031 242.514 141.003C242.574 140.974 242.627 140.932 242.67 140.881L254.842 126.054L268.489 128.534C268.547 128.545 268.607 128.544 268.666 128.531C268.724 128.519 268.779 128.495 268.827 128.461C268.876 128.427 268.918 128.384 268.95 128.334C268.982 128.284 269.004 128.228 269.015 128.169C269.026 128.111 269.025 128.051 269.012 127.992C269 127.934 268.976 127.879 268.942 127.83C268.908 127.781 268.865 127.739 268.815 127.707C268.765 127.675 268.709 127.653 268.651 127.642L254.742 125.115C254.663 125.101 254.581 125.108 254.505 125.136C254.43 125.163 254.363 125.211 254.312 125.273L241.971 140.305C241.916 140.371 241.882 140.451 241.871 140.537C241.861 140.622 241.875 140.708 241.911 140.786C241.948 140.864 242.006 140.929 242.078 140.975C242.15 141.021 242.234 141.046 242.32 141.046Z" fill="#5C0B86"/>
<path d="M251.652 199.134C251.668 199.135 251.683 199.134 251.698 199.132L277.517 196.538C277.577 196.533 277.636 196.517 277.69 196.489C277.744 196.462 277.791 196.424 277.83 196.377C277.869 196.331 277.898 196.277 277.916 196.219C277.934 196.162 277.94 196.101 277.934 196.041C277.928 195.98 277.91 195.922 277.881 195.869C277.852 195.816 277.812 195.769 277.765 195.731C277.718 195.694 277.664 195.666 277.606 195.649C277.547 195.633 277.487 195.629 277.427 195.636L251.608 198.23C251.493 198.242 251.386 198.298 251.311 198.386C251.236 198.474 251.197 198.588 251.202 198.704C251.208 198.819 251.258 198.929 251.342 199.009C251.425 199.089 251.537 199.134 251.652 199.134ZM297.63 130.602C297.743 130.602 297.853 130.56 297.937 130.483C298.02 130.406 298.072 130.301 298.082 130.188C298.092 130.075 298.059 129.962 297.99 129.872C297.921 129.782 297.82 129.721 297.708 129.702L278.284 126.235C278.166 126.214 278.044 126.241 277.946 126.309C277.847 126.378 277.78 126.483 277.759 126.602C277.738 126.72 277.765 126.842 277.834 126.941C277.902 127.039 278.007 127.106 278.125 127.128L297.55 130.594C297.576 130.599 297.603 130.602 297.63 130.602ZM286.929 135.07C287.042 135.07 287.151 135.028 287.234 134.952C287.318 134.876 287.37 134.771 287.38 134.658C287.39 134.545 287.358 134.432 287.29 134.342C287.221 134.252 287.121 134.191 287.01 134.171L278.139 132.53C278.081 132.52 278.021 132.52 277.963 132.533C277.905 132.545 277.849 132.569 277.8 132.603C277.752 132.636 277.71 132.679 277.677 132.729C277.645 132.779 277.623 132.835 277.612 132.894C277.601 132.952 277.602 133.012 277.614 133.071C277.627 133.129 277.65 133.184 277.684 133.233C277.718 133.282 277.761 133.324 277.811 133.356C277.86 133.389 277.916 133.411 277.975 133.422L286.846 135.062C286.873 135.068 286.901 135.07 286.929 135.07ZM297.21 201.466C297.32 201.466 297.427 201.426 297.51 201.353C297.592 201.279 297.646 201.178 297.659 201.068C297.673 200.958 297.645 200.847 297.583 200.756C297.52 200.665 297.426 200.6 297.319 200.573L286.202 197.799C286.144 197.783 286.084 197.779 286.024 197.786C285.964 197.794 285.906 197.814 285.854 197.845C285.802 197.875 285.757 197.916 285.721 197.964C285.685 198.012 285.658 198.068 285.644 198.126C285.629 198.185 285.626 198.246 285.636 198.305C285.645 198.365 285.666 198.422 285.698 198.474C285.729 198.525 285.771 198.57 285.82 198.605C285.869 198.64 285.925 198.665 285.983 198.678L297.1 201.452C297.136 201.461 297.173 201.466 297.21 201.466ZM323.266 207.969C323.376 207.969 323.483 207.929 323.566 207.856C323.649 207.782 323.702 207.681 323.715 207.571C323.729 207.461 323.701 207.35 323.639 207.259C323.576 207.168 323.482 207.103 323.375 207.076L303.44 202.101C303.325 202.075 303.204 202.095 303.103 202.157C303.003 202.219 302.93 202.319 302.902 202.433C302.873 202.548 302.891 202.67 302.95 202.772C303.01 202.874 303.107 202.949 303.221 202.98L323.156 207.955C323.192 207.964 323.229 207.969 323.266 207.969Z" fill="#5C0B86"/>
</g>
<defs>
<linearGradient id="paint0_linear_3024_77703" x1="221.806" y1="118.051" x2="213.096" y2="176.835" gradientUnits="userSpaceOnUse">
<stop stop-color="#C985FE"/>
<stop offset="1" stop-color="#999DFF"/>
</linearGradient>
<linearGradient id="paint1_linear_3024_77703" x1="168.933" y1="31.3383" x2="162.963" y2="156.347" gradientUnits="userSpaceOnUse">
<stop stop-color="#C985FE"/>
<stop offset="1" stop-color="#999DFF"/>
</linearGradient>
<linearGradient id="paint2_linear_3024_77703" x1="232.192" y1="69.502" x2="232.015" y2="76.3342" gradientUnits="userSpaceOnUse">
<stop stop-color="#C985FE"/>
<stop offset="1" stop-color="#999DFF"/>
</linearGradient>
<linearGradient id="paint3_linear_3024_77703" x1="168.887" y1="46.2043" x2="163.977" y2="159.576" gradientUnits="userSpaceOnUse">
<stop stop-color="#C985FE"/>
<stop offset="1" stop-color="#999DFF"/>
</linearGradient>
<linearGradient id="paint4_linear_3024_77703" x1="224.568" y1="173.915" x2="227.339" y2="215.702" gradientUnits="userSpaceOnUse">
<stop stop-color="#C985FE"/>
<stop offset="1" stop-color="#999DFF"/>
</linearGradient>
<clipPath id="clip0_3024_77703">
<rect width="218.951" height="187.672" fill="white" transform="translate(29.3935 21.3604)"/>
</clipPath>
<clipPath id="clip1_3024_77703">
<rect width="160.002" height="109.475" fill="white" transform="matrix(-1 0 0 1 330.15 118.204)"/>
</clipPath>
</defs>
</svg>
