<svg viewBox="0 0 215 181" fill="none" xmlns="http://www.w3.org/2000/svg">
<g clip-path="url(#clip0_1514_29749)">
<path d="M132.855 46.1165V20.5849C132.855 18.5811 134.483 16.9568 136.492 16.9568H186.005C188.014 16.9568 189.643 18.5811 189.643 20.5849V42.4883C189.643 44.4921 188.014 46.1165 186.005 46.1165H142.55L132.854 56.5459L132.855 46.1165Z" fill="#7E5EFF"/>
<path d="M132.855 56.8179C132.893 56.8179 132.93 56.8102 132.964 56.7952C132.999 56.7802 133.03 56.7583 133.055 56.7308L142.669 46.3885H186.006C188.162 46.3885 189.916 44.639 189.916 42.4882V20.5848C189.916 18.4341 188.162 16.6846 186.006 16.6846H136.493C134.337 16.6846 132.583 18.4341 132.583 20.5848V46.1164V56.5458C132.583 56.6179 132.611 56.6871 132.662 56.7381C132.714 56.7891 132.783 56.8178 132.855 56.8179ZM186.006 17.2288C187.861 17.2288 189.37 18.7341 189.37 20.5848V42.4882C189.37 44.3389 187.861 45.8442 186.006 45.8442H142.55C142.513 45.8442 142.476 45.852 142.441 45.867C142.407 45.8819 142.376 45.9039 142.35 45.9313L133.128 55.8521V20.5848C133.128 18.7341 134.637 17.2288 136.492 17.2288H186.006Z" fill="#271E4A"/>
</g>
<g clip-path="url(#clip1_1514_29749)">
<path d="M100.09 136.084H104.239C104.795 136.084 105.333 135.888 105.759 135.53C106.185 135.173 106.471 134.676 106.567 134.128L107.465 129.014H96.8633L97.7613 134.128C97.8577 134.676 98.144 135.173 98.5699 135.53C98.9959 135.888 99.5342 136.084 100.09 136.084Z" fill="#271E4A"/>
<path d="M104.24 136.356H100.092C99.4718 136.357 98.8711 136.138 98.3961 135.739C97.9211 135.34 97.6022 134.786 97.4957 134.175L96.5977 129.061C96.591 129.022 96.5928 128.982 96.6031 128.944C96.6134 128.905 96.632 128.87 96.6574 128.839C96.6828 128.809 96.7146 128.785 96.7504 128.768C96.7863 128.751 96.8254 128.742 96.865 128.742H107.467C107.507 128.742 107.546 128.75 107.582 128.767C107.618 128.784 107.65 128.808 107.676 128.839C107.701 128.869 107.72 128.905 107.73 128.943C107.74 128.982 107.742 129.022 107.735 129.061L106.837 134.175C106.73 134.786 106.411 135.34 105.936 135.739C105.461 136.138 104.861 136.357 104.24 136.356ZM97.1887 129.286L98.0309 134.081C98.1154 134.566 98.3686 135.006 98.7457 135.323C99.1228 135.64 99.5996 135.813 100.092 135.812H104.24C104.733 135.813 105.21 135.64 105.587 135.323C105.964 135.006 106.217 134.566 106.301 134.081L107.144 129.286H97.1887ZM197.55 136.096H201.698C202.254 136.096 202.793 135.9 203.219 135.542C203.645 135.184 203.931 134.688 204.027 134.14L204.925 129.026H194.323L195.221 134.14C195.317 134.688 195.604 135.185 196.029 135.542C196.455 135.9 196.994 136.096 197.55 136.096Z" fill="#271E4A"/>
<path d="M201.698 136.367H197.55C196.93 136.368 196.329 136.15 195.854 135.751C195.379 135.352 195.06 134.798 194.954 134.187L194.056 129.072C194.049 129.033 194.051 128.993 194.061 128.955C194.072 128.917 194.09 128.881 194.115 128.851C194.141 128.82 194.173 128.796 194.209 128.779C194.244 128.762 194.283 128.754 194.323 128.753H204.925C204.965 128.753 205.004 128.762 205.04 128.779C205.076 128.795 205.108 128.82 205.133 128.85C205.159 128.881 205.177 128.916 205.188 128.955C205.198 128.993 205.199 129.033 205.192 129.072L204.294 134.186C204.188 134.797 203.869 135.351 203.394 135.75C202.919 136.149 202.319 136.368 201.698 136.367ZM194.647 129.297L195.489 134.092C195.574 134.578 195.827 135.017 196.204 135.334C196.581 135.651 197.058 135.824 197.55 135.823H201.698C202.191 135.824 202.668 135.651 203.045 135.334C203.422 135.017 203.675 134.577 203.759 134.092L204.602 129.297H194.647ZM89.4908 128.535H93.639C94.1952 128.535 94.7335 128.339 95.1594 127.981C95.5853 127.624 95.8715 127.127 95.9677 126.579L96.8657 121.465H86.2637L87.1617 126.579C87.2579 127.127 87.5442 127.624 87.9702 127.982C88.3962 128.339 88.9346 128.535 89.4908 128.535Z" fill="#271E4A"/>
<path d="M93.6403 128.808H89.4924C88.8721 128.809 88.2715 128.59 87.7965 128.191C87.3215 127.792 87.0026 127.238 86.8961 126.627L85.9981 121.513C85.9914 121.474 85.9932 121.434 86.0035 121.396C86.0138 121.357 86.0324 121.322 86.0578 121.291C86.0832 121.261 86.115 121.237 86.1508 121.22C86.1867 121.203 86.2258 121.194 86.2653 121.194H96.8674C96.9071 121.194 96.9463 121.203 96.9823 121.219C97.0184 121.236 97.0502 121.26 97.0757 121.291C97.1012 121.321 97.1197 121.357 97.1299 121.395C97.1401 121.434 97.1417 121.474 97.1347 121.513L96.2366 126.627C96.1301 127.238 95.8113 127.792 95.3362 128.191C94.8612 128.59 94.2606 128.809 93.6403 128.808ZM86.5891 121.737L87.4313 126.533C87.5158 127.018 87.7689 127.458 88.146 127.775C88.5232 128.091 89 128.265 89.4924 128.264H93.6407C94.1331 128.265 94.61 128.091 94.9871 127.775C95.3642 127.458 95.6173 127.018 95.7018 126.533L96.5441 121.737H86.5891Z" fill="#271E4A"/>
<path d="M83.0449 118.163V70.4552C83.0449 67.8234 85.076 65.6896 87.5817 65.6896H192.052C192.961 65.6896 193.806 65.9732 194.515 66.4567L194.516 66.4549L207.802 74.7094L196.589 76.8113V118.163C196.589 120.795 194.558 122.928 192.052 122.928H110.549L98.6368 130.571L85.3501 122.311L85.3504 122.309C83.9748 121.49 83.0449 119.942 83.0449 118.163Z" fill="#7E5EFF"/>
<path d="M98.6388 130.842C98.5882 130.842 98.5385 130.828 98.4955 130.801L85.2087 122.542C85.2006 122.537 85.1929 122.531 85.1856 122.525C83.698 121.626 82.7754 119.958 82.7754 118.162V70.4551C82.7754 67.6773 84.9324 65.4178 87.5838 65.4178L192.055 65.4175C192.973 65.4175 193.866 65.692 194.642 66.2118L194.662 66.2234L207.948 74.4778C207.995 74.5065 208.032 74.5488 208.054 74.5989C208.076 74.6491 208.083 74.7049 208.073 74.7589C208.062 74.8129 208.036 74.8625 207.997 74.9012C207.958 74.9398 207.908 74.9658 207.854 74.9755L196.863 77.0358V118.162C196.863 120.939 194.706 123.199 192.055 123.199L110.631 123.199L98.7859 130.798C98.7422 130.827 98.6911 130.842 98.6388 130.842ZM85.5223 122.097L98.6367 130.249L110.405 122.699C110.448 122.671 110.499 122.656 110.551 122.656L192.055 122.656C194.407 122.656 196.32 120.64 196.32 118.162V76.8108C196.32 76.7475 196.342 76.6861 196.383 76.6374C196.423 76.5886 196.479 76.5556 196.542 76.5439L207.067 74.5706L194.404 66.703C194.39 66.6967 194.377 66.6893 194.365 66.6809C193.685 66.2134 192.88 65.9624 192.055 65.9608L87.5838 65.9612C85.2319 65.9612 83.3185 67.9769 83.3185 70.4551V118.162C83.3185 119.779 84.151 121.278 85.4912 122.075C85.502 122.081 85.5125 122.089 85.5223 122.097Z" fill="#271E4A"/>
<path d="M101.064 131.307L205.535 131.307C208.04 131.307 210.071 129.275 210.071 126.769V78.6068C210.071 76.1002 208.04 74.0686 205.535 74.0686L101.064 74.069C98.5584 74.069 96.5273 76.101 96.5273 78.6071V126.769C96.5273 129.276 98.5584 131.307 101.064 131.307Z" fill="#7E5EFF"/>
<path d="M200.981 122.929L105.616 122.928C105.329 122.928 105.054 122.814 104.852 122.612C104.649 122.409 104.535 122.134 104.535 121.847V83.5288C104.535 83.2421 104.649 82.9671 104.852 82.7643C105.054 82.5615 105.329 82.4476 105.616 82.4476L200.981 82.448C201.268 82.448 201.543 82.5619 201.745 82.7647C201.948 82.9674 202.062 83.2424 202.062 83.5292V121.848C202.062 122.134 201.948 122.409 201.745 122.612C201.543 122.815 201.268 122.929 200.981 122.929Z" fill="#271E4A"/>
<path d="M200.979 123.199L105.614 123.199C105.256 123.199 104.912 123.056 104.658 122.802C104.405 122.549 104.262 122.205 104.262 121.846V83.5283C104.262 83.1696 104.405 82.8258 104.658 82.5722C104.912 82.3186 105.256 82.1759 105.614 82.1754H200.979C201.338 82.1759 201.681 82.3186 201.935 82.5722C202.189 82.8258 202.331 83.1696 202.332 83.5283V121.847C202.331 122.205 202.189 122.549 201.935 122.803C201.681 123.056 201.338 123.199 200.979 123.199ZM105.614 82.7184C105.4 82.7186 105.194 82.8039 105.042 82.9557C104.89 83.1075 104.805 83.3133 104.805 83.5279V121.846C104.805 122.061 104.891 122.266 105.042 122.418C105.194 122.57 105.4 122.655 105.614 122.655L200.979 122.656C201.194 122.656 201.4 122.57 201.551 122.418C201.703 122.267 201.788 122.061 201.789 121.846V83.5279C201.788 83.3133 201.703 83.1076 201.551 82.9558C201.399 82.804 201.194 82.7187 200.979 82.7184H105.614Z" fill="#271E4A"/>
<path d="M118.367 112.598V105.491C118.367 105.385 118.324 105.283 118.249 105.208L116.908 103.866C116.871 103.828 116.826 103.799 116.778 103.779C116.729 103.759 116.677 103.748 116.624 103.748C116.508 103.731 116.411 103.793 116.336 103.87L115.69 104.539C115.618 104.615 115.578 104.714 115.578 104.818V114.584C115.578 114.664 115.601 114.741 115.645 114.807C115.689 114.873 115.752 114.925 115.825 114.955C115.899 114.986 115.979 114.994 116.057 114.978C116.135 114.962 116.207 114.924 116.263 114.868L118.249 112.881C118.324 112.806 118.367 112.705 118.367 112.598ZM128.003 113.403C127.965 113.366 127.921 113.336 127.872 113.315C127.823 113.295 127.77 113.284 127.717 113.284H119.018C118.911 113.284 118.807 113.327 118.732 113.403L116.773 115.391C116.717 115.447 116.68 115.519 116.665 115.596C116.65 115.674 116.658 115.754 116.689 115.827C116.719 115.9 116.77 115.962 116.836 116.006C116.902 116.05 116.979 116.074 117.058 116.074H129.677C129.756 116.074 129.834 116.05 129.899 116.006C129.965 115.962 130.016 115.9 130.047 115.827C130.077 115.754 130.085 115.674 130.071 115.596C130.056 115.519 130.018 115.447 129.963 115.391L128.003 113.403ZM118.397 101.8L117.418 102.793C117.344 102.869 117.302 102.97 117.302 103.075C117.302 103.181 117.344 103.282 117.418 103.357L118.397 104.351C118.473 104.427 118.576 104.47 118.683 104.47H128.055C128.16 104.47 128.262 104.428 128.336 104.354L129.342 103.361C129.38 103.323 129.41 103.279 129.431 103.23C129.451 103.181 129.462 103.129 129.462 103.076C129.462 103.023 129.451 102.97 129.431 102.921C129.41 102.872 129.38 102.828 129.342 102.791L128.336 101.797C128.261 101.723 128.16 101.682 128.055 101.681H118.683C118.63 101.681 118.577 101.692 118.528 101.712C118.479 101.733 118.435 101.763 118.397 101.8ZM118.732 92.7475C118.807 92.8236 118.91 92.8667 119.017 92.8667H127.717C127.824 92.8667 127.927 92.8236 128.002 92.7475L129.962 90.7601C130.017 90.7037 130.055 90.6322 130.07 90.5546C130.085 90.477 130.076 90.3967 130.046 90.3238C130.016 90.2509 129.964 90.1885 129.899 90.1446C129.833 90.1007 129.756 90.0772 129.677 90.077H117.057C116.978 90.0772 116.901 90.1007 116.835 90.1446C116.77 90.1885 116.718 90.2509 116.688 90.3238C116.658 90.3967 116.649 90.477 116.664 90.5546C116.679 90.6322 116.717 90.7037 116.772 90.7601L118.732 92.7475ZM130.909 91.1582C130.836 91.1277 130.755 91.1197 130.677 91.1352C130.599 91.1507 130.528 91.1889 130.472 91.2451L128.485 93.2325C128.448 93.2698 128.419 93.314 128.398 93.3627C128.378 93.4113 128.368 93.4635 128.368 93.5162V100.621C128.368 100.728 128.411 100.831 128.488 100.906L129.853 102.253C129.928 102.327 130.029 102.369 130.134 102.369C130.247 102.345 130.345 102.324 130.421 102.248L131.042 101.612C131.115 101.537 131.156 101.437 131.157 101.332V91.5291C131.157 91.4497 131.133 91.3721 131.089 91.3061C131.045 91.2401 130.982 91.1886 130.909 91.1582ZM150.461 103.876C150.424 103.837 150.38 103.806 150.331 103.784C150.282 103.763 150.23 103.751 150.176 103.75C150.066 103.727 149.964 103.79 149.888 103.866L148.527 105.209C148.451 105.285 148.408 105.387 148.408 105.494V112.605C148.408 112.712 148.45 112.813 148.525 112.889L150.511 114.877C150.567 114.933 150.639 114.972 150.717 114.987C150.795 115.003 150.875 114.995 150.949 114.964C151.022 114.934 151.085 114.882 151.129 114.816C151.173 114.75 151.196 114.673 151.196 114.593V104.815C151.196 104.713 151.157 104.615 151.086 104.54L150.461 103.876ZM150.949 91.1585C150.876 91.1281 150.795 91.1201 150.717 91.1356C150.639 91.151 150.568 91.1893 150.512 91.2454L148.525 93.2329C148.488 93.2701 148.459 93.3144 148.438 93.363C148.418 93.4117 148.408 93.4638 148.408 93.5165V100.621C148.408 100.728 148.451 100.831 148.528 100.906L149.893 102.253C149.968 102.328 150.069 102.369 150.174 102.369C150.277 102.345 150.385 102.325 150.461 102.249L151.082 101.613C151.155 101.538 151.196 101.437 151.197 101.332V91.5294C151.197 91.45 151.173 91.3725 151.129 91.3065C151.085 91.2405 151.022 91.189 150.949 91.1585ZM149.502 103.076C149.502 102.968 149.459 102.866 149.382 102.791L148.376 101.797C148.301 101.723 148.2 101.682 148.095 101.681H138.723C138.616 101.681 138.512 101.725 138.437 101.801L137.458 102.794C137.384 102.869 137.342 102.97 137.342 103.076C137.342 103.181 137.384 103.283 137.458 103.358L138.437 104.351C138.513 104.427 138.616 104.47 138.723 104.47H148.095C148.2 104.47 148.302 104.429 148.376 104.354L149.382 103.361C149.459 103.285 149.502 103.183 149.502 103.076ZM138.407 100.621V93.5093C138.407 93.4029 138.364 93.301 138.289 93.2257L136.302 91.2368C136.246 91.1806 136.175 91.1424 136.097 91.1269C136.019 91.1115 135.939 91.1194 135.866 91.1498C135.792 91.1801 135.73 91.2315 135.686 91.2975C135.642 91.3635 135.618 91.441 135.618 91.5204V101.329C135.618 101.435 135.66 101.537 135.735 101.612L136.376 102.253C136.413 102.29 136.457 102.32 136.506 102.34C136.554 102.36 136.606 102.371 136.659 102.371C136.712 102.371 136.764 102.36 136.813 102.34C136.861 102.32 136.905 102.29 136.943 102.253L138.289 100.905C138.364 100.83 138.407 100.728 138.407 100.621ZM169.98 90.0208L167.251 90.751C167.148 90.7787 167.06 90.846 167.007 90.9383L162.152 99.3532C162.1 99.4452 162.085 99.5544 162.112 99.6571L162.596 101.473C162.61 101.524 162.634 101.572 162.666 101.614C162.699 101.657 162.74 101.692 162.786 101.718C162.832 101.744 162.883 101.761 162.936 101.768C162.988 101.774 163.042 101.77 163.093 101.756L163.956 101.511C164.056 101.482 164.14 101.416 164.193 101.327L170.431 90.6109C170.471 90.5422 170.489 90.4631 170.484 90.3838C170.48 90.3044 170.451 90.2283 170.403 90.1651C170.355 90.1019 170.289 90.0544 170.214 90.0287C170.138 90.003 170.057 90.0003 169.98 90.0208ZM162.29 103.154C162.228 102.941 162.005 102.815 161.794 102.88L159.994 103.395C159.894 103.423 159.81 103.489 159.757 103.578L154.861 111.993C154.834 112.039 154.817 112.09 154.81 112.143C154.803 112.196 154.807 112.249 154.821 112.3L155.554 115.004C155.575 115.08 155.618 115.149 155.678 115.201C155.737 115.253 155.811 115.286 155.889 115.296C155.968 115.306 156.048 115.293 156.119 115.258C156.19 115.223 156.249 115.168 156.288 115.099L162.502 104.329C162.557 104.234 162.57 104.121 162.54 104.017L162.29 103.154ZM189.313 103.876C189.276 103.837 189.232 103.806 189.183 103.784C189.134 103.763 189.082 103.751 189.028 103.75C188.921 103.727 188.816 103.79 188.74 103.866L187.379 105.209C187.303 105.285 187.26 105.387 187.26 105.494V112.605C187.26 112.712 187.302 112.813 187.377 112.889L189.364 114.877C189.42 114.933 189.491 114.972 189.569 114.987C189.647 115.003 189.727 114.995 189.801 114.964C189.874 114.934 189.937 114.882 189.981 114.816C190.025 114.75 190.048 114.673 190.048 114.593V104.815C190.048 104.713 190.009 104.615 189.939 104.54L189.313 103.876ZM189.801 91.1585C189.728 91.1281 189.647 91.1201 189.569 91.1356C189.491 91.151 189.42 91.1893 189.364 91.2454L187.377 93.2329C187.34 93.2701 187.311 93.3144 187.29 93.363C187.27 93.4117 187.26 93.4638 187.26 93.5165V100.621C187.26 100.728 187.303 100.831 187.38 100.906L188.745 102.253C188.82 102.328 188.921 102.369 189.026 102.369C189.113 102.345 189.237 102.325 189.313 102.249L189.934 101.613C190.007 101.538 190.048 101.437 190.049 101.332V91.5294C190.049 91.45 190.025 91.3725 189.981 91.3065C189.937 91.2405 189.874 91.189 189.801 91.1585ZM188.939 90.3233C188.908 90.2504 188.857 90.1882 188.791 90.1444C188.725 90.1007 188.648 90.0773 188.569 90.0773H175.95C175.871 90.0776 175.794 90.1011 175.728 90.145C175.662 90.1889 175.611 90.2512 175.58 90.3241C175.55 90.3971 175.542 90.4774 175.557 90.555C175.572 90.6326 175.609 90.7041 175.664 90.7604L177.624 92.7479C177.699 92.824 177.802 92.8671 177.909 92.8671H186.609C186.716 92.8671 186.819 92.824 186.894 92.7479L188.854 90.7604C188.968 90.6453 189.001 90.4729 188.939 90.3233Z" fill="white"/>
<path d="M205.533 131.578H101.062C98.411 131.578 96.2539 129.319 96.2539 126.541V78.8337C96.2539 76.0566 98.411 73.7967 101.062 73.7964H139.123C139.195 73.7964 139.264 73.825 139.315 73.876C139.366 73.9269 139.394 73.996 139.394 74.068C139.394 74.1401 139.366 74.2092 139.315 74.2601C139.264 74.3111 139.195 74.3397 139.123 74.3397H101.062C98.7104 74.3401 96.7971 76.3558 96.7971 78.8337V126.541C96.7971 129.019 98.7104 131.035 101.062 131.035H205.533C207.885 131.035 209.798 129.019 209.798 126.541V78.8337C209.798 76.3554 207.885 74.3397 205.533 74.3397H199.76C199.688 74.3397 199.619 74.3111 199.568 74.2601C199.517 74.2092 199.489 74.1401 199.489 74.068C199.489 73.996 199.517 73.9269 199.568 73.876C199.619 73.825 199.688 73.7964 199.76 73.7964H205.533C208.185 73.7964 210.342 76.0559 210.342 78.8337V126.541C210.341 129.319 208.184 131.578 205.533 131.578Z" fill="#271E4A"/>
<path d="M147.709 74.3397H143.168C143.096 74.3397 143.027 74.3111 142.976 74.2601C142.925 74.2092 142.896 74.1401 142.896 74.068C142.896 73.996 142.925 73.9269 142.976 73.876C143.027 73.825 143.096 73.7964 143.168 73.7964H147.709C147.781 73.7964 147.85 73.825 147.901 73.876C147.952 73.9269 147.981 73.996 147.981 74.068C147.981 74.1401 147.952 74.2092 147.901 74.2601C147.85 74.3111 147.781 74.3397 147.709 74.3397ZM167.096 74.3397H153.912C153.84 74.3397 153.771 74.3111 153.72 74.2601C153.669 74.2092 153.64 74.1401 153.64 74.068C153.64 73.996 153.669 73.9269 153.72 73.876C153.771 73.825 153.84 73.7964 153.912 73.7964H167.096C167.168 73.7964 167.237 73.825 167.288 73.876C167.339 73.9269 167.368 73.996 167.368 74.068C167.368 74.1401 167.339 74.2092 167.288 74.2601C167.237 74.3111 167.168 74.3397 167.096 74.3397Z" fill="#271E4A"/>
</g>
<g clip-path="url(#clip2_1514_29749)">
<path d="M112.383 128.06L96.1578 73.8761H35.6195L34.7798 76.6799H16.4088C15.1983 76.6799 14.0222 77.0818 13.0651 77.8226C12.1081 78.5633 11.4244 79.6008 11.1215 80.7721L2.96114 112.321C2.67359 113.433 2.73572 114.606 3.13906 115.682C3.54239 116.757 4.26736 117.682 5.21532 118.33L19.4009 128.038L19.3944 128.059C18.124 132.306 18.1443 136.834 19.4529 141.068C19.5092 141.289 19.5764 141.509 19.6593 141.727L19.6607 141.732C22.6129 149.468 42.184 155.445 65.8881 155.445C89.5922 155.445 109.163 149.468 112.115 141.732H112.116L112.119 141.721C112.2 141.509 112.265 141.296 112.32 141.081C113.633 136.843 113.655 132.31 112.383 128.06ZM9.95803 115.083C9.29186 114.627 8.7824 113.977 8.49894 113.221C8.21549 112.466 8.17181 111.641 8.37386 110.86L15.2163 84.4061C15.4139 83.6425 15.8596 82.9662 16.4836 82.4833C17.1075 82.0005 17.8742 81.7385 18.6634 81.7385H33.2647L21.0146 122.649L9.95803 115.083Z" fill="#7E5EFF"/>
<path d="M17.3066 79.0622C14.3835 79.0723 11.1215 80.7726 9.26659 87.9435L2.96114 112.322C2.67359 113.433 2.73572 114.606 3.13906 115.682C3.54239 116.757 4.26736 117.682 5.21532 118.33L19.4009 128.038L19.3944 128.059C18.124 132.306 18.1443 136.834 19.4529 141.068C19.5092 141.289 19.5764 141.509 19.6593 141.727L19.6607 141.732C20.1821 143.099 21.2253 144.41 22.7157 145.644C24.8812 144.315 21.8942 142.334 20.7566 137.289C19.3523 131.062 22.0621 123.399 21.5905 123.044L19.2465 121.44L9.95803 115.084C9.29186 114.628 8.7824 113.978 8.49894 113.222C8.21549 112.467 8.17181 111.642 8.37386 110.861L15.2163 84.4069C15.4139 83.6433 15.8596 82.967 16.4836 82.4841C17.1075 82.0013 17.8742 81.7392 18.6634 81.7392H25.5269C25.5269 81.7392 24.1498 79.0386 17.3066 79.0622Z" fill="white"/>
<path d="M65.8868 155.717C42.4094 155.717 22.4266 149.746 19.4051 141.828C19.3192 141.602 19.2465 141.37 19.1871 141.135C17.8785 136.911 17.8417 132.395 19.0813 128.15L5.0592 118.555C3.02957 117.166 2.07943 114.634 2.6953 112.253L10.8556 80.7041C11.1736 79.4744 11.8914 78.3851 12.8962 77.6074C13.901 76.8297 15.1359 76.4077 16.4068 76.4078H34.5746L35.3562 73.7983C35.373 73.7422 35.4074 73.693 35.4544 73.658C35.5014 73.623 35.5584 73.604 35.617 73.604H96.1558C96.2144 73.604 96.2715 73.6229 96.3186 73.6579C96.3657 73.6929 96.4002 73.7421 96.417 73.7983L112.642 127.982C113.934 132.296 113.912 136.853 112.579 141.161C112.52 141.391 112.452 141.609 112.373 141.818L112.367 141.833C109.34 149.748 89.3598 155.717 65.8868 155.717ZM16.4068 76.9522C15.2567 76.9521 14.1392 77.334 13.2298 78.0378C12.3205 78.7416 11.6709 79.7274 11.3832 80.8403L3.22287 112.39C2.66441 114.549 3.52626 116.846 5.36732 118.105L19.5529 127.813C19.6006 127.846 19.6366 127.893 19.6558 127.947C19.675 128.001 19.6764 128.061 19.6598 128.116C18.3942 132.343 18.4142 136.787 19.7114 140.988C19.7731 141.228 19.8378 141.434 19.9123 141.629C22.8594 149.352 42.6234 155.172 65.8868 155.172C89.1501 155.172 108.914 149.352 111.859 141.634C111.862 141.626 111.865 141.619 111.869 141.612C111.942 141.412 112.001 141.222 112.055 141.012C113.359 136.795 113.38 132.347 112.12 128.137L95.953 74.148H35.8202L35.039 76.7575C35.0221 76.8137 34.9876 76.8629 34.9406 76.8979C34.8935 76.9329 34.8364 76.9518 34.7777 76.9518H16.4068V76.9522ZM21.0125 122.921C20.9575 122.921 20.9039 122.904 20.8584 122.873L9.80192 115.307C9.09095 114.819 8.54726 114.124 8.24432 113.316C7.94138 112.509 7.8938 111.628 8.10801 110.792L14.9505 84.3381C15.1631 83.5161 15.643 82.788 16.3146 82.2681C16.9863 81.7483 17.8118 81.4663 18.6613 81.4664H33.2629C33.3054 81.4665 33.3472 81.4765 33.3851 81.4956C33.423 81.5146 33.4559 81.5423 33.4813 81.5763C33.5066 81.6103 33.5237 81.6497 33.5311 81.6915C33.5386 81.7332 33.5362 81.7761 33.5242 81.8168L21.2734 122.727C21.2565 122.783 21.222 122.832 21.175 122.867C21.128 122.902 21.0711 122.921 21.0125 122.921ZM10.11 114.858L20.8584 122.213L32.8971 82.0107H18.6613C17.9326 82.0108 17.2245 82.2528 16.6483 82.6987C16.0722 83.1446 15.6605 83.7691 15.4781 84.4743L8.63559 110.928C8.44905 111.655 8.49044 112.422 8.75414 113.125C9.01785 113.828 9.49115 114.433 10.11 114.858Z" fill="#271E4A"/>
<path d="M108.294 139.425H23.4788C23.4211 139.425 23.3648 139.407 23.3182 139.373C23.2716 139.339 23.237 139.291 23.2194 139.236L23.0929 138.843C21.8054 134.846 21.7637 130.553 22.9734 126.533C22.9902 126.476 23.0246 126.427 23.0716 126.392C23.1186 126.357 23.1756 126.338 23.2343 126.338L108.538 126.339C108.597 126.339 108.654 126.358 108.701 126.393C108.748 126.428 108.782 126.477 108.799 126.533C110.009 130.553 109.967 134.846 108.68 138.842L108.553 139.236C108.536 139.291 108.501 139.339 108.455 139.373C108.408 139.407 108.352 139.426 108.294 139.425ZM23.6775 138.881H108.095L108.161 138.676C109.393 134.85 109.454 130.744 108.335 126.884L23.4385 126.883C22.3191 130.744 22.3797 134.85 23.6125 138.676L23.6775 138.881Z" fill="#271E4A"/>
<path d="M108.423 138.534L108.297 138.928H23.4817L23.3553 138.535C22.0898 134.59 22.0486 130.354 23.2372 126.386L38.1212 76.6805H93.6567L108.541 126.386C109.729 130.354 109.688 134.589 108.423 138.534Z" fill="white"/>
<path d="M56.6221 80.0708L54.3203 117.752H56.6221L58.5671 78.7802L56.6221 80.0708Z" fill="#7E5EFF"/>
<path d="M65.5803 92.4481C66.3916 92.4481 67.0493 91.4398 67.0493 90.1959C67.0493 88.9521 66.3916 87.9437 65.5803 87.9437C64.769 87.9437 64.1113 88.9521 64.1113 90.1959C64.1113 91.4398 64.769 92.4481 65.5803 92.4481Z" fill="#271E4A"/>
<path d="M65.5794 92.7196C64.6027 92.7196 63.8379 91.6106 63.8379 90.1951C63.8379 88.7796 64.6027 87.6705 65.5794 87.6705C66.5561 87.6705 67.3209 88.7792 67.3209 90.1951C67.3209 91.611 66.5561 92.7196 65.5794 92.7196ZM65.5794 88.2156C64.9308 88.2156 64.3829 89.1224 64.3829 90.1955C64.3829 91.2685 64.9308 92.1753 65.5794 92.1753C66.228 92.1753 66.7759 91.2685 66.7759 90.1955C66.7759 89.122 66.2283 88.2156 65.5794 88.2156Z" fill="#271E4A"/>
<path d="M65.5805 112.41C66.6033 112.41 67.4324 110.939 67.4324 109.123C67.4324 107.308 66.6033 105.837 65.5805 105.837C64.5577 105.837 63.7285 107.308 63.7285 109.123C63.7285 110.939 64.5577 112.41 65.5805 112.41Z" fill="#271E4A"/>
<path d="M65.5776 112.682C64.3866 112.682 63.4531 111.119 63.4531 109.124C63.4531 107.128 64.3862 105.565 65.5776 105.565C66.769 105.565 67.7021 107.128 67.7021 109.124C67.7021 111.119 66.769 112.682 65.5776 112.682ZM65.5776 106.109C64.7216 106.109 63.9981 107.489 63.9981 109.123C63.9981 110.757 64.7216 112.137 65.5776 112.137C66.4336 112.137 67.157 110.757 67.157 109.123C67.157 107.489 66.4336 106.109 65.5776 106.109Z" fill="#271E4A"/>
<path d="M65.5805 101.796C66.1006 101.796 66.5222 101.322 66.5222 100.737C66.5222 100.152 66.1006 99.6772 65.5805 99.6772C65.0603 99.6772 64.6387 100.152 64.6387 100.737C64.6387 101.322 65.0603 101.796 65.5805 101.796Z" fill="#271E4A"/>
<path d="M65.5795 102.068C64.9099 102.068 64.3652 101.471 64.3652 100.737C64.3652 100.002 64.9102 99.405 65.5795 99.405C66.2488 99.405 66.7938 100.002 66.7938 100.737C66.7942 101.471 66.2492 102.068 65.5795 102.068ZM65.5795 99.9494C65.2104 99.9494 64.9102 100.302 64.9102 100.736C64.9102 101.17 65.2107 101.523 65.5795 101.523C65.9483 101.523 66.2488 101.17 66.2488 100.736C66.2492 100.302 65.9487 99.9494 65.5795 99.9494Z" fill="#271E4A"/>
<path d="M65.8861 151.735C89.5024 151.735 108.647 145.268 108.647 137.29C108.647 129.312 89.5024 122.845 65.8861 122.845C42.2698 122.845 23.125 129.312 23.125 137.29C23.125 145.268 42.2698 151.735 65.8861 151.735Z" fill="#271E4A"/>
<path d="M65.8871 152.006C54.4364 152.006 43.6672 150.499 35.5632 147.761C27.3673 144.993 22.8535 141.273 22.8535 137.289C22.8535 133.305 27.3673 129.585 35.5632 126.817C43.6672 124.079 54.4364 122.572 65.8871 122.572C77.3379 122.572 88.107 124.079 96.211 126.817C104.407 129.585 108.92 133.305 108.92 137.289C108.92 141.273 104.407 144.993 96.211 147.761C88.107 150.499 77.3379 152.006 65.8871 152.006ZM65.8871 123.116C42.4588 123.116 23.3985 129.474 23.3985 137.289C23.3985 145.103 42.4588 151.461 65.8871 151.461C89.3151 151.461 108.376 145.103 108.376 137.289C108.376 129.474 89.3151 123.116 65.8871 123.116Z" fill="#271E4A"/>
<path d="M109.138 128.978C109.657 132.175 109.413 135.449 108.424 138.533L108.297 138.927H23.4817L23.3553 138.534C22.3641 135.444 22.1202 132.163 22.6435 128.961L109.138 128.978Z" fill="#271E4A"/>
<path d="M108.295 139.2H23.4802C23.4224 139.2 23.3662 139.181 23.3196 139.147C23.273 139.113 23.2384 139.066 23.2207 139.011L23.0943 138.617C22.0937 135.485 21.8466 132.162 22.3731 128.917C22.3835 128.853 22.4163 128.795 22.4655 128.754C22.5148 128.712 22.5773 128.689 22.6419 128.689L109.136 128.706C109.201 128.706 109.263 128.729 109.313 128.771C109.362 128.813 109.395 128.871 109.405 128.935C109.928 132.174 109.68 135.491 108.681 138.617L108.555 139.011C108.537 139.066 108.502 139.114 108.456 139.148C108.409 139.182 108.353 139.2 108.295 139.2ZM23.6789 138.655H108.097L108.162 138.45C109.111 135.481 109.365 132.333 108.903 129.25L22.8752 129.233C22.4102 132.321 22.6629 135.475 23.6135 138.45L23.6789 138.655Z" fill="#271E4A"/>
<path d="M65.8895 144.316C89.7654 144.316 109.121 137.777 109.121 129.711C109.121 121.646 89.7654 115.107 65.8895 115.107C42.0135 115.107 22.6582 121.646 22.6582 129.711C22.6582 137.777 42.0135 144.316 65.8895 144.316Z" fill="#271E4A"/>
<path d="M65.8889 144.587C54.3124 144.587 43.4252 143.063 35.2322 140.296C26.9473 137.497 22.3848 133.738 22.3848 129.711C22.3848 125.684 26.9473 121.925 35.2322 119.127C43.4249 116.359 54.3124 114.835 65.8889 114.835C77.4653 114.835 88.3525 116.359 96.5452 119.127C104.83 121.926 109.393 125.684 109.393 129.711C109.393 133.738 104.83 137.497 96.5452 140.296C88.3525 143.063 77.465 144.587 65.8889 144.587ZM65.8889 115.38C42.2015 115.38 22.9301 121.809 22.9301 129.711C22.9301 137.614 42.2015 144.043 65.8889 144.043C89.5763 144.043 108.848 137.614 108.848 129.711C108.848 121.809 89.5763 115.38 65.8889 115.38Z" fill="#271E4A"/>
<path d="M65.8865 138.945C47.9842 138.945 29.4668 135.281 29.4668 129.151C29.4668 127.711 30.4867 126.353 32.4982 125.115C32.5591 125.078 32.6269 125.052 32.6975 125.041C32.7682 125.03 32.8404 125.032 32.9101 125.049C32.9797 125.065 33.0454 125.096 33.1034 125.138C33.1614 125.179 33.2106 125.232 33.2481 125.293C33.2856 125.354 33.3108 125.422 33.3221 125.493C33.3335 125.563 33.3308 125.635 33.3142 125.705C33.2977 125.775 33.2675 125.84 33.2256 125.898C33.1836 125.956 33.1307 126.005 33.0697 126.043C31.9234 126.748 30.5565 127.86 30.5565 129.151C30.5565 133.354 44.753 137.855 65.8861 137.855C68.5719 137.855 71.249 137.778 73.8433 137.626C73.9855 137.621 74.1239 137.672 74.229 137.768C74.3341 137.864 74.3976 137.997 74.4059 138.139C74.4142 138.281 74.3667 138.42 74.2734 138.528C74.1802 138.635 74.0486 138.702 73.9069 138.714C71.2919 138.867 68.5934 138.945 65.8865 138.945ZM101.697 130.256C101.615 130.256 101.534 130.237 101.46 130.202C101.386 130.166 101.321 130.114 101.27 130.05C101.219 129.986 101.183 129.911 101.164 129.831C101.146 129.751 101.147 129.668 101.165 129.588C101.199 129.443 101.216 129.295 101.216 129.15C101.216 126.951 97.2546 124.656 90.6188 123.011C90.4785 122.976 90.3578 122.887 90.2832 122.763C90.2086 122.64 90.1862 122.491 90.221 122.351C90.2558 122.211 90.3449 122.09 90.4687 122.016C90.5925 121.941 90.7409 121.919 90.8812 121.954C100.324 124.295 102.306 127.159 102.306 129.15C102.306 129.378 102.279 129.607 102.227 129.833C102.199 129.953 102.132 130.06 102.036 130.137C101.939 130.214 101.82 130.255 101.697 130.256ZM47.3571 121.773C47.2199 121.773 47.0879 121.721 46.9873 121.628C46.8868 121.534 46.8251 121.407 46.8146 121.27C46.8041 121.133 46.8456 120.998 46.9307 120.89C47.0158 120.783 47.1383 120.711 47.2739 120.69C52.8752 119.818 59.3114 119.356 65.8865 119.356C66.031 119.356 66.1696 119.413 66.2718 119.516C66.374 119.618 66.4315 119.756 66.4315 119.901C66.4315 120.045 66.374 120.184 66.2718 120.286C66.1696 120.388 66.031 120.445 65.8865 120.445C59.3666 120.445 52.9885 120.902 47.4417 121.766C47.4137 121.771 47.3854 121.773 47.3571 121.773Z" fill="#7E5EFF"/>
<path d="M54.3235 133.083C54.3064 133.083 54.2889 133.082 54.2715 133.081C49.1211 132.594 40.4805 131.364 40.4805 128.59C40.4805 127.691 41.3154 126.924 43.033 126.244C43.1674 126.191 43.3174 126.194 43.4501 126.251C43.5828 126.309 43.6872 126.416 43.7404 126.551C43.7936 126.685 43.7912 126.835 43.7337 126.968C43.6763 127.1 43.5685 127.205 43.4341 127.258C42.0599 127.801 41.5705 128.302 41.5705 128.591C41.5705 129.44 45.0466 131.116 54.374 131.996C54.5131 132.01 54.6418 132.076 54.7333 132.182C54.8249 132.287 54.8723 132.424 54.8658 132.564C54.8594 132.703 54.7994 132.835 54.6985 132.932C54.5975 133.028 54.4633 133.083 54.3235 133.083ZM65.8894 133.594C65.7448 133.594 65.6062 133.536 65.504 133.434C65.4018 133.332 65.3444 133.193 65.3444 133.049C65.3444 132.905 65.4018 132.766 65.504 132.664C65.6062 132.562 65.7448 132.504 65.8894 132.504C68.6145 132.504 71.2912 132.426 73.8455 132.27C73.9882 132.264 74.1277 132.314 74.2338 132.41C74.3399 132.505 74.4043 132.639 74.4129 132.781C74.4216 132.924 74.3739 133.064 74.2802 133.172C74.1864 133.28 74.0541 133.346 73.9116 133.357C71.3352 133.514 68.6359 133.594 65.8894 133.594ZM85.2835 126.345C85.2443 126.345 85.2043 126.341 85.164 126.332C80.4514 125.28 73.4258 124.677 65.889 124.677C65.7445 124.677 65.6059 124.619 65.5036 124.517C65.4014 124.415 65.344 124.277 65.344 124.132C65.344 123.988 65.4014 123.849 65.5036 123.747C65.6059 123.645 65.7445 123.587 65.889 123.587C73.5025 123.587 80.6146 124.2 85.4016 125.269C85.5326 125.298 85.6481 125.374 85.7262 125.483C85.8042 125.592 85.8393 125.726 85.8247 125.86C85.8101 125.993 85.7468 126.116 85.6469 126.206C85.5471 126.295 85.4177 126.345 85.2835 126.345Z" fill="#7E5EFF"/>
<path d="M69.8809 109.236L73.1575 139.304L79.4844 134.529L76.3858 106.784L69.8809 109.236ZM86.8442 114.139L90.2012 129.712L95.1077 125.745L90.7498 110.139L86.8442 114.139Z" fill="white"/>
<path d="M106.433 71.9297C106.433 79.494 88.2805 85.6259 65.8884 85.6259C43.4964 85.6259 25.3438 79.494 25.3438 71.9297C25.3438 70.3094 26.1827 68.6281 26.1827 68.6281C26.1827 68.6281 48.2928 58.2332 65.8884 58.2332C83.9331 58.2332 105.543 68.6281 105.543 68.6281C105.543 68.6281 106.433 70.4612 106.433 71.9297Z" fill="#271E4A"/>
<path d="M65.8875 85.8981C55.0287 85.8981 44.8162 84.4684 37.1307 81.8723C29.3534 79.245 25.0703 75.7142 25.0703 71.9295C25.0703 70.2641 25.9024 68.5774 25.9376 68.5062C25.9651 68.4515 26.0101 68.4075 26.0655 68.3813C26.1211 68.3551 31.6959 65.7463 39.3493 63.1724C46.4185 60.7949 56.7611 57.9609 65.8875 57.9609C83.7872 57.9609 105.444 68.2785 105.66 68.3827C105.716 68.4093 105.76 68.4539 105.787 68.5091C105.825 68.5861 106.704 70.4156 106.704 71.9295C106.704 75.7138 102.421 79.245 94.6439 81.8723C86.9585 84.4684 76.746 85.8981 65.8875 85.8981ZM26.386 68.8334C26.2228 69.1867 25.6153 70.5939 25.6153 71.9295C25.6153 79.3314 43.6815 85.3534 65.8871 85.3534C88.0928 85.3534 106.159 79.3314 106.159 71.9295C106.159 70.7155 105.505 69.2034 105.336 68.8319C103.815 68.1151 83.0853 58.5056 65.8871 58.5056C56.8366 58.5056 46.5584 61.3233 39.5295 63.6866C32.4287 66.0742 27.1257 68.4917 26.386 68.8334Z" fill="#271E4A"/>
<path d="M65.8867 82.7212C87.8151 82.7212 105.592 76.716 105.592 69.3082C105.592 61.9004 87.8151 55.8953 65.8867 55.8953C43.9582 55.8953 26.1816 61.9004 26.1816 69.3082C26.1816 76.716 43.9582 82.7212 65.8867 82.7212Z" fill="#271E4A"/>
<path d="M65.888 82.9928C55.2534 82.9928 45.2516 81.5926 37.725 79.0499C30.106 76.4763 25.9102 73.0163 25.9102 69.3075C25.9102 65.5988 30.106 62.1391 37.725 59.5652C45.2516 57.0225 55.2537 55.6222 65.888 55.6222C76.5224 55.6222 86.5244 57.0225 94.0511 59.5652C101.67 62.1388 105.866 65.5988 105.866 69.3075C105.866 73.0163 101.67 76.4759 94.0511 79.0499C86.5241 81.5926 76.5224 82.9928 65.888 82.9928ZM65.888 56.1673C44.1449 56.1673 26.4552 62.0621 26.4552 69.3079C26.4552 76.5536 44.1449 82.4485 65.888 82.4485C87.6312 82.4485 105.321 76.5536 105.321 69.3079C105.321 62.0621 87.6312 56.1673 65.888 56.1673Z" fill="#271E4A"/>
<path d="M101.266 31.7139H30.5059L48.6617 69.3091H48.6646C49.6642 72.2233 56.9906 74.4864 65.886 74.4864C74.781 74.4864 82.1078 72.2237 83.1074 69.3091H83.1106L101.266 31.7139Z" fill="#7E5EFF"/>
<path d="M65.8887 74.7569C57.0105 74.7569 49.5223 72.4721 48.4236 69.4351L48.4189 69.426L30.263 31.8304C30.2432 31.7889 30.2341 31.743 30.2368 31.6971C30.2394 31.6512 30.2536 31.6066 30.2781 31.5677C30.3026 31.5287 30.3365 31.4965 30.3767 31.4741C30.417 31.4518 30.4622 31.4399 30.5082 31.4397H101.269C101.315 31.4397 101.36 31.4514 101.4 31.4738C101.441 31.4961 101.475 31.5283 101.499 31.5673C101.524 31.6064 101.538 31.651 101.54 31.697C101.543 31.743 101.534 31.7889 101.514 31.8304L83.3579 69.4257L83.3539 69.4337C82.2566 72.4717 74.7681 74.7569 65.8887 74.7569ZM48.8938 69.1566C48.907 69.176 48.9175 69.1972 48.925 69.2194C49.8853 72.0192 57.3364 74.2126 65.8887 74.2126C74.4407 74.2126 81.8918 72.0192 82.8525 69.2194C82.8601 69.1969 82.8707 69.1755 82.8841 69.1559L100.835 31.9848H30.9424L48.8938 69.1566Z" fill="#271E4A"/>
<path d="M65.888 42.1517C85.6059 42.1517 101.59 36.7519 101.59 30.091C101.59 23.4301 85.6059 18.0304 65.888 18.0304C46.1701 18.0304 30.1855 23.4301 30.1855 30.091C30.1855 36.7519 46.1701 42.1517 65.888 42.1517Z" fill="#7E5EFF"/>
<path d="M65.8894 42.4243C56.324 42.4243 47.3273 41.1645 40.5564 38.8775C33.6936 36.5592 29.9141 33.4387 29.9141 30.0913C29.9141 26.7439 33.6936 23.6234 40.5564 21.3051C47.3273 19.018 56.324 17.7583 65.8894 17.7583C75.4547 17.7583 84.4514 19.018 91.222 21.3051C98.0848 23.6234 101.864 26.7439 101.864 30.0913C101.864 33.4387 98.0848 36.5592 91.222 38.8775C84.4511 41.1645 75.4547 42.4243 65.8894 42.4243ZM65.8894 18.303C46.3531 18.303 30.4594 23.5911 30.4594 30.0913C30.4594 36.5915 46.3531 41.8796 65.8894 41.8796C85.4256 41.8796 101.319 36.5915 101.319 30.0913C101.319 23.5911 85.4252 18.303 65.8894 18.303Z" fill="#271E4A"/>
<path d="M65.8866 45.2409C50.6026 45.2409 36.9384 41.7591 32.6575 36.7739C32.6104 36.7191 32.5871 36.6478 32.5926 36.5757C32.5981 36.5037 32.632 36.4368 32.6869 36.3897C32.7418 36.3427 32.8131 36.3194 32.8852 36.3249C32.9573 36.3304 33.0243 36.3643 33.0713 36.4192C37.256 41.2925 50.7501 44.6962 65.8866 44.6962C81.0257 44.6962 94.5202 41.2918 98.7034 36.4173C98.7505 36.3625 98.8174 36.3286 98.8895 36.3231C98.9616 36.3175 99.0329 36.3409 99.0878 36.3879C99.1427 36.435 99.1766 36.5019 99.1822 36.5739C99.1877 36.646 99.1643 36.7173 99.1173 36.7721C94.8378 41.7584 81.1728 45.2409 65.8866 45.2409Z" fill="#271E4A"/>
<path d="M65.8867 42.1523C78.9711 42.1523 90.4091 39.7741 96.6259 36.228C98.1639 29.4997 101.543 14.112 101.267 9.35303C101.203 12.8374 93.2396 27.8496 91.2597 33.8719C88.5481 33.6137 81.8339 33.743 80.5429 33.0977C79.2519 32.4524 68.5348 25.3548 60.6586 22.774C58.5588 22.0858 38.9151 13.0178 37.352 13.8698C35.8979 19.6125 36.8953 35.1331 37.352 37.3406C43.8674 40.2625 54.2234 42.1523 65.8867 42.1523Z" fill="#7E5EFF"/>
<path d="M65.8886 42.424C54.5352 42.424 44.0938 40.6613 37.2419 37.5884C37.2026 37.5707 37.1681 37.544 37.1411 37.5104C37.1141 37.4768 37.0955 37.4373 37.0868 37.3952C36.67 35.3794 35.5829 19.7516 37.0893 13.8023C37.0986 13.7659 37.1152 13.7319 37.1382 13.7023C37.1612 13.6727 37.1901 13.6481 37.223 13.6302C38.2738 13.0582 44.5629 15.5806 55.8008 20.4372C58.2471 21.4943 60.1798 22.3296 60.7451 22.5148C67.0615 24.5847 75.0256 29.4413 78.8527 31.7756C79.7603 32.329 80.4158 32.7288 80.6661 32.8537C81.4502 33.2456 84.7167 33.3425 87.3415 33.4206C88.7654 33.4627 90.1159 33.503 91.0708 33.5815C91.9283 31.0533 93.7094 27.163 95.5919 23.0504C98.2305 17.2859 100.959 11.3257 100.996 9.34764C100.997 9.27723 101.026 9.21005 101.076 9.16022C101.125 9.11039 101.192 9.08177 101.263 9.08037C101.399 9.07202 101.532 9.1904 101.54 9.33675C101.807 13.9323 98.7431 28.195 96.8926 36.2883C96.8843 36.3251 96.8684 36.3597 96.846 36.39C96.8235 36.4202 96.795 36.4455 96.7622 36.4641C90.3176 40.1402 78.4875 42.424 65.8886 42.424ZM37.5944 37.149C44.3805 40.1561 54.6809 41.8792 65.8886 41.8792C78.3306 41.8792 89.9982 39.647 96.3887 36.0497C97.9551 29.1918 100.368 18.0125 100.904 12.0273C99.9309 14.8815 97.9863 19.1296 96.0878 23.277C94.1599 27.488 92.3392 31.4655 91.5203 33.9566C91.5011 34.0154 91.4624 34.0659 91.4106 34.0997C91.3588 34.1335 91.297 34.1486 91.2354 34.1425C90.2925 34.0528 88.8511 34.01 87.3255 33.9646C84.37 33.8767 81.3143 33.7863 80.4227 33.3407C80.1516 33.2053 79.5219 32.8214 78.5689 32.24C75.0565 30.0982 66.8315 25.0822 60.5751 23.0319C59.9861 22.839 58.14 22.0409 55.5846 20.9366C50.6028 18.7835 39.099 13.8125 37.5831 14.0765C36.2587 19.6144 37.1039 34.404 37.5944 37.149Z" fill="#271E4A"/>
<path d="M80.5453 33.0973C81.8367 33.7426 88.5509 33.6133 91.2621 33.8715C93.9738 34.1297 101.205 12.837 101.269 9.35263C101.328 6.17478 59.7418 15.7385 51.3398 18.8146C53.8963 19.9429 58.5613 22.0854 60.661 22.7732C68.5372 25.3544 79.2544 32.452 80.5453 33.0973Z" fill="url(#paint0_linear_1514_29749)"/>
<path d="M80.5453 33.0973C81.8367 33.7426 88.5509 33.6133 91.2621 33.8715C93.9738 34.1297 101.205 12.837 101.269 9.35263C101.328 6.17478 59.7418 15.7385 51.3398 18.8146C53.8963 19.9429 58.5613 22.0854 60.661 22.7732C68.5372 25.3544 79.2544 32.452 80.5453 33.0973Z" fill="black" fill-opacity="0.2"/>
<path d="M91.3112 34.146C91.2854 34.146 91.2592 34.1449 91.2338 34.1424C90.2909 34.0527 88.8495 34.0098 87.3238 33.9644C84.3688 33.8769 81.3131 33.7861 80.4211 33.3406C80.15 33.2051 79.5203 32.8213 78.5673 32.2399C75.0548 30.0981 66.8299 25.082 60.5735 23.0317C58.8563 22.4689 55.535 20.9854 52.8662 19.7932C52.2656 19.5249 51.709 19.2761 51.2268 19.0633C51.1772 19.0413 51.1352 19.005 51.1064 18.9591C51.0775 18.9131 51.0631 18.8596 51.0649 18.8053C51.0667 18.7511 51.0846 18.6986 51.1165 18.6546C51.1483 18.6107 51.1925 18.5772 51.2435 18.5586C58.9057 15.7533 98.0893 6.56802 101.244 8.81368C101.493 8.99126 101.542 9.20733 101.539 9.3573C101.479 12.6583 95.3483 30.9101 92.1923 33.7255C91.8754 34.008 91.5862 34.146 91.3112 34.146ZM52.0745 18.8436L53.0886 19.2961C55.6055 20.4207 59.0529 21.9605 60.7431 22.5146C67.0595 24.5845 75.0236 29.4412 78.8507 31.7754C79.7583 32.3289 80.4138 32.7287 80.6641 32.8536C81.4482 33.2454 84.7147 33.3424 87.3395 33.4205C88.8746 33.4659 90.3243 33.5091 91.285 33.6006C91.4205 33.6129 91.6116 33.5134 91.8289 33.3195C94.8774 30.5999 100.938 12.3558 100.994 9.34786C100.994 9.33552 100.995 9.3061 100.927 9.2578C99.7167 8.39643 91.2127 9.5298 78.1778 12.2889C67.7753 14.4907 56.633 17.2945 52.0745 18.8436ZM52.5541 68.7283C52.5 68.7283 52.4471 68.7122 52.4021 68.6821C52.3571 68.6519 52.3221 68.6091 52.3016 68.559L42.3816 44.3383C42.3542 44.2714 42.3546 44.1964 42.3826 44.1297C42.4105 44.0631 42.4638 44.0103 42.5308 43.983C42.5977 43.9556 42.6727 43.9559 42.7394 43.9839C42.8061 44.0119 42.8589 44.0651 42.8863 44.132L52.8063 68.3528C52.8232 68.3941 52.8297 68.439 52.8252 68.4835C52.8206 68.5279 52.8052 68.5706 52.7803 68.6077C52.7554 68.6448 52.7217 68.6752 52.6823 68.6962C52.6428 68.7173 52.5988 68.7283 52.5541 68.7283ZM54.8781 69.5806C54.8228 69.5804 54.7689 69.5636 54.7234 69.5322C54.6779 69.5008 54.643 69.4564 54.6234 69.4048L48.8128 54.0995C48.7892 54.0325 48.7928 53.9589 48.8227 53.8944C48.8527 53.83 48.9067 53.7798 48.9732 53.7546C49.0397 53.7293 49.1134 53.7311 49.1786 53.7595C49.2438 53.7878 49.2953 53.8405 49.3222 53.9063L55.1328 69.2116C55.1484 69.2528 55.1538 69.2972 55.1485 69.341C55.1432 69.3848 55.1273 69.4266 55.1023 69.4629C55.0772 69.4992 55.0437 69.5288 55.0047 69.5493C54.9656 69.5698 54.9222 69.5805 54.8781 69.5806ZM63.7265 67.9541C63.6543 67.9541 63.585 67.9254 63.5339 67.8743C63.4827 67.8232 63.454 67.7539 63.454 67.6817V47.0342C63.454 46.962 63.4827 46.8927 63.5339 46.8417C63.585 46.7906 63.6543 46.7619 63.7265 46.7619C63.7988 46.7619 63.8681 46.7906 63.9192 46.8417C63.9703 46.8927 63.9991 46.962 63.9991 47.0342V67.6817C63.9991 67.7539 63.9703 67.8232 63.9192 67.8743C63.8681 67.9254 63.7988 67.9541 63.7265 67.9541ZM66.5203 61.0714H66.5112C66.439 61.069 66.3707 61.038 66.3214 60.9853C66.272 60.9326 66.2455 60.8625 66.2478 60.7904L66.775 44.9596C66.7786 44.8879 66.8099 44.8203 66.8624 44.7712C66.9148 44.722 66.9843 44.6952 67.0562 44.6963C67.1284 44.6987 67.1968 44.7297 67.2462 44.7824C67.2956 44.8351 67.322 44.9052 67.3196 44.9774L66.7924 60.8082C66.7902 60.8788 66.7605 60.9457 66.7097 60.9949C66.6589 61.044 66.591 61.0715 66.5203 61.0714ZM79.4844 64.9483C79.4408 64.9484 79.3979 64.938 79.3592 64.9181C79.3206 64.8982 79.2872 64.8693 79.262 64.8338C79.2368 64.7984 79.2204 64.7574 79.2143 64.7143C79.2081 64.6713 79.2124 64.6274 79.2267 64.5863L87.0782 42.0621C87.1031 41.9953 87.1531 41.9409 87.2177 41.9105C87.2822 41.8802 87.3561 41.8763 87.4234 41.8998C87.4908 41.9233 87.5462 41.9722 87.5779 42.0361C87.6095 42.1 87.6149 42.1737 87.5927 42.2415L79.7412 64.7657C79.7228 64.8191 79.6881 64.8654 79.6421 64.8981C79.596 64.9308 79.5409 64.9484 79.4844 64.9483Z" fill="#271E4A"/>
<path d="M65.888 82.9931C55.2534 82.9931 45.2516 81.5928 37.725 79.0501C30.106 76.4765 25.9102 73.0165 25.9102 69.3078C25.9102 69.2355 25.9389 69.1662 25.99 69.1152C26.0411 69.0641 26.1104 69.0354 26.1827 69.0354C26.2549 69.0354 26.3243 69.0641 26.3754 69.1152C26.4265 69.1662 26.4552 69.2355 26.4552 69.3078C26.4552 76.5535 44.1449 82.4484 65.888 82.4484C72.5005 82.4484 79.0439 81.8873 84.8106 80.8255C84.8817 80.8124 84.9551 80.8281 85.0146 80.8691C85.0742 80.9101 85.115 80.973 85.1281 81.0441C85.1412 81.1152 85.1256 81.1885 85.0845 81.2481C85.0435 81.3076 84.9805 81.3484 84.9094 81.3615C79.1104 82.4288 72.5332 82.9931 65.888 82.9931ZM100.28 76.2877C100.22 76.2878 100.162 76.2682 100.114 76.2318C100.067 76.1954 100.032 76.1444 100.017 76.0866C100.001 76.0288 100.005 75.9674 100.028 75.912C100.05 75.8566 100.091 75.8102 100.143 75.78C103.53 73.802 105.32 71.5639 105.32 69.3081C105.32 69.2359 105.349 69.1666 105.4 69.1155C105.451 69.0645 105.52 69.0358 105.593 69.0358C105.665 69.0358 105.734 69.0645 105.785 69.1155C105.836 69.1666 105.865 69.2359 105.865 69.3081C105.865 71.7688 103.981 74.1691 100.417 76.2503C100.376 76.2747 100.328 76.2876 100.28 76.2877Z" fill="#7E5EFF"/>
</g>
<g clip-path="url(#clip3_1514_29749)">
<path d="M150.788 35.7714C150.716 35.7714 150.647 35.7426 150.597 35.6913C150.546 35.6401 150.518 35.5705 150.518 35.498V27.968C150.518 27.8955 150.546 27.826 150.597 27.7747C150.647 27.7235 150.716 27.6947 150.788 27.6947C150.86 27.6947 150.928 27.7235 150.979 27.7747C151.03 27.826 151.058 27.8955 151.058 27.968V35.498C151.058 35.5705 151.03 35.6401 150.979 35.6913C150.928 35.7426 150.86 35.7714 150.788 35.7714ZM153.11 33.6305C153.038 33.6305 152.97 33.6017 152.919 33.5504C152.868 33.4992 152.84 33.4296 152.84 33.3571V30.1086C152.84 30.0361 152.868 29.9666 152.919 29.9153C152.97 29.864 153.038 29.8352 153.11 29.8352C153.182 29.8352 153.251 29.864 153.301 29.9153C153.352 29.9666 153.38 30.0361 153.38 30.1086V33.3571C153.38 33.4296 153.352 33.4992 153.301 33.5504C153.251 33.6017 153.182 33.6305 153.11 33.6305ZM155.432 33.6305C155.36 33.6305 155.291 33.6017 155.241 33.5504C155.19 33.4992 155.162 33.4296 155.162 33.3571V30.1086C155.162 30.0361 155.19 29.9666 155.241 29.9153C155.291 29.864 155.36 29.8352 155.432 29.8352C155.504 29.8352 155.572 29.864 155.623 29.9153C155.674 29.9666 155.702 30.0361 155.702 30.1086V33.3571C155.702 33.4296 155.674 33.4992 155.623 33.5504C155.572 33.6017 155.504 33.6305 155.432 33.6305ZM157.753 34.8733C157.682 34.8733 157.613 34.8445 157.562 34.7933C157.512 34.742 157.483 34.6725 157.483 34.6V28.8657C157.483 28.7932 157.512 28.7237 157.562 28.6724C157.613 28.6212 157.682 28.5924 157.753 28.5924C157.825 28.5924 157.894 28.6212 157.944 28.6724C157.995 28.7237 158.024 28.7932 158.024 28.8657V34.6003C158.024 34.6728 157.995 34.7422 157.944 34.7934C157.894 34.8446 157.825 34.8733 157.753 34.8733ZM160.075 42.1249C160.003 42.1249 159.935 42.0961 159.884 42.0448C159.833 41.9936 159.805 41.924 159.805 41.8515V21.6145C159.805 21.542 159.833 21.4725 159.884 21.4213C159.935 21.37 160.003 21.3412 160.075 21.3412C160.147 21.3412 160.216 21.37 160.266 21.4213C160.317 21.4725 160.345 21.542 160.345 21.6145V41.8512C160.346 41.8871 160.339 41.9227 160.325 41.9559C160.311 41.9891 160.292 42.0193 160.266 42.0447C160.241 42.0701 160.212 42.0903 160.179 42.104C160.146 42.1178 160.111 42.1249 160.075 42.1249ZM162.397 38.2575C162.326 38.2575 162.257 38.2287 162.206 38.1774C162.156 38.1261 162.127 38.0566 162.127 37.9841V25.4816C162.127 25.4091 162.156 25.3396 162.206 25.2883C162.257 25.237 162.326 25.2082 162.397 25.2082C162.469 25.2082 162.538 25.237 162.588 25.2883C162.639 25.3396 162.668 25.4091 162.668 25.4816V37.9837C162.668 38.0197 162.661 38.0553 162.647 38.0885C162.634 38.1217 162.614 38.1518 162.589 38.1773C162.564 38.2027 162.534 38.2229 162.501 38.2366C162.468 38.2504 162.433 38.2575 162.397 38.2575ZM164.719 35.7714C164.647 35.7714 164.579 35.7426 164.528 35.6913C164.477 35.6401 164.449 35.5705 164.449 35.498V27.968C164.449 27.8955 164.477 27.826 164.528 27.7747C164.579 27.7235 164.647 27.6947 164.719 27.6947C164.791 27.6947 164.86 27.7235 164.91 27.7747C164.961 27.826 164.989 27.8955 164.989 27.968V35.498C164.989 35.5705 164.961 35.6401 164.91 35.6913C164.86 35.7426 164.791 35.7714 164.719 35.7714ZM167.041 34.0449C166.969 34.0449 166.9 34.0161 166.849 33.9648C166.799 33.9136 166.77 33.844 166.77 33.7715V29.6945C166.77 29.622 166.799 29.5525 166.849 29.5012C166.9 29.45 166.969 29.4212 167.041 29.4212C167.112 29.4212 167.181 29.45 167.232 29.5012C167.282 29.5525 167.311 29.622 167.311 29.6945V33.7719C167.311 33.8443 167.282 33.9138 167.232 33.965C167.181 34.0161 167.112 34.0449 167.041 34.0449ZM169.363 35.7714C169.291 35.7714 169.222 35.7426 169.172 35.6913C169.121 35.6401 169.093 35.5705 169.093 35.498V27.968C169.093 27.8955 169.121 27.826 169.172 27.7747C169.222 27.7235 169.291 27.6947 169.363 27.6947C169.435 27.6947 169.503 27.7235 169.554 27.7747C169.605 27.826 169.633 27.8955 169.633 27.968V35.498C169.633 35.5705 169.605 35.6401 169.554 35.6913C169.503 35.7426 169.435 35.7714 169.363 35.7714ZM171.685 33.6305C171.613 33.6305 171.544 33.6017 171.493 33.5504C171.443 33.4992 171.414 33.4296 171.414 33.3571V30.1082C171.414 30.0357 171.443 29.9662 171.493 29.9149C171.544 29.8637 171.613 29.8349 171.685 29.8349C171.756 29.8349 171.825 29.8637 171.876 29.9149C171.926 29.9662 171.955 30.0357 171.955 30.1082V33.3571C171.955 33.4296 171.926 33.4992 171.876 33.5504C171.825 33.6017 171.756 33.6305 171.685 33.6305ZM174.006 33.6305C173.935 33.6305 173.866 33.6017 173.815 33.5504C173.765 33.4992 173.736 33.4296 173.736 33.3571V30.1082C173.736 30.0357 173.765 29.9662 173.815 29.9149C173.866 29.8637 173.935 29.8349 174.006 29.8349C174.078 29.8349 174.147 29.8637 174.198 29.9149C174.248 29.9662 174.277 30.0357 174.277 30.1082V33.3571C174.277 33.4296 174.248 33.4992 174.198 33.5504C174.147 33.6017 174.078 33.6305 174.006 33.6305ZM176.328 37.7738C176.257 37.7738 176.188 37.745 176.137 37.6937C176.086 37.6425 176.058 37.5729 176.058 37.5005V25.9653C176.058 25.8928 176.086 25.8232 176.137 25.772C176.188 25.7207 176.257 25.6919 176.328 25.6919C176.4 25.6919 176.469 25.7207 176.519 25.772C176.57 25.8232 176.599 25.8928 176.599 25.9653V37.5005C176.599 37.5729 176.57 37.6425 176.519 37.6937C176.469 37.745 176.4 37.7738 176.328 37.7738ZM178.65 33.6305C178.578 33.6305 178.51 33.6017 178.459 33.5504C178.408 33.4992 178.38 33.4296 178.38 33.3571V30.1082C178.38 30.0357 178.408 29.9662 178.459 29.9149C178.51 29.8637 178.578 29.8349 178.65 29.8349C178.722 29.8349 178.791 29.8637 178.841 29.9149C178.892 29.9662 178.92 30.0357 178.92 30.1082V33.3571C178.92 33.4296 178.892 33.4992 178.841 33.5504C178.791 33.6017 178.722 33.6305 178.65 33.6305Z" fill="#271E4A"/>
<path d="M180.334 32.0068H148.647C148.576 32.0068 148.507 31.978 148.456 31.9267C148.405 31.8755 148.377 31.8059 148.377 31.7334C148.377 31.6609 148.405 31.5914 148.456 31.5401C148.507 31.4889 148.576 31.4601 148.647 31.4601H180.334C180.406 31.4601 180.474 31.4889 180.525 31.5401C180.576 31.5914 180.604 31.6609 180.604 31.7334C180.604 31.8059 180.576 31.8755 180.525 31.9267C180.474 31.978 180.406 32.0068 180.334 32.0068Z" fill="#271E4A"/>
<path d="M144.863 31.7326L140.113 28.1707V35.2943L144.863 31.7326Z" fill="url(#paint1_linear_1514_29749)"/>
<path d="M144.863 31.7326L140.113 28.1707V35.2943L144.863 31.7326Z" fill="black" fill-opacity="0.2"/>
</g>
<g clip-path="url(#clip4_1514_29749)">
<path d="M28.4794 119.107C28.4361 119.107 28.3934 119.097 28.355 119.077C28.3165 119.057 28.2834 119.028 28.2584 118.992C28.2334 118.957 28.2172 118.916 28.2112 118.873C28.2053 118.829 28.2097 118.785 28.2241 118.744L30.2369 113.008C30.2629 112.942 30.313 112.89 30.3766 112.861C30.4403 112.832 30.5126 112.828 30.5785 112.852C30.6444 112.875 30.6988 112.923 30.7302 112.986C30.7616 113.049 30.7677 113.122 30.7471 113.189L28.7343 118.926C28.7156 118.979 28.6811 119.025 28.6354 119.057C28.5898 119.09 28.5353 119.107 28.4794 119.107ZM32.0601 118.296C32.0226 118.296 31.9856 118.288 31.9512 118.273C31.9169 118.258 31.8861 118.236 31.8607 118.208C31.8354 118.18 31.816 118.147 31.8039 118.112C31.7918 118.076 31.7872 118.038 31.7904 118C31.92 116.454 32.3021 114.94 32.9214 113.519C32.9511 113.455 33.0047 113.404 33.0709 113.379C33.1371 113.354 33.2104 113.356 33.2752 113.384C33.3401 113.413 33.3912 113.466 33.4177 113.532C33.4441 113.598 33.4438 113.672 33.4168 113.737C32.8211 115.104 32.4536 116.56 32.3291 118.047C32.3235 118.114 32.2928 118.178 32.243 118.224C32.1931 118.27 32.1279 118.296 32.0601 118.296ZM43.2717 36.1072C43.2333 36.1073 43.1953 36.0991 43.1603 36.0832C43.1253 36.0673 43.0941 36.0441 43.0687 36.0151L39.9924 32.5041C39.9485 32.4496 39.9274 32.38 39.9332 32.3101C39.9391 32.2402 39.9715 32.1752 40.0238 32.1288C40.0761 32.0824 40.1442 32.058 40.2139 32.0608C40.2836 32.0637 40.3496 32.0935 40.398 32.144L43.4743 35.6549C43.5088 35.6942 43.5313 35.7426 43.5391 35.7944C43.547 35.8462 43.5397 35.8992 43.5183 35.947C43.4969 35.9947 43.4623 36.0353 43.4185 36.0637C43.3748 36.0921 43.3238 36.1072 43.2717 36.1072ZM43.5839 32.7842C43.5373 32.7842 43.4915 32.7722 43.4508 32.7492C43.4102 32.7262 43.3762 32.693 43.3521 32.6529C42.9299 31.9521 42.3814 31.3368 41.7348 30.8386C41.6825 30.7932 41.6494 30.7295 41.6422 30.6604C41.6351 30.5913 41.6544 30.522 41.6962 30.4668C41.7381 30.4115 41.7994 30.3744 41.8675 30.363C41.9356 30.3516 42.0055 30.3669 42.0629 30.4056C42.7632 30.9457 43.3574 31.6123 43.815 32.3714C43.8398 32.4126 43.8532 32.4598 43.854 32.5079C43.8547 32.5561 43.8427 32.6036 43.8192 32.6456C43.7957 32.6876 43.7615 32.7226 43.7202 32.7469C43.6788 32.7712 43.6318 32.7841 43.5839 32.7842ZM53.384 27.3085C53.3421 27.3086 53.3007 27.2987 53.2633 27.2798L51.624 26.455C51.5598 26.4227 51.511 26.3661 51.4883 26.2977C51.4656 26.2292 51.4709 26.1545 51.503 26.09C51.5351 26.0254 51.5913 25.9763 51.6594 25.9535C51.7274 25.9307 51.8017 25.936 51.8659 25.9683L53.5055 26.7931C53.5598 26.8207 53.6032 26.8659 53.6288 26.9214C53.6544 26.9769 53.6607 27.0394 53.6467 27.0989C53.6326 27.1584 53.5991 27.2115 53.5515 27.2495C53.5038 27.2875 53.4448 27.3083 53.384 27.3085ZM87.5614 19.349C87.5144 19.349 87.4682 19.3367 87.4274 19.3132C87.3865 19.2898 87.3525 19.256 87.3285 19.2153C87.3046 19.1746 87.2917 19.1283 87.291 19.081C87.2903 19.0337 87.3018 18.9871 87.3245 18.9456L88.6797 16.4655C88.6969 16.4342 88.7199 16.4066 88.7477 16.3842C88.7754 16.3619 88.8072 16.3452 88.8413 16.3353C88.8754 16.3253 88.9112 16.3222 88.9465 16.3261C88.9818 16.33 89.016 16.3409 89.0471 16.3581C89.0782 16.3753 89.1057 16.3986 89.1279 16.4265C89.1501 16.4544 89.1666 16.4864 89.1766 16.5207C89.1865 16.555 89.1896 16.591 89.1857 16.6265C89.1818 16.662 89.1709 16.6964 89.1538 16.7277L87.7986 19.2079C87.7753 19.2506 87.7409 19.2862 87.6992 19.3111C87.6575 19.3359 87.6099 19.349 87.5614 19.349ZM89.9982 20.436C89.9532 20.4359 89.9089 20.4246 89.8693 20.403C89.8298 20.3814 89.7962 20.3502 89.7717 20.3122C89.7472 20.2742 89.7324 20.2307 89.7289 20.1856C89.7253 20.1404 89.733 20.0951 89.7512 20.0537L90.844 17.5801C90.8731 17.5141 90.927 17.4625 90.994 17.4366C91.0609 17.4107 91.1353 17.4126 91.2009 17.4419C91.2664 17.4712 91.3177 17.5255 91.3435 17.5928C91.3692 17.6601 91.3674 17.735 91.3382 17.801L90.2455 20.2746C90.2241 20.3226 90.1894 20.3634 90.1456 20.3921C90.1017 20.4207 90.0505 20.4359 89.9982 20.436ZM181.54 69.1403C181.47 69.1414 181.403 69.1157 181.352 69.0685C181.301 69.0212 181.27 68.956 181.266 68.8864C181.261 68.8168 181.283 68.7481 181.328 68.6946C181.372 68.641 181.435 68.6067 181.504 68.5987L188.323 67.6844C188.359 67.6792 188.394 67.6812 188.429 67.6902C188.463 67.6992 188.496 67.7151 188.524 67.7369C188.552 67.7586 188.576 67.7858 188.594 67.8169C188.611 67.848 188.623 67.8824 188.627 67.918C188.632 67.9534 188.63 67.9894 188.621 68.0239C188.611 68.0584 188.596 68.0908 188.574 68.1192C188.553 68.1476 188.526 68.1715 188.495 68.1894C188.464 68.2073 188.43 68.219 188.395 68.2237L181.576 69.1381C181.564 69.1395 181.552 69.1402 181.54 69.1403ZM185.632 71.0158C185.563 71.0142 185.498 70.9864 185.449 70.9381C185.4 70.8898 185.371 70.8246 185.368 70.7557C185.365 70.6867 185.388 70.6191 185.432 70.5666C185.477 70.5141 185.54 70.4806 185.608 70.4728L188.613 70.1979C188.685 70.1923 188.755 70.2149 188.81 70.2609C188.865 70.3069 188.9 70.3727 188.907 70.4442C188.911 70.4798 188.907 70.5156 188.896 70.5497C188.886 70.5838 188.869 70.6155 188.846 70.643C188.823 70.6704 188.795 70.6931 188.764 70.7097C188.732 70.7263 188.698 70.7365 188.663 70.7398L185.657 71.0147C185.649 71.0154 185.64 71.0158 185.632 71.0158ZM199.049 111.763C198.987 111.763 198.927 111.742 198.879 111.702C198.831 111.663 198.798 111.608 198.785 111.547C198.772 111.487 198.781 111.423 198.809 111.368C198.837 111.312 198.883 111.268 198.94 111.243L204.088 108.946C204.121 108.931 204.156 108.922 204.192 108.921C204.228 108.92 204.264 108.925 204.297 108.938C204.331 108.951 204.362 108.97 204.388 108.995C204.414 109.02 204.435 109.049 204.449 109.082C204.464 109.115 204.472 109.151 204.473 109.187C204.473 109.223 204.467 109.259 204.454 109.293C204.44 109.326 204.421 109.357 204.396 109.383C204.37 109.409 204.341 109.429 204.307 109.443L199.159 111.74C199.124 111.755 199.087 111.763 199.049 111.763ZM199.868 113.971C199.804 113.971 199.743 113.948 199.695 113.907C199.647 113.866 199.614 113.81 199.603 113.747C199.592 113.685 199.603 113.62 199.634 113.565C199.665 113.509 199.714 113.467 199.773 113.444L204.959 111.503C204.992 111.491 205.027 111.485 205.063 111.487C205.098 111.488 205.133 111.496 205.165 111.511C205.198 111.526 205.227 111.547 205.251 111.573C205.275 111.599 205.294 111.63 205.306 111.664C205.319 111.697 205.324 111.733 205.323 111.768C205.322 111.804 205.314 111.839 205.299 111.872C205.284 111.904 205.263 111.933 205.237 111.958C205.211 111.982 205.18 112.001 205.147 112.013L199.962 113.954C199.932 113.965 199.9 113.971 199.868 113.971ZM154.216 126.276C154.161 126.276 154.108 126.259 154.063 126.228C154.017 126.196 153.983 126.152 153.963 126.1C153.944 126.049 153.941 125.992 153.954 125.939C153.967 125.885 153.996 125.837 154.037 125.8L158.684 121.678C158.738 121.631 158.808 121.606 158.88 121.611C158.951 121.615 159.018 121.648 159.066 121.702C159.113 121.756 159.137 121.827 159.133 121.899C159.128 121.971 159.096 122.039 159.042 122.086L154.395 126.208C154.346 126.252 154.282 126.277 154.216 126.276ZM122.241 133.966H114.59C114.518 133.966 114.449 133.937 114.399 133.886C114.348 133.835 114.32 133.766 114.32 133.694C114.32 133.621 114.348 133.552 114.399 133.501C114.449 133.45 114.518 133.421 114.59 133.421H122.241C122.312 133.421 122.381 133.45 122.432 133.501C122.483 133.552 122.511 133.621 122.511 133.694C122.511 133.766 122.483 133.835 122.432 133.886C122.381 133.937 122.312 133.966 122.241 133.966ZM121.694 136.44H115.409C115.338 136.44 115.269 136.411 115.218 136.36C115.167 136.309 115.139 136.24 115.139 136.167C115.139 136.095 115.167 136.026 115.218 135.975C115.269 135.924 115.338 135.895 115.409 135.895H121.694C121.766 135.895 121.835 135.924 121.885 135.975C121.936 136.026 121.964 136.095 121.964 136.167C121.964 136.24 121.936 136.309 121.885 136.36C121.835 136.411 121.766 136.44 121.694 136.44ZM182.9 138.089H180.167C180.096 138.089 180.027 138.06 179.976 138.009C179.926 137.958 179.897 137.889 179.897 137.817C179.897 137.745 179.926 137.676 179.976 137.625C180.027 137.574 180.096 137.545 180.167 137.545H182.9C182.972 137.545 183.04 137.574 183.091 137.625C183.142 137.676 183.17 137.745 183.17 137.817C183.17 137.889 183.142 137.958 183.091 138.009C183.04 138.06 182.972 138.089 182.9 138.089ZM109.128 168.331C109.066 168.332 109.007 168.311 108.959 168.273C108.911 168.234 108.877 168.181 108.864 168.121C108.85 168.061 108.856 167.998 108.883 167.943C108.909 167.887 108.953 167.842 109.008 167.815L111.751 166.462C111.816 166.431 111.89 166.426 111.958 166.449C112.026 166.473 112.082 166.522 112.113 166.587C112.145 166.652 112.15 166.727 112.126 166.795C112.103 166.863 112.054 166.92 111.989 166.951L109.246 168.304C109.209 168.322 109.169 168.331 109.128 168.331ZM110.218 170.251C110.153 170.251 110.09 170.228 110.041 170.185C109.991 170.142 109.959 170.083 109.95 170.018C109.94 169.954 109.954 169.888 109.989 169.832C110.024 169.777 110.078 169.737 110.14 169.718L112.873 168.894C112.941 168.873 113.016 168.881 113.079 168.915C113.142 168.949 113.189 169.007 113.21 169.076C113.23 169.145 113.223 169.22 113.189 169.284C113.155 169.347 113.097 169.395 113.028 169.415L110.296 170.24C110.27 170.247 110.244 170.251 110.218 170.251ZM137.269 173.275C137.229 173.275 137.188 173.266 137.152 173.248C137.115 173.23 137.083 173.205 137.058 173.173L135.965 171.799C135.92 171.742 135.899 171.67 135.907 171.599C135.915 171.527 135.951 171.461 136.007 171.416C136.063 171.371 136.135 171.35 136.206 171.358C136.277 171.366 136.342 171.402 136.387 171.458L137.48 172.833C137.512 172.873 137.532 172.921 137.537 172.972C137.543 173.023 137.534 173.074 137.512 173.12C137.49 173.166 137.456 173.205 137.413 173.233C137.37 173.26 137.32 173.275 137.269 173.275ZM89.9982 156.231C89.9346 156.231 89.8729 156.209 89.8242 156.168C89.7754 156.127 89.7426 156.07 89.7315 156.007C89.7204 155.944 89.7318 155.879 89.7636 155.823C89.7955 155.768 89.8457 155.726 89.9055 155.704L95.9169 153.505C95.9843 153.48 96.0587 153.483 96.1237 153.514C96.1887 153.544 96.239 153.599 96.2635 153.667C96.2881 153.735 96.2848 153.81 96.2545 153.875C96.2242 153.941 96.1693 153.991 96.1019 154.016L90.0905 156.215C90.0609 156.226 90.0297 156.232 89.9982 156.231ZM91.3646 158.431C91.3036 158.431 91.2444 158.41 91.1966 158.372C91.1488 158.334 91.1151 158.281 91.1011 158.221C91.0871 158.162 91.0935 158.099 91.1193 158.043C91.1452 157.988 91.1889 157.943 91.2434 157.915L92.3365 157.366C92.3683 157.35 92.4029 157.34 92.4383 157.338C92.4737 157.335 92.5093 157.34 92.543 157.351C92.5767 157.362 92.6078 157.38 92.6346 157.404C92.6614 157.427 92.6834 157.455 92.6992 157.487C92.7151 157.519 92.7245 157.554 92.727 157.59C92.7295 157.625 92.725 157.661 92.7138 157.695C92.7025 157.729 92.6848 157.76 92.6615 157.787C92.6382 157.814 92.6099 157.836 92.5781 157.852L91.4853 158.402C91.4478 158.421 91.4065 158.431 91.3646 158.431ZM17.8486 146.692C17.7952 146.692 17.743 146.676 17.6986 146.647L15.5272 145.19C15.4972 145.17 15.4714 145.145 15.4513 145.115C15.4311 145.086 15.417 145.052 15.4098 145.017C15.4026 144.982 15.4025 144.945 15.4093 144.91C15.4161 144.875 15.4299 144.841 15.4497 144.811C15.4695 144.781 15.4951 144.756 15.5249 144.736C15.5546 144.716 15.588 144.702 15.6231 144.695C15.6582 144.688 15.6943 144.688 15.7293 144.696C15.7644 144.703 15.7976 144.717 15.8271 144.737L17.9989 146.194C18.0472 146.226 18.0839 146.274 18.1035 146.329C18.1231 146.384 18.1245 146.443 18.1077 146.499C18.0908 146.555 18.0565 146.604 18.0099 146.639C17.9632 146.674 17.9067 146.692 17.8486 146.692ZM129.83 38.3114C129.764 38.3113 129.7 38.287 129.651 38.2431C129.602 38.1991 129.57 38.1385 129.562 38.0727L129.293 35.8733C129.289 35.8378 129.291 35.8018 129.301 35.7674C129.31 35.733 129.327 35.7008 129.348 35.6726C129.37 35.6445 129.397 35.6209 129.428 35.6033C129.459 35.5857 129.493 35.5744 129.529 35.5701C129.564 35.5655 129.6 35.5679 129.634 35.5773C129.668 35.5868 129.7 35.6029 129.728 35.6249C129.756 35.6469 129.78 35.6743 129.797 35.7055C129.815 35.7367 129.826 35.771 129.83 35.8065L130.099 38.006C130.104 38.0443 130.1 38.0831 130.089 38.12C130.077 38.1568 130.058 38.1908 130.033 38.2197C130.008 38.2486 129.976 38.2717 129.941 38.2875C129.906 38.3033 129.868 38.3114 129.83 38.3114ZM131.924 37.0684C131.866 37.0683 131.81 37.0497 131.764 37.0152C131.717 36.9807 131.683 36.9321 131.666 36.8765C131.314 35.726 130.081 33.4961 130.069 33.4736C130.034 33.4106 130.025 33.3362 130.045 33.2668C130.065 33.1974 130.111 33.1387 130.173 33.1035C130.236 33.0684 130.31 33.0597 130.379 33.0794C130.448 33.099 130.506 33.1455 130.541 33.2085C130.593 33.3021 131.814 35.5117 132.183 36.7162C132.195 36.7569 132.198 36.8 132.191 36.842C132.184 36.884 132.167 36.9237 132.142 36.9579C132.117 36.9922 132.084 37.0201 132.046 37.0392C132.008 37.0584 131.967 37.0684 131.924 37.0684Z" fill="#271E4A"/>
</g>
<defs>
<linearGradient id="paint0_linear_1514_29749" x1="80.524" y1="17.625" x2="80.524" y2="32.3014" gradientUnits="userSpaceOnUse">
<stop offset="0.0520833" stop-color="#999DFF"/>
<stop offset="1" stop-color="#C985FE"/>
</linearGradient>
<linearGradient id="paint1_linear_1514_29749" x1="142.889" y1="30.6936" x2="142.889" y2="34.849" gradientUnits="userSpaceOnUse">
<stop offset="0.0520833" stop-color="#999DFF"/>
<stop offset="1" stop-color="#C985FE"/>
</linearGradient>
<clipPath id="clip0_1514_29749">
<rect width="57.3333" height="40.1333" fill="white" transform="matrix(-1 0 0 1 189.916 16.6843)"/>
</clipPath>
<clipPath id="clip1_1514_29749">
<rect width="127.567" height="70.95" fill="white" transform="translate(82.7754 65.4174)"/>
</clipPath>
<clipPath id="clip2_1514_29749">
<rect width="111.083" height="147.275" fill="white" transform="translate(2.50977 8.44214)"/>
</clipPath>
<clipPath id="clip3_1514_29749">
<rect width="40.4917" height="20.7833" fill="white" transform="translate(140.113 21.3411)"/>
</clipPath>
<clipPath id="clip4_1514_29749">
<rect width="189.917" height="156.95" fill="white" transform="translate(15.4082 16.3252)"/>
</clipPath>
</defs>
</svg>
