<svg viewBox="0 0 215 180" fill="none" xmlns="http://www.w3.org/2000/svg">
<g clip-path="url(#clip0_633_85883)">
<path d="M132.855 45.45V19.9184C132.855 17.9146 134.483 16.2903 136.492 16.2903H186.005C188.014 16.2903 189.643 17.9146 189.643 19.9184V41.8218C189.643 43.8256 188.014 45.45 186.005 45.45H142.55L132.854 55.8794L132.855 45.45Z" fill="#7E5EFF"/>
<path d="M132.855 56.1514C132.893 56.1514 132.93 56.1437 132.964 56.1287C132.999 56.1137 133.03 56.0918 133.055 56.0643L142.669 45.722H186.006C188.162 45.722 189.916 43.9725 189.916 41.8217V19.9183C189.916 17.7676 188.162 16.0181 186.006 16.0181H136.493C134.337 16.0181 132.583 17.7676 132.583 19.9183V45.4499V55.8793C132.583 55.9514 132.611 56.0205 132.662 56.0716C132.714 56.1226 132.783 56.1513 132.855 56.1514ZM186.006 16.5623C187.861 16.5623 189.37 18.0676 189.37 19.9183V41.8217C189.37 43.6724 187.861 45.1777 186.006 45.1777H142.55C142.513 45.1777 142.476 45.1855 142.441 45.2005C142.407 45.2154 142.376 45.2374 142.35 45.2648L133.128 55.1856V19.9183C133.128 18.0676 134.637 16.5623 136.492 16.5623H186.006Z" fill="#271E4A"/>
</g>
<g clip-path="url(#clip1_633_85883)">
<path d="M100.09 135.418H104.239C104.795 135.418 105.333 135.222 105.759 134.864C106.185 134.506 106.471 134.01 106.567 133.462L107.465 128.348H96.8633L97.7613 133.462C97.8577 134.01 98.144 134.506 98.5699 134.864C98.9959 135.221 99.5342 135.418 100.09 135.418Z" fill="#271E4A"/>
<path d="M104.24 135.689H100.092C99.4718 135.69 98.8711 135.472 98.3961 135.073C97.9211 134.673 97.6022 134.12 97.4957 133.508L96.5977 128.394C96.591 128.355 96.5928 128.315 96.6031 128.277C96.6134 128.239 96.632 128.203 96.6574 128.173C96.6828 128.142 96.7146 128.118 96.7504 128.101C96.7863 128.084 96.8254 128.076 96.865 128.075H107.467C107.507 128.075 107.546 128.084 107.582 128.101C107.618 128.117 107.65 128.142 107.676 128.172C107.701 128.203 107.72 128.238 107.73 128.277C107.74 128.315 107.742 128.355 107.735 128.394L106.837 133.508C106.73 134.12 106.411 134.673 105.936 135.073C105.461 135.472 104.861 135.69 104.24 135.689ZM97.1887 128.619L98.0309 133.414C98.1154 133.9 98.3686 134.34 98.7457 134.656C99.1228 134.973 99.5996 135.146 100.092 135.146H104.24C104.733 135.146 105.21 134.973 105.587 134.656C105.964 134.34 106.217 133.9 106.301 133.414L107.144 128.619H97.1887ZM197.55 135.429H201.698C202.254 135.429 202.793 135.233 203.219 134.876C203.645 134.518 203.931 134.021 204.027 133.473L204.925 128.359H194.323L195.221 133.473C195.317 134.021 195.604 134.518 196.029 134.876C196.455 135.233 196.994 135.429 197.55 135.429Z" fill="#271E4A"/>
<path d="M201.698 135.7H197.55C196.93 135.701 196.329 135.483 195.854 135.084C195.379 134.685 195.06 134.131 194.954 133.52L194.056 128.406C194.049 128.366 194.051 128.326 194.061 128.288C194.072 128.25 194.09 128.214 194.115 128.184C194.141 128.154 194.173 128.129 194.209 128.113C194.244 128.096 194.283 128.087 194.323 128.087H204.925C204.965 128.087 205.004 128.095 205.04 128.112C205.076 128.129 205.108 128.153 205.133 128.183C205.159 128.214 205.177 128.25 205.188 128.288C205.198 128.326 205.199 128.366 205.192 128.406L204.294 133.52C204.188 134.131 203.869 134.685 203.394 135.084C202.919 135.483 202.319 135.701 201.698 135.7ZM194.647 128.63L195.489 133.426C195.574 133.911 195.827 134.351 196.204 134.667C196.581 134.984 197.058 135.157 197.55 135.157H201.698C202.191 135.157 202.668 134.984 203.045 134.667C203.422 134.351 203.675 133.911 203.759 133.425L204.602 128.63H194.647ZM89.4908 127.869H93.639C94.1952 127.869 94.7335 127.673 95.1594 127.315C95.5853 126.957 95.8715 126.461 95.9677 125.913L96.8657 120.799H86.2637L87.1617 125.913C87.2579 126.461 87.5442 126.957 87.9702 127.315C88.3962 127.673 88.9346 127.869 89.4908 127.869Z" fill="#271E4A"/>
<path d="M93.6403 128.141H89.4924C88.8721 128.142 88.2715 127.924 87.7965 127.525C87.3215 127.126 87.0026 126.572 86.8961 125.96L85.9981 120.846C85.9914 120.807 85.9932 120.767 86.0035 120.729C86.0138 120.691 86.0324 120.655 86.0578 120.625C86.0832 120.595 86.115 120.57 86.1508 120.553C86.1867 120.537 86.2258 120.528 86.2653 120.528H96.8674C96.9071 120.527 96.9463 120.536 96.9823 120.553C97.0184 120.569 97.0502 120.594 97.0757 120.624C97.1012 120.655 97.1197 120.69 97.1299 120.729C97.1401 120.767 97.1417 120.807 97.1347 120.846L96.2366 125.96C96.1301 126.572 95.8113 127.126 95.3362 127.525C94.8612 127.924 94.2606 128.142 93.6403 128.141ZM86.5891 121.071L87.4313 125.866C87.5158 126.352 87.7689 126.791 88.146 127.108C88.5232 127.425 89 127.598 89.4924 127.598H93.6407C94.1331 127.598 94.61 127.425 94.9871 127.108C95.3642 126.791 95.6173 126.352 95.7018 125.866L96.5441 121.071H86.5891Z" fill="#271E4A"/>
<path d="M83.0449 117.496V69.7886C83.0449 67.1567 85.076 65.0229 87.5817 65.0229H192.052C192.961 65.0229 193.806 65.3066 194.515 65.7901L194.516 65.7883L207.802 74.0427L196.589 76.1447V117.496C196.589 120.128 194.558 122.262 192.052 122.262H110.549L98.6368 129.904L85.3501 121.645L85.3504 121.642C83.9748 120.824 83.0449 119.275 83.0449 117.496Z" fill="#7E5EFF"/>
<path d="M98.6388 130.176C98.5882 130.176 98.5385 130.161 98.4955 130.135L85.2087 121.875C85.2006 121.87 85.1929 121.865 85.1856 121.859C83.698 120.96 82.7754 119.291 82.7754 117.496V69.7885C82.7754 67.0107 84.9324 64.7512 87.5838 64.7512L192.055 64.7509C192.973 64.7509 193.866 65.0254 194.642 65.5452L194.662 65.5568L207.948 73.8112C207.995 73.8399 208.032 73.8821 208.054 73.9323C208.076 73.9825 208.083 74.0383 208.073 74.0923C208.062 74.1462 208.036 74.1958 207.997 74.2345C207.958 74.2732 207.908 74.2992 207.854 74.3089L196.863 76.3692V117.495C196.863 120.273 194.706 122.532 192.055 122.532L110.631 122.533L98.7859 130.132C98.7422 130.16 98.6911 130.176 98.6388 130.176ZM85.5223 121.43L98.6367 129.583L110.405 122.033C110.448 122.005 110.499 121.99 110.551 121.99L192.055 121.989C194.407 121.989 196.32 119.974 196.32 117.496V76.1442C196.32 76.0809 196.342 76.0195 196.383 75.9707C196.423 75.922 196.479 75.8889 196.542 75.8773L207.067 73.9039L194.404 66.0363C194.39 66.03 194.377 66.0227 194.365 66.0142C193.685 65.5467 192.88 65.2957 192.055 65.2942L87.5838 65.2945C85.2319 65.2945 83.3185 67.3102 83.3185 69.7885V117.496C83.3185 119.112 84.151 120.611 85.4912 121.409C85.502 121.415 85.5125 121.422 85.5223 121.43Z" fill="#271E4A"/>
<path d="M101.064 130.641L205.535 130.64C208.04 130.64 210.071 128.608 210.071 126.102V77.9401C210.071 75.4336 208.04 73.402 205.535 73.402L101.064 73.4023C98.5584 73.4023 96.5273 75.4343 96.5273 77.9405V126.103C96.5273 128.609 98.5584 130.641 101.064 130.641Z" fill="#7E5EFF"/>
<path d="M200.981 122.262L105.616 122.262C105.329 122.262 105.054 122.148 104.852 121.945C104.649 121.742 104.535 121.467 104.535 121.181V82.8622C104.535 82.5755 104.649 82.3004 104.852 82.0977C105.054 81.8949 105.329 81.781 105.616 81.781L200.981 81.7814C201.268 81.7814 201.543 81.8953 201.745 82.098C201.948 82.3008 202.062 82.5758 202.062 82.8626V121.181C202.062 121.468 201.948 121.743 201.745 121.945C201.543 122.148 201.268 122.262 200.981 122.262Z" fill="#271E4A"/>
<path d="M200.979 122.533L105.614 122.533C105.256 122.532 104.912 122.389 104.658 122.136C104.405 121.882 104.262 121.538 104.262 121.18V82.8616C104.262 82.503 104.405 82.1592 104.658 81.9056C104.912 81.652 105.256 81.5093 105.614 81.5088H200.979C201.338 81.5093 201.681 81.652 201.935 81.9056C202.189 82.1592 202.331 82.503 202.332 82.8616V121.18C202.331 121.539 202.189 121.882 201.935 122.136C201.681 122.39 201.338 122.532 200.979 122.533ZM105.614 82.0517C105.4 82.0519 105.194 82.1373 105.042 82.2891C104.89 82.4408 104.805 82.6466 104.805 82.8613V121.179C104.805 121.394 104.891 121.6 105.042 121.751C105.194 121.903 105.4 121.989 105.614 121.989L200.979 121.989C201.194 121.989 201.4 121.904 201.551 121.752C201.703 121.6 201.788 121.394 201.789 121.18V82.8613C201.788 82.6467 201.703 82.4409 201.551 82.2892C201.399 82.1374 201.194 82.052 200.979 82.0517H105.614Z" fill="#271E4A"/>
<path d="M118.367 111.931V104.825C118.367 104.718 118.324 104.616 118.249 104.541L116.908 103.199C116.871 103.162 116.826 103.132 116.778 103.112C116.729 103.092 116.677 103.082 116.624 103.082C116.508 103.064 116.411 103.126 116.336 103.204L115.69 103.873C115.618 103.948 115.578 104.047 115.578 104.152V113.918C115.578 113.997 115.601 114.075 115.645 114.141C115.689 114.207 115.752 114.258 115.825 114.289C115.899 114.319 115.979 114.327 116.057 114.311C116.135 114.296 116.207 114.257 116.263 114.201L118.249 112.214C118.324 112.14 118.367 112.038 118.367 111.931ZM128.003 112.737C127.965 112.699 127.921 112.669 127.872 112.649C127.823 112.628 127.77 112.618 127.717 112.618H119.018C118.911 112.618 118.807 112.661 118.732 112.737L116.773 114.724C116.717 114.781 116.68 114.852 116.665 114.93C116.65 115.007 116.658 115.088 116.689 115.161C116.719 115.233 116.77 115.296 116.836 115.34C116.902 115.384 116.979 115.407 117.058 115.407H129.677C129.756 115.407 129.834 115.384 129.899 115.34C129.965 115.296 130.016 115.233 130.047 115.161C130.077 115.088 130.085 115.007 130.071 114.93C130.056 114.852 130.018 114.781 129.963 114.724L128.003 112.737ZM118.397 101.134L117.418 102.127C117.344 102.202 117.302 102.303 117.302 102.409C117.302 102.514 117.344 102.616 117.418 102.691L118.397 103.684C118.473 103.76 118.576 103.803 118.683 103.803H128.055C128.16 103.803 128.262 103.762 128.336 103.687L129.342 102.694C129.38 102.657 129.41 102.612 129.431 102.564C129.451 102.515 129.462 102.462 129.462 102.409C129.462 102.356 129.451 102.303 129.431 102.255C129.41 102.206 129.38 102.161 129.342 102.124L128.336 101.131C128.261 101.057 128.16 101.015 128.055 101.015H118.683C118.63 101.015 118.577 101.025 118.528 101.046C118.479 101.066 118.435 101.096 118.397 101.134ZM118.732 92.0809C118.807 92.157 118.91 92.2001 119.017 92.2001H127.717C127.824 92.2001 127.927 92.157 128.002 92.0809L129.962 90.0935C130.017 90.0371 130.055 89.9656 130.07 89.888C130.085 89.8104 130.076 89.7301 130.046 89.6572C130.016 89.5842 129.964 89.5219 129.899 89.478C129.833 89.4341 129.756 89.4106 129.677 89.4103H117.057C116.978 89.4106 116.901 89.4341 116.835 89.478C116.77 89.5219 116.718 89.5842 116.688 89.6572C116.658 89.7301 116.649 89.8104 116.664 89.888C116.679 89.9656 116.717 90.0371 116.772 90.0935L118.732 92.0809ZM130.909 90.4915C130.836 90.4611 130.755 90.4531 130.677 90.4686C130.599 90.4841 130.528 90.5223 130.472 90.5785L128.485 92.5659C128.448 92.6032 128.419 92.6474 128.398 92.696C128.378 92.7447 128.368 92.7969 128.368 92.8495V99.9539C128.368 100.061 128.411 100.164 128.488 100.239L129.853 101.586C129.928 101.661 130.029 101.702 130.134 101.702C130.247 101.678 130.345 101.658 130.421 101.582L131.042 100.946C131.115 100.871 131.156 100.77 131.157 100.665V90.8624C131.157 90.7831 131.133 90.7055 131.089 90.6395C131.045 90.5735 130.982 90.522 130.909 90.4915ZM150.461 103.21C150.424 103.171 150.38 103.139 150.331 103.118C150.282 103.096 150.23 103.084 150.176 103.083C150.066 103.061 149.964 103.123 149.888 103.199L148.527 104.543C148.451 104.618 148.408 104.721 148.408 104.828V111.938C148.408 112.045 148.45 112.147 148.525 112.222L150.511 114.21C150.567 114.267 150.639 114.305 150.717 114.32C150.795 114.336 150.875 114.328 150.949 114.298C151.022 114.267 151.085 114.216 151.129 114.15C151.173 114.084 151.196 114.006 151.196 113.927V104.149C151.196 104.046 151.157 103.948 151.086 103.874L150.461 103.21ZM150.949 90.4919C150.876 90.4614 150.795 90.4535 150.717 90.4689C150.639 90.4844 150.568 90.5227 150.512 90.5788L148.525 92.5663C148.488 92.6035 148.459 92.6477 148.438 92.6964C148.418 92.7451 148.408 92.7972 148.408 92.8499V99.9543C148.408 100.062 148.451 100.164 148.528 100.239L149.893 101.587C149.968 101.661 150.069 101.703 150.174 101.703C150.277 101.678 150.385 101.658 150.461 101.582L151.082 100.946C151.155 100.871 151.196 100.77 151.197 100.666V90.8628C151.197 90.7834 151.173 90.7058 151.129 90.6398C151.085 90.5738 151.022 90.5224 150.949 90.4919ZM149.502 102.409C149.502 102.302 149.459 102.199 149.382 102.124L148.376 101.131C148.301 101.057 148.2 101.015 148.095 101.015H138.723C138.616 101.015 138.512 101.058 138.437 101.134L137.458 102.127C137.384 102.202 137.342 102.304 137.342 102.409C137.342 102.515 137.384 102.616 137.458 102.691L138.437 103.684C138.513 103.76 138.616 103.804 138.723 103.804H148.095C148.2 103.804 148.302 103.762 148.376 103.688L149.382 102.694C149.459 102.619 149.502 102.516 149.502 102.409ZM138.407 99.9547V92.8426C138.407 92.7363 138.364 92.6343 138.289 92.559L136.302 90.5701C136.246 90.514 136.175 90.4758 136.097 90.4603C136.019 90.4448 135.939 90.4528 135.866 90.4831C135.792 90.5135 135.73 90.5649 135.686 90.6309C135.642 90.6969 135.618 90.7744 135.618 90.8537V100.662C135.618 100.769 135.66 100.87 135.735 100.946L136.376 101.586C136.413 101.624 136.457 101.653 136.506 101.674C136.554 101.694 136.606 101.704 136.659 101.704C136.712 101.704 136.764 101.694 136.813 101.674C136.861 101.653 136.905 101.624 136.943 101.586L138.289 100.238C138.364 100.163 138.407 100.061 138.407 99.9547ZM169.98 89.3542L167.251 90.0844C167.148 90.1121 167.06 90.1794 167.007 90.2717L162.152 98.6866C162.1 98.7786 162.085 98.8878 162.112 98.9905L162.596 100.806C162.61 100.858 162.634 100.906 162.666 100.948C162.699 100.99 162.74 101.025 162.786 101.051C162.832 101.078 162.883 101.095 162.936 101.101C162.988 101.108 163.042 101.103 163.093 101.089L163.956 100.844C164.056 100.815 164.14 100.749 164.193 100.66L170.431 89.9442C170.471 89.8756 170.489 89.7965 170.484 89.7172C170.48 89.6378 170.451 89.5617 170.403 89.4985C170.355 89.4352 170.289 89.3878 170.214 89.3621C170.138 89.3364 170.057 89.3337 169.98 89.3542ZM162.29 102.487C162.228 102.274 162.005 102.148 161.794 102.213L159.994 102.728C159.894 102.757 159.81 102.823 159.757 102.912L154.861 111.327C154.834 111.373 154.817 111.423 154.81 111.476C154.803 111.529 154.807 111.583 154.821 111.634L155.554 114.337C155.575 114.413 155.618 114.482 155.678 114.534C155.737 114.586 155.811 114.619 155.889 114.63C155.968 114.64 156.048 114.627 156.119 114.591C156.19 114.556 156.249 114.501 156.288 114.433L162.502 103.662C162.557 103.567 162.57 103.455 162.54 103.35L162.29 102.487ZM189.313 103.21C189.276 103.171 189.232 103.139 189.183 103.118C189.134 103.096 189.082 103.084 189.028 103.083C188.921 103.061 188.816 103.123 188.74 103.199L187.379 104.543C187.303 104.618 187.26 104.721 187.26 104.828V111.938C187.26 112.045 187.302 112.147 187.377 112.222L189.364 114.21C189.42 114.267 189.491 114.305 189.569 114.32C189.647 114.336 189.727 114.328 189.801 114.298C189.874 114.267 189.937 114.216 189.981 114.15C190.025 114.084 190.048 114.006 190.048 113.927V104.149C190.048 104.046 190.009 103.948 189.939 103.874L189.313 103.21ZM189.801 90.4919C189.728 90.4614 189.647 90.4535 189.569 90.4689C189.491 90.4844 189.42 90.5227 189.364 90.5788L187.377 92.5663C187.34 92.6035 187.311 92.6477 187.29 92.6964C187.27 92.7451 187.26 92.7972 187.26 92.8499V99.9543C187.26 100.062 187.303 100.164 187.38 100.239L188.745 101.587C188.82 101.661 188.921 101.703 189.026 101.703C189.113 101.678 189.237 101.658 189.313 101.582L189.934 100.946C190.007 100.871 190.048 100.77 190.049 100.666V90.8628C190.049 90.7834 190.025 90.7058 189.981 90.6398C189.937 90.5738 189.874 90.5224 189.801 90.4919ZM188.939 89.6566C188.908 89.5838 188.857 89.5216 188.791 89.4778C188.725 89.4341 188.648 89.4107 188.569 89.4107H175.95C175.871 89.4109 175.794 89.4345 175.728 89.4784C175.662 89.5223 175.611 89.5846 175.58 89.6575C175.55 89.7304 175.542 89.8107 175.557 89.8883C175.572 89.966 175.609 90.0374 175.664 90.0938L177.624 92.0813C177.699 92.1573 177.802 92.2004 177.909 92.2004H186.609C186.716 92.2004 186.819 92.1573 186.894 92.0813L188.854 90.0938C188.968 89.9786 189.001 89.8062 188.939 89.6566Z" fill="white"/>
<path d="M205.533 130.912H101.062C98.411 130.912 96.2539 128.652 96.2539 125.875V78.1672C96.2539 75.3901 98.411 73.1302 101.062 73.1299H139.123C139.195 73.1299 139.264 73.1585 139.315 73.2095C139.366 73.2604 139.394 73.3295 139.394 73.4015C139.394 73.4736 139.366 73.5427 139.315 73.5936C139.264 73.6446 139.195 73.6732 139.123 73.6732H101.062C98.7104 73.6736 96.7971 75.6893 96.7971 78.1672V125.875C96.7971 128.353 98.7104 130.368 101.062 130.368H205.533C207.885 130.368 209.798 128.353 209.798 125.874V78.1672C209.798 75.6889 207.885 73.6732 205.533 73.6732H199.76C199.688 73.6732 199.619 73.6446 199.568 73.5936C199.517 73.5427 199.489 73.4736 199.489 73.4015C199.489 73.3295 199.517 73.2604 199.568 73.2095C199.619 73.1585 199.688 73.1299 199.76 73.1299H205.533C208.185 73.1299 210.342 75.3894 210.342 78.1672V125.874C210.341 128.652 208.184 130.912 205.533 130.912Z" fill="#271E4A"/>
<path d="M147.709 73.6732H143.168C143.096 73.6732 143.027 73.6446 142.976 73.5936C142.925 73.5427 142.896 73.4736 142.896 73.4015C142.896 73.3295 142.925 73.2604 142.976 73.2095C143.027 73.1585 143.096 73.1299 143.168 73.1299H147.709C147.781 73.1299 147.85 73.1585 147.901 73.2095C147.952 73.2604 147.981 73.3295 147.981 73.4015C147.981 73.4736 147.952 73.5427 147.901 73.5936C147.85 73.6446 147.781 73.6732 147.709 73.6732ZM167.096 73.6732H153.912C153.84 73.6732 153.771 73.6446 153.72 73.5936C153.669 73.5427 153.64 73.4736 153.64 73.4015C153.64 73.3295 153.669 73.2604 153.72 73.2095C153.771 73.1585 153.84 73.1299 153.912 73.1299H167.096C167.168 73.1299 167.237 73.1585 167.288 73.2095C167.339 73.2604 167.368 73.3295 167.368 73.4015C167.368 73.4736 167.339 73.5427 167.288 73.5936C167.237 73.6446 167.168 73.6732 167.096 73.6732Z" fill="#271E4A"/>
</g>
<g clip-path="url(#clip2_633_85883)">
<path d="M112.383 127.393L96.1578 73.2095H35.6195L34.7798 76.0133H16.4088C15.1983 76.0133 14.0222 76.4152 13.0651 77.1559C12.1081 77.8967 11.4244 78.9342 11.1215 80.1055L2.96114 111.655C2.67359 112.767 2.73572 113.94 3.13906 115.015C3.54239 116.09 4.26736 117.015 5.21532 117.664L19.4009 127.371L19.3944 127.393C18.124 131.639 18.1443 136.167 19.4529 140.402C19.5092 140.623 19.5764 140.842 19.6593 141.06L19.6607 141.065C22.6129 148.801 42.184 154.779 65.8881 154.779C89.5922 154.779 109.163 148.801 112.115 141.065H112.116L112.119 141.055C112.2 140.843 112.265 140.629 112.32 140.414C113.633 136.176 113.655 131.644 112.383 127.393ZM9.95803 114.416C9.29186 113.96 8.7824 113.31 8.49894 112.555C8.21549 111.799 8.17181 110.975 8.37386 110.194L15.2163 83.7395C15.4139 82.9759 15.8596 82.2996 16.4836 81.8167C17.1075 81.3338 17.8742 81.0718 18.6634 81.0718H33.2647L21.0146 121.982L9.95803 114.416Z" fill="#7E5EFF"/>
<path d="M17.3066 78.3955C14.3835 78.4057 11.1215 80.1059 9.26659 87.2769L2.96114 111.655C2.67359 112.767 2.73572 113.94 3.13906 115.015C3.54239 116.09 4.26736 117.015 5.21532 117.664L19.4009 127.371L19.3944 127.393C18.124 131.639 18.1443 136.167 19.4529 140.402C19.5092 140.623 19.5764 140.842 19.6593 141.06L19.6607 141.065C20.1821 142.432 21.2253 143.744 22.7157 144.977C24.8812 143.649 21.8942 141.667 20.7566 136.623C19.3523 130.395 22.0621 122.732 21.5905 122.377L19.2465 120.773L9.95803 114.417C9.29186 113.961 8.7824 113.311 8.49894 112.556C8.21549 111.8 8.17181 110.976 8.37386 110.194L15.2163 83.7402C15.4139 82.9767 15.8596 82.3003 16.4836 81.8175C17.1075 81.3346 17.8742 81.0726 18.6634 81.0726H25.5269C25.5269 81.0726 24.1498 78.3719 17.3066 78.3955Z" fill="white"/>
<path d="M65.8868 155.05C42.4094 155.05 22.4266 149.08 19.4051 141.162C19.3192 140.935 19.2465 140.704 19.1871 140.469C17.8785 136.244 17.8417 131.729 19.0813 127.484L5.0592 117.888C3.02957 116.499 2.07943 113.967 2.6953 111.587L10.8556 80.0375C11.1736 78.8077 11.8914 77.7184 12.8962 76.9408C13.901 76.1631 15.1359 75.7411 16.4068 75.7412H34.5746L35.3562 73.1317C35.373 73.0755 35.4074 73.0263 35.4544 72.9913C35.5014 72.9563 35.5584 72.9374 35.617 72.9374H96.1558C96.2144 72.9373 96.2715 72.9562 96.3186 72.9912C96.3657 73.0262 96.4002 73.0755 96.417 73.1317L112.642 127.315C113.934 131.629 113.912 136.186 112.579 140.495C112.52 140.724 112.452 140.943 112.373 141.151L112.367 141.166C109.34 149.081 89.3598 155.05 65.8868 155.05ZM16.4068 76.2855C15.2567 76.2855 14.1392 76.6674 13.2298 77.3712C12.3205 78.075 11.6709 79.0608 11.3832 80.1737L3.22287 111.723C2.66441 113.882 3.52626 116.179 5.36732 117.439L19.5529 127.146C19.6006 127.179 19.6366 127.226 19.6558 127.28C19.675 127.335 19.6764 127.394 19.6598 127.449C18.3942 131.676 18.4142 136.12 19.7114 140.321C19.7731 140.561 19.8378 140.767 19.9123 140.963C22.8594 148.685 42.6234 154.505 65.8868 154.505C89.1501 154.505 108.914 148.685 111.859 140.967C111.862 140.96 111.865 140.952 111.869 140.945C111.942 140.746 112.001 140.556 112.055 140.346C113.359 136.128 113.38 131.68 112.12 127.471L95.953 73.4814H35.8202L35.039 76.0909C35.0221 76.1471 34.9876 76.1963 34.9406 76.2313C34.8935 76.2663 34.8364 76.2852 34.7777 76.2852H16.4068V76.2855ZM21.0125 122.254C20.9575 122.254 20.9039 122.238 20.8584 122.207L9.80192 114.641C9.09095 114.152 8.54726 113.457 8.24432 112.649C7.94138 111.842 7.8938 110.961 8.10801 110.126L14.9505 83.6715C15.1631 82.8494 15.643 82.1213 16.3146 81.6015C16.9863 81.0817 17.8118 80.7997 18.6613 80.7997H33.2629C33.3054 80.7999 33.3472 80.8099 33.3851 80.8289C33.423 80.848 33.4559 80.8757 33.4813 80.9097C33.5066 80.9437 33.5237 80.9831 33.5311 81.0248C33.5386 81.0666 33.5362 81.1095 33.5242 81.1502L21.2734 122.06C21.2565 122.116 21.222 122.165 21.175 122.2C21.128 122.235 21.0711 122.254 21.0125 122.254ZM10.11 114.191L20.8584 121.546L32.8971 81.3441H18.6613C17.9326 81.3441 17.2245 81.5861 16.6483 82.032C16.0722 82.478 15.6605 83.1025 15.4781 83.8076L8.63559 110.262C8.44905 110.989 8.49044 111.756 8.75414 112.458C9.01785 113.161 9.49115 113.766 10.11 114.191Z" fill="#271E4A"/>
<path d="M108.294 138.759H23.4788C23.4211 138.759 23.3648 138.741 23.3182 138.707C23.2716 138.673 23.237 138.625 23.2194 138.57L23.0929 138.176C21.8054 134.18 21.7637 129.887 22.9734 125.866C22.9902 125.81 23.0246 125.761 23.0716 125.726C23.1186 125.691 23.1756 125.672 23.2343 125.672L108.538 125.672C108.597 125.672 108.654 125.691 108.701 125.726C108.748 125.761 108.782 125.81 108.799 125.867C110.009 129.887 109.967 134.179 108.68 138.175L108.553 138.57C108.536 138.625 108.501 138.673 108.455 138.707C108.408 138.741 108.352 138.759 108.294 138.759ZM23.6775 138.214H108.095L108.161 138.009C109.393 134.183 109.454 130.077 108.335 126.217L23.4385 126.216C22.3191 130.077 22.3797 134.184 23.6125 138.01L23.6775 138.214Z" fill="#271E4A"/>
<path d="M108.423 137.867L108.297 138.262H23.4817L23.3553 137.868C22.0898 133.923 22.0486 129.688 23.2372 125.719L38.1212 76.0139H93.6567L108.541 125.72C109.729 129.688 109.688 133.923 108.423 137.867Z" fill="white"/>
<path d="M56.6221 79.4041L54.3203 117.086H56.6221L58.5671 78.1135L56.6221 79.4041Z" fill="#7E5EFF"/>
<path d="M65.5803 91.7815C66.3916 91.7815 67.0493 90.7732 67.0493 89.5293C67.0493 88.2854 66.3916 87.2771 65.5803 87.2771C64.769 87.2771 64.1113 88.2854 64.1113 89.5293C64.1113 90.7732 64.769 91.7815 65.5803 91.7815Z" fill="#271E4A"/>
<path d="M65.5794 92.053C64.6027 92.053 63.8379 90.944 63.8379 89.5285C63.8379 88.1129 64.6027 87.0039 65.5794 87.0039C66.5561 87.0039 67.3209 88.1126 67.3209 89.5285C67.3209 90.9444 66.5561 92.053 65.5794 92.053ZM65.5794 87.549C64.9308 87.549 64.3829 88.4557 64.3829 89.5288C64.3829 90.6019 64.9308 91.5087 65.5794 91.5087C66.228 91.5087 66.7759 90.6019 66.7759 89.5288C66.7759 88.4554 66.2283 87.549 65.5794 87.549Z" fill="#271E4A"/>
<path d="M65.5805 111.743C66.6033 111.743 67.4324 110.272 67.4324 108.457C67.4324 106.642 66.6033 105.17 65.5805 105.17C64.5577 105.17 63.7285 106.642 63.7285 108.457C63.7285 110.272 64.5577 111.743 65.5805 111.743Z" fill="#271E4A"/>
<path d="M65.5776 112.016C64.3866 112.016 63.4531 110.452 63.4531 108.457C63.4531 106.462 64.3862 104.898 65.5776 104.898C66.769 104.898 67.7021 106.462 67.7021 108.457C67.7021 110.452 66.769 112.016 65.5776 112.016ZM65.5776 105.443C64.7216 105.443 63.9981 106.823 63.9981 108.457C63.9981 110.09 64.7216 111.471 65.5776 111.471C66.4336 111.471 67.157 110.09 67.157 108.457C67.157 106.823 66.4336 105.443 65.5776 105.443Z" fill="#271E4A"/>
<path d="M65.5805 101.129C66.1006 101.129 66.5222 100.655 66.5222 100.07C66.5222 99.4848 66.1006 99.0105 65.5805 99.0105C65.0603 99.0105 64.6387 99.4848 64.6387 100.07C64.6387 100.655 65.0603 101.129 65.5805 101.129Z" fill="#271E4A"/>
<path d="M65.5795 101.401C64.9099 101.401 64.3652 100.804 64.3652 100.07C64.3652 99.3358 64.9102 98.7384 65.5795 98.7384C66.2488 98.7384 66.7938 99.3358 66.7938 100.07C66.7942 100.804 66.2492 101.401 65.5795 101.401ZM65.5795 99.2827C65.2104 99.2827 64.9102 99.6357 64.9102 100.07C64.9102 100.504 65.2107 100.856 65.5795 100.856C65.9483 100.856 66.2488 100.503 66.2488 100.07C66.2492 99.6357 65.9487 99.2827 65.5795 99.2827Z" fill="#271E4A"/>
<path d="M65.8861 151.068C89.5024 151.068 108.647 144.601 108.647 136.623C108.647 128.645 89.5024 122.178 65.8861 122.178C42.2698 122.178 23.125 128.645 23.125 136.623C23.125 144.601 42.2698 151.068 65.8861 151.068Z" fill="#271E4A"/>
<path d="M65.8871 151.34C54.4364 151.34 43.6672 149.832 35.5632 147.095C27.3673 144.326 22.8535 140.607 22.8535 136.622C22.8535 132.638 27.3673 128.919 35.5632 126.15C43.6672 123.412 54.4364 121.905 65.8871 121.905C77.3379 121.905 88.107 123.413 96.211 126.15C104.407 128.919 108.92 132.638 108.92 136.622C108.92 140.607 104.407 144.326 96.211 147.095C88.107 149.832 77.3379 151.34 65.8871 151.34ZM65.8871 122.449C42.4588 122.449 23.3985 128.807 23.3985 136.622C23.3985 144.437 42.4588 150.795 65.8871 150.795C89.3151 150.795 108.376 144.437 108.376 136.622C108.376 128.807 89.3151 122.449 65.8871 122.449Z" fill="#271E4A"/>
<path d="M109.138 128.312C109.657 131.508 109.413 134.782 108.424 137.866L108.297 138.261H23.4817L23.3553 137.867C22.3641 134.777 22.1202 131.497 22.6435 128.294L109.138 128.312Z" fill="#271E4A"/>
<path d="M108.295 138.533H23.4802C23.4224 138.533 23.3662 138.515 23.3196 138.481C23.273 138.447 23.2384 138.399 23.2207 138.344L23.0943 137.95C22.0937 134.819 21.8466 131.495 22.3731 128.251C22.3835 128.187 22.4163 128.129 22.4655 128.087C22.5148 128.045 22.5773 128.022 22.6419 128.022L109.136 128.04C109.201 128.04 109.263 128.063 109.313 128.105C109.362 128.146 109.395 128.204 109.405 128.268C109.928 131.508 109.68 134.824 108.681 137.95L108.555 138.344C108.537 138.399 108.502 138.447 108.456 138.481C108.409 138.515 108.353 138.533 108.295 138.533ZM23.6789 137.988H108.097L108.162 137.783C109.111 134.814 109.365 131.667 108.903 128.584L22.8752 128.566C22.4102 131.655 22.6629 134.809 23.6135 137.784L23.6789 137.988Z" fill="#271E4A"/>
<path d="M65.8895 143.649C89.7654 143.649 109.121 137.11 109.121 129.045C109.121 120.979 89.7654 114.441 65.8895 114.441C42.0135 114.441 22.6582 120.979 22.6582 129.045C22.6582 137.11 42.0135 143.649 65.8895 143.649Z" fill="#271E4A"/>
<path d="M65.8889 143.921C54.3124 143.921 43.4252 142.397 35.2322 139.629C26.9473 136.83 22.3848 133.072 22.3848 129.045C22.3848 125.018 26.9473 121.259 35.2322 118.46C43.4249 115.693 54.3124 114.169 65.8889 114.169C77.4653 114.169 88.3525 115.693 96.5452 118.46C104.83 121.259 109.393 125.018 109.393 129.045C109.393 133.072 104.83 136.83 96.5452 139.629C88.3525 142.397 77.465 143.921 65.8889 143.921ZM65.8889 114.713C42.2015 114.713 22.9301 121.142 22.9301 129.045C22.9301 136.947 42.2015 143.376 65.8889 143.376C89.5763 143.376 108.848 136.947 108.848 129.045C108.848 121.142 89.5763 114.713 65.8889 114.713Z" fill="#271E4A"/>
<path d="M65.8865 138.278C47.9842 138.278 29.4668 134.615 29.4668 128.484C29.4668 127.044 30.4867 125.686 32.4982 124.448C32.5591 124.411 32.6269 124.386 32.6975 124.374C32.7682 124.363 32.8404 124.366 32.9101 124.382C32.9797 124.399 33.0454 124.429 33.1034 124.471C33.1614 124.513 33.2106 124.566 33.2481 124.627C33.2856 124.688 33.3108 124.755 33.3221 124.826C33.3335 124.897 33.3308 124.969 33.3142 125.038C33.2977 125.108 33.2675 125.174 33.2256 125.232C33.1836 125.29 33.1307 125.339 33.0697 125.376C31.9234 126.082 30.5565 127.194 30.5565 128.484C30.5565 132.688 44.753 137.189 65.8861 137.189C68.5719 137.189 71.249 137.112 73.8433 136.96C73.9855 136.955 74.1239 137.006 74.229 137.102C74.3341 137.197 74.3976 137.33 74.4059 137.472C74.4142 137.614 74.3667 137.754 74.2734 137.861C74.1802 137.968 74.0486 138.035 73.9069 138.047C71.2919 138.201 68.5934 138.278 65.8865 138.278ZM101.697 129.589C101.615 129.589 101.534 129.571 101.46 129.535C101.386 129.499 101.321 129.448 101.27 129.383C101.219 129.319 101.183 129.244 101.164 129.164C101.146 129.084 101.147 129.001 101.165 128.921C101.199 128.776 101.216 128.629 101.216 128.484C101.216 126.285 97.2546 123.99 90.6188 122.344C90.4785 122.31 90.3578 122.221 90.2832 122.097C90.2086 121.973 90.1862 121.825 90.221 121.685C90.2558 121.544 90.3449 121.424 90.4687 121.349C90.5925 121.274 90.7409 121.252 90.8812 121.287C100.324 123.628 102.306 126.492 102.306 128.483C102.306 128.711 102.279 128.941 102.227 129.167C102.199 129.287 102.132 129.394 102.036 129.47C101.939 129.547 101.82 129.589 101.697 129.589ZM47.3571 121.106C47.2199 121.106 47.0879 121.054 46.9873 120.961C46.8868 120.868 46.8251 120.74 46.8146 120.603C46.8041 120.467 46.8456 120.331 46.9307 120.224C47.0158 120.116 47.1383 120.045 47.2739 120.024C52.8752 119.151 59.3114 118.689 65.8865 118.689C66.031 118.689 66.1696 118.747 66.2718 118.849C66.374 118.951 66.4315 119.09 66.4315 119.234C66.4315 119.379 66.374 119.517 66.2718 119.619C66.1696 119.721 66.031 119.779 65.8865 119.779C59.3666 119.779 52.9885 120.236 47.4417 121.1C47.4137 121.104 47.3854 121.107 47.3571 121.106Z" fill="#7E5EFF"/>
<path d="M54.3235 132.416C54.3064 132.416 54.2889 132.416 54.2715 132.414C49.1211 131.928 40.4805 130.698 40.4805 127.924C40.4805 127.024 41.3154 126.257 43.033 125.578C43.1674 125.525 43.3174 125.527 43.4501 125.584C43.5828 125.642 43.6872 125.75 43.7404 125.884C43.7936 126.018 43.7912 126.168 43.7337 126.301C43.6763 126.433 43.5685 126.538 43.4341 126.591C42.0599 127.134 41.5705 127.636 41.5705 127.924C41.5705 128.773 45.0466 130.449 54.374 131.33C54.5131 131.343 54.6418 131.409 54.7333 131.515C54.8249 131.621 54.8723 131.757 54.8658 131.897C54.8594 132.037 54.7994 132.168 54.6985 132.265C54.5975 132.362 54.4633 132.416 54.3235 132.416ZM65.8894 132.927C65.7448 132.927 65.6062 132.87 65.504 132.767C65.4018 132.665 65.3444 132.527 65.3444 132.382C65.3444 132.238 65.4018 132.099 65.504 131.997C65.6062 131.895 65.7448 131.838 65.8894 131.838C68.6145 131.838 71.2912 131.759 73.8455 131.603C73.9882 131.597 74.1277 131.647 74.2338 131.743C74.3399 131.839 74.4043 131.972 74.4129 132.115C74.4216 132.257 74.3739 132.397 74.2802 132.505C74.1864 132.613 74.0541 132.679 73.9116 132.691C71.3352 132.847 68.6359 132.927 65.8894 132.927ZM85.2835 125.678C85.2443 125.678 85.2043 125.674 85.164 125.665C80.4514 124.614 73.4258 124.01 65.889 124.01C65.7445 124.01 65.6059 123.953 65.5036 123.851C65.4014 123.748 65.344 123.61 65.344 123.465C65.344 123.321 65.4014 123.182 65.5036 123.08C65.6059 122.978 65.7445 122.921 65.889 122.921C73.5025 122.921 80.6146 123.534 85.4016 124.602C85.5326 124.631 85.6481 124.708 85.7262 124.817C85.8042 124.926 85.8393 125.06 85.8247 125.193C85.8101 125.326 85.7468 125.45 85.6469 125.539C85.5471 125.629 85.4177 125.678 85.2835 125.678Z" fill="#7E5EFF"/>
<path d="M69.8809 108.569L73.1575 138.637L79.4844 133.862L76.3858 106.117L69.8809 108.569ZM86.8442 113.473L90.2012 129.045L95.1077 125.079L90.7498 109.472L86.8442 113.473Z" fill="white"/>
<path d="M106.433 71.263C106.433 78.8272 88.2805 84.9592 65.8884 84.9592C43.4964 84.9592 25.3438 78.8272 25.3438 71.263C25.3438 69.6426 26.1827 67.9613 26.1827 67.9613C26.1827 67.9613 48.2928 57.5664 65.8884 57.5664C83.9331 57.5664 105.543 67.9613 105.543 67.9613C105.543 67.9613 106.433 69.7944 106.433 71.263Z" fill="#271E4A"/>
<path d="M65.8875 85.2315C55.0287 85.2315 44.8162 83.8018 37.1307 81.2057C29.3534 78.5784 25.0703 75.0475 25.0703 71.2629C25.0703 69.5975 25.9024 67.9107 25.9376 67.8396C25.9651 67.7848 26.0101 67.7409 26.0655 67.7146C26.1211 67.6885 31.6959 65.0797 39.3493 62.5057C46.4185 60.1283 56.7611 57.2943 65.8875 57.2943C83.7872 57.2943 105.444 67.6119 105.66 67.7161C105.716 67.7427 105.76 67.7872 105.787 67.8425C105.825 67.9194 106.704 69.7489 106.704 71.2629C106.704 75.0472 102.421 78.5784 94.6439 81.2057C86.9585 83.8018 76.746 85.2315 65.8875 85.2315ZM26.386 68.1667C26.2228 68.5201 25.6153 69.9273 25.6153 71.2629C25.6153 78.6648 43.6815 84.6867 65.8871 84.6867C88.0928 84.6867 106.159 78.6648 106.159 71.2629C106.159 70.0489 105.505 68.5368 105.336 68.1653C103.815 67.4485 83.0853 57.839 65.8871 57.839C56.8366 57.839 46.5584 60.6566 39.5295 63.02C32.4287 65.4076 27.1257 67.825 26.386 68.1667Z" fill="#271E4A"/>
<path d="M65.8867 82.0546C87.8151 82.0546 105.592 76.0494 105.592 68.6416C105.592 61.2338 87.8151 55.2286 65.8867 55.2286C43.9582 55.2286 26.1816 61.2338 26.1816 68.6416C26.1816 76.0494 43.9582 82.0546 65.8867 82.0546Z" fill="#271E4A"/>
<path d="M65.888 82.3262C55.2534 82.3262 45.2516 80.9259 37.725 78.3832C30.106 75.8097 25.9102 72.3496 25.9102 68.6409C25.9102 64.9321 30.106 61.4725 37.725 58.8985C45.2516 56.3558 55.2537 54.9556 65.888 54.9556C76.5224 54.9556 86.5244 56.3558 94.0511 58.8985C101.67 61.4721 105.866 64.9321 105.866 68.6409C105.866 72.3496 101.67 75.8093 94.0511 78.3832C86.5241 80.9259 76.5224 82.3262 65.888 82.3262ZM65.888 55.5006C44.1449 55.5006 26.4552 61.3955 26.4552 68.6412C26.4552 75.887 44.1449 81.7819 65.888 81.7819C87.6312 81.7819 105.321 75.887 105.321 68.6412C105.321 61.3955 87.6312 55.5006 65.888 55.5006Z" fill="#271E4A"/>
<path d="M101.266 31.0472H30.5059L48.6617 68.6425H48.6646C49.6642 71.5567 56.9906 73.8198 65.886 73.8198C74.781 73.8198 82.1078 71.557 83.1074 68.6425H83.1106L101.266 31.0472Z" fill="#7E5EFF"/>
<path d="M65.8887 74.0903C57.0105 74.0903 49.5223 71.8054 48.4236 68.7685L48.4189 68.7594L30.263 31.1638C30.2432 31.1223 30.2341 31.0764 30.2368 31.0305C30.2394 30.9845 30.2536 30.94 30.2781 30.901C30.3026 30.862 30.3365 30.8299 30.3767 30.8075C30.417 30.7851 30.4622 30.7733 30.5082 30.7731H101.269C101.315 30.7731 101.36 30.7848 101.4 30.8071C101.441 30.8295 101.475 30.8617 101.499 30.9007C101.524 30.9397 101.538 30.9844 101.54 31.0304C101.543 31.0764 101.534 31.1223 101.514 31.1638L83.3579 68.7591L83.3539 68.767C82.2566 71.8051 74.7681 74.0903 65.8887 74.0903ZM48.8938 68.49C48.907 68.5094 48.9175 68.5305 48.925 68.5528C49.8853 71.3526 57.3364 73.546 65.8887 73.546C74.4407 73.546 81.8918 71.3526 82.8525 68.5528C82.8601 68.5303 82.8707 68.5089 82.8841 68.4892L100.835 31.3181H30.9424L48.8938 68.49Z" fill="#271E4A"/>
<path d="M65.888 41.485C85.6059 41.485 101.59 36.0853 101.59 29.4244C101.59 22.7635 85.6059 17.3638 65.888 17.3638C46.1701 17.3638 30.1855 22.7635 30.1855 29.4244C30.1855 36.0853 46.1701 41.485 65.888 41.485Z" fill="#7E5EFF"/>
<path d="M65.8894 41.7575C56.324 41.7575 47.3273 40.4978 40.5564 38.2107C33.6936 35.8924 29.9141 32.772 29.9141 29.4245C29.9141 26.0771 33.6936 22.9566 40.5564 20.6383C47.3273 18.3513 56.324 17.0916 65.8894 17.0916C75.4547 17.0916 84.4514 18.3513 91.222 20.6383C98.0848 22.9566 101.864 26.0771 101.864 29.4245C101.864 32.772 98.0848 35.8924 91.222 38.2107C84.4511 40.4978 75.4547 41.7575 65.8894 41.7575ZM65.8894 17.6363C46.3531 17.6363 30.4594 22.9243 30.4594 29.4245C30.4594 35.9248 46.3531 41.2128 65.8894 41.2128C85.4256 41.2128 101.319 35.9248 101.319 29.4245C101.319 22.9243 85.4252 17.6363 65.8894 17.6363Z" fill="#271E4A"/>
<path d="M65.8866 44.5744C50.6026 44.5744 36.9384 41.0926 32.6575 36.1074C32.6104 36.0526 32.5871 35.9813 32.5926 35.9092C32.5981 35.8372 32.632 35.7703 32.6869 35.7232C32.7418 35.6762 32.8131 35.6529 32.8852 35.6584C32.9573 35.6639 33.0243 35.6978 33.0713 35.7527C37.256 40.626 50.7501 44.0297 65.8866 44.0297C81.0257 44.0297 94.5202 40.6253 98.7034 35.7508C98.7505 35.696 98.8174 35.6621 98.8895 35.6566C98.9616 35.651 99.0329 35.6744 99.0878 35.7214C99.1427 35.7685 99.1766 35.8354 99.1822 35.9074C99.1877 35.9795 99.1643 36.0508 99.1173 36.1056C94.8378 41.0919 81.1728 44.5744 65.8866 44.5744Z" fill="#271E4A"/>
<path d="M65.8867 41.4856C78.9711 41.4856 90.4091 39.1074 96.6259 35.5614C98.1639 28.8331 101.543 13.4454 101.267 8.6864C101.203 12.1707 93.2396 27.183 91.2597 33.2053C88.5481 32.9471 81.8339 33.0764 80.5429 32.4311C79.2519 31.7858 68.5348 24.6882 60.6586 22.1074C58.5588 21.4192 38.9151 12.3512 37.352 13.2031C35.8979 18.9459 36.8953 34.4665 37.352 36.674C43.8674 39.5958 54.2234 41.4856 65.8867 41.4856Z" fill="#7E5EFF"/>
<path d="M65.8886 41.7573C54.5352 41.7573 44.0938 39.9946 37.2419 36.9217C37.2026 36.9041 37.1681 36.8774 37.1411 36.8438C37.1141 36.8102 37.0955 36.7707 37.0868 36.7286C36.67 34.7128 35.5829 19.085 37.0893 13.1357C37.0986 13.0993 37.1152 13.0653 37.1382 13.0357C37.1612 13.006 37.1901 12.9815 37.223 12.9635C38.2738 12.3916 44.5629 14.914 55.8008 19.7706C58.2471 20.8277 60.1798 21.6629 60.7451 21.8481C67.0615 23.918 75.0256 28.7747 78.8527 31.1089C79.7603 31.6624 80.4158 32.0622 80.6661 32.1871C81.4502 32.5789 84.7167 32.6759 87.3415 32.754C88.7654 32.7961 90.1159 32.8364 91.0708 32.9149C91.9283 30.3867 93.7094 26.4963 95.5919 22.3838C98.2305 16.6193 100.959 10.659 100.996 8.68102C100.997 8.6106 101.026 8.54343 101.076 8.4936C101.125 8.44376 101.192 8.41514 101.263 8.41375C101.399 8.40539 101.532 8.52378 101.54 8.67012C101.807 13.2657 98.7431 27.5284 96.8926 35.6217C96.8843 35.6585 96.8684 35.6931 96.846 35.7233C96.8235 35.7536 96.795 35.7788 96.7622 35.7975C90.3176 39.4735 78.4875 41.7573 65.8886 41.7573ZM37.5944 36.4823C44.3805 39.4895 54.6809 41.2126 65.8886 41.2126C78.3306 41.2126 89.9982 38.9804 96.3887 35.3831C97.9551 28.5252 100.368 17.3459 100.904 11.3606C99.9309 14.2149 97.9863 18.4629 96.0878 22.6104C94.1599 26.8213 92.3392 30.7988 91.5203 33.29C91.5011 33.3488 91.4624 33.3993 91.4106 33.4331C91.3588 33.4669 91.297 33.482 91.2354 33.4759C90.2925 33.3862 88.8511 33.3434 87.3255 33.298C84.37 33.2101 81.3143 33.1197 80.4227 32.6741C80.1516 32.5386 79.5219 32.1548 78.5689 31.5734C75.0565 29.4316 66.8315 24.4155 60.5751 22.3652C59.9861 22.1724 58.14 21.3742 55.5846 20.2699C50.6028 18.1169 39.099 13.1458 37.5831 13.4098C36.2587 18.9477 37.1039 33.7374 37.5944 36.4823Z" fill="#271E4A"/>
<path d="M80.5453 32.4307C81.8367 33.076 88.5509 32.9467 91.2621 33.2049C93.9738 33.4631 101.205 12.1703 101.269 8.686C101.328 5.50816 59.7418 15.0718 51.3398 18.148C53.8963 19.2763 58.5613 21.4188 60.661 22.1066C68.5372 24.6878 79.2544 31.7854 80.5453 32.4307Z" fill="url(#paint0_linear_633_85883)"/>
<path d="M80.5453 32.4307C81.8367 33.076 88.5509 32.9467 91.2621 33.2049C93.9738 33.4631 101.205 12.1703 101.269 8.686C101.328 5.50816 59.7418 15.0718 51.3398 18.148C53.8963 19.2763 58.5613 21.4188 60.661 22.1066C68.5372 24.6878 79.2544 31.7854 80.5453 32.4307Z" fill="black" fill-opacity="0.2"/>
<path d="M91.3112 33.4794C91.2854 33.4794 91.2592 33.4783 91.2338 33.4758C90.2909 33.3861 88.8495 33.3432 87.3238 33.2978C84.3688 33.2103 81.3131 33.1195 80.4211 32.6739C80.15 32.5385 79.5203 32.1547 78.5673 31.5733C75.0548 29.4315 66.8299 24.4154 60.5735 22.3651C58.8563 21.8022 55.535 20.3188 52.8662 19.1266C52.2656 18.8583 51.709 18.6095 51.2268 18.3967C51.1772 18.3747 51.1352 18.3384 51.1064 18.2924C51.0775 18.2465 51.0631 18.1929 51.0649 18.1387C51.0667 18.0844 51.0846 18.032 51.1165 17.988C51.1483 17.944 51.1925 17.9106 51.2435 17.8919C58.9057 15.0867 98.0893 5.90139 101.244 8.14706C101.493 8.32463 101.542 8.5407 101.539 8.69068C101.479 11.9916 95.3483 30.2434 92.1923 33.0589C91.8754 33.3414 91.5862 33.4794 91.3112 33.4794ZM52.0745 18.177L53.0886 18.6295C55.6055 19.7541 59.0529 21.2938 60.7431 21.848C67.0595 23.9179 75.0236 28.7745 78.8507 31.1088C79.7583 31.6622 80.4138 32.0621 80.6641 32.187C81.4482 32.5788 84.7147 32.6758 87.3395 32.7538C88.8746 32.7992 90.3243 32.8424 91.285 32.934C91.4205 32.9463 91.6116 32.8468 91.8289 32.6529C94.8774 29.9333 100.938 11.6891 100.994 8.68124C100.994 8.66889 100.995 8.63947 100.927 8.59118C99.7167 7.72981 91.2127 8.86317 78.1778 11.6223C67.7753 13.824 56.633 16.6278 52.0745 18.177ZM52.5541 68.0616C52.5 68.0617 52.4471 68.0456 52.4021 68.0154C52.3571 67.9853 52.3221 67.9425 52.3016 67.8924L42.3816 43.6717C42.3542 43.6048 42.3546 43.5298 42.3826 43.4631C42.4105 43.3965 42.4638 43.3437 42.5308 43.3163C42.5977 43.289 42.6727 43.2893 42.7394 43.3173C42.8061 43.3452 42.8589 43.3985 42.8863 43.4654L52.8063 67.6861C52.8232 67.7275 52.8297 67.7724 52.8252 67.8168C52.8206 67.8613 52.8052 67.904 52.7803 67.9411C52.7554 67.9782 52.7217 68.0086 52.6823 68.0296C52.6428 68.0506 52.5988 68.0616 52.5541 68.0616ZM54.8781 68.9139C54.8228 68.9138 54.7689 68.8969 54.7234 68.8656C54.6779 68.8342 54.643 68.7898 54.6234 68.7382L48.8128 53.4329C48.7892 53.3658 48.7928 53.2922 48.8227 53.2278C48.8527 53.1633 48.9067 53.1131 48.9732 53.0879C49.0397 53.0627 49.1134 53.0645 49.1786 53.0928C49.2438 53.1212 49.2953 53.1739 49.3222 53.2397L55.1328 68.545C55.1484 68.5862 55.1538 68.6306 55.1485 68.6744C55.1432 68.7181 55.1273 68.76 55.1023 68.7962C55.0772 68.8325 55.0437 68.8622 55.0047 68.8827C54.9656 68.9032 54.9222 68.9139 54.8781 68.9139ZM63.7265 67.2874C63.6543 67.2874 63.585 67.2587 63.5339 67.2076C63.4827 67.1566 63.454 67.0873 63.454 67.0151V46.3676C63.454 46.2954 63.4827 46.2261 63.5339 46.175C63.585 46.124 63.6543 46.0953 63.7265 46.0953C63.7988 46.0953 63.8681 46.124 63.9192 46.175C63.9703 46.2261 63.9991 46.2954 63.9991 46.3676V67.0151C63.9991 67.0873 63.9703 67.1566 63.9192 67.2076C63.8681 67.2587 63.7988 67.2874 63.7265 67.2874ZM66.5203 60.4048H66.5112C66.439 60.4024 66.3707 60.3714 66.3214 60.3187C66.272 60.266 66.2455 60.1959 66.2478 60.1237L66.775 44.293C66.7786 44.2212 66.8099 44.1537 66.8624 44.1045C66.9148 44.0554 66.9843 44.0286 67.0562 44.0297C67.1284 44.0321 67.1968 44.063 67.2462 44.1157C67.2956 44.1684 67.322 44.2386 67.3196 44.3108L66.7924 60.1415C66.7902 60.2122 66.7605 60.2791 66.7097 60.3283C66.6589 60.3774 66.591 60.4049 66.5203 60.4048ZM79.4844 64.2817C79.4408 64.2818 79.3979 64.2714 79.3592 64.2515C79.3206 64.2315 79.2872 64.2026 79.262 64.1672C79.2368 64.1317 79.2204 64.0908 79.2143 64.0477C79.2081 64.0046 79.2124 63.9607 79.2267 63.9197L87.0782 41.3955C87.1031 41.3287 87.1531 41.2742 87.2177 41.2439C87.2822 41.2136 87.3561 41.2097 87.4234 41.2332C87.4908 41.2567 87.5462 41.3056 87.5779 41.3695C87.6095 41.4334 87.6149 41.5071 87.5927 41.5749L79.7412 64.099C79.7228 64.1524 79.6881 64.1987 79.6421 64.2315C79.596 64.2642 79.5409 64.2818 79.4844 64.2817Z" fill="#271E4A"/>
<path d="M65.888 82.3265C55.2534 82.3265 45.2516 80.9262 37.725 78.3835C30.106 75.8099 25.9102 72.3499 25.9102 68.6411C25.9102 68.5689 25.9389 68.4996 25.99 68.4485C26.0411 68.3975 26.1104 68.3688 26.1827 68.3688C26.2549 68.3688 26.3243 68.3975 26.3754 68.4485C26.4265 68.4996 26.4552 68.5689 26.4552 68.6411C26.4552 75.8869 44.1449 81.7817 65.888 81.7817C72.5005 81.7817 79.0439 81.2207 84.8106 80.1589C84.8817 80.1458 84.9551 80.1614 85.0146 80.2024C85.0742 80.2434 85.115 80.3064 85.1281 80.3775C85.1412 80.4486 85.1256 80.5219 85.0845 80.5814C85.0435 80.641 84.9805 80.6818 84.9094 80.6949C79.1104 81.7621 72.5332 82.3265 65.888 82.3265ZM100.28 75.6211C100.22 75.6212 100.162 75.6015 100.114 75.5652C100.067 75.5288 100.032 75.4778 100.017 75.42C100.001 75.3621 100.005 75.3008 100.028 75.2454C100.05 75.1899 100.091 75.1435 100.143 75.1134C103.53 73.1354 105.32 70.8973 105.32 68.6415C105.32 68.5693 105.349 68.5 105.4 68.4489C105.451 68.3978 105.52 68.3691 105.593 68.3691C105.665 68.3691 105.734 68.3978 105.785 68.4489C105.836 68.5 105.865 68.5693 105.865 68.6415C105.865 71.1021 103.981 73.5025 100.417 75.5837C100.376 75.6081 100.328 75.621 100.28 75.6211Z" fill="#7E5EFF"/>
</g>
<g clip-path="url(#clip3_633_85883)">
<path d="M150.788 35.1049C150.716 35.1049 150.647 35.0761 150.597 35.0248C150.546 34.9736 150.518 34.904 150.518 34.8315V27.3015C150.518 27.229 150.546 27.1595 150.597 27.1082C150.647 27.057 150.716 27.0282 150.788 27.0282C150.86 27.0282 150.928 27.057 150.979 27.1082C151.03 27.1595 151.058 27.229 151.058 27.3015V34.8315C151.058 34.904 151.03 34.9736 150.979 35.0248C150.928 35.0761 150.86 35.1049 150.788 35.1049ZM153.11 32.964C153.038 32.964 152.97 32.9352 152.919 32.8839C152.868 32.8326 152.84 32.7631 152.84 32.6906V29.4421C152.84 29.3696 152.868 29.3 152.919 29.2488C152.97 29.1975 153.038 29.1687 153.11 29.1687C153.182 29.1687 153.251 29.1975 153.301 29.2488C153.352 29.3 153.38 29.3696 153.38 29.4421V32.6906C153.38 32.7631 153.352 32.8326 153.301 32.8839C153.251 32.9352 153.182 32.964 153.11 32.964ZM155.432 32.964C155.36 32.964 155.291 32.9352 155.241 32.8839C155.19 32.8326 155.162 32.7631 155.162 32.6906V29.4421C155.162 29.3696 155.19 29.3 155.241 29.2488C155.291 29.1975 155.36 29.1687 155.432 29.1687C155.504 29.1687 155.572 29.1975 155.623 29.2488C155.674 29.3 155.702 29.3696 155.702 29.4421V32.6906C155.702 32.7631 155.674 32.8326 155.623 32.8839C155.572 32.9352 155.504 32.964 155.432 32.964ZM157.753 34.2068C157.682 34.2068 157.613 34.178 157.562 34.1268C157.512 34.0755 157.483 34.006 157.483 33.9335V28.1992C157.483 28.1267 157.512 28.0572 157.562 28.0059C157.613 27.9547 157.682 27.9259 157.753 27.9259C157.825 27.9259 157.894 27.9547 157.944 28.0059C157.995 28.0572 158.024 28.1267 158.024 28.1992V33.9338C158.024 34.0063 157.995 34.0757 157.944 34.1269C157.894 34.1781 157.825 34.2068 157.753 34.2068ZM160.075 41.4584C160.003 41.4584 159.935 41.4296 159.884 41.3783C159.833 41.327 159.805 41.2575 159.805 41.185V20.948C159.805 20.8755 159.833 20.806 159.884 20.7547C159.935 20.7035 160.003 20.6747 160.075 20.6747C160.147 20.6747 160.216 20.7035 160.266 20.7547C160.317 20.806 160.345 20.8755 160.345 20.948V41.1847C160.346 41.2206 160.339 41.2562 160.325 41.2894C160.311 41.3226 160.292 41.3528 160.266 41.3782C160.241 41.4036 160.212 41.4238 160.179 41.4375C160.146 41.4513 160.111 41.4584 160.075 41.4584ZM162.397 37.591C162.326 37.591 162.257 37.5622 162.206 37.5109C162.156 37.4596 162.127 37.3901 162.127 37.3176V24.8151C162.127 24.7426 162.156 24.6731 162.206 24.6218C162.257 24.5705 162.326 24.5417 162.397 24.5417C162.469 24.5417 162.538 24.5705 162.588 24.6218C162.639 24.6731 162.668 24.7426 162.668 24.8151V37.3172C162.668 37.3532 162.661 37.3888 162.647 37.422C162.634 37.4552 162.614 37.4853 162.589 37.5108C162.564 37.5362 162.534 37.5564 162.501 37.5701C162.468 37.5839 162.433 37.591 162.397 37.591ZM164.719 35.1049C164.647 35.1049 164.579 35.0761 164.528 35.0248C164.477 34.9736 164.449 34.904 164.449 34.8315V27.3015C164.449 27.229 164.477 27.1595 164.528 27.1082C164.579 27.057 164.647 27.0282 164.719 27.0282C164.791 27.0282 164.86 27.057 164.91 27.1082C164.961 27.1595 164.989 27.229 164.989 27.3015V34.8315C164.989 34.904 164.961 34.9736 164.91 35.0248C164.86 35.0761 164.791 35.1049 164.719 35.1049ZM167.041 33.3784C166.969 33.3784 166.9 33.3496 166.849 33.2983C166.799 33.2471 166.77 33.1775 166.77 33.105V29.028C166.77 28.9555 166.799 28.886 166.849 28.8347C166.9 28.7835 166.969 28.7547 167.041 28.7547C167.112 28.7547 167.181 28.7835 167.232 28.8347C167.282 28.886 167.311 28.9555 167.311 29.028V33.1054C167.311 33.1778 167.282 33.2473 167.232 33.2984C167.181 33.3496 167.112 33.3784 167.041 33.3784ZM169.363 35.1049C169.291 35.1049 169.222 35.0761 169.172 35.0248C169.121 34.9736 169.093 34.904 169.093 34.8315V27.3015C169.093 27.229 169.121 27.1595 169.172 27.1082C169.222 27.057 169.291 27.0282 169.363 27.0282C169.435 27.0282 169.503 27.057 169.554 27.1082C169.605 27.1595 169.633 27.229 169.633 27.3015V34.8315C169.633 34.904 169.605 34.9736 169.554 35.0248C169.503 35.0761 169.435 35.1049 169.363 35.1049ZM171.685 32.964C171.613 32.964 171.544 32.9352 171.493 32.8839C171.443 32.8326 171.414 32.7631 171.414 32.6906V29.4417C171.414 29.3692 171.443 29.2997 171.493 29.2484C171.544 29.1972 171.613 29.1684 171.685 29.1684C171.756 29.1684 171.825 29.1972 171.876 29.2484C171.926 29.2997 171.955 29.3692 171.955 29.4417V32.6906C171.955 32.7631 171.926 32.8326 171.876 32.8839C171.825 32.9352 171.756 32.964 171.685 32.964ZM174.006 32.964C173.935 32.964 173.866 32.9352 173.815 32.8839C173.765 32.8326 173.736 32.7631 173.736 32.6906V29.4417C173.736 29.3692 173.765 29.2997 173.815 29.2484C173.866 29.1972 173.935 29.1684 174.006 29.1684C174.078 29.1684 174.147 29.1972 174.198 29.2484C174.248 29.2997 174.277 29.3692 174.277 29.4417V32.6906C174.277 32.7631 174.248 32.8326 174.198 32.8839C174.147 32.9352 174.078 32.964 174.006 32.964ZM176.328 37.1073C176.257 37.1073 176.188 37.0785 176.137 37.0272C176.086 36.976 176.058 36.9064 176.058 36.8339V25.2987C176.058 25.2263 176.086 25.1567 176.137 25.1055C176.188 25.0542 176.257 25.0254 176.328 25.0254C176.4 25.0254 176.469 25.0542 176.519 25.1055C176.57 25.1567 176.599 25.2263 176.599 25.2987V36.8339C176.599 36.9064 176.57 36.976 176.519 37.0272C176.469 37.0785 176.4 37.1073 176.328 37.1073ZM178.65 32.964C178.578 32.964 178.51 32.9352 178.459 32.8839C178.408 32.8326 178.38 32.7631 178.38 32.6906V29.4417C178.38 29.3692 178.408 29.2997 178.459 29.2484C178.51 29.1972 178.578 29.1684 178.65 29.1684C178.722 29.1684 178.791 29.1972 178.841 29.2484C178.892 29.2997 178.92 29.3692 178.92 29.4417V32.6906C178.92 32.7631 178.892 32.8326 178.841 32.8839C178.791 32.9352 178.722 32.964 178.65 32.964Z" fill="#271E4A"/>
<path d="M180.334 31.3403H148.647C148.576 31.3403 148.507 31.3115 148.456 31.2602C148.405 31.209 148.377 31.1394 148.377 31.0669C148.377 30.9944 148.405 30.9249 148.456 30.8736C148.507 30.8224 148.576 30.7936 148.647 30.7936H180.334C180.406 30.7936 180.474 30.8224 180.525 30.8736C180.576 30.9249 180.604 30.9944 180.604 31.0669C180.604 31.1394 180.576 31.209 180.525 31.2602C180.474 31.3115 180.406 31.3403 180.334 31.3403Z" fill="#271E4A"/>
<path d="M144.863 31.0661L140.113 27.5042V34.6278L144.863 31.0661Z" fill="url(#paint1_linear_633_85883)"/>
<path d="M144.863 31.0661L140.113 27.5042V34.6278L144.863 31.0661Z" fill="black" fill-opacity="0.2"/>
</g>
<g clip-path="url(#clip4_633_85883)">
<path d="M28.4794 118.44C28.4361 118.441 28.3934 118.43 28.355 118.41C28.3165 118.39 28.2834 118.361 28.2584 118.326C28.2334 118.29 28.2172 118.249 28.2112 118.206C28.2053 118.163 28.2097 118.119 28.2241 118.078L30.2369 112.341C30.2629 112.276 30.313 112.223 30.3766 112.194C30.4403 112.165 30.5126 112.162 30.5785 112.185C30.6444 112.209 30.6988 112.257 30.7302 112.32C30.7616 112.382 30.7677 112.455 30.7471 112.522L28.7343 118.259C28.7156 118.312 28.6811 118.358 28.6354 118.39C28.5898 118.423 28.5353 118.44 28.4794 118.44ZM32.0601 117.629C32.0226 117.629 31.9856 117.621 31.9512 117.606C31.9169 117.591 31.8861 117.569 31.8607 117.541C31.8354 117.513 31.816 117.481 31.8039 117.445C31.7918 117.409 31.7872 117.371 31.7904 117.334C31.92 115.788 32.3021 114.274 32.9214 112.853C32.9511 112.788 33.0047 112.738 33.0709 112.712C33.1371 112.687 33.2104 112.689 33.2752 112.718C33.3401 112.746 33.3912 112.799 33.4177 112.865C33.4441 112.931 33.4438 113.005 33.4168 113.071C32.8211 114.437 32.4536 115.893 32.3291 117.38C32.3235 117.448 32.2928 117.511 32.243 117.557C32.1931 117.604 32.1279 117.629 32.0601 117.629ZM43.2717 35.4406C43.2333 35.4407 43.1953 35.4325 43.1603 35.4166C43.1253 35.4007 43.0941 35.3775 43.0687 35.3485L39.9924 31.8375C39.9485 31.7829 39.9274 31.7134 39.9332 31.6435C39.9391 31.5736 39.9715 31.5086 40.0238 31.4622C40.0761 31.4157 40.1442 31.3914 40.2139 31.3942C40.2836 31.397 40.3496 31.4268 40.398 31.4774L43.4743 34.9883C43.5088 35.0275 43.5313 35.076 43.5391 35.1278C43.547 35.1796 43.5397 35.2326 43.5183 35.2803C43.4969 35.3281 43.4623 35.3686 43.4185 35.3971C43.3748 35.4255 43.3238 35.4406 43.2717 35.4406ZM43.5839 32.1175C43.5373 32.1176 43.4915 32.1055 43.4508 32.0825C43.4102 32.0595 43.3762 32.0264 43.3521 31.9862C42.9299 31.2855 42.3814 30.6702 41.7348 30.172C41.6825 30.1266 41.6494 30.0629 41.6422 29.9938C41.6351 29.9246 41.6544 29.8554 41.6962 29.8001C41.7381 29.7449 41.7994 29.7078 41.8675 29.6964C41.9356 29.685 42.0055 29.7002 42.0629 29.7389C42.7632 30.279 43.3574 30.9457 43.815 31.7048C43.8398 31.746 43.8532 31.7931 43.854 31.8413C43.8547 31.8895 43.8427 31.937 43.8192 31.979C43.7957 32.021 43.7615 32.0559 43.7202 32.0803C43.6788 32.1046 43.6318 32.1175 43.5839 32.1175ZM53.384 26.6418C53.3421 26.6419 53.3007 26.6321 53.2633 26.6132L51.624 25.7884C51.5598 25.7561 51.511 25.6995 51.4883 25.6311C51.4656 25.5626 51.4709 25.4879 51.503 25.4233C51.5351 25.3588 51.5913 25.3097 51.6594 25.2869C51.7274 25.2641 51.8017 25.2694 51.8659 25.3016L53.5055 26.1264C53.5598 26.1541 53.6032 26.1993 53.6288 26.2547C53.6544 26.3102 53.6607 26.3728 53.6467 26.4323C53.6326 26.4918 53.5991 26.5449 53.5515 26.5829C53.5038 26.6209 53.4448 26.6416 53.384 26.6418ZM87.5614 18.6823C87.5144 18.6824 87.4682 18.67 87.4274 18.6466C87.3865 18.6232 87.3525 18.5894 87.3285 18.5487C87.3046 18.508 87.2917 18.4617 87.291 18.4144C87.2903 18.3671 87.3018 18.3204 87.3245 18.279L88.6797 15.7989C88.6969 15.7675 88.7199 15.7399 88.7477 15.7176C88.7754 15.6952 88.8072 15.6786 88.8413 15.6686C88.8754 15.6587 88.9112 15.6556 88.9465 15.6595C88.9818 15.6634 89.016 15.6743 89.0471 15.6915C89.0782 15.7087 89.1057 15.7319 89.1279 15.7598C89.1501 15.7877 89.1666 15.8197 89.1766 15.8541C89.1865 15.8884 89.1896 15.9243 89.1857 15.9599C89.1818 15.9954 89.1709 16.0298 89.1538 16.0611L87.7986 18.5413C87.7753 18.584 87.7409 18.6196 87.6992 18.6444C87.6575 18.6692 87.6099 18.6823 87.5614 18.6823ZM89.9982 19.7694C89.9532 19.7693 89.9089 19.758 89.8693 19.7364C89.8298 19.7147 89.7962 19.6835 89.7717 19.6456C89.7472 19.6076 89.7324 19.5641 89.7289 19.5189C89.7253 19.4738 89.733 19.4285 89.7512 19.3871L90.844 16.9134C90.8731 16.8475 90.927 16.7959 90.994 16.77C91.0609 16.7441 91.1353 16.746 91.2009 16.7753C91.2664 16.8045 91.3177 16.8588 91.3435 16.9262C91.3692 16.9935 91.3674 17.0684 91.3382 17.1343L90.2455 19.608C90.2241 19.656 90.1894 19.6968 90.1456 19.7254C90.1017 19.7541 90.0505 19.7693 89.9982 19.7694ZM181.54 68.4736C181.47 68.4748 181.403 68.4491 181.352 68.4018C181.301 68.3546 181.27 68.2894 181.266 68.2198C181.261 68.1502 181.283 68.0815 181.328 68.028C181.372 67.9744 181.435 67.9401 181.504 67.9321L188.323 67.0177C188.359 67.0126 188.394 67.0146 188.429 67.0236C188.463 67.0326 188.496 67.0485 188.524 67.0702C188.552 67.092 188.576 67.1192 188.594 67.1503C188.611 67.1814 188.623 67.2158 188.627 67.2513C188.632 67.2867 188.63 67.3227 188.621 67.3573C188.611 67.3918 188.596 67.4242 188.574 67.4526C188.553 67.481 188.526 67.5048 188.495 67.5228C188.464 67.5407 188.43 67.5523 188.395 67.5571L181.576 68.4715C181.564 68.4729 181.552 68.4736 181.54 68.4736ZM185.632 70.3492C185.563 70.3475 185.498 70.3198 185.449 70.2715C185.4 70.2232 185.371 70.158 185.368 70.089C185.365 70.0201 185.388 69.9525 185.432 69.9C185.477 69.8475 185.54 69.814 185.608 69.8062L188.613 69.5313C188.685 69.5257 188.755 69.5483 188.81 69.5943C188.865 69.6403 188.9 69.7061 188.907 69.7775C188.911 69.8131 188.907 69.849 188.896 69.8831C188.886 69.9172 188.869 69.9489 188.846 69.9764C188.823 70.0038 188.795 70.0265 188.764 70.0431C188.732 70.0597 188.698 70.0699 188.663 70.0731L185.657 70.3481C185.649 70.3488 185.64 70.3492 185.632 70.3492ZM199.049 111.096C198.987 111.096 198.927 111.075 198.879 111.036C198.831 110.996 198.798 110.942 198.785 110.881C198.772 110.82 198.781 110.756 198.809 110.701C198.837 110.645 198.883 110.601 198.94 110.576L204.088 108.279C204.121 108.264 204.156 108.256 204.192 108.254C204.228 108.253 204.264 108.259 204.297 108.271C204.331 108.284 204.362 108.303 204.388 108.328C204.414 108.353 204.435 108.383 204.449 108.416C204.464 108.449 204.472 108.484 204.473 108.521C204.473 108.557 204.467 108.593 204.454 108.626C204.44 108.66 204.421 108.69 204.396 108.716C204.37 108.742 204.341 108.763 204.307 108.777L199.159 111.073C199.124 111.088 199.087 111.096 199.049 111.096ZM199.868 113.305C199.804 113.304 199.743 113.282 199.695 113.241C199.647 113.2 199.614 113.143 199.603 113.081C199.592 113.018 199.603 112.953 199.634 112.898C199.665 112.843 199.714 112.8 199.773 112.778L204.959 110.837C204.992 110.824 205.027 110.819 205.063 110.82C205.098 110.821 205.133 110.83 205.165 110.844C205.198 110.859 205.227 110.88 205.251 110.907C205.275 110.933 205.294 110.963 205.306 110.997C205.319 111.03 205.324 111.066 205.323 111.102C205.322 111.137 205.314 111.173 205.299 111.205C205.284 111.237 205.263 111.267 205.237 111.291C205.211 111.315 205.18 111.334 205.147 111.347L199.962 113.288C199.932 113.299 199.9 113.305 199.868 113.305ZM154.216 125.61C154.161 125.61 154.108 125.593 154.063 125.561C154.017 125.53 153.983 125.485 153.963 125.434C153.944 125.382 153.941 125.326 153.954 125.272C153.967 125.218 153.996 125.17 154.037 125.133L158.684 121.012C158.738 120.964 158.808 120.94 158.88 120.944C158.951 120.949 159.018 120.981 159.066 121.036C159.113 121.09 159.137 121.161 159.133 121.233C159.128 121.305 159.096 121.372 159.042 121.42L154.395 125.541C154.346 125.586 154.282 125.61 154.216 125.61ZM122.241 133.299H114.59C114.518 133.299 114.449 133.27 114.399 133.219C114.348 133.168 114.32 133.099 114.32 133.027C114.32 132.955 114.348 132.886 114.399 132.835C114.449 132.784 114.518 132.755 114.59 132.755H122.241C122.312 132.755 122.381 132.784 122.432 132.835C122.483 132.886 122.511 132.955 122.511 133.027C122.511 133.099 122.483 133.168 122.432 133.219C122.381 133.27 122.312 133.299 122.241 133.299ZM121.694 135.773H115.409C115.338 135.773 115.269 135.744 115.218 135.693C115.167 135.642 115.139 135.573 115.139 135.501C115.139 135.429 115.167 135.36 115.218 135.309C115.269 135.257 115.338 135.229 115.409 135.229H121.694C121.766 135.229 121.835 135.257 121.885 135.309C121.936 135.36 121.964 135.429 121.964 135.501C121.964 135.573 121.936 135.642 121.885 135.693C121.835 135.744 121.766 135.773 121.694 135.773ZM182.9 137.422H180.167C180.096 137.422 180.027 137.394 179.976 137.343C179.926 137.292 179.897 137.223 179.897 137.15C179.897 137.078 179.926 137.009 179.976 136.958C180.027 136.907 180.096 136.878 180.167 136.878H182.9C182.972 136.878 183.04 136.907 183.091 136.958C183.142 137.009 183.17 137.078 183.17 137.15C183.17 137.223 183.142 137.292 183.091 137.343C183.04 137.394 182.972 137.422 182.9 137.422ZM109.128 167.665C109.066 167.665 109.007 167.644 108.959 167.606C108.911 167.568 108.877 167.514 108.864 167.454C108.85 167.394 108.856 167.332 108.883 167.276C108.909 167.22 108.953 167.175 109.008 167.148L111.751 165.796C111.816 165.764 111.89 165.759 111.958 165.783C112.026 165.806 112.082 165.856 112.113 165.921C112.145 165.985 112.15 166.06 112.126 166.129C112.103 166.197 112.054 166.253 111.989 166.285L109.246 167.637C109.209 167.655 109.169 167.665 109.128 167.665ZM110.218 169.584C110.153 169.584 110.09 169.561 110.041 169.518C109.991 169.476 109.959 169.416 109.95 169.352C109.94 169.287 109.954 169.221 109.989 169.166C110.024 169.111 110.078 169.07 110.14 169.051L112.873 168.227C112.941 168.206 113.016 168.214 113.079 168.248C113.142 168.282 113.189 168.34 113.21 168.41C113.23 168.479 113.223 168.553 113.189 168.617C113.155 168.681 113.097 168.728 113.028 168.749L110.296 169.573C110.27 169.58 110.244 169.584 110.218 169.584ZM137.269 172.608C137.229 172.608 137.188 172.599 137.152 172.581C137.115 172.564 137.083 172.538 137.058 172.506L135.965 171.132C135.92 171.076 135.899 171.004 135.907 170.932C135.915 170.86 135.951 170.795 136.007 170.749C136.063 170.704 136.135 170.683 136.206 170.691C136.277 170.699 136.342 170.735 136.387 170.792L137.48 172.166C137.512 172.206 137.532 172.254 137.537 172.305C137.543 172.356 137.534 172.407 137.512 172.454C137.49 172.5 137.456 172.539 137.413 172.566C137.37 172.593 137.32 172.608 137.269 172.608ZM89.9982 155.565C89.9346 155.565 89.8729 155.542 89.8242 155.501C89.7754 155.46 89.7426 155.403 89.7315 155.34C89.7204 155.277 89.7318 155.212 89.7636 155.157C89.7955 155.101 89.8457 155.059 89.9055 155.037L95.9169 152.838C95.9843 152.813 96.0587 152.817 96.1237 152.847C96.1887 152.878 96.239 152.933 96.2635 153.001C96.2881 153.068 96.2848 153.143 96.2545 153.209C96.2242 153.274 96.1693 153.325 96.1019 153.349L90.0905 155.548C90.0609 155.559 90.0297 155.565 89.9982 155.565ZM91.3646 157.764C91.3036 157.764 91.2444 157.744 91.1966 157.706C91.1488 157.668 91.1151 157.614 91.1011 157.555C91.0871 157.495 91.0935 157.432 91.1193 157.377C91.1452 157.321 91.1889 157.276 91.2434 157.249L92.3365 156.699C92.3683 156.683 92.4029 156.673 92.4383 156.671C92.4737 156.668 92.5093 156.673 92.543 156.684C92.5767 156.696 92.6078 156.714 92.6346 156.737C92.6614 156.76 92.6834 156.789 92.6992 156.821C92.7151 156.853 92.7245 156.888 92.727 156.923C92.7295 156.959 92.725 156.995 92.7138 157.028C92.7025 157.062 92.6848 157.094 92.6615 157.121C92.6382 157.148 92.6099 157.17 92.5781 157.186L91.4853 157.736C91.4478 157.754 91.4065 157.764 91.3646 157.764ZM17.8486 146.026C17.7952 146.026 17.743 146.01 17.6986 145.98L15.5272 144.523C15.4972 144.504 15.4714 144.478 15.4513 144.449C15.4311 144.419 15.417 144.385 15.4098 144.35C15.4026 144.315 15.4025 144.279 15.4093 144.243C15.4161 144.208 15.4299 144.174 15.4497 144.145C15.4695 144.115 15.4951 144.089 15.5249 144.069C15.5546 144.049 15.588 144.035 15.6231 144.028C15.6582 144.022 15.6943 144.022 15.7293 144.029C15.7644 144.036 15.7976 144.05 15.8271 144.071L17.9989 145.527C18.0472 145.56 18.0839 145.607 18.1035 145.662C18.1231 145.717 18.1245 145.777 18.1077 145.833C18.0908 145.889 18.0565 145.938 18.0099 145.972C17.9632 146.007 17.9067 146.026 17.8486 146.026ZM129.83 37.6447C129.764 37.6447 129.7 37.6204 129.651 37.5764C129.602 37.5325 129.57 37.4719 129.562 37.4061L129.293 35.2067C129.289 35.1712 129.291 35.1352 129.301 35.1008C129.31 35.0664 129.327 35.0341 129.348 35.006C129.37 34.9778 129.397 34.9543 129.428 34.9367C129.459 34.9191 129.493 34.9078 129.529 34.9034C129.564 34.8988 129.6 34.9013 129.634 34.9107C129.668 34.9201 129.7 34.9363 129.728 34.9583C129.756 34.9803 129.78 35.0077 129.797 35.0389C129.815 35.07 129.826 35.1044 129.83 35.1399L130.099 37.3393C130.104 37.3776 130.1 37.4165 130.089 37.4534C130.077 37.4902 130.058 37.5242 130.033 37.5531C130.008 37.582 129.976 37.6051 129.941 37.6209C129.906 37.6367 129.868 37.6448 129.83 37.6447ZM131.924 36.4018C131.866 36.4017 131.81 36.3831 131.764 36.3486C131.717 36.314 131.683 36.2654 131.666 36.2099C131.314 35.0594 130.081 32.8295 130.069 32.807C130.034 32.744 130.025 32.6696 130.045 32.6002C130.065 32.5308 130.111 32.472 130.173 32.4369C130.236 32.4017 130.31 32.393 130.379 32.4127C130.448 32.4324 130.506 32.4789 130.541 32.5419C130.593 32.6355 131.814 34.845 132.183 36.0496C132.195 36.0903 132.198 36.1334 132.191 36.1753C132.184 36.2173 132.167 36.2571 132.142 36.2913C132.117 36.3256 132.084 36.3534 132.046 36.3726C132.008 36.3918 131.967 36.4018 131.924 36.4018Z" fill="#271E4A"/>
</g>
<defs>
<linearGradient id="paint0_linear_633_85883" x1="80.524" y1="16.9584" x2="80.524" y2="31.6348" gradientUnits="userSpaceOnUse">
<stop offset="0.0520833" stop-color="#999DFF"/>
<stop offset="1" stop-color="#C985FE"/>
</linearGradient>
<linearGradient id="paint1_linear_633_85883" x1="142.889" y1="30.0271" x2="142.889" y2="34.1825" gradientUnits="userSpaceOnUse">
<stop offset="0.0520833" stop-color="#999DFF"/>
<stop offset="1" stop-color="#C985FE"/>
</linearGradient>
<clipPath id="clip0_633_85883">
<rect width="57.3333" height="40.1333" fill="white" transform="matrix(-1 0 0 1 189.916 16.0178)"/>
</clipPath>
<clipPath id="clip1_633_85883">
<rect width="127.567" height="70.95" fill="white" transform="translate(82.7754 64.7507)"/>
</clipPath>
<clipPath id="clip2_633_85883">
<rect width="111.083" height="147.275" fill="white" transform="translate(2.50977 7.77551)"/>
</clipPath>
<clipPath id="clip3_633_85883">
<rect width="40.4917" height="20.7833" fill="white" transform="translate(140.113 20.6746)"/>
</clipPath>
<clipPath id="clip4_633_85883">
<rect width="189.917" height="156.95" fill="white" transform="translate(15.4082 15.6586)"/>
</clipPath>
</defs>
</svg>
