<svg width="388" height="253" viewBox="0 0 388 253" fill="none" xmlns="http://www.w3.org/2000/svg">
<g clip-path="url(#clip0_2992_30239)">
<path d="M109.563 293.729C115.137 294.935 167.598 315.456 186.171 323.488C208.151 332.994 245.85 349.924 249.815 350.909C270.35 323.212 275.82 314.732 302.595 276.31C283.935 270.678 172.3 228.433 168.055 227.967C163.809 227.501 143.111 252.305 137.197 259.599C131.283 266.894 127.494 272.71 109.563 293.729V293.729Z" fill="white"/>
<path d="M249.814 351.275C249.784 351.275 249.755 351.271 249.726 351.264C246.983 350.582 229.01 342.678 209.982 334.309C201.615 330.63 192.963 326.824 186.026 323.824C167.805 315.944 114.999 295.28 109.486 294.086C109.424 294.073 109.367 294.044 109.32 294.002C109.273 293.96 109.237 293.906 109.217 293.846C109.197 293.786 109.192 293.722 109.204 293.66C109.216 293.598 109.244 293.54 109.285 293.492C122.01 278.575 127.494 271.467 131.901 265.756C133.669 263.466 135.195 261.487 136.913 259.369C139.594 256.062 163.251 227.069 168.095 227.603C170.199 227.834 196.663 237.574 227.307 248.851C258.148 260.2 293.104 273.064 302.701 275.96C302.756 275.977 302.807 276.007 302.848 276.047C302.89 276.087 302.922 276.136 302.941 276.19C302.96 276.245 302.965 276.303 302.957 276.36C302.95 276.418 302.928 276.472 302.895 276.519C296.559 285.611 291.417 293.026 286.985 299.416C272.872 319.765 265.788 329.979 250.108 351.127C250.074 351.173 250.03 351.21 249.979 351.236C249.928 351.262 249.871 351.275 249.814 351.275V351.275ZM110.223 293.519C118.189 295.727 167.931 315.202 186.316 323.153C193.256 326.154 201.909 329.96 210.277 333.64C227.982 341.427 246.276 349.473 249.67 350.49C265.238 329.487 272.32 319.278 286.383 299C291.583 291.498 296.791 284.003 302.008 276.513C291.753 273.346 257.411 260.708 227.053 249.537C197.728 238.745 170.029 228.552 168.014 228.33C164.385 227.932 146.455 248.76 137.48 259.829C135.768 261.941 134.244 263.916 132.48 266.203C128.112 271.863 122.689 278.893 110.223 293.519V293.519Z" fill="#5C0B86"/>
<path d="M170.517 200.404C170.517 200.404 146.314 217.608 136.704 225.163C127.093 232.716 106.186 246.93 90.1318 259.599C117.514 272.34 167.043 290.271 199.385 304.932C216.024 292.117 269.913 236.157 271.615 233.41C237.38 223.086 188.23 205.519 170.517 200.404Z" fill="white"/>
<path d="M199.385 305.297C199.333 305.297 199.281 305.286 199.234 305.264C183.197 297.994 162.878 289.899 143.228 282.07C122.944 273.988 103.785 266.355 89.9773 259.93C89.9206 259.904 89.8715 259.864 89.8348 259.813C89.7981 259.762 89.7751 259.703 89.7678 259.641C89.7606 259.579 89.7694 259.516 89.7935 259.459C89.8175 259.401 89.8559 259.35 89.9051 259.312C99.0542 252.091 109.697 244.429 119.086 237.669C126.202 232.546 132.347 228.122 136.478 224.874C145.985 217.402 170.063 200.278 170.305 200.106C170.35 200.074 170.401 200.053 170.456 200.044C170.51 200.034 170.566 200.038 170.619 200.053C178.713 202.391 193.279 207.296 210.145 212.977C230.29 219.761 253.122 227.452 271.72 233.061C271.774 233.077 271.823 233.105 271.864 233.144C271.905 233.182 271.937 233.229 271.956 233.281C271.976 233.334 271.984 233.39 271.978 233.446C271.973 233.501 271.955 233.555 271.926 233.603C270.046 236.635 215.996 292.6 199.608 305.221C199.544 305.271 199.466 305.297 199.385 305.297V305.297ZM90.8254 259.518C104.572 265.882 123.487 273.418 143.499 281.391C163.075 289.19 183.314 297.254 199.335 304.507C215.416 292.025 266.36 239.41 271.013 233.61C252.495 228.011 229.883 220.395 209.911 213.669C193.171 208.031 178.698 203.156 170.585 200.804C168.563 202.243 146.039 218.289 136.93 225.449C132.787 228.706 126.637 233.135 119.514 238.262C110.29 244.903 99.8565 252.415 90.8259 259.518H90.8254Z" fill="#5C0B86"/>
<path d="M151.242 229.823L119.824 256.922L179.583 280.857" fill="white"/>
<path d="M179.583 281.223C179.536 281.223 179.49 281.214 179.447 281.196L119.688 257.261C119.63 257.238 119.579 257.2 119.539 257.151C119.5 257.103 119.474 257.044 119.463 256.982C119.453 256.92 119.459 256.857 119.48 256.798C119.502 256.739 119.538 256.686 119.586 256.645L151.003 229.546C151.039 229.515 151.082 229.491 151.127 229.476C151.173 229.461 151.221 229.455 151.269 229.459C151.317 229.462 151.364 229.475 151.407 229.497C151.449 229.518 151.488 229.548 151.519 229.584C151.55 229.621 151.574 229.663 151.589 229.708C151.605 229.754 151.61 229.802 151.607 229.85C151.603 229.898 151.59 229.945 151.569 229.987C151.547 230.03 151.517 230.068 151.481 230.1L120.518 256.807L179.719 280.518C179.798 280.55 179.863 280.608 179.904 280.682C179.944 280.757 179.958 280.843 179.942 280.926C179.926 281.01 179.881 281.085 179.816 281.139C179.75 281.193 179.668 281.222 179.583 281.223Z" fill="#5C0B86"/>
<path d="M131.134 247.168L132.884 252.668L160.853 243.012L159.81 266.468L177.116 258.645L176.409 272.998L192.393 265.539L204.307 269.348L225.153 265.539" fill="white"/>
<path d="M176.409 273.363C176.359 273.363 176.31 273.353 176.265 273.333C176.219 273.314 176.178 273.285 176.144 273.25C176.11 273.214 176.083 273.171 176.066 273.125C176.049 273.079 176.041 273.029 176.043 272.98L176.72 259.226L159.96 266.801C159.903 266.826 159.841 266.837 159.779 266.831C159.716 266.826 159.657 266.805 159.605 266.77C159.553 266.735 159.511 266.687 159.483 266.632C159.455 266.576 159.441 266.514 159.444 266.452L160.462 243.534L133.003 253.014C132.957 253.03 132.908 253.037 132.86 253.033C132.811 253.03 132.763 253.017 132.72 252.995C132.676 252.973 132.637 252.943 132.606 252.906C132.574 252.869 132.55 252.826 132.536 252.779L130.785 247.279C130.769 247.233 130.763 247.184 130.766 247.136C130.769 247.087 130.782 247.04 130.804 246.997C130.826 246.953 130.857 246.915 130.894 246.883C130.931 246.852 130.974 246.828 131.02 246.813C131.066 246.798 131.115 246.793 131.164 246.797C131.212 246.802 131.259 246.816 131.302 246.838C131.345 246.861 131.383 246.892 131.414 246.93C131.445 246.967 131.468 247.011 131.482 247.057L133.119 252.201L160.732 242.667C160.789 242.648 160.849 242.642 160.908 242.651C160.967 242.66 161.023 242.684 161.071 242.719C161.119 242.755 161.157 242.802 161.183 242.856C161.208 242.91 161.22 242.969 161.218 243.029L160.202 265.89L176.965 258.313C177.022 258.288 177.085 258.277 177.147 258.282C177.209 258.288 177.269 258.309 177.321 258.344C177.373 258.38 177.415 258.428 177.443 258.484C177.471 258.54 177.484 258.602 177.481 258.664L176.804 272.411L192.238 265.209C192.321 265.17 192.416 265.164 192.504 265.192L204.331 268.973L225.087 265.181C225.134 265.172 225.183 265.173 225.229 265.183C225.276 265.193 225.321 265.212 225.361 265.239C225.4 265.267 225.434 265.302 225.46 265.342C225.486 265.382 225.504 265.427 225.512 265.474C225.521 265.522 225.52 265.57 225.51 265.617C225.5 265.664 225.481 265.708 225.454 265.748C225.426 265.787 225.391 265.821 225.351 265.847C225.311 265.873 225.266 265.891 225.218 265.9L204.372 269.709C204.313 269.72 204.252 269.716 204.195 269.698L192.417 265.932L176.563 273.33C176.514 273.352 176.462 273.364 176.408 273.364L176.409 273.363Z" fill="#5C0B86"/>
</g>
<g clip-path="url(#clip1_2992_30239)">
<path d="M293.572 24.2861L356.984 65.2312V140.642L388.46 158.988L309.595 192.355L261.368 140.642V95.3927L293.572 24.2861Z" fill="#5C0B86"/>
<path d="M309.595 192.72C309.545 192.72 309.496 192.71 309.45 192.69C309.404 192.67 309.363 192.641 309.329 192.604L261.102 140.891C261.039 140.823 261.004 140.734 261.004 140.642V95.3925C261.004 95.3404 261.016 95.2888 261.037 95.2416L293.241 24.1351C293.262 24.0873 293.294 24.0448 293.333 24.0103C293.373 23.9759 293.419 23.9505 293.469 23.9357C293.52 23.9209 293.572 23.9171 293.624 23.9247C293.676 23.9322 293.725 23.9508 293.769 23.9793L357.181 64.9244C357.232 64.9575 357.274 65.003 357.303 65.0567C357.332 65.1103 357.348 65.1704 357.348 65.2315V140.432L388.643 158.672C388.701 158.706 388.749 158.756 388.781 158.816C388.813 158.876 388.827 158.943 388.823 159.011C388.819 159.079 388.796 159.144 388.757 159.199C388.718 159.254 388.664 159.298 388.602 159.324L309.737 192.691C309.693 192.71 309.645 192.72 309.596 192.72H309.595ZM261.732 140.498L309.688 191.92L387.646 158.936L356.801 140.957C356.746 140.925 356.7 140.879 356.669 140.824C356.637 140.769 356.62 140.706 356.62 140.642V65.4301L293.729 24.8213L261.732 95.4714V140.498Z" fill="#5C0B86"/>
</g>
<g clip-path="url(#clip2_2992_30239)">
<path d="M343.07 72.3097L232.973 37.6892C231.455 37.2118 229.815 37.3047 228.36 37.9504C226.906 38.5962 225.737 39.7505 225.072 41.1971L194.576 107.555L201.117 134.505L311.31 187.359C311.701 187.547 312.138 187.619 312.569 187.566C313 187.514 313.407 187.339 313.742 187.062C314.077 186.786 314.327 186.42 314.46 186.006C314.594 185.593 314.607 185.15 314.497 184.729L308.142 160.365L346.409 79.9782C346.75 79.2623 346.933 78.4816 346.946 77.6888C346.96 76.896 346.803 76.1096 346.486 75.3826C346.17 74.6557 345.701 74.0052 345.112 73.4751C344.522 72.9449 343.826 72.5475 343.07 72.3097Z" fill="url(#paint0_linear_2992_30239)"/>
<path d="M312.301 187.955C311.903 187.954 311.51 187.864 311.151 187.691L200.959 134.834C200.91 134.811 200.866 134.777 200.832 134.734C200.798 134.692 200.774 134.643 200.761 134.59L194.218 107.642C194.199 107.562 194.207 107.477 194.241 107.402L224.739 41.0442C225.443 39.5186 226.678 38.3014 228.214 37.6198C229.749 36.9382 231.48 36.8387 233.083 37.3399L343.18 71.9604C343.986 72.2139 344.728 72.6375 345.357 73.2026C345.985 73.7678 346.485 74.4612 346.822 75.2362C347.16 76.0112 347.327 76.8497 347.313 77.6949C347.299 78.5401 347.104 79.3725 346.74 80.1357L308.53 160.401L314.852 184.637C314.953 185.028 314.964 185.437 314.883 185.832C314.802 186.228 314.633 186.6 314.386 186.92C314.14 187.239 313.825 187.499 313.463 187.678C313.102 187.857 312.704 187.952 312.301 187.954V187.955ZM201.432 134.248L311.468 187.026C311.796 187.184 312.163 187.244 312.525 187.2C312.886 187.156 313.228 187.009 313.509 186.778C313.79 186.546 313.999 186.238 314.111 185.892C314.223 185.545 314.234 185.173 314.142 184.82L307.788 160.456C307.766 160.372 307.774 160.283 307.811 160.205L346.078 79.8205C346.397 79.152 346.568 78.423 346.58 77.6826C346.593 76.9422 346.447 76.2078 346.151 75.5289C345.855 74.85 345.417 74.2426 344.867 73.7476C344.317 73.2526 343.666 72.8816 342.96 72.6597L232.863 38.0393C231.43 37.5915 229.883 37.6806 228.511 38.2899C227.139 38.8991 226.035 39.987 225.405 41.3506L194.963 107.593L201.432 134.248Z" fill="url(#paint1_linear_2992_30239)"/>
<path d="M206.547 144.839L306.982 193.029C307.567 193.31 308.064 193.745 308.421 194.287C308.777 194.83 308.978 195.459 309.003 196.107C309.028 196.756 308.876 197.399 308.563 197.967C308.25 198.536 307.788 199.008 307.227 199.333L219.703 249.958C217.559 251.199 215.107 251.805 212.632 251.707C210.157 251.61 207.76 250.812 205.72 249.406L111.231 184.298C110.699 183.931 110.276 183.428 110.008 182.84C109.741 182.252 109.637 181.603 109.709 180.961C109.781 180.319 110.026 179.709 110.417 179.195C110.809 178.682 111.332 178.284 111.932 178.045L196.032 144.483C197.714 143.812 199.517 143.497 201.326 143.558C203.136 143.62 204.914 144.056 206.547 144.839Z" fill="#5C0B86"/>
<path d="M213.155 252.072C210.427 252.076 207.762 251.252 205.513 249.707L111.023 184.6C110.437 184.196 109.971 183.64 109.676 182.992C109.38 182.344 109.266 181.628 109.345 180.921C109.425 180.213 109.695 179.54 110.126 178.974C110.558 178.407 111.135 177.969 111.796 177.705L195.896 144.143C197.626 143.455 199.479 143.132 201.339 143.195C203.199 143.258 205.026 143.705 206.705 144.509L307.143 192.699C307.788 193.008 308.337 193.488 308.73 194.087C309.122 194.685 309.345 195.379 309.372 196.095C309.4 196.81 309.232 197.519 308.886 198.146C308.541 198.773 308.031 199.294 307.411 199.652L219.887 250.276C217.839 251.456 215.518 252.075 213.155 252.072ZM200.881 143.919C199.267 143.919 197.667 144.225 196.168 144.823L112.068 178.386C111.53 178.601 111.06 178.957 110.708 179.418C110.357 179.879 110.137 180.427 110.073 181.003C110.008 181.579 110.101 182.162 110.341 182.689C110.582 183.216 110.961 183.668 111.438 183.997L205.928 249.104C207.913 250.464 210.242 251.236 212.647 251.331C215.051 251.426 217.433 250.841 219.52 249.642L307.042 199.018C307.546 198.726 307.961 198.303 308.242 197.793C308.523 197.283 308.66 196.705 308.638 196.123C308.615 195.541 308.435 194.976 308.115 194.489C307.796 194.002 307.349 193.612 306.824 193.36L206.388 145.17C204.669 144.347 202.787 143.92 200.881 143.92V143.919Z" fill="#5C0B86"/>
<path d="M206.547 146.945L309.006 196.373V198.215C309.024 198.862 308.869 199.503 308.557 200.07C308.244 200.638 307.785 201.111 307.227 201.44L219.703 252.065C217.559 253.305 215.107 253.911 212.632 253.813C210.157 253.716 207.76 252.918 205.72 251.512L111.231 186.404C110.753 186.08 110.362 185.644 110.093 185.133C109.824 184.622 109.684 184.053 109.687 183.476V181.269L196.032 146.589C197.714 145.918 199.517 145.603 201.327 145.664C203.137 145.726 204.914 146.162 206.547 146.945Z" fill="#5C0B86"/>
<path d="M213.155 254.18C210.427 254.184 207.762 253.359 205.513 251.815L111.023 186.707C110.496 186.35 110.064 185.868 109.768 185.305C109.471 184.741 109.317 184.113 109.32 183.476V181.269C109.32 181.196 109.342 181.124 109.383 181.063C109.424 181.002 109.482 180.955 109.55 180.927L195.895 146.248C197.625 145.56 199.478 145.237 201.339 145.3C203.199 145.363 205.026 145.81 206.705 146.613L309.164 196.044C309.227 196.074 309.279 196.121 309.316 196.179C309.353 196.238 309.372 196.306 309.372 196.375V198.215C309.394 198.928 309.223 199.633 308.878 200.257C308.532 200.88 308.026 201.399 307.41 201.759L219.887 252.382C217.84 253.563 215.518 254.183 213.155 254.18ZM110.053 181.517V183.476C110.05 183.994 110.175 184.505 110.417 184.963C110.659 185.421 111.009 185.812 111.438 186.103L205.928 251.211C207.913 252.571 210.242 253.343 212.646 253.438C215.051 253.533 217.433 252.948 219.52 251.749L307.042 201.125C307.545 200.828 307.958 200.402 308.239 199.89C308.52 199.378 308.658 198.8 308.638 198.216V196.604L206.388 147.276C204.801 146.517 203.073 146.094 201.314 146.035C199.555 145.975 197.803 146.28 196.168 146.93L110.053 181.517Z" fill="#5C0B86"/>
<path d="M199.351 212.794L172.458 226.487L132.415 198.895L158.708 187.264L199.351 212.794ZM246.558 231.478L142.298 168.034L177.351 154.119L283.172 210.541L246.558 231.478Z" fill="url(#paint2_linear_2992_30239)"/>
<path d="M246.558 231.845C246.491 231.845 246.425 231.826 246.368 231.791L142.108 168.347C142.05 168.312 142.003 168.261 141.972 168.2C141.941 168.139 141.928 168.071 141.933 168.003C141.939 167.935 141.964 167.87 142.004 167.815C142.045 167.761 142.1 167.718 142.163 167.693L177.216 153.778C177.266 153.759 177.319 153.75 177.372 153.753C177.425 153.756 177.476 153.77 177.523 153.795L283.344 210.218C283.402 210.249 283.45 210.294 283.484 210.35C283.518 210.406 283.537 210.47 283.538 210.536C283.539 210.601 283.522 210.666 283.49 210.723C283.457 210.78 283.41 210.827 283.353 210.859L246.74 231.796C246.685 231.828 246.622 231.845 246.558 231.845ZM143.117 168.103L246.564 231.053L282.414 210.553L177.329 154.522L143.117 168.103Z" fill="#5C0B86"/>
<path d="M255.907 226.545C255.842 226.546 255.778 226.529 255.721 226.496L151.072 164.834C150.99 164.784 150.931 164.704 150.907 164.61C150.884 164.517 150.898 164.418 150.947 164.335C150.995 164.252 151.075 164.192 151.168 164.167C151.261 164.142 151.36 164.155 151.443 164.202L256.09 225.862C256.16 225.903 256.215 225.965 256.246 226.04C256.277 226.115 256.282 226.198 256.261 226.276C256.24 226.354 256.193 226.423 256.129 226.472C256.064 226.521 255.986 226.547 255.905 226.546L255.907 226.545ZM265.498 221.103C265.434 221.103 265.372 221.086 265.317 221.055L160.194 161.111C160.117 161.059 160.063 160.98 160.042 160.89C160.021 160.8 160.035 160.705 160.081 160.625C160.127 160.544 160.202 160.484 160.29 160.457C160.378 160.429 160.474 160.436 160.557 160.476L265.68 220.419C265.749 220.459 265.804 220.521 265.835 220.596C265.866 220.67 265.872 220.753 265.851 220.831C265.83 220.908 265.784 220.977 265.721 221.027C265.657 221.076 265.578 221.103 265.498 221.103V221.103ZM275.096 215.659C275.035 215.659 274.974 215.644 274.92 215.614L169.416 157.422C169.372 157.399 169.334 157.369 169.302 157.331C169.271 157.293 169.247 157.25 169.233 157.203C169.219 157.156 169.214 157.107 169.219 157.058C169.224 157.009 169.239 156.962 169.263 156.919C169.286 156.876 169.318 156.838 169.357 156.808C169.395 156.778 169.44 156.755 169.487 156.742C169.534 156.73 169.583 156.726 169.632 156.733C169.681 156.739 169.727 156.755 169.77 156.78L275.274 214.972C275.345 215.011 275.401 215.073 275.433 215.148C275.466 215.222 275.472 215.306 275.452 215.384C275.432 215.463 275.386 215.533 275.321 215.583C275.257 215.633 275.178 215.66 275.096 215.659Z" fill="#5C0B86"/>
<path d="M246.558 231.845C246.478 231.845 246.4 231.818 246.336 231.769C246.272 231.719 246.226 231.65 246.205 231.572C246.185 231.494 246.19 231.412 246.221 231.337C246.252 231.263 246.307 231.201 246.377 231.161L282.99 210.224C283.032 210.197 283.079 210.179 283.128 210.171C283.177 210.162 283.227 210.164 283.275 210.176C283.324 210.188 283.369 210.209 283.409 210.239C283.449 210.269 283.482 210.307 283.507 210.35C283.531 210.393 283.547 210.441 283.553 210.49C283.558 210.54 283.554 210.59 283.539 210.638C283.525 210.685 283.501 210.73 283.469 210.768C283.437 210.806 283.398 210.837 283.353 210.859L246.74 231.796C246.685 231.828 246.622 231.845 246.558 231.845ZM237.08 226.077C236.999 226.077 236.92 226.051 236.856 226.001C236.792 225.951 236.746 225.882 236.725 225.803C236.705 225.724 236.711 225.641 236.743 225.566C236.775 225.492 236.831 225.43 236.902 225.39L246.174 220.23C246.216 220.205 246.263 220.188 246.312 220.181C246.36 220.174 246.41 220.177 246.457 220.19C246.505 220.203 246.549 220.225 246.588 220.255C246.627 220.285 246.659 220.323 246.683 220.366C246.707 220.409 246.722 220.456 246.727 220.505C246.732 220.554 246.727 220.603 246.713 220.651C246.699 220.698 246.675 220.741 246.644 220.779C246.613 220.817 246.574 220.848 246.53 220.87L237.258 226.031C237.204 226.061 237.143 226.077 237.08 226.077ZM255.875 215.616C255.794 215.616 255.715 215.589 255.651 215.539C255.586 215.49 255.54 215.42 255.52 215.341C255.5 215.263 255.506 215.179 255.538 215.105C255.57 215.03 255.626 214.968 255.697 214.929L273.374 205.091C273.459 205.044 273.559 205.032 273.652 205.059C273.746 205.085 273.825 205.148 273.872 205.233C273.919 205.318 273.931 205.418 273.904 205.512C273.877 205.605 273.815 205.684 273.73 205.732L256.053 215.57C255.999 215.6 255.938 215.616 255.875 215.616ZM227.602 220.307C227.521 220.307 227.442 220.28 227.378 220.23C227.313 220.18 227.268 220.11 227.247 220.031C227.227 219.952 227.234 219.869 227.267 219.794C227.299 219.719 227.356 219.658 227.428 219.619L263.757 199.959C263.843 199.914 263.942 199.905 264.034 199.933C264.126 199.961 264.204 200.024 264.249 200.109C264.295 200.194 264.306 200.293 264.279 200.385C264.252 200.478 264.19 200.556 264.106 200.603L227.776 220.263C227.723 220.292 227.663 220.307 227.602 220.307ZM218.124 214.541C218.042 214.541 217.963 214.513 217.898 214.463C217.834 214.412 217.788 214.342 217.768 214.262C217.749 214.182 217.756 214.099 217.79 214.024C217.823 213.949 217.881 213.888 217.954 213.85L254.141 194.828C254.184 194.805 254.23 194.792 254.278 194.787C254.326 194.783 254.375 194.788 254.421 194.802C254.467 194.816 254.509 194.839 254.546 194.87C254.583 194.901 254.614 194.939 254.637 194.981C254.659 195.024 254.673 195.071 254.677 195.118C254.682 195.166 254.677 195.215 254.662 195.261C254.648 195.307 254.625 195.35 254.594 195.387C254.564 195.424 254.526 195.454 254.483 195.477L218.295 214.499C218.243 214.527 218.184 214.541 218.124 214.541ZM208.646 208.774C208.564 208.774 208.484 208.747 208.419 208.696C208.354 208.645 208.309 208.574 208.289 208.494C208.27 208.414 208.278 208.329 208.313 208.254C208.347 208.18 208.406 208.119 208.479 208.081L244.525 189.698C244.568 189.676 244.615 189.662 244.663 189.659C244.711 189.655 244.759 189.66 244.805 189.675C244.85 189.69 244.893 189.714 244.929 189.745C244.966 189.776 244.996 189.814 245.018 189.857C245.04 189.9 245.053 189.947 245.057 189.995C245.061 190.043 245.055 190.091 245.04 190.137C245.025 190.183 245.002 190.225 244.97 190.262C244.939 190.298 244.901 190.329 244.858 190.35L208.812 208.734C208.761 208.76 208.704 208.774 208.646 208.774ZM208.298 198.494C208.215 198.494 208.135 198.466 208.07 198.415C208.005 198.363 207.96 198.292 207.941 198.211C207.922 198.131 207.931 198.046 207.966 197.971C208.002 197.896 208.061 197.836 208.135 197.799L234.909 184.566C234.996 184.524 235.097 184.518 235.188 184.549C235.28 184.58 235.355 184.647 235.398 184.734C235.441 184.82 235.448 184.921 235.417 185.013C235.386 185.104 235.32 185.18 235.234 185.224L208.459 198.456C208.409 198.481 208.354 198.494 208.298 198.494ZM198.784 192.888C198.701 192.888 198.621 192.86 198.556 192.808C198.491 192.756 198.446 192.684 198.427 192.603C198.409 192.522 198.419 192.437 198.455 192.362C198.491 192.288 198.551 192.227 198.626 192.191L225.294 179.436C225.382 179.394 225.483 179.389 225.574 179.421C225.666 179.454 225.741 179.521 225.783 179.609C225.825 179.696 225.83 179.797 225.798 179.889C225.766 179.981 225.698 180.056 225.611 180.098L198.942 192.853C198.893 192.876 198.839 192.888 198.784 192.888ZM189.414 187.216C189.331 187.216 189.25 187.187 189.185 187.135C189.12 187.083 189.075 187.01 189.057 186.928C189.039 186.847 189.049 186.762 189.086 186.687C189.123 186.612 189.185 186.552 189.26 186.517L215.678 174.304C215.722 174.282 215.77 174.269 215.819 174.266C215.868 174.263 215.917 174.27 215.963 174.286C216.009 174.302 216.052 174.327 216.088 174.36C216.124 174.393 216.154 174.433 216.174 174.478C216.195 174.522 216.206 174.571 216.208 174.62C216.209 174.669 216.201 174.718 216.183 174.763C216.166 174.809 216.139 174.851 216.105 174.886C216.071 174.922 216.03 174.95 215.985 174.969L189.567 187.182C189.52 187.205 189.467 187.216 189.414 187.216ZM170.733 185.703C170.649 185.704 170.568 185.675 170.503 185.622C170.437 185.569 170.392 185.496 170.375 185.413C170.357 185.331 170.368 185.246 170.406 185.171C170.444 185.096 170.507 185.036 170.584 185.002L206.062 169.172C206.151 169.132 206.252 169.13 206.343 169.164C206.433 169.199 206.506 169.269 206.546 169.357C206.586 169.446 206.588 169.547 206.554 169.638C206.519 169.729 206.449 169.802 206.361 169.841L170.882 185.672C170.835 185.693 170.784 185.703 170.733 185.703ZM161.255 179.936C161.171 179.936 161.089 179.908 161.023 179.854C160.957 179.801 160.912 179.727 160.895 179.644C160.877 179.561 160.889 179.475 160.928 179.4C160.967 179.325 161.031 179.266 161.109 179.233L196.446 164.041C196.534 164.006 196.633 164.007 196.721 164.044C196.809 164.08 196.879 164.15 196.917 164.238C196.955 164.325 196.956 164.424 196.922 164.513C196.888 164.602 196.821 164.675 196.734 164.715L161.398 179.906C161.353 179.925 161.304 179.936 161.255 179.936ZM151.777 174.168C151.692 174.168 151.61 174.139 151.544 174.085C151.479 174.031 151.434 173.956 151.417 173.873C151.401 173.79 151.414 173.703 151.454 173.629C151.494 173.554 151.558 173.495 151.637 173.463L186.831 158.909C186.921 158.872 187.022 158.872 187.112 158.91C187.202 158.947 187.273 159.018 187.31 159.108C187.347 159.198 187.347 159.299 187.31 159.389C187.272 159.479 187.201 159.55 187.111 159.587L151.916 174.141C151.872 174.159 151.825 174.168 151.777 174.168ZM142.298 168.4C142.213 168.4 142.131 168.37 142.065 168.316C141.999 168.262 141.955 168.186 141.939 168.102C141.923 168.019 141.937 167.932 141.978 167.857C142.019 167.783 142.084 167.725 142.163 167.693L177.217 153.778C177.307 153.742 177.408 153.744 177.497 153.783C177.586 153.821 177.656 153.894 177.692 153.984C177.728 154.075 177.726 154.175 177.688 154.265C177.649 154.354 177.577 154.424 177.486 154.46L142.434 168.374C142.39 168.392 142.345 168.4 142.298 168.4Z" fill="#5C0B86"/>
<path d="M213.156 252.072C210.427 252.076 207.762 251.251 205.513 249.707L111.023 184.6C110.982 184.573 110.946 184.539 110.919 184.498C110.891 184.457 110.872 184.412 110.862 184.364C110.852 184.315 110.852 184.266 110.862 184.218C110.872 184.17 110.891 184.124 110.919 184.084C110.947 184.043 110.983 184.009 111.024 183.982C111.066 183.956 111.112 183.938 111.16 183.93C111.209 183.922 111.258 183.923 111.306 183.935C111.354 183.946 111.399 183.967 111.438 183.996L205.928 249.104C207.913 250.464 210.242 251.236 212.647 251.331C215.051 251.426 217.433 250.841 219.52 249.642L303.334 201.261C303.419 201.213 303.519 201.199 303.613 201.225C303.706 201.25 303.786 201.311 303.835 201.396C303.884 201.48 303.897 201.58 303.872 201.674C303.846 201.768 303.785 201.848 303.701 201.896L219.886 250.279C217.839 251.458 215.518 252.076 213.156 252.072Z" fill="url(#paint3_linear_2992_30239)"/>
<path d="M198.185 140.827L307.487 193.271L310.465 186.958L201.162 134.514L198.185 140.827Z" fill="#5C0B86"/>
<path d="M307.485 193.637C307.43 193.637 307.376 193.625 307.327 193.601L198.028 141.157C197.984 141.136 197.945 141.107 197.913 141.071C197.881 141.036 197.856 140.994 197.84 140.949C197.824 140.903 197.817 140.855 197.82 140.807C197.822 140.759 197.834 140.712 197.855 140.668L200.834 134.355C200.876 134.268 200.951 134.2 201.043 134.167C201.134 134.135 201.235 134.14 201.323 134.181L310.623 186.627C310.666 186.648 310.705 186.677 310.737 186.713C310.77 186.749 310.794 186.79 310.81 186.836C310.826 186.881 310.833 186.929 310.831 186.977C310.828 187.026 310.816 187.073 310.796 187.116L307.816 193.429C307.786 193.492 307.739 193.545 307.68 193.582C307.622 193.619 307.554 193.639 307.484 193.639L307.485 193.637ZM198.671 140.654L307.313 192.781L309.978 187.131L201.336 135.004L198.671 140.654Z" fill="#5C0B86"/>
<path d="M311.14 191.221C312.013 189.5 311.711 187.591 310.465 186.958C309.218 186.326 307.5 187.208 306.627 188.929C305.754 190.651 306.056 192.559 307.303 193.192C308.549 193.825 310.267 192.942 311.14 191.221Z" fill="url(#paint4_linear_2992_30239)"/>
<path d="M308.18 193.764C307.818 193.766 307.46 193.682 307.137 193.519C306.772 193.319 306.46 193.033 306.228 192.686C305.997 192.339 305.853 191.941 305.808 191.526C305.697 190.578 305.869 189.617 306.301 188.765C306.733 187.913 307.407 187.208 308.239 186.737C308.595 186.516 309.002 186.39 309.421 186.372C309.84 186.354 310.256 186.444 310.63 186.634C311.004 186.824 311.323 187.107 311.556 187.456C311.788 187.805 311.927 188.208 311.959 188.626C312.086 189.576 311.914 190.542 311.467 191.389C311.048 192.251 310.37 192.96 309.529 193.417C309.113 193.638 308.65 193.757 308.18 193.764ZM309.587 187.118C309.233 187.125 308.885 187.216 308.573 187.385C307.879 187.785 307.317 188.378 306.954 189.093C306.592 189.807 306.445 190.612 306.532 191.409C306.545 191.712 306.639 192.007 306.804 192.262C306.968 192.518 307.198 192.725 307.468 192.862C307.739 193 308.042 193.063 308.345 193.045C308.648 193.027 308.941 192.929 309.194 192.761C309.888 192.361 310.451 191.767 310.813 191.053C311.176 190.338 311.322 189.533 311.235 188.737C311.207 188.437 311.107 188.148 310.944 187.895C310.781 187.643 310.56 187.433 310.299 187.283C310.077 187.173 309.833 187.116 309.585 187.119L309.587 187.118Z" fill="#5C0B86"/>
<path d="M230.962 38.129L341.408 72.3917C341.408 72.3917 342.75 73.7669 343.846 74.9207C345.316 76.4669 345.387 79.0086 344.388 81.1085L291.084 193.084C290.725 193.836 290.219 194.509 289.595 195.062C288.97 195.615 288.241 196.036 287.451 196.301C286.66 196.566 285.824 196.669 284.993 196.603C284.162 196.538 283.353 196.306 282.613 195.921L182.083 143.582C181.35 143.202 180.717 142.655 180.233 141.985C179.143 140.478 178.678 139.884 178.678 139.884L223.46 41.4599C224.091 40.0864 225.201 38.9904 226.582 38.3772C227.963 37.764 229.52 37.6758 230.962 38.129Z" fill="url(#paint5_linear_2992_30239)"/>
<path d="M285.47 196.996C284.415 196.995 283.376 196.739 282.442 196.249L181.912 143.91C181.128 143.504 180.45 142.92 179.934 142.203C178.863 140.721 178.392 140.116 178.388 140.11C178.347 140.057 178.321 139.994 178.313 139.927C178.305 139.861 178.316 139.793 178.343 139.733L223.126 41.3079C223.797 39.8553 224.973 38.6964 226.434 38.0472C227.896 37.3981 229.544 37.3031 231.07 37.78L341.516 72.0418C341.575 72.0598 341.628 72.0921 341.67 72.1356C341.67 72.1356 343.013 73.5127 344.112 74.669C345.606 76.2406 345.85 78.8923 344.719 81.2663L291.416 193.241C291.039 194.04 290.503 194.755 289.842 195.341C289.181 195.927 288.407 196.372 287.568 196.65C286.892 196.878 286.184 196.995 285.47 196.996ZM179.103 139.837C179.311 140.111 179.766 140.717 180.53 141.775C180.979 142.399 181.57 142.908 182.253 143.26L282.782 195.599C283.478 195.962 284.24 196.18 285.022 196.242C285.804 196.303 286.591 196.206 287.335 195.957C288.079 195.708 288.765 195.311 289.352 194.791C289.94 194.27 290.416 193.637 290.753 192.928L344.057 80.9516C345.058 78.8502 344.867 76.527 343.581 75.1738C342.795 74.3498 342.005 73.5299 341.211 72.7142L230.853 38.4789C229.497 38.0553 228.033 38.1398 226.734 38.7165C225.435 39.2932 224.39 40.3228 223.794 41.6133L179.103 139.837Z" fill="#5C0B86"/>
<path d="M229.092 36.2838L338.826 70.7908C339.662 71.0536 340.431 71.4926 341.082 72.0784C341.734 72.6641 342.252 73.3829 342.602 74.1862C342.951 74.9894 343.125 75.8585 343.11 76.7345C343.095 77.6106 342.893 78.4733 342.516 79.2643L289.212 191.238C288.854 191.992 288.347 192.665 287.723 193.218C287.099 193.771 286.37 194.192 285.579 194.457C284.789 194.722 283.953 194.825 283.122 194.76C282.291 194.695 281.481 194.463 280.741 194.078L180.212 141.739C179.002 141.109 178.081 140.038 177.639 138.747C177.197 137.456 177.268 136.044 177.838 134.805L221.588 39.6147C222.22 38.2408 223.33 37.1445 224.711 36.5313C226.093 35.9181 227.65 35.8301 229.092 36.2838Z" fill="#86D1FD"/>
<path d="M283.601 195.149C282.547 195.148 281.509 194.892 280.575 194.402L180.043 142.067C178.748 141.395 177.762 140.25 177.289 138.869C176.816 137.489 176.893 135.98 177.503 134.654L221.255 39.4604C221.926 38.0079 223.102 36.8492 224.564 36.2002C226.026 35.5513 227.674 35.4565 229.2 35.9335L338.936 70.4401C339.822 70.7186 340.637 71.184 341.327 71.8048C342.018 72.4256 342.567 73.1875 342.937 74.0388C343.308 74.8902 343.492 75.8113 343.476 76.7398C343.461 77.6684 343.246 78.5828 342.847 79.4213L289.544 191.395C289.166 192.194 288.631 192.909 287.97 193.495C287.308 194.081 286.535 194.526 285.696 194.804C285.021 195.031 284.313 195.148 283.601 195.149ZM227.236 36.3626C226.118 36.363 225.023 36.6836 224.081 37.2865C223.139 37.8895 222.389 38.7497 221.92 39.7654L178.171 134.959C177.639 136.113 177.572 137.427 177.984 138.629C178.395 139.832 179.254 140.829 180.381 141.414L280.911 193.753C281.607 194.116 282.368 194.334 283.15 194.396C283.933 194.457 284.719 194.36 285.463 194.111C286.207 193.862 286.893 193.465 287.48 192.945C288.068 192.424 288.544 191.791 288.882 191.082L342.186 79.1056C342.54 78.362 342.73 77.5511 342.744 76.7276C342.758 75.904 342.595 75.0872 342.266 74.3321C341.937 73.577 341.45 72.9012 340.838 72.3505C340.226 71.7998 339.503 71.387 338.718 71.1399L228.98 36.6324C228.416 36.4541 227.828 36.3632 227.236 36.3626Z" fill="#5C0B86"/>
<path d="M227.006 39.3436C227.29 39.3442 227.572 39.3878 227.842 39.4731L337.17 73.9993C337.539 74.1151 337.879 74.3089 338.166 74.5673C338.454 74.8258 338.682 75.1429 338.837 75.4974C338.991 75.8518 339.067 76.2353 339.061 76.6219C339.054 77.0085 338.965 77.3892 338.799 77.7383L285.817 189.177C285.656 189.516 285.429 189.819 285.149 190.067C284.869 190.316 284.541 190.506 284.185 190.625C283.83 190.744 283.454 190.79 283.081 190.761C282.707 190.731 282.343 190.626 282.011 190.452L181.568 138.631C181.137 138.407 180.808 138.025 180.651 137.565C180.493 137.105 180.519 136.602 180.723 136.16L224.471 40.969C224.695 40.4846 225.052 40.0743 225.501 39.7863C225.95 39.4984 226.472 39.3448 227.006 39.3436ZM227.229 35.9961C226.042 35.9963 224.879 36.3371 223.88 36.978C222.88 37.619 222.085 38.5332 221.589 39.6124L177.838 134.805C177.268 136.045 177.197 137.457 177.639 138.748C178.081 140.039 179.002 141.11 180.212 141.74L280.742 194.079C281.481 194.465 282.291 194.697 283.122 194.763C283.954 194.829 284.79 194.726 285.58 194.461C286.371 194.196 287.1 193.774 287.724 193.22C288.348 192.667 288.855 191.993 289.213 191.24L342.516 79.2635C342.893 78.4724 343.095 77.6097 343.11 76.7337C343.125 75.8576 342.952 74.9886 342.602 74.1854C342.252 73.3821 341.734 72.6633 341.083 72.0776C340.432 71.4918 339.662 71.0527 338.827 70.79L229.092 36.283C228.489 36.0929 227.861 35.9962 227.229 35.9961ZM172.841 226.291L177.218 224.526V198.599L172.841 195.621V226.291ZM184.145 202.922L180.734 200.78V222.615L184.145 220.878V202.922ZM159.086 218.306L163.461 221.321V190.012L159.086 187.264V218.306ZM142.298 206.875L153.898 214.867V188.723L142.298 193.853V206.875ZM190.438 206.875L187.69 205.149V219.073L190.438 217.674V206.875Z" fill="#5C0B86"/>
</g>
<g clip-path="url(#clip3_2992_30239)">
<path d="M252.415 161.569L192.608 132.239C190.607 131.262 190.021 128.28 191.29 125.542L223.317 56.4212C224.586 53.6837 227.32 52.0217 229.469 52.755L293.23 74.0681C295.817 74.948 296.794 78.1254 295.378 81.205L259.396 158.245C257.98 161.276 254.856 162.742 252.415 161.569Z" fill="#5C0B86"/>
<path d="M254.221 162.351C253.538 162.351 252.854 162.204 252.268 161.911L192.462 132.581C190.314 131.506 189.63 128.279 190.948 125.395L223.024 56.2744C224.391 53.3902 227.321 51.6304 229.615 52.4126L293.376 73.7257C294.548 74.1168 295.525 74.9967 296.013 76.1699C296.647 77.6852 296.55 79.5917 295.769 81.3515L259.787 158.392C258.957 160.151 257.59 161.471 255.93 162.058C255.344 162.253 254.758 162.351 254.221 162.351ZM228.444 52.9503C226.686 52.9503 224.684 54.4168 223.659 56.5677L191.632 125.689C190.46 128.231 190.948 131.017 192.804 131.897L252.561 161.227C253.489 161.667 254.563 161.716 255.686 161.325C257.102 160.836 258.371 159.614 259.104 158.049L295.085 81.0582C295.817 79.4939 295.915 77.8319 295.329 76.4632C294.89 75.4366 294.157 74.7522 293.132 74.4101L229.371 53.0969C229.078 52.9992 228.785 52.9503 228.444 52.9503Z" fill="#5C0B86"/>
<path d="M277.46 173.839L266.036 168.217C263.497 166.995 262.619 163.475 264.035 160.445L282.147 121.729L303.629 130.528L284.93 170.515C283.466 173.643 280.097 175.158 277.46 173.839Z" fill="url(#paint6_linear_2992_30239)"/>
<path d="M279.462 174.67C278.681 174.67 277.949 174.523 277.265 174.181L265.89 168.56C263.205 167.24 262.228 163.525 263.742 160.298L281.855 121.583C281.952 121.387 282.147 121.338 282.343 121.387L303.824 130.186C303.922 130.235 303.971 130.284 304.02 130.382C304.068 130.48 304.068 130.577 304.02 130.675L285.321 170.613C284.491 172.373 283.075 173.741 281.366 174.328C280.683 174.572 280.097 174.67 279.462 174.67ZM277.607 173.497C278.632 173.986 279.853 174.083 281.073 173.643C282.587 173.106 283.856 171.884 284.589 170.319L303.141 130.724L282.343 122.169L264.376 160.592C263.009 163.476 263.839 166.751 266.183 167.875L277.607 173.497Z" fill="#5C0B86"/>
<path d="M303.629 130.577L282.147 121.778L300.309 82.9155C301.774 79.8359 305.093 78.0761 307.779 78.956L319.984 83.0133C322.816 83.9421 323.89 87.315 322.425 90.4925L303.629 130.577Z" fill="white"/>
<path d="M303.629 130.919C303.58 130.919 303.531 130.919 303.482 130.87L282.001 122.071C281.903 122.022 281.854 121.973 281.805 121.875C281.757 121.778 281.757 121.68 281.805 121.582L299.967 82.72C301.481 79.4937 305.045 77.6361 307.876 78.5649L320.082 82.6222C321.4 83.0622 322.425 83.9909 322.962 85.3108C323.646 86.8751 323.548 88.8304 322.718 90.5902L303.922 130.674C303.922 130.87 303.775 130.919 303.629 130.919ZM282.635 121.582L303.433 130.137L322.083 90.3458C322.816 88.7326 322.913 87.0217 322.327 85.653C321.839 84.5775 321.009 83.7465 319.886 83.3555L307.681 79.2981C305.142 78.4671 302.018 80.1292 300.651 83.0622L282.635 121.582Z" fill="#5C0B86"/>
<path d="M202.617 101.149C205.692 94.55 212.967 83.7957 216.336 85.1644C221.12 87.0709 208.866 113.859 212.918 115.668C217.019 117.476 219.704 110.29 222.829 111.659C226.002 113.028 219.753 133.363 224.586 135.661C229.469 137.958 244.847 115.228 249.974 117.379C255.198 119.578 250.999 129.013 257.59 131.946C264.327 134.928 274.336 111.904 280.048 114.201L259.445 158.294C258.029 161.325 254.856 162.791 252.415 161.618L192.608 132.239C190.607 131.261 190.021 128.279 191.29 125.542L202.617 101.149Z" fill="white"/>
<path d="M254.221 162.351C253.538 162.351 252.854 162.204 252.269 161.911L192.462 132.581C190.314 131.506 189.63 128.279 190.948 125.395L202.226 101.002C204.716 95.5765 212.381 83.209 216.433 84.8221C219.216 85.9464 217.166 93.4256 214.969 101.394C213.26 107.602 211.356 114.592 213.016 115.325C214.969 116.205 216.678 114.69 218.289 113.272C219.753 111.952 221.267 110.584 222.927 111.317C224.489 112.001 224.196 115.667 223.561 121.582C222.975 127.204 222.243 134.194 224.684 135.319C226.881 136.345 232.154 131.066 236.841 126.373C242.211 120.947 247.289 115.863 250.072 117.036C252.708 118.161 253.098 120.898 253.489 123.831C253.928 126.96 254.368 130.137 257.688 131.603C260.959 133.07 265.255 127.644 269.454 122.364C273.408 117.378 277.168 112.637 280.146 113.859C280.243 113.908 280.292 113.957 280.341 114.054C280.39 114.152 280.39 114.25 280.341 114.348L259.738 158.44C258.908 160.2 257.541 161.52 255.881 162.107C255.344 162.253 254.758 162.351 254.221 162.351ZM202.617 101.149L202.959 101.296L191.632 125.689C190.46 128.23 190.948 131.017 192.804 131.897L252.561 161.227C253.489 161.667 254.563 161.716 255.686 161.324C257.102 160.836 258.371 159.614 259.104 158.049L279.511 114.348C277.021 113.908 273.457 118.405 270.04 122.756C265.694 128.23 261.203 133.852 257.444 132.19C253.782 130.577 253.245 127.008 252.854 123.831C252.464 120.996 252.122 118.6 249.876 117.623C247.533 116.645 242.162 122.022 237.427 126.764C232.154 132.092 227.125 137.127 224.44 135.856C221.511 134.488 222.243 127.839 222.927 121.387C223.366 117.183 223.903 112.392 222.731 111.903C221.511 111.366 220.29 112.441 218.874 113.712C217.166 115.228 215.262 116.987 212.821 115.912C210.575 114.934 212.332 108.531 214.383 101.1C216.189 94.501 218.435 86.2886 216.287 85.4087C213.358 84.2355 206.327 94.0611 203.007 101.247L202.617 101.149Z" fill="#5C0B86"/>
<path d="M233.618 101.247C232.837 101.247 232.105 101.101 231.421 100.758C229.664 99.9763 227.516 97.7766 227.174 91.9106C226.539 80.6674 224.928 74.9481 221.999 73.2372C220.437 72.3573 218.337 72.5528 215.652 73.9704C215.408 74.1171 215.115 74.0193 215.017 73.7749C214.871 73.5305 214.968 73.2372 215.213 73.1394C218.24 71.5751 220.632 71.3796 222.487 72.455C225.758 74.3126 227.467 80.0808 228.15 91.8128C228.394 96.0168 229.713 98.9009 231.812 99.8297C233.57 100.612 235.815 100.123 238.012 98.461C239.916 96.9945 242.26 94.4525 244.75 91.7151C250.218 85.7513 256.418 78.9565 261.007 80.6186C263.741 81.5962 264.62 84.2848 265.45 86.8756C266.329 89.5642 267.257 92.3017 270.137 93.426C272.529 94.3548 275.117 92.3505 278.095 90.1019C282.049 87.0711 286.98 83.3071 293.278 85.5558C293.523 85.6535 293.669 85.9468 293.571 86.1912C293.474 86.4357 293.181 86.5823 292.937 86.4845C287.127 84.4314 282.635 87.8533 278.681 90.884C275.459 93.3282 272.676 95.4791 269.795 94.3548C266.427 93.0838 265.401 89.9553 264.522 87.2178C263.693 84.7247 262.96 82.3784 260.666 81.5473C256.662 80.1297 250.706 86.6312 245.433 92.3994C242.943 95.1369 240.551 97.7277 238.549 99.2431C236.938 100.563 235.181 101.247 233.618 101.247Z" fill="#86D1FD"/>
<path d="M310.464 93.2786H310.366L301.285 90.0523C301.09 90.0035 300.993 89.759 301.041 89.5635C301.09 89.368 301.334 89.2702 301.53 89.3191L310.61 92.5454C310.806 92.5943 310.903 92.8387 310.854 93.0342C310.757 93.2298 310.61 93.2786 310.464 93.2786ZM307.339 100.025H307.193L298.161 96.7494C297.966 96.7005 297.868 96.4561 297.966 96.2605C298.014 96.065 298.259 95.9672 298.454 96.065L307.486 99.3402C307.681 99.3891 307.779 99.6335 307.681 99.829C307.632 99.9268 307.486 100.025 307.339 100.025ZM304.166 106.77H304.019L295.036 103.397C294.841 103.349 294.743 103.104 294.841 102.909C294.89 102.713 295.134 102.615 295.329 102.713L304.312 106.086C304.508 106.135 304.605 106.379 304.508 106.575C304.459 106.673 304.312 106.77 304.166 106.77ZM300.993 113.516C300.944 113.516 300.895 113.516 300.846 113.467L291.912 109.997C291.716 109.948 291.619 109.703 291.716 109.508C291.765 109.312 292.009 109.215 292.205 109.312L301.139 112.783C301.334 112.832 301.432 113.076 301.334 113.272C301.285 113.419 301.139 113.516 300.993 113.516ZM297.868 120.213C297.819 120.213 297.77 120.213 297.721 120.164L288.836 116.645C288.641 116.547 288.543 116.352 288.641 116.156C288.738 115.96 288.934 115.863 289.129 115.96L298.014 119.48C298.21 119.578 298.307 119.773 298.21 119.969C298.161 120.164 298.014 120.213 297.868 120.213ZM291.619 133.607C291.57 133.607 291.521 133.607 291.472 133.558L282.684 129.843C282.489 129.746 282.391 129.55 282.489 129.355C282.587 129.159 282.782 129.061 282.977 129.159L291.765 132.874C291.961 132.972 292.058 133.167 291.961 133.363C291.863 133.51 291.765 133.607 291.619 133.607ZM288.445 140.304C288.397 140.304 288.348 140.304 288.299 140.255L279.511 136.443C279.316 136.345 279.218 136.149 279.316 135.954C279.413 135.758 279.609 135.66 279.804 135.758L288.592 139.571C288.787 139.669 288.885 139.864 288.787 140.06C288.738 140.255 288.592 140.304 288.445 140.304ZM285.321 147.05C285.272 147.05 285.223 147.05 285.174 147.001L276.435 143.14C276.24 143.042 276.191 142.846 276.24 142.651C276.338 142.455 276.533 142.406 276.728 142.455L285.467 146.317C285.663 146.415 285.711 146.61 285.663 146.806C285.565 146.952 285.467 147.05 285.321 147.05ZM282.196 153.747C282.147 153.747 282.099 153.747 282.05 153.698L273.359 149.739C273.164 149.641 273.115 149.446 273.164 149.25C273.213 149.054 273.457 149.006 273.652 149.054L282.343 153.014C282.538 153.112 282.587 153.307 282.538 153.503C282.44 153.65 282.294 153.747 282.196 153.747ZM279.023 160.444C278.974 160.444 278.925 160.444 278.876 160.395L270.235 156.338C270.04 156.24 269.991 156.045 270.04 155.849C270.137 155.654 270.333 155.605 270.528 155.654L279.169 159.711C279.365 159.809 279.413 160.004 279.365 160.2C279.316 160.347 279.169 160.444 279.023 160.444Z" fill="#5C0B86"/>
</g>
<g clip-path="url(#clip4_2992_30239)">
<path d="M384.759 252.132L382.8 253.647C382.849 253.745 382.849 253.892 382.849 253.989C382.849 254.576 382.213 255.064 381.527 255.016C380.793 255.016 380.254 254.478 380.254 253.892C380.254 253.305 380.891 252.816 381.576 252.865L383.241 251.35C382.311 250.862 381.331 250.373 380.254 249.787L378.246 251.253C378.295 251.399 378.344 251.497 378.344 251.644C378.344 252.23 377.708 252.719 377.022 252.67C376.287 252.67 375.749 252.132 375.749 251.546C375.749 251.057 376.189 250.617 376.777 250.52L378.442 248.809C377.61 248.369 376.728 247.93 375.798 247.441L373.79 249.005C373.839 249.102 373.839 249.2 373.839 249.298C373.839 249.884 373.202 250.373 372.517 250.324C371.782 250.324 371.243 249.787 371.243 249.2C371.243 248.614 371.88 248.125 372.566 248.174H372.615L374.476 246.708C373.496 246.219 372.517 245.682 371.488 245.193L369.236 246.512C369.334 246.659 369.383 246.806 369.383 247.001C369.383 247.587 368.746 248.076 368.06 248.027C367.326 248.027 366.787 247.49 366.787 246.903C366.787 246.415 367.179 246.024 367.718 245.877L369.676 244.215C368.795 243.776 367.914 243.287 367.032 242.847L364.633 243.971C364.779 244.167 364.877 244.362 364.877 244.606C364.877 245.193 364.241 245.682 363.555 245.633C362.821 245.633 362.282 245.095 362.282 244.509C362.282 243.971 362.772 243.531 363.408 243.482C363.751 242.994 364.633 242.358 365.269 241.919C364.29 241.43 363.31 240.892 362.331 240.404L360.225 241.821C360.323 241.967 360.372 242.114 360.372 242.31C360.372 242.896 359.736 243.385 359.05 243.336C358.315 243.336 357.777 242.798 357.777 242.212C357.777 241.674 358.218 241.283 358.805 241.186L360.617 239.475C359.736 238.986 358.805 238.547 357.924 238.107L355.671 239.377C355.769 239.524 355.867 239.719 355.867 239.964C355.867 240.55 355.23 241.039 354.545 240.99C353.81 240.99 353.272 240.453 353.272 239.866C353.272 239.377 353.712 238.986 354.251 238.84L356.014 237.032C355.475 236.738 354.937 236.445 354.398 236.201L351.313 237.227C351.362 237.325 351.411 237.471 351.362 237.618C351.362 238.205 350.725 238.693 350.04 238.644C349.305 238.644 348.766 238.107 348.766 237.52C348.766 236.934 349.354 236.494 350.04 236.494L352.439 235.223C351.509 234.735 350.627 234.295 349.795 233.855L346.759 234.833C346.857 234.979 346.857 235.126 346.857 235.272C346.857 235.859 346.22 236.347 345.534 236.299C344.8 236.299 344.261 235.761 344.261 235.175C344.261 234.588 344.898 234.099 345.583 234.148C345.632 234.148 345.73 234.148 345.779 234.197L347.885 232.878C346.954 232.389 346.122 231.949 345.387 231.558L342.155 232.731C342.204 232.829 342.253 232.975 342.253 233.122C342.253 233.709 341.617 234.197 340.931 234.148C340.197 234.148 339.658 233.611 339.658 233.024C339.658 232.438 340.295 231.949 340.98 231.998C341.078 231.998 341.127 231.998 341.225 232.047L343.625 230.825C342.4 230.19 341.666 229.799 341.568 229.701C340.49 228.968 285.301 254.185 285.301 254.185C284.861 254.185 300.776 265.474 309.444 273.391C318.503 281.649 325.751 285.021 327.66 285.999C328.542 286.439 341.029 282.187 354.3 273.293C370.95 262.151 388.481 254.087 388.481 254.087C388.481 254.087 387.061 253.354 384.759 252.132Z" fill="white"/>
<path d="M327.807 286.34C327.66 286.34 327.562 286.34 327.513 286.292L327.269 286.194C324.967 285.07 317.964 281.649 309.199 273.634C303.469 268.405 294.557 261.71 289.268 257.703C286.33 255.504 284.861 254.282 284.959 254.038C285.008 253.94 285.057 253.842 285.155 253.793C285.301 253.744 299.111 247.44 312.872 241.283C340.931 228.772 341.421 229.114 341.764 229.359C341.813 229.407 342.106 229.554 343.82 230.483C343.918 230.531 344.016 230.678 344.016 230.825C344.016 230.971 343.918 231.069 343.82 231.167L341.421 232.389C341.372 232.437 341.274 232.437 341.176 232.437H340.98C340.735 232.437 340.49 232.486 340.295 232.633C340.148 232.779 340.05 232.926 340.05 233.122C340.05 233.317 340.148 233.464 340.295 233.61C340.49 233.757 340.735 233.855 340.98 233.855C341.519 233.855 341.911 233.561 341.96 233.17C341.96 233.073 341.96 233.024 341.911 232.926C341.862 232.828 341.862 232.731 341.911 232.633C341.96 232.535 342.058 232.486 342.106 232.437L345.241 231.411C345.339 231.362 345.436 231.411 345.534 231.411C346.269 231.802 347.101 232.242 348.032 232.731C348.13 232.779 348.228 232.926 348.228 233.024C348.228 233.17 348.179 233.268 348.032 233.366L345.926 234.685C345.828 234.734 345.779 234.734 345.681 234.734H345.534C344.996 234.734 344.604 235.027 344.555 235.418C344.555 235.614 344.653 235.761 344.8 235.907C344.996 236.054 345.241 236.151 345.485 236.151C346.024 236.151 346.416 235.858 346.465 235.467C346.465 235.37 346.465 235.272 346.416 235.174C346.367 235.076 346.367 234.979 346.416 234.881C346.465 234.783 346.563 234.685 346.661 234.685L349.697 233.708C349.795 233.659 349.893 233.708 349.991 233.708L352.635 235.076C352.733 235.125 352.831 235.272 352.831 235.418C352.831 235.565 352.733 235.663 352.635 235.761L350.235 237.031C350.187 237.08 350.138 237.08 350.089 237.08C349.599 237.08 349.207 237.373 349.207 237.764C349.207 237.96 349.305 238.106 349.452 238.253C349.648 238.399 349.893 238.497 350.138 238.497C350.676 238.497 351.068 238.204 351.117 237.813C351.117 237.764 351.117 237.666 351.068 237.569C351.019 237.471 351.019 237.373 351.068 237.275C351.117 237.178 351.166 237.129 351.264 237.08L354.349 236.054C354.447 236.005 354.545 236.054 354.643 236.054L356.259 236.885C356.357 236.933 356.455 237.031 356.455 237.129C356.455 237.227 356.455 237.373 356.357 237.422L354.594 239.23C354.545 239.279 354.496 239.328 354.398 239.328C354.006 239.426 353.712 239.67 353.712 239.963C353.712 240.159 353.81 240.305 353.957 240.452C354.153 240.599 354.398 240.696 354.643 240.696C355.181 240.696 355.573 240.403 355.622 240.012C355.622 239.914 355.573 239.768 355.524 239.67C355.475 239.572 355.426 239.475 355.475 239.377C355.475 239.279 355.573 239.181 355.671 239.133L357.924 237.862C358.022 237.813 358.169 237.813 358.267 237.862L360.96 239.23C361.058 239.279 361.156 239.377 361.156 239.523C361.156 239.621 361.107 239.768 361.058 239.817L359.246 241.527C359.197 241.576 359.148 241.625 359.05 241.625C358.658 241.674 358.316 241.967 358.316 242.309C358.316 242.505 358.413 242.651 358.56 242.798C358.756 242.944 359.001 243.042 359.246 243.042C359.785 243.042 360.176 242.749 360.225 242.358C360.225 242.26 360.225 242.162 360.127 242.065C360.029 241.918 360.078 241.674 360.225 241.576L362.331 240.159C362.429 240.061 362.576 240.061 362.723 240.159L365.661 241.674C365.759 241.723 365.857 241.869 365.857 241.967C365.857 242.114 365.808 242.211 365.71 242.309C364.828 242.944 364.192 243.482 363.947 243.824C363.898 243.922 363.8 243.971 363.702 243.971C363.261 244.019 362.919 244.313 362.919 244.655C362.919 244.85 363.017 244.997 363.164 245.143C363.359 245.29 363.604 245.388 363.849 245.388C364.388 245.388 364.78 245.095 364.828 244.704C364.828 244.508 364.731 244.362 364.682 244.313C364.633 244.215 364.584 244.117 364.584 244.019C364.633 243.922 364.682 243.824 364.78 243.775L367.179 242.651C367.277 242.602 367.424 242.602 367.522 242.651L370.166 244.019C370.264 244.068 370.362 244.166 370.362 244.313C370.362 244.459 370.313 244.557 370.215 244.655L368.256 246.316C368.207 246.365 368.158 246.365 368.109 246.414C367.718 246.512 367.473 246.756 367.424 247.049C367.424 247.245 367.522 247.391 367.669 247.538C367.865 247.685 368.109 247.782 368.354 247.782C368.893 247.782 369.285 247.489 369.334 247.098C369.334 247 369.334 246.903 369.236 246.805C369.138 246.61 369.187 246.414 369.383 246.316L371.635 244.997C371.733 244.948 371.88 244.948 371.978 244.997L374.965 246.512C375.063 246.561 375.161 246.658 375.161 246.805C375.161 246.952 375.112 247.049 375.014 247.147L373.153 248.613C373.104 248.662 373.006 248.711 372.909 248.711H372.86C372.37 248.711 371.929 249.004 371.929 249.395C371.929 249.591 372.027 249.737 372.174 249.884C372.37 250.03 372.615 250.128 372.86 250.128C373.398 250.128 373.79 249.835 373.839 249.444C373.839 249.395 373.839 249.346 373.79 249.248C373.741 249.102 373.79 248.955 373.888 248.858L375.896 247.294C375.994 247.196 376.141 247.196 376.287 247.245L378.932 248.613C379.03 248.662 379.128 248.76 379.128 248.858C379.128 248.955 379.128 249.102 379.03 249.151L377.365 250.861C377.316 250.91 377.218 250.959 377.169 250.959C376.777 251.008 376.483 251.301 376.434 251.643C376.434 251.839 376.532 251.985 376.679 252.132C376.875 252.278 377.12 252.376 377.365 252.376C377.903 252.376 378.295 252.083 378.344 251.692C378.344 251.594 378.344 251.545 378.295 251.448C378.246 251.301 378.295 251.106 378.442 251.008L380.45 249.542C380.548 249.444 380.695 249.444 380.842 249.493L383.829 251.057C383.927 251.106 384.025 251.203 384.025 251.35C384.025 251.448 383.976 251.594 383.927 251.692L382.262 253.207C382.213 253.256 382.115 253.305 382.017 253.305H381.968C381.478 253.305 381.038 253.598 381.038 253.989C381.038 254.184 381.135 254.331 381.282 254.478C381.478 254.624 381.723 254.722 381.968 254.722C382.507 254.722 382.898 254.429 382.947 254.038C382.947 253.989 382.947 253.891 382.898 253.842C382.849 253.696 382.898 253.549 382.996 253.451L384.955 251.936C385.053 251.839 385.2 251.839 385.347 251.887L389.069 253.793C389.215 253.842 389.264 253.989 389.264 254.135C389.264 254.282 389.167 254.38 389.069 254.478C388.873 254.575 371.39 262.639 354.937 273.634C342.106 281.844 330.011 286.34 327.807 286.34ZM285.938 254.282C286.575 254.82 288.044 255.895 289.709 257.165C295.046 261.173 303.959 267.868 309.737 273.146C318.405 281.062 325.359 284.434 327.611 285.558L327.856 285.656C328.983 285.901 341.176 281.649 354.104 272.95C368.746 263.127 384.27 255.65 387.648 254.038L384.808 252.572L383.192 253.793V253.989C383.143 254.771 382.409 255.406 381.478 255.406C381.038 255.406 380.646 255.259 380.352 254.966C380.009 254.673 379.862 254.282 379.862 253.891C379.911 253.109 380.597 252.523 381.429 252.474L382.605 251.399L380.303 250.177L378.687 251.35V251.594C378.638 252.376 377.903 253.011 376.973 253.011C376.532 253.011 376.141 252.865 375.847 252.572C375.504 252.278 375.357 251.887 375.357 251.496C375.357 250.861 375.847 250.324 376.581 250.177L377.806 248.858L375.798 247.831L374.182 249.102V249.297C374.133 250.079 373.398 250.715 372.468 250.715C372.027 250.715 371.635 250.568 371.341 250.275C370.999 249.982 370.852 249.591 370.852 249.2C370.901 248.418 371.586 247.831 372.468 247.782L373.741 246.756L371.439 245.583L369.628 246.61C369.677 246.707 369.677 246.854 369.677 246.952C369.628 247.734 368.893 248.369 367.963 248.369C367.522 248.369 367.13 248.222 366.836 247.929C366.493 247.636 366.347 247.245 366.347 246.854C366.347 246.219 366.836 245.73 367.473 245.534L368.942 244.313L366.934 243.286L365.073 244.166C365.122 244.313 365.171 244.508 365.171 244.655C365.122 245.437 364.388 246.072 363.457 246.072C363.017 246.072 362.625 245.925 362.331 245.632C361.988 245.339 361.841 244.948 361.841 244.557C361.841 243.873 362.38 243.335 363.164 243.189C363.457 242.895 363.898 242.456 364.535 242.016L362.331 240.843L360.666 241.967C360.715 242.065 360.715 242.211 360.715 242.309C360.666 243.091 359.932 243.726 359.001 243.726C358.56 243.726 358.169 243.58 357.875 243.286C357.532 242.993 357.385 242.602 357.385 242.211C357.385 241.576 357.924 241.038 358.609 240.843L359.932 239.572L357.875 238.497L356.112 239.523C356.161 239.67 356.161 239.817 356.161 239.963C356.112 240.745 355.377 241.381 354.447 241.381C354.006 241.381 353.614 241.234 353.321 240.941C352.978 240.647 352.831 240.257 352.831 239.866C352.831 239.23 353.321 238.742 353.957 238.546L355.279 237.178L354.251 236.64L351.656 237.52V237.666C351.607 238.448 350.872 239.084 349.942 239.084C349.501 239.084 349.109 238.937 348.815 238.644C348.473 238.351 348.326 237.96 348.326 237.569C348.326 236.836 349.011 236.249 349.844 236.2L351.558 235.272L349.697 234.294L347.15 235.125V235.37C347.101 236.151 346.367 236.787 345.436 236.787C344.996 236.787 344.604 236.64 344.31 236.347C343.967 236.054 343.82 235.663 343.82 235.272C343.869 234.49 344.604 233.855 345.534 233.855H345.632L347.101 232.926C346.465 232.584 345.877 232.291 345.29 231.998L342.596 232.877V233.024C342.547 233.806 341.813 234.441 340.882 234.441C340.442 234.441 340.05 234.294 339.756 234.001C339.413 233.708 339.266 233.317 339.266 232.926C339.266 232.535 339.462 232.144 339.805 231.9C340.148 231.655 340.539 231.509 340.98 231.558H341.127L342.792 230.727C341.911 230.238 341.519 230.043 341.372 229.945C339.168 230.238 307.289 244.508 285.938 254.282Z" fill="#5C0B86"/>
<path d="M365.367 258.29C365.318 258.29 365.22 258.29 365.171 258.241C363.457 257.215 361.792 256.14 360.127 255.064C355.622 252.181 350.921 249.249 345.975 246.952C343.135 245.633 340.98 244.02 338.875 242.505C337.748 241.674 336.72 240.892 335.594 240.208C335.447 240.11 335.398 239.866 335.496 239.719C335.594 239.573 335.838 239.524 335.985 239.622C337.161 240.355 338.189 241.137 339.315 241.967C341.372 243.482 343.478 245.046 346.269 246.366C351.264 248.711 355.965 251.644 360.519 254.527C362.184 255.553 363.849 256.628 365.563 257.654C365.759 257.752 365.808 257.997 365.661 258.143C365.612 258.241 365.514 258.29 365.367 258.29ZM356.602 262.493C356.504 262.493 356.406 262.444 356.357 262.395C354.104 260.245 351.509 258.436 348.766 256.97L348.522 256.873C347.738 256.433 346.906 256.042 346.269 255.309C346.122 255.113 345.975 254.967 345.828 254.771C345.583 254.478 345.388 254.185 345.143 253.989C344.751 253.696 344.261 253.598 343.772 253.452L343.625 253.403C340.197 252.523 336.426 249.2 333.145 246.317C331.578 244.948 330.109 243.678 328.836 242.7C328.689 242.603 328.64 242.358 328.738 242.212C328.836 242.065 329.081 242.016 329.228 242.114C330.55 243.091 332.068 244.362 333.635 245.779C336.867 248.614 340.589 251.888 343.821 252.719L343.967 252.768C344.506 252.914 345.094 253.061 345.583 253.452C345.926 253.696 346.171 254.038 346.416 254.38C346.563 254.527 346.661 254.722 346.808 254.869C347.346 255.455 348.13 255.895 348.864 256.237L349.109 256.335C351.95 257.801 354.545 259.658 356.895 261.857C357.042 262.004 357.042 262.248 356.895 262.395C356.798 262.444 356.7 262.493 356.602 262.493ZM347.885 266.646C347.836 266.646 347.787 266.646 347.738 266.598C347.542 266.5 347.493 266.304 347.542 266.109C347.591 265.962 347.591 265.816 347.542 265.669C347.395 265.327 346.955 264.936 346.465 264.692C345.632 264.35 344.506 263.812 344.457 262.786C344.457 262.59 344.457 262.395 344.506 262.199C344.506 262.102 344.555 262.004 344.555 261.857C344.604 261.075 343.625 260.489 343.086 260.196C341.764 259.56 340.148 258.925 338.826 258.583C338.679 258.827 338.434 259.072 338.14 259.218C337.357 259.609 336.23 259.512 335.838 259.023C335.594 258.73 335.594 258.339 335.838 257.997C336.181 257.459 337.161 257.459 338.287 257.703C338.189 257.166 337.601 256.824 337.21 256.579C335.789 255.797 334.027 255.064 332.166 254.331C329.276 253.158 326.289 251.986 324.282 250.275C324.135 250.129 324.086 249.933 324.233 249.738C324.38 249.591 324.575 249.542 324.771 249.689C326.681 251.301 329.619 252.474 332.46 253.598C334.369 254.331 336.132 255.064 337.601 255.895C338.14 256.188 338.875 256.677 339.021 257.508C339.021 257.606 339.07 257.752 339.07 257.85C341.176 258.436 343.429 259.512 343.478 259.56C344.751 260.196 345.388 261.026 345.339 261.906C345.339 262.053 345.29 262.199 345.29 262.346C345.241 262.493 345.241 262.639 345.241 262.737C345.29 263.372 346.073 263.714 346.808 264.008C347.395 264.252 348.081 264.741 348.277 265.376C348.424 265.718 348.375 266.06 348.228 266.353C348.13 266.549 347.983 266.646 347.885 266.646ZM336.916 258.241C336.622 258.241 336.426 258.29 336.377 258.388C336.328 258.485 336.328 258.534 336.328 258.534C336.524 258.73 337.21 258.827 337.797 258.534C337.895 258.485 337.993 258.436 338.042 258.388C337.601 258.29 337.21 258.241 336.916 258.241ZM332.068 266.842C331.97 266.842 331.823 266.793 331.774 266.695C330.941 265.522 329.57 265.034 328.052 264.545C327.367 264.301 326.681 264.056 325.996 263.763C324.428 263.03 323.155 261.808 322.323 260.293C322.323 260.245 322.274 260.245 322.274 260.196C321.931 260.147 321.539 260.049 321.147 259.902C319.434 259.218 317.964 257.997 316.691 256.921C314.341 254.918 311.941 252.23 309.884 249.884L309.64 249.591C309.493 249.444 309.542 249.2 309.689 249.053C309.835 248.907 310.08 248.956 310.227 249.102L310.472 249.396C312.529 251.741 314.879 254.38 317.23 256.335C318.552 257.459 319.874 258.583 321.441 259.218C321.588 259.267 321.784 259.365 321.98 259.365C321.931 259.121 321.882 258.876 321.931 258.632C322.029 257.997 322.568 257.361 323.302 257.41C323.743 257.459 324.086 257.752 324.184 258.241C324.331 258.73 324.184 259.463 323.645 259.805C323.449 259.951 323.302 260 323.057 260.098C323.841 261.369 324.967 262.395 326.289 263.079C326.877 263.372 327.563 263.617 328.248 263.812C329.766 264.35 331.382 264.887 332.313 266.255C332.411 266.402 332.411 266.646 332.215 266.744C332.215 266.842 332.117 266.842 332.068 266.842ZM323.155 258.192C322.91 258.192 322.666 258.485 322.617 258.778C322.568 259.023 322.617 259.267 322.715 259.463C322.91 259.414 323.057 259.365 323.204 259.267C323.449 259.121 323.498 258.73 323.449 258.485C323.449 258.339 323.351 258.192 323.155 258.192ZM328.542 277.398C328.395 277.398 328.297 277.349 328.248 277.202C326.681 274.563 320.364 269.237 318.013 267.233L317.475 266.744C315.712 265.229 314.047 263.568 312.431 261.906C310.08 259.512 307.632 257.068 304.841 255.113C304.694 255.016 304.645 254.771 304.743 254.625C304.841 254.478 305.085 254.429 305.232 254.527C308.073 256.53 310.57 258.974 312.921 261.369C314.537 262.981 316.153 264.643 317.915 266.158L318.454 266.646C320.854 268.65 327.22 274.026 328.836 276.811C328.934 277.007 328.885 277.202 328.689 277.3C328.64 277.398 328.591 277.398 328.542 277.398Z" fill="#5C0B86"/>
</g>
<g clip-path="url(#clip5_2992_30239)">
<path d="M374.188 144.351C388.254 144.351 399.658 139.638 399.658 133.824C399.658 128.01 388.254 123.297 374.188 123.297C360.121 123.297 348.718 128.01 348.718 133.824C348.718 139.638 360.121 144.351 374.188 144.351Z" fill="url(#paint7_linear_2992_30239)"/>
<path d="M374.188 144.717C359.943 144.717 348.353 139.83 348.353 133.824C348.353 127.818 359.942 122.932 374.188 122.932C388.434 122.932 400.023 127.818 400.023 133.824C400.023 139.83 388.434 144.717 374.188 144.717ZM374.188 123.663C360.345 123.663 349.083 128.222 349.083 133.825C349.083 139.428 360.344 143.986 374.188 143.986C388.031 143.986 399.293 139.428 399.293 133.825C399.293 128.222 388.031 123.663 374.188 123.663Z" fill="#5C0B86"/>
<path d="M399.587 134.609H348.718C348.718 134.609 354.087 184.402 355.86 196.942C356.493 201.412 364.287 205.04 374.188 205.04C384.01 205.04 391.885 201.481 392.509 197.048C394.281 184.474 399.587 134.609 399.587 134.609Z" fill="url(#paint8_linear_2992_30239)"/>
<path d="M374.188 205.405C364.212 205.405 356.177 201.789 355.499 196.993C353.745 184.59 348.409 135.146 348.355 134.648C348.349 134.597 348.354 134.545 348.37 134.496C348.386 134.448 348.412 134.402 348.446 134.364C348.48 134.326 348.522 134.295 348.569 134.275C348.616 134.254 348.667 134.243 348.718 134.243H399.588C399.639 134.243 399.69 134.254 399.737 134.274C399.784 134.295 399.826 134.326 399.86 134.364C399.894 134.402 399.92 134.447 399.936 134.496C399.951 134.545 399.956 134.597 399.951 134.648C399.898 135.146 394.624 184.663 392.871 197.099C392.204 201.835 384.171 205.405 374.188 205.405ZM349.124 134.975C349.641 139.755 354.553 185.098 356.221 196.891C356.839 201.255 364.73 204.674 374.188 204.674C383.645 204.674 391.541 201.302 392.148 196.997C393.814 185.172 398.671 139.756 399.181 134.975H349.124Z" fill="#5C0B86"/>
<path d="M394.674 134.609C393.385 142.797 390.621 152.403 386.462 162.307C378.083 182.257 366.607 197.313 358.12 200.568C361.223 203.219 367.175 205.04 374.188 205.04C384.011 205.04 391.885 201.481 392.51 197.048C394.281 184.474 399.587 134.609 399.587 134.609H394.674Z" fill="#5C0B86"/>
<path d="M402.607 133.796C402.607 140.282 389.883 145.541 374.188 145.541C358.493 145.541 345.769 140.283 345.769 133.796C346.658 129.562 347.061 127.512 347.061 127.512L401.333 127.79C401.333 127.79 401.884 130.506 402.607 133.796Z" fill="white"/>
<path d="M374.188 145.907C358.316 145.907 345.404 140.474 345.404 133.796C345.404 133.77 345.407 133.745 345.412 133.72C346.29 129.539 346.698 127.462 346.702 127.442C346.719 127.359 346.764 127.284 346.83 127.23C346.896 127.177 346.978 127.147 347.062 127.147L401.334 127.424C401.418 127.425 401.499 127.454 401.564 127.508C401.629 127.561 401.673 127.635 401.69 127.717C401.695 127.745 402.249 130.469 402.963 133.718C402.969 133.744 402.972 133.77 402.972 133.796C402.972 140.475 390.06 145.908 374.188 145.908L374.188 145.907ZM346.134 133.833C346.183 140.091 358.749 145.176 374.188 145.176C389.626 145.176 402.189 140.092 402.241 133.835C401.826 131.944 401.424 130.05 401.034 128.154L347.36 127.88C347.219 128.587 346.82 130.565 346.134 133.833Z" fill="#5C0B86"/>
<path d="M374.188 140.012C389.221 140.012 401.408 134.728 401.408 128.21C401.408 121.692 389.221 116.409 374.188 116.409C359.154 116.409 346.967 121.692 346.967 128.21C346.967 134.728 359.154 140.012 374.188 140.012Z" fill="white"/>
<path d="M374.188 140.378C358.977 140.378 346.602 134.92 346.602 128.211C346.602 121.502 358.977 116.043 374.188 116.043C389.398 116.043 401.773 121.501 401.773 128.21C401.773 134.919 389.399 140.378 374.188 140.378ZM374.188 116.774C359.379 116.774 347.332 121.904 347.332 128.21C347.332 134.516 359.38 139.646 374.188 139.646C388.996 139.646 401.044 134.516 401.044 128.21C401.044 121.904 388.996 116.774 374.188 116.774Z" fill="#5C0B86"/>
<path d="M398.167 127.913C398.167 133.524 387.396 137.673 374.153 137.673C360.91 137.673 350.209 133.524 350.209 127.913C350.209 122.303 350.666 121.091 350.666 121.091H397.71C397.71 121.091 398.167 126.981 398.167 127.913Z" fill="white"/>
<path d="M374.153 138.039C360.294 138.039 349.844 133.686 349.844 127.914C349.844 122.301 350.305 121.015 350.325 120.962C350.351 120.893 350.398 120.833 350.459 120.791C350.52 120.749 350.592 120.726 350.666 120.726H397.71C397.802 120.726 397.89 120.761 397.958 120.823C398.025 120.886 398.067 120.972 398.074 121.063C398.092 121.305 398.532 126.979 398.532 127.914C398.532 133.686 388.051 138.039 374.153 138.039ZM350.947 121.457C350.828 122.018 350.574 123.706 350.574 127.914C350.574 133.182 360.931 137.308 374.153 137.308C387.375 137.308 397.802 133.182 397.802 127.914C397.802 127.134 397.469 122.721 397.372 121.457H350.947Z" fill="#5C0B86"/>
<path d="M374.188 131.056C387.179 131.056 397.71 126.595 397.71 121.091C397.71 115.587 387.179 111.126 374.188 111.126C361.197 111.126 350.666 115.587 350.666 121.091C350.666 126.595 361.197 131.056 374.188 131.056Z" fill="white"/>
<path d="M374.188 131.421C361.017 131.421 350.301 126.787 350.301 121.091C350.301 115.395 361.017 110.76 374.188 110.76C387.359 110.76 398.075 115.395 398.075 121.091C398.075 126.787 387.359 131.421 374.188 131.421ZM374.188 111.491C361.419 111.491 351.031 115.798 351.031 121.091C351.031 126.384 361.419 130.69 374.188 130.69C386.957 130.69 397.345 126.384 397.345 121.091C397.345 115.798 386.957 111.491 374.188 111.491Z" fill="#5C0B86"/>
<path d="M374.188 128.21C384.815 128.21 393.429 124.792 393.429 120.575C393.429 116.358 384.815 112.939 374.188 112.939C363.561 112.939 354.946 116.358 354.946 120.575C354.946 124.792 363.561 128.21 374.188 128.21Z" fill="url(#paint9_linear_2992_30239)"/>
<path d="M374.188 128.576C363.193 128.576 354.581 125.061 354.581 120.574C354.581 116.088 363.194 112.573 374.188 112.573C385.181 112.573 393.794 116.088 393.794 120.574C393.794 125.061 385.182 128.576 374.188 128.576ZM374.188 113.304C363.955 113.304 355.311 116.634 355.311 120.574C355.311 124.515 363.955 127.844 374.188 127.844C384.42 127.844 393.064 124.515 393.064 120.574C393.064 116.634 384.42 113.304 374.188 113.304Z" fill="#5C0B86"/>
<path d="M374.188 128.211C384.814 128.211 393.429 124.792 393.429 120.575C393.429 119.038 392.281 117.608 390.312 116.41C386.721 114.522 380.547 113.588 373.646 114.177C364.304 114.973 356.742 118.294 355.273 121.97C356.926 125.52 364.763 128.211 374.188 128.211Z" fill="white"/>
<path d="M374.188 128.576C364.776 128.576 356.682 125.863 354.942 122.125C354.921 122.079 354.909 122.03 354.908 121.98C354.906 121.93 354.915 121.88 354.934 121.834C356.499 117.916 364.181 114.617 373.615 113.812C380.372 113.235 386.677 114.085 390.48 116.086C392.655 117.408 393.794 118.956 393.794 120.575C393.794 125.061 385.181 128.576 374.187 128.576L374.188 128.576ZM355.674 121.959C357.445 125.378 365.171 127.845 374.188 127.845C384.42 127.845 393.064 124.516 393.064 120.575C393.064 119.226 392.047 117.894 390.122 116.722C386.456 114.796 380.301 113.976 373.677 114.541C364.776 115.3 357.262 118.406 355.674 121.959Z" fill="#5C0B86"/>
</g>
<g clip-path="url(#clip6_2992_30239)">
<path d="M212.096 263.626L282.873 225.938C284.748 224.842 286.877 224.253 289.049 224.23C291.221 224.207 293.361 224.75 295.259 225.806L325.034 238.977V244.277C325.034 245.425 324.569 246.592 323.484 247.315L255.318 292.709C253.18 294.133 250.654 294.864 248.085 294.802C245.516 294.74 243.029 293.888 240.961 292.362L213.511 272.099C212.535 271.379 212.097 270.288 212.097 269.212L212.096 263.626Z" fill="#5C0B86"/>
<path d="M248.39 295.163C245.639 295.166 242.96 294.288 240.744 292.656L213.294 272.394C212.301 271.661 211.732 270.502 211.732 269.212L211.731 263.627C211.731 263.56 211.749 263.495 211.783 263.439C211.817 263.382 211.866 263.335 211.925 263.304L282.7 225.615C286.596 223.338 291.481 223.287 295.437 225.487L325.181 238.643C325.313 238.702 325.399 238.833 325.399 238.977V244.277C325.399 245.676 324.775 246.894 323.687 247.619L255.521 293.013C253.408 294.418 250.927 295.166 248.39 295.163ZM212.462 263.846L212.462 269.212C212.462 270.267 212.923 271.212 213.727 271.806L241.179 292.068C245.276 295.092 250.877 295.227 255.116 292.405L323.282 247.01C324.162 246.424 324.668 245.427 324.668 244.277V239.215L295.112 226.14C291.351 224.05 286.743 224.099 283.057 226.253L212.462 263.846Z" fill="#5C0B86"/>
<path d="M213.821 260.722L282.717 220.46C284.64 219.336 286.822 218.733 289.049 218.709C291.276 218.686 293.47 219.242 295.416 220.325L323.247 235.805C325.525 237.072 325.654 240.302 323.484 241.746L255.318 287.141C253.179 288.565 250.653 289.296 248.084 289.233C245.516 289.171 243.028 288.319 240.961 286.793L213.51 266.531C211.498 265.045 211.662 261.984 213.821 260.722Z" fill="#5C0B86"/>
<path d="M248.39 289.595C245.639 289.599 242.959 288.72 240.744 287.088L213.294 266.826C212.78 266.448 212.369 265.948 212.097 265.372C211.825 264.795 211.701 264.16 211.737 263.524C211.77 262.887 211.961 262.269 212.292 261.725C212.624 261.181 213.086 260.728 213.637 260.407L282.533 220.145C286.537 217.806 291.542 217.752 295.594 220.007L323.424 235.486C324.003 235.805 324.489 236.268 324.835 236.83C325.181 237.393 325.375 238.035 325.398 238.695C325.427 239.355 325.285 240.011 324.985 240.599C324.685 241.187 324.238 241.688 323.686 242.052L255.52 287.446C253.408 288.851 250.927 289.599 248.39 289.596L248.39 289.595ZM214.006 261.039C213.098 261.57 212.522 262.513 212.466 263.563C212.41 264.614 212.881 265.613 213.728 266.238L241.179 286.501C245.276 289.525 250.878 289.661 255.117 286.838L323.282 241.443C323.728 241.148 324.09 240.743 324.333 240.266C324.576 239.79 324.692 239.258 324.668 238.724C324.649 238.189 324.491 237.669 324.211 237.213C323.931 236.758 323.537 236.383 323.069 236.124L295.238 220.645C291.41 218.516 286.683 218.566 282.901 220.776L214.006 261.039Z" fill="#5C0B86"/>
<path d="M302.679 224.891C302.679 224.891 302.671 226.587 302.682 227.343C302.689 227.723 302.598 228.098 302.418 228.433C302.237 228.768 301.973 229.05 301.651 229.253L294.141 234.036C292.567 235.038 290.747 235.587 288.882 235.621C287.017 235.654 285.178 235.173 283.569 234.228L276.083 229.833C275.742 229.636 275.46 229.35 275.266 229.006C275.073 228.663 274.975 228.273 274.983 227.879C274.994 227.145 274.993 225.338 274.993 225.338L302.679 224.891Z" fill="url(#paint10_linear_2992_30239)"/>
<path d="M294.507 218.998L301.531 222.875C303.011 223.692 303.078 225.797 301.651 226.705L294.141 231.489C292.567 232.491 290.747 233.039 288.882 233.073C287.017 233.107 285.178 232.625 283.569 231.681L276.083 227.286C274.616 226.425 274.616 224.304 276.083 223.443L283.403 219.145C285.082 218.16 286.989 217.628 288.936 217.602C290.882 217.576 292.802 218.057 294.507 218.998Z" fill="#5C0B86"/>
<path d="M248.391 289.595C245.639 289.598 242.96 288.72 240.745 287.088L213.294 266.825C213.216 266.768 213.164 266.682 213.149 266.586C213.135 266.49 213.159 266.392 213.217 266.314C213.274 266.236 213.36 266.184 213.456 266.17C213.552 266.155 213.65 266.18 213.728 266.237L241.179 286.5C245.276 289.524 250.878 289.66 255.117 286.837L323.282 241.443C323.362 241.389 323.461 241.37 323.556 241.389C323.651 241.408 323.735 241.464 323.788 241.545C323.842 241.625 323.861 241.724 323.842 241.819C323.823 241.914 323.767 241.998 323.687 242.051L255.521 287.446C253.408 288.85 250.927 289.598 248.39 289.595L248.391 289.595ZM289.574 224.057C288.614 224.057 287.663 223.856 286.933 223.448C286.149 223.01 285.716 222.398 285.712 221.724C285.709 221.028 286.162 220.385 286.988 219.914C288.517 219.042 290.903 219.004 292.421 219.828C293.22 220.263 293.666 220.876 293.678 221.554C293.691 222.241 293.255 222.881 292.452 223.354C291.66 223.822 290.612 224.057 289.574 224.057ZM289.817 219.965C288.929 219.965 288.03 220.161 287.35 220.549C286.772 220.879 286.441 221.306 286.443 221.721C286.445 222.12 286.746 222.506 287.289 222.81C288.583 223.532 290.778 223.493 292.08 222.724C292.647 222.39 292.955 221.979 292.948 221.566C292.94 221.162 292.629 220.773 292.072 220.47C291.45 220.132 290.638 219.964 289.817 219.964V219.965ZM292.049 229.692C291.067 229.692 290.093 229.48 289.342 229.052C288.533 228.591 288.083 227.949 288.077 227.242C288.07 226.52 288.525 225.85 289.358 225.356C290.917 224.43 293.366 224.385 294.935 225.254C295.76 225.711 296.223 226.354 296.239 227.066C296.255 227.779 295.818 228.446 295.01 228.942C294.199 229.44 293.12 229.692 292.049 229.692H292.049ZM292.266 225.362C291.35 225.362 290.426 225.571 289.73 225.984C289.14 226.334 288.804 226.791 288.807 227.236C288.811 227.671 289.13 228.091 289.703 228.418C291.044 229.181 293.298 229.136 294.627 228.32C295.205 227.964 295.518 227.525 295.508 227.082C295.498 226.641 295.169 226.219 294.581 225.894C293.939 225.539 293.106 225.363 292.266 225.363L292.266 225.362ZM282.152 228.138C281.169 228.138 280.204 227.928 279.471 227.503C278.702 227.057 278.28 226.435 278.282 225.752C278.284 225.029 278.781 224.332 279.643 223.839C281.242 222.927 283.69 222.886 285.216 223.746C286 224.188 286.436 224.811 286.443 225.499C286.45 226.223 285.985 226.898 285.134 227.401C284.303 227.89 283.218 228.138 282.152 228.138L282.152 228.138ZM282.574 223.858C281.658 223.858 280.723 224.065 280.006 224.474C279.377 224.833 279.015 225.3 279.013 225.754C279.012 226.164 279.305 226.561 279.838 226.87C281.139 227.625 283.393 227.579 284.763 226.772C285.371 226.413 285.717 225.951 285.713 225.506C285.709 225.09 285.405 224.691 284.858 224.382C284.236 224.032 283.413 223.858 282.574 223.858ZM316.722 250.355L313.961 252.194C313.887 252.243 313.802 252.271 313.714 252.275C313.626 252.279 313.539 252.259 313.461 252.218C313.383 252.176 313.318 252.114 313.273 252.039C313.228 251.963 313.204 251.876 313.204 251.788V251.706C313.204 251.466 313.263 251.229 313.377 251.016C313.49 250.804 313.655 250.623 313.855 250.49L316.616 248.651C316.69 248.602 316.775 248.574 316.863 248.57C316.951 248.566 317.039 248.585 317.116 248.627C317.194 248.669 317.259 248.73 317.304 248.806C317.349 248.882 317.373 248.968 317.373 249.056V249.138C317.373 249.379 317.314 249.616 317.2 249.828C317.087 250.04 316.922 250.221 316.722 250.355ZM310.822 254.284L307.475 256.513C307.401 256.562 307.316 256.59 307.228 256.594C307.14 256.599 307.053 256.579 306.975 256.537C306.897 256.496 306.832 256.434 306.787 256.358C306.742 256.283 306.718 256.196 306.718 256.108V256.026C306.718 255.785 306.777 255.548 306.891 255.336C307.004 255.124 307.169 254.943 307.369 254.809L310.716 252.58C310.79 252.531 310.875 252.503 310.963 252.499C311.051 252.495 311.139 252.515 311.216 252.556C311.294 252.598 311.359 252.66 311.404 252.735C311.45 252.811 311.474 252.897 311.474 252.986V253.067C311.474 253.308 311.414 253.545 311.301 253.758C311.187 253.97 311.023 254.151 310.822 254.284ZM303.79 258.967L301.491 260.498C301.417 260.547 301.332 260.575 301.244 260.579C301.156 260.584 301.068 260.564 300.991 260.522C300.913 260.481 300.848 260.419 300.803 260.343C300.757 260.267 300.733 260.181 300.733 260.093V260.011C300.733 259.77 300.793 259.533 300.907 259.321C301.02 259.109 301.184 258.928 301.385 258.794L303.684 257.263C303.757 257.214 303.842 257.186 303.931 257.182C304.019 257.178 304.106 257.198 304.184 257.239C304.261 257.281 304.326 257.343 304.372 257.418C304.417 257.494 304.441 257.581 304.441 257.669V257.751C304.441 257.991 304.382 258.228 304.268 258.441C304.154 258.653 303.99 258.834 303.79 258.967Z" fill="url(#paint11_linear_2992_30239)"/>
</g>
<g clip-path="url(#clip7_2992_30239)">
<path d="M142.67 230.205L104.948 192.262L99.1209 189.613L101.705 195.424L139.426 233.367C139.887 233.83 140.986 233.497 141.881 232.624C142.777 231.751 143.13 230.668 142.67 230.205Z" fill="url(#paint12_linear_2992_30239)"/>
<path d="M143.218 230.477C143.273 230.737 143.247 231.042 143.14 231.373C142.972 231.886 142.618 232.424 142.143 232.887C141.066 233.938 139.783 234.256 139.159 233.627L101.438 195.685C101.406 195.653 101.381 195.615 101.362 195.575L98.7781 189.763C98.748 189.694 98.7396 189.618 98.7542 189.544C98.7688 189.47 98.8056 189.402 98.8598 189.35C98.9139 189.297 98.9829 189.262 99.0576 189.248C99.1323 189.235 99.2092 189.245 99.2782 189.275L105.106 191.924C105.147 191.943 105.184 191.969 105.216 192.001L142.936 229.944C143.081 230.09 143.178 230.276 143.218 230.477ZM102.019 195.212L139.693 233.107C139.926 233.341 140.792 233.167 141.619 232.361C142.005 231.986 142.299 231.543 142.428 231.148C142.529 230.838 142.519 230.583 142.402 230.465L104.729 192.57L99.8607 190.357L102.019 195.212Z" fill="#5C0B86"/>
<path d="M139.867 226.94C139.883 227.018 139.874 227.1 139.84 227.173C139.806 227.246 139.748 227.306 139.677 227.344C139.606 227.382 139.524 227.396 139.444 227.384C139.364 227.372 139.29 227.335 139.233 227.278C139 227.043 138.134 227.217 137.307 228.023C136.48 228.83 136.29 229.685 136.524 229.919C136.558 229.954 136.585 229.995 136.604 230.04C136.622 230.085 136.631 230.133 136.631 230.182C136.63 230.231 136.62 230.279 136.601 230.324C136.582 230.368 136.554 230.409 136.519 230.443C136.483 230.477 136.442 230.505 136.396 230.523C136.351 230.541 136.302 230.551 136.253 230.55C136.204 230.55 136.155 230.54 136.11 230.521C136.065 230.502 136.024 230.475 135.99 230.44C135.366 229.812 135.706 228.547 136.783 227.497C137.859 226.447 139.143 226.129 139.767 226.757C139.817 226.807 139.852 226.871 139.867 226.94ZM141.848 229.82C141.868 229.912 141.851 230.008 141.802 230.089C141.752 230.169 141.674 230.228 141.583 230.253C141.172 230.369 140.709 230.657 140.311 231.046C140.24 231.115 140.145 231.153 140.045 231.153C139.946 231.152 139.852 231.113 139.782 231.043C139.713 230.973 139.674 230.879 139.675 230.781C139.676 230.682 139.716 230.588 139.787 230.519C140.279 230.039 140.845 229.692 141.382 229.541C141.429 229.528 141.478 229.524 141.527 229.53C141.576 229.535 141.623 229.55 141.666 229.574C141.709 229.598 141.746 229.63 141.777 229.668C141.807 229.706 141.829 229.75 141.842 229.796C141.845 229.804 141.847 229.812 141.848 229.82ZM139.759 231.532C139.778 231.622 139.762 231.715 139.716 231.794C139.426 232.289 139.348 232.76 139.528 232.941C139.563 232.975 139.59 233.016 139.608 233.061C139.626 233.106 139.635 233.155 139.635 233.203C139.634 233.252 139.624 233.3 139.605 233.345C139.586 233.39 139.558 233.43 139.523 233.465C139.488 233.499 139.446 233.526 139.401 233.544C139.355 233.563 139.306 233.572 139.257 233.572C139.208 233.571 139.16 233.561 139.114 233.543C139.069 233.524 139.028 233.496 138.994 233.462C138.56 233.024 138.589 232.244 139.069 231.424C139.107 231.359 139.164 231.307 139.233 231.275C139.301 231.242 139.378 231.231 139.453 231.243C139.527 231.255 139.597 231.289 139.651 231.34C139.706 231.392 139.743 231.459 139.759 231.532ZM137.753 224.814C137.77 224.893 137.76 224.974 137.726 225.047C137.692 225.12 137.635 225.18 137.563 225.218C137.492 225.256 137.41 225.27 137.33 225.258C137.25 225.246 137.176 225.209 137.12 225.152C136.886 224.918 136.02 225.091 135.193 225.898C134.808 226.273 134.513 226.715 134.385 227.11C134.284 227.42 134.293 227.676 134.411 227.794C134.445 227.828 134.472 227.869 134.491 227.914C134.509 227.959 134.518 228.008 134.518 228.056C134.517 228.105 134.507 228.153 134.488 228.198C134.468 228.243 134.44 228.283 134.405 228.317C134.37 228.352 134.329 228.379 134.283 228.397C134.238 228.415 134.189 228.425 134.14 228.424C134.091 228.424 134.042 228.414 133.997 228.395C133.952 228.377 133.911 228.349 133.876 228.314C133.551 227.988 133.479 227.481 133.673 226.886C133.84 226.373 134.194 225.835 134.67 225.371C135.746 224.321 137.029 224.003 137.654 224.631C137.704 224.681 137.738 224.745 137.753 224.814Z" fill="#5C0B86"/>
<path d="M136.689 223.744C136.706 223.822 136.697 223.904 136.662 223.977C136.628 224.05 136.571 224.11 136.5 224.148C136.428 224.186 136.346 224.2 136.266 224.188C136.186 224.176 136.112 224.139 136.056 224.082C135.823 223.847 134.957 224.021 134.13 224.827C133.303 225.634 133.113 226.489 133.347 226.724C133.381 226.758 133.408 226.799 133.426 226.844C133.445 226.889 133.454 226.938 133.453 226.986C133.453 227.035 133.443 227.083 133.423 227.128C133.404 227.173 133.376 227.213 133.341 227.247C133.306 227.282 133.265 227.309 133.219 227.327C133.173 227.345 133.125 227.355 133.076 227.354C133.026 227.354 132.978 227.344 132.933 227.325C132.888 227.307 132.847 227.279 132.812 227.244C132.188 226.616 132.529 225.351 133.606 224.301C134.682 223.251 135.965 222.933 136.59 223.561C136.64 223.611 136.675 223.675 136.689 223.744ZM105.436 192.307C105.453 192.386 105.444 192.468 105.409 192.54C105.375 192.613 105.318 192.673 105.247 192.711C105.175 192.749 105.093 192.763 105.013 192.752C104.933 192.74 104.86 192.702 104.803 192.645C104.57 192.411 103.704 192.585 102.877 193.391C102.491 193.766 102.197 194.208 102.068 194.604C101.967 194.914 101.977 195.169 102.094 195.287C102.128 195.322 102.156 195.363 102.174 195.408C102.192 195.453 102.201 195.501 102.201 195.549C102.2 195.598 102.19 195.646 102.171 195.691C102.152 195.736 102.124 195.777 102.089 195.811C102.054 195.845 102.012 195.872 101.967 195.89C101.921 195.909 101.872 195.918 101.823 195.918C101.774 195.917 101.726 195.908 101.68 195.889C101.635 195.87 101.594 195.842 101.56 195.808C101.235 195.481 101.162 194.974 101.356 194.379C101.523 193.866 101.878 193.328 102.353 192.864C103.43 191.814 104.712 191.496 105.337 192.124C105.387 192.174 105.422 192.238 105.436 192.307ZM100.095 191.804C100.19 191.57 100.356 191.319 100.59 191.091C100.824 190.863 101.08 190.702 101.318 190.611L99.1207 189.613L100.095 191.804Z" fill="#5C0B86"/>
<path d="M101.684 190.534C101.702 190.62 101.689 190.71 101.646 190.788C101.603 190.865 101.534 190.925 101.451 190.957C101.249 191.034 101.036 191.175 100.853 191.354C100.669 191.533 100.523 191.742 100.443 191.94C100.415 192.008 100.368 192.067 100.308 192.108C100.247 192.15 100.175 192.173 100.101 192.174C100.028 192.176 99.9553 192.156 99.8933 192.117C99.8313 192.077 99.7825 192.021 99.7529 191.954L98.7788 189.763C98.7487 189.694 98.7403 189.618 98.7549 189.544C98.7695 189.47 98.8063 189.403 98.8604 189.35C98.9146 189.297 98.9836 189.262 99.0583 189.248C99.133 189.235 99.2099 189.245 99.2788 189.276L101.476 190.274C101.529 190.299 101.575 190.335 101.611 190.38C101.647 190.425 101.672 190.478 101.684 190.534ZM100.153 191.014C100.264 190.884 100.387 190.764 100.52 190.657L99.8614 190.357L100.153 191.014Z" fill="#5C0B86"/>
</g>
<g clip-path="url(#clip8_2992_30239)">
<path d="M320.145 200.968C322.554 199.568 326.233 199.9 328.421 200.968C331.45 202.446 344.34 208.803 347.069 210.463C350.671 212.654 352.291 218.894 348.939 222.65C345.586 226.406 341.098 228.932 337.955 230.184C334.812 231.436 330.63 230.621 326.326 228.419C321.751 226.079 314.693 222.105 311.868 220.35C307.433 217.594 305.268 210.255 310.071 207.229C315.347 203.904 317.211 202.673 320.145 200.968Z" fill="#5C0B86"/>
<path d="M348.939 223.032C348.877 223.032 348.817 223.017 348.762 222.989C348.707 222.96 348.66 222.919 348.625 222.869C348.59 222.819 348.567 222.761 348.559 222.7C348.551 222.639 348.558 222.577 348.58 222.519C349.572 219.814 348.158 215.314 344.847 213.565C342.628 212.393 326.711 204.116 324.741 203.135C323.325 202.43 320.69 201.117 319.705 201.667C319.616 201.717 319.511 201.729 319.414 201.702C319.316 201.674 319.233 201.609 319.184 201.521C319.134 201.433 319.122 201.329 319.149 201.231C319.177 201.134 319.242 201.051 319.331 201.002C320.567 200.312 322.85 201.341 325.083 202.453C327.056 203.435 342.985 211.718 345.206 212.891C348.908 214.846 350.42 219.725 349.299 222.781C349.272 222.854 349.223 222.918 349.158 222.962C349.094 223.007 349.017 223.032 348.939 223.032ZM316.508 220.08L313.379 218.184C313.149 218.044 312.958 217.848 312.826 217.614C312.693 217.379 312.624 217.115 312.624 216.846V216.712C312.624 216.637 312.644 216.564 312.682 216.499C312.72 216.434 312.775 216.381 312.84 216.344C312.906 216.307 312.98 216.289 313.055 216.29C313.131 216.291 313.204 216.313 313.269 216.352L316.397 218.248C316.628 218.388 316.818 218.584 316.951 218.818C317.083 219.053 317.152 219.317 317.152 219.586V219.72C317.152 219.795 317.132 219.868 317.094 219.933C317.056 219.998 317.002 220.051 316.936 220.088C316.87 220.125 316.796 220.143 316.721 220.142C316.646 220.141 316.572 220.119 316.508 220.08Z" fill="url(#paint13_linear_2992_30239)"/>
<path d="M316.728 220.523C316.583 220.523 316.437 220.484 316.309 220.406L313.18 218.51C312.894 218.336 312.658 218.091 312.493 217.8C312.329 217.509 312.242 217.18 312.241 216.846V216.713C312.241 216.57 312.28 216.43 312.352 216.307C312.424 216.184 312.528 216.082 312.653 216.012C312.778 215.942 312.919 215.907 313.062 215.909C313.205 215.912 313.345 215.952 313.467 216.026L316.596 217.922C316.882 218.097 317.118 218.341 317.283 218.633C317.447 218.924 317.534 219.252 317.535 219.586V219.72C317.535 219.933 317.45 220.137 317.299 220.288C317.147 220.438 316.942 220.523 316.729 220.523H316.728ZM313.069 216.677L313.007 216.713V216.846C313.007 217.257 313.226 217.645 313.578 217.859L316.707 219.755C316.713 219.758 316.727 219.768 316.749 219.755L316.769 219.586C316.769 219.175 316.551 218.787 316.198 218.574L313.069 216.677Z" fill="url(#paint14_linear_2992_30239)"/>
</g>
<g clip-path="url(#clip9_2992_30239)">
<path d="M201.097 234.362C204.19 233.634 206.635 232.673 208.69 232.037C212.893 234.41 216.887 231.292 216.411 228.002C215.729 223.291 209.886 221.061 207.856 221.534C205.933 221.982 203.8 224 204.59 226.06C205.13 227.467 205.73 227.984 206.386 228.434C204.626 228.937 201.013 230.347 199.893 230.819C198.774 231.291 199.992 234.622 201.097 234.362Z" fill="url(#paint15_linear_2992_30239)"/>
<path d="M200.67 234.689C200.039 234.483 199.52 233.639 199.265 232.788C198.921 231.645 199.112 230.764 199.763 230.489C200.722 230.085 203.698 228.917 205.619 228.297C205.148 227.88 204.68 227.281 204.263 226.195C203.953 225.385 204.019 224.518 204.454 223.689C205.072 222.511 206.41 221.506 207.783 221.186C208.928 220.919 211.277 221.42 213.375 222.874C214.718 223.806 216.396 225.442 216.758 227.945C216.992 229.566 216.238 231.214 214.79 232.247C213.039 233.495 210.753 233.558 208.647 232.423C208.078 232.602 207.479 232.805 206.844 233.02C205.209 233.572 203.357 234.197 201.172 234.712C201.005 234.75 200.832 234.742 200.67 234.689ZM210.38 222.178C209.379 221.853 208.483 221.754 207.93 221.883C206.765 222.154 205.589 223.033 205.072 224.02C204.732 224.666 204.68 225.308 204.917 225.926C205.431 227.265 205.976 227.719 206.585 228.137C206.64 228.175 206.683 228.229 206.709 228.292C206.735 228.354 206.743 228.423 206.732 228.491C206.72 228.558 206.69 228.622 206.645 228.673C206.599 228.724 206.541 228.761 206.476 228.779C204.697 229.287 201.093 230.699 200.024 231.15C199.764 231.259 199.726 231.87 199.936 232.569C200.21 233.479 200.735 234.082 201.024 234.014C203.177 233.507 205.013 232.887 206.632 232.34C207.283 232.117 207.937 231.902 208.593 231.695C208.638 231.681 208.685 231.677 208.731 231.682C208.778 231.687 208.823 231.701 208.863 231.724C210.765 232.798 212.833 232.775 214.394 231.662C215.619 230.789 216.26 229.409 216.064 228.06C215.739 225.809 214.205 224.321 212.975 223.468C212.175 222.915 211.302 222.481 210.38 222.178Z" fill="url(#paint16_linear_2992_30239)"/>
<path d="M209.547 230.117C209.409 230.072 209.288 229.984 209.202 229.865C209.116 229.747 209.069 229.603 209.067 229.454C209.066 229.305 209.109 229.159 209.193 229.036C209.276 228.912 209.394 228.818 209.531 228.765L212.898 227.483C213.072 227.42 213.263 227.429 213.429 227.508C213.594 227.587 213.722 227.729 213.784 227.905C213.847 228.081 213.838 228.275 213.761 228.447C213.684 228.618 213.544 228.753 213.372 228.822L210.006 230.105C209.858 230.162 209.696 230.166 209.547 230.117Z" fill="#5C0B86"/>
</g>
<defs>
<linearGradient id="paint0_linear_2992_30239" x1="301.062" y1="37.3881" x2="294.651" y2="155.344" gradientUnits="userSpaceOnUse">
<stop stop-color="#C985FE"/>
<stop offset="1" stop-color="#999DFF"/>
</linearGradient>
<linearGradient id="paint1_linear_2992_30239" x1="301.207" y1="37.0249" x2="294.765" y2="155.558" gradientUnits="userSpaceOnUse">
<stop stop-color="#C985FE"/>
<stop offset="1" stop-color="#999DFF"/>
</linearGradient>
<linearGradient id="paint2_linear_2992_30239" x1="237.773" y1="154.119" x2="236.05" y2="215.004" gradientUnits="userSpaceOnUse">
<stop stop-color="#C985FE"/>
<stop offset="1" stop-color="#999DFF"/>
</linearGradient>
<linearGradient id="paint3_linear_2992_30239" x1="245.755" y1="183.925" x2="244.711" y2="237.582" gradientUnits="userSpaceOnUse">
<stop stop-color="#C985FE"/>
<stop offset="1" stop-color="#999DFF"/>
</linearGradient>
<linearGradient id="paint4_linear_2992_30239" x1="307.256" y1="187.69" x2="310.734" y2="189.632" gradientUnits="userSpaceOnUse">
<stop stop-color="#C985FE"/>
<stop offset="1" stop-color="#999DFF"/>
</linearGradient>
<linearGradient id="paint5_linear_2992_30239" x1="294.954" y1="37.8432" x2="288.391" y2="162.564" gradientUnits="userSpaceOnUse">
<stop stop-color="#C985FE"/>
<stop offset="1" stop-color="#999DFF"/>
</linearGradient>
<linearGradient id="paint6_linear_2992_30239" x1="291.502" y1="121.729" x2="288.535" y2="162.937" gradientUnits="userSpaceOnUse">
<stop stop-color="#C985FE"/>
<stop offset="1" stop-color="#999DFF"/>
</linearGradient>
<linearGradient id="paint7_linear_2992_30239" x1="384.318" y1="123.297" x2="383.94" y2="139.872" gradientUnits="userSpaceOnUse">
<stop stop-color="#C985FE"/>
<stop offset="1" stop-color="#999DFF"/>
</linearGradient>
<linearGradient id="paint8_linear_2992_30239" x1="384.268" y1="134.609" x2="380.058" y2="189.764" gradientUnits="userSpaceOnUse">
<stop stop-color="#C985FE"/>
<stop offset="1" stop-color="#999DFF"/>
</linearGradient>
<linearGradient id="paint9_linear_2992_30239" x1="381.841" y1="112.939" x2="381.577" y2="124.962" gradientUnits="userSpaceOnUse">
<stop stop-color="#C985FE"/>
<stop offset="1" stop-color="#999DFF"/>
</linearGradient>
<linearGradient id="paint10_linear_2992_30239" x1="294.341" y1="224.891" x2="294.16" y2="233.34" gradientUnits="userSpaceOnUse">
<stop stop-color="#C985FE"/>
<stop offset="1" stop-color="#999DFF"/>
</linearGradient>
<linearGradient id="paint11_linear_2992_30239" x1="290.512" y1="219.234" x2="288.572" y2="274.588" gradientUnits="userSpaceOnUse">
<stop stop-color="#C985FE"/>
<stop offset="1" stop-color="#999DFF"/>
</linearGradient>
<linearGradient id="paint12_linear_2992_30239" x1="102.307" y1="204.778" x2="128.976" y2="200.193" gradientUnits="userSpaceOnUse">
<stop stop-color="#C985FE"/>
<stop offset="1" stop-color="#999DFF"/>
</linearGradient>
<linearGradient id="paint13_linear_2992_30239" x1="338.508" y1="200.779" x2="337.928" y2="218.288" gradientUnits="userSpaceOnUse">
<stop stop-color="#C985FE"/>
<stop offset="1" stop-color="#999DFF"/>
</linearGradient>
<linearGradient id="paint14_linear_2992_30239" x1="315.941" y1="215.909" x2="315.766" y2="219.535" gradientUnits="userSpaceOnUse">
<stop stop-color="#C985FE"/>
<stop offset="1" stop-color="#999DFF"/>
</linearGradient>
<linearGradient id="paint15_linear_2992_30239" x1="213.603" y1="222.85" x2="209.395" y2="233.784" gradientUnits="userSpaceOnUse">
<stop stop-color="#C985FE"/>
<stop offset="1" stop-color="#999DFF"/>
</linearGradient>
<linearGradient id="paint16_linear_2992_30239" x1="213.846" y1="222.553" x2="209.433" y2="234.014" gradientUnits="userSpaceOnUse">
<stop stop-color="#C985FE"/>
<stop offset="1" stop-color="#999DFF"/>
</linearGradient>
<clipPath id="clip0_2992_30239">
<rect width="213.194" height="151.236" fill="white" transform="translate(89.7661 200.039)"/>
</clipPath>
<clipPath id="clip1_2992_30239">
<rect width="127.819" height="168.799" fill="white" transform="translate(261.004 23.9209)"/>
</clipPath>
<clipPath id="clip2_2992_30239">
<rect width="238.075" height="218.561" fill="white" transform="translate(109.28 35.6299)"/>
</clipPath>
<clipPath id="clip3_2992_30239">
<rect width="133.186" height="122.453" fill="white" transform="translate(190.265 52.2168)"/>
</clipPath>
<clipPath id="clip4_2992_30239">
<rect width="103.914" height="57.0795" fill="white" transform="translate(284.91 229.31)"/>
</clipPath>
<clipPath id="clip5_2992_30239">
<rect width="57.5674" height="94.6447" fill="white" transform="translate(345.404 110.76)"/>
</clipPath>
<clipPath id="clip6_2992_30239">
<rect width="113.671" height="77.5696" fill="white" transform="translate(211.731 217.601)"/>
</clipPath>
<clipPath id="clip7_2992_30239">
<rect width="52.2009" height="35.1259" fill="white" transform="translate(109.412 240.414) rotate(-101.865)"/>
</clipPath>
<clipPath id="clip8_2992_30239">
<rect width="43.4195" height="30.7351" fill="white" transform="translate(307.351 200.039)"/>
</clipPath>
<clipPath id="clip9_2992_30239">
<rect width="17.563" height="15.6115" fill="white" transform="translate(201.768 218.627) rotate(18.0047)"/>
</clipPath>
</defs>
</svg>
