<svg width="293" height="256" viewBox="0 0 293 256" fill="none" xmlns="http://www.w3.org/2000/svg">
<g clip-path="url(#clip0_3004_74301)">
<path d="M156.335 54.1708C168.899 36.8411 193.785 33.4531 211.917 46.6049C230.05 59.7559 234.564 84.4659 221.999 101.796C220.691 103.6 151.554 182.651 151.554 182.651C148.075 187.449 134.024 183.195 120.171 173.147C106.317 163.099 97.9067 151.064 101.386 146.265C101.386 146.264 155.026 55.9748 156.335 54.1708Z" fill="url(#paint0_linear_3004_74301)"/>
<path d="M101.385 146.263C101.385 146.263 122.45 110.806 138.501 83.8865C142.403 80.5278 158.388 85.6955 175.462 96.017C192.848 106.526 204.986 118.523 203.312 123.377C182.437 147.338 151.554 182.649 151.554 182.649C148.075 187.448 134.023 183.193 120.17 173.145C106.316 163.098 97.9064 151.062 101.385 146.263Z" fill="#86D1FD"/>
<path d="M126.067 177.611C130.793 180.468 135.455 182.642 139.62 183.903C145.749 185.759 150.118 185.409 151.924 182.918C154.721 179.723 221.063 103.864 222.368 102.064C235.061 84.5579 230.493 59.5121 212.185 46.2339C203.324 39.8017 192.592 37.0587 181.976 38.5035C171.353 39.9493 162.115 45.4179 155.964 53.9015C154.658 55.7022 103.184 142.342 100.992 146.03C99.2094 148.486 100.235 152.749 103.903 157.998C107.479 163.115 113.161 168.627 119.901 173.515C121.898 174.966 123.955 176.333 126.067 177.611ZM208.662 44.9928C209.679 45.6076 210.674 46.2673 211.649 46.974C229.548 59.9561 234.025 84.4281 221.628 101.527C220.348 103.293 151.901 181.558 151.21 182.348C149.647 184.501 145.529 184.736 139.885 183.028C134.005 181.246 127.099 177.605 120.439 172.775C113.778 167.944 108.172 162.51 104.653 157.473C101.275 152.639 100.219 148.652 101.757 146.532C102.316 145.594 155.424 56.2055 156.705 54.4385C162.707 46.1594 171.726 40.8222 182.099 39.4098C191.314 38.155 200.621 40.1321 208.662 44.9928Z" fill="#5C0B86"/>
<path d="M165.711 112.147C181.793 121.869 200.296 128.834 203.422 123.663C203.485 123.559 203.504 123.435 203.475 123.317C203.446 123.199 203.371 123.098 203.268 123.035C203.164 122.972 203.04 122.953 202.922 122.982C202.804 123.012 202.703 123.086 202.64 123.19C200.457 126.802 185.287 122.911 166.185 111.364C166.081 111.301 165.957 111.282 165.839 111.312C165.721 111.341 165.62 111.415 165.557 111.519C165.494 111.623 165.475 111.748 165.504 111.865C165.533 111.983 165.608 112.085 165.711 112.147ZM153.892 104.215C153.992 104.273 154.111 104.29 154.223 104.263C154.335 104.237 154.434 104.169 154.498 104.073C154.563 103.977 154.589 103.86 154.571 103.746C154.553 103.632 154.493 103.529 154.402 103.457C143.44 95.2543 137.012 87.4928 138.771 84.582C139.652 83.1248 142.625 82.8729 147.142 83.8734C147.261 83.8997 147.385 83.8778 147.487 83.8126C147.589 83.7474 147.662 83.6443 147.688 83.5258C147.714 83.4073 147.693 83.2832 147.628 83.1809C147.563 83.0785 147.46 83.0062 147.341 82.9799C142.339 81.8726 139.105 82.2632 137.989 84.1094C135.47 88.2768 144.533 97.2151 153.855 104.19C153.867 104.199 153.879 104.208 153.892 104.215ZM217.783 74.7837C217.853 74.8259 217.933 74.8487 218.014 74.8496C218.096 74.8505 218.176 74.8296 218.247 74.789C220.446 73.5273 220.97 70.2924 219.415 67.5776C218.671 66.2796 217.566 65.2872 216.303 64.7838C215.002 64.2656 213.69 64.3223 212.608 64.9433C212.503 65.0038 212.426 65.1036 212.394 65.2208C212.362 65.338 212.378 65.463 212.438 65.5684C212.499 65.6732 212.598 65.7498 212.715 65.7814C212.832 65.8131 212.957 65.7974 213.062 65.7376C213.898 65.2575 214.928 65.2211 215.963 65.6343C217.036 66.0604 217.979 66.9142 218.621 68.0335C219.925 70.3105 219.553 72.9851 217.793 73.9952C217.724 74.0351 217.667 74.0922 217.626 74.1608C217.586 74.2295 217.565 74.3074 217.564 74.3869C217.563 74.4665 217.583 74.5448 217.621 74.6144C217.66 74.6839 217.715 74.7423 217.783 74.7837ZM101.15 146.655C101.248 146.714 101.365 146.734 101.477 146.711C101.589 146.688 101.689 146.624 101.756 146.531C102.912 144.938 105.459 144.396 109.122 144.964C109.182 144.974 109.244 144.973 109.303 144.96C109.363 144.946 109.419 144.921 109.469 144.886C109.519 144.85 109.561 144.805 109.593 144.753C109.625 144.701 109.646 144.644 109.655 144.583C109.665 144.523 109.662 144.462 109.647 144.402C109.632 144.343 109.606 144.288 109.569 144.239C109.533 144.19 109.487 144.149 109.434 144.118C109.382 144.088 109.323 144.068 109.263 144.06C105.238 143.436 102.386 144.105 101.016 145.995C100.979 146.046 100.953 146.104 100.939 146.166C100.926 146.228 100.925 146.292 100.938 146.354C100.95 146.416 100.976 146.475 101.012 146.527C101.049 146.579 101.095 146.622 101.15 146.655ZM149.746 173.607C149.833 173.66 149.935 173.682 150.036 173.67C150.137 173.658 150.232 173.612 150.304 173.54C150.376 173.468 150.423 173.375 150.436 173.273C150.449 173.172 150.428 173.07 150.376 172.982C147.052 167.386 140.733 160.976 133.038 155.396C127.768 151.573 122.311 148.467 117.259 146.414C117.204 146.392 117.144 146.38 117.084 146.38C117.024 146.381 116.965 146.393 116.91 146.416C116.854 146.44 116.804 146.474 116.762 146.516C116.72 146.559 116.686 146.61 116.664 146.665C116.64 146.721 116.628 146.78 116.628 146.841C116.628 146.901 116.64 146.961 116.664 147.016C116.687 147.072 116.721 147.122 116.764 147.164C116.807 147.206 116.859 147.239 116.915 147.261C121.899 149.287 127.288 152.357 132.502 156.136C140.099 161.646 146.327 167.956 149.59 173.449C149.628 173.514 149.681 173.569 149.746 173.607Z" fill="#5C0B86"/>
<path d="M117.768 128.494C118.805 129.121 120.012 129.233 120.986 128.673L162.858 104.644C162.963 104.583 163.04 104.483 163.072 104.366C163.104 104.249 163.088 104.124 163.028 104.019C162.967 103.914 162.868 103.837 162.751 103.805C162.634 103.774 162.509 103.789 162.404 103.849L120.532 127.879C119.407 128.524 117.805 127.85 116.96 126.375C116.541 125.644 116.372 124.832 116.485 124.089C116.591 123.386 116.94 122.833 117.467 122.53L148.993 104.438C149.099 104.377 149.176 104.278 149.207 104.16C149.239 104.043 149.223 103.918 149.163 103.813C149.103 103.708 149.003 103.631 148.886 103.6C148.769 103.568 148.644 103.584 148.539 103.644L117.013 121.735C116.239 122.18 115.73 122.967 115.581 123.952C115.438 124.898 115.645 125.92 116.166 126.83C116.579 127.551 117.142 128.116 117.768 128.494Z" fill="#5C0B86"/>
<path d="M160.734 97.1735L259.974 40.2222L263.492 46.3649L167.208 101.62C164.923 101.735 160.676 98.4509 160.734 97.1735Z" fill="white"/>
<path d="M163.752 100.901C164.91 101.601 166.194 102.129 167.23 102.077C167.302 102.073 167.372 102.052 167.434 102.016L263.719 46.7619C263.824 46.7013 263.901 46.6015 263.933 46.4843C263.965 46.3672 263.949 46.2422 263.889 46.1367L260.371 39.9936C260.31 39.8891 260.21 39.8128 260.094 39.7812C259.977 39.7496 259.852 39.7653 259.747 39.8247L160.508 96.7763C160.441 96.8147 160.385 96.8694 160.345 96.9352C160.305 97.001 160.282 97.0759 160.278 97.1528C160.254 97.6731 160.636 98.3302 161.413 99.1038C161.987 99.6759 162.83 100.344 163.752 100.901ZM167.081 101.165C165.694 101.161 163.392 99.784 162.058 98.4556C161.578 97.9764 161.345 97.6231 161.249 97.4052L259.804 40.8465L262.867 46.1958L167.081 101.165Z" fill="#5C0B86"/>
<path d="M157.078 53.4883L157.079 53.4889C156.781 53.6742 156.531 53.9002 156.335 54.1703C153.132 58.5864 165.237 72.8277 183.369 85.9787C201.502 99.1305 218.797 106.211 221.999 101.795C222.263 101.431 222.413 100.993 222.474 100.501L222.483 100.507C222.483 100.507 221.781 109.323 221.373 109.886C217.735 114.904 198.548 107.195 178.519 92.6678C158.489 78.1405 145.201 62.296 148.839 57.2779C149.215 56.7614 157.078 53.4883 157.078 53.4883Z" fill="url(#paint1_linear_3004_74301)"/>
<path d="M190.186 100.977C195.774 104.355 201.142 107.11 205.922 109.031C210.733 110.964 219.187 113.68 221.743 110.154C222.164 109.575 222.673 103.883 222.938 100.543C222.945 100.463 222.93 100.383 222.895 100.31C222.861 100.238 222.808 100.176 222.742 100.13C222.613 100.037 222.437 100.021 222.292 100.087C222.146 100.153 222.041 100.287 222.021 100.445C221.967 100.884 221.839 101.238 221.629 101.527C218.959 105.21 203.056 99.6897 183.638 85.6085C174.897 79.2689 167.284 72.4829 162.201 66.5024C157.317 60.7561 155.314 56.3587 156.706 54.4385C156.872 54.2132 157.081 54.0225 157.321 53.8771C157.418 53.8164 157.49 53.7212 157.52 53.6104C157.551 53.4996 157.539 53.3814 157.486 53.2792C157.434 53.1765 157.345 53.0974 157.237 53.0578C157.129 53.0181 157.01 53.0209 156.904 53.0655C153.262 54.5811 148.843 56.4952 148.47 57.0108C145.913 60.5368 151.121 67.7287 154.454 71.7023C160.083 78.4144 168.534 85.9919 178.251 93.0391C182.251 95.9418 186.273 98.6117 190.186 100.977ZM221.845 102.62C221.541 106.044 221.179 109.237 220.985 109.647C219.402 111.825 214.03 111.303 206.263 108.182C198.202 104.943 188.444 99.3026 178.786 92.2981C169.128 85.2936 160.735 77.77 155.153 71.113C149.774 64.6993 147.607 59.7551 149.208 57.547C149.541 57.2482 152.734 55.8259 155.58 54.614C154.397 57.743 158.061 63.0467 161.502 67.0943C166.631 73.1291 174.301 79.967 183.1 86.3479C198.772 97.7166 217.057 106.572 221.845 102.62Z" fill="#5C0B86"/>
<path d="M194.034 93.6088C207.07 101.489 219.403 106.155 222.369 102.063C223.526 100.467 223.021 97.8645 220.868 94.328C220.837 94.2754 220.797 94.2295 220.748 94.1929C220.699 94.1563 220.644 94.1298 220.585 94.1149C220.526 94.0999 220.465 94.0969 220.405 94.106C220.345 94.115 220.287 94.136 220.235 94.1676C220.183 94.1993 220.138 94.241 220.102 94.2903C220.067 94.3395 220.041 94.3954 220.027 94.4547C220.014 94.5139 220.012 94.5753 220.022 94.6353C220.032 94.6952 220.054 94.7525 220.087 94.8039C222.002 97.9509 222.536 100.276 221.628 101.527C218.958 105.21 203.055 99.6895 183.638 85.6084C174.897 79.2688 167.283 72.4828 162.2 66.5023C157.315 60.7557 155.312 56.3582 156.705 54.4381C158.605 51.8166 166.848 53.8548 177.703 59.6312C177.756 59.6595 177.814 59.6769 177.874 59.6827C177.934 59.6885 177.994 59.6824 178.052 59.6648C178.109 59.6472 178.162 59.6185 178.209 59.5803C178.255 59.5421 178.294 59.4951 178.322 59.442C178.351 59.3891 178.369 59.331 178.375 59.271C178.382 59.211 178.376 59.1504 178.358 59.0927C178.341 59.035 178.312 58.9814 178.273 58.9352C178.234 58.8889 178.187 58.8508 178.133 58.8233C166.504 52.6353 158.216 50.7957 155.964 53.9019C152.167 59.1387 166.78 74.5125 183.1 86.3495C186.673 88.9395 190.381 91.4008 194.034 93.6088Z" fill="#5C0B86"/>
<path d="M259.296 44.6916C258.325 42.9954 258.628 40.9944 259.974 40.2221C261.32 39.4499 263.198 40.1989 264.17 41.8951C265.141 43.5913 264.838 45.5923 263.492 46.3646C262.146 47.1368 260.268 46.3878 259.296 44.6916Z" fill="white"/>
<path d="M260.5 46.5829C261.537 47.2094 262.745 47.3206 263.718 46.7616C265.281 45.8648 265.661 43.5795 264.566 41.667C263.47 39.7556 261.309 38.9287 259.746 39.8249C258.972 40.2694 258.463 41.0568 258.313 42.0421C258.17 42.9879 258.378 44.0096 258.899 44.919C259.312 45.6382 259.875 46.2048 260.5 46.5829ZM262.484 40.7764C262.982 41.0772 263.437 41.5369 263.773 42.1228C264.617 43.5976 264.389 45.3226 263.264 45.9681C262.139 46.6138 260.537 45.9386 259.693 44.4635C259.274 43.7328 259.105 42.9213 259.218 42.1789C259.325 41.4756 259.674 40.9217 260.2 40.6192C260.878 40.2297 261.729 40.3202 262.484 40.7764ZM213.726 74.5304C215.187 75.4139 216.882 75.573 218.248 74.7894C218.353 74.7289 218.43 74.629 218.462 74.5119C218.494 74.3947 218.478 74.2697 218.418 74.1643C218.357 74.0595 218.257 73.9829 218.141 73.9512C218.024 73.9196 217.899 73.9353 217.794 73.9951C216.033 75.0055 213.538 73.9758 212.235 71.6986C211.593 70.5793 211.335 69.3333 211.509 68.1907C211.675 67.088 212.228 66.2159 213.063 65.737C213.169 65.6764 213.246 65.5766 213.277 65.4594C213.309 65.3422 213.293 65.2172 213.233 65.1118C213.173 65.0069 213.073 64.9302 212.956 64.8985C212.839 64.8669 212.714 64.8827 212.609 64.9427C211.526 65.5641 210.814 66.6687 210.605 68.0533C210.401 69.3993 210.698 70.8556 211.442 72.1536C212.03 73.183 212.835 73.9916 213.726 74.5304Z" fill="#5C0B86"/>
<path d="M193.054 118.043L182.285 134.327L173.754 131.916L186.39 114.014L193.054 118.043ZM191.274 53.4105C196.089 51.8293 200.895 50.974 205.478 50.7754C206.139 52.2526 206.823 53.719 207.531 55.1739C203.385 55.8797 199.126 57.1452 194.919 59.0061C190.838 60.8118 187.14 63.032 183.898 65.5318C182.771 63.5681 181.54 61.0665 180.362 58.3867C183.657 56.4053 187.316 54.7101 191.274 53.4105ZM202.674 44.1655C203.197 45.4733 203.736 46.7745 204.291 48.0688C198.761 47.928 192.812 48.7712 186.847 50.7296C184.015 51.659 181.265 52.8192 178.622 54.1985C177.641 51.6961 176.775 49.2161 176.14 47.0292C178.137 46.2799 180.175 45.6474 182.245 45.1348C189.403 43.3671 196.427 43.1267 202.674 44.1655ZM179.156 67.9157L175.201 60.9331L169.34 64.883L171.704 73.6183L179.156 67.9157Z" fill="white"/>
</g>
<g clip-path="url(#clip1_3004_74301)">
<path d="M127.75 204.309C124.436 198.345 110.426 199.799 96.4584 207.556C85.3204 213.742 72.4424 223.895 72.4424 223.895L77.1679 232.4C80.4819 238.363 94.4915 236.909 108.459 229.152C122.427 221.395 131.063 210.273 127.75 204.309Z" fill="url(#paint2_linear_3004_74301)"/>
<path d="M71.9882 223.946C71.9949 224.006 72.0135 224.064 72.0428 224.117L76.7683 232.621C80.2002 238.795 94.5157 237.418 108.681 229.551C122.847 221.684 131.575 210.261 128.149 204.086C124.717 197.912 110.402 199.289 96.2363 207.156C85.1941 213.289 72.2883 223.434 72.1593 223.536C72.0982 223.584 72.0505 223.647 72.0206 223.718C71.9906 223.79 71.9795 223.868 71.9882 223.946ZM127.977 206.53C128.649 212.545 120.499 221.943 108.238 228.753C94.5125 236.375 80.7535 237.912 77.5676 232.178L73.0315 224.015C75.0499 222.444 86.6474 213.527 96.6804 207.955C110.406 200.333 124.165 198.797 127.351 204.53C127.691 205.148 127.904 205.828 127.977 206.53ZM123.196 194.545C128.86 185.337 134.261 167.384 127.807 139.897C121.511 113.084 96.611 87.5992 76.2447 91.6098C53.0001 96.1866 45.2071 125.988 48.0012 144.046L46.4767 144.036C43.5774 125.301 51.6637 94.3793 75.7819 89.6301C96.914 85.469 122.749 111.912 129.283 139.732C135.979 168.252 130.373 186.879 124.497 196.434L123.196 194.545Z" fill="#5C0B86"/>
<path d="M45.7707 142.201C45.8426 142.845 45.9271 143.48 46.0241 144.107C46.0407 144.214 46.0949 144.312 46.1771 144.382C46.2592 144.453 46.3639 144.493 46.4724 144.493L47.9969 144.502C48.063 144.503 48.1285 144.489 48.1887 144.461C48.2489 144.434 48.3024 144.394 48.3456 144.344C48.3888 144.294 48.4206 144.235 48.4388 144.171C48.4569 144.108 48.4611 144.041 48.451 143.976C45.6212 125.561 53.8909 96.4772 76.3319 92.0577C95.5164 88.2802 120.792 112.028 127.361 140.002C129.758 150.205 134.11 175.925 122.805 194.306C122.759 194.382 122.735 194.469 122.738 194.557C122.74 194.646 122.768 194.731 122.819 194.804L124.119 196.693C124.162 196.756 124.22 196.807 124.288 196.841C124.356 196.876 124.431 196.893 124.507 196.891C124.583 196.889 124.658 196.868 124.723 196.83C124.789 196.792 124.845 196.738 124.884 196.673C127.366 192.642 130.623 185.654 132.057 175.259C133.54 164.513 132.754 152.526 129.726 139.629C126.52 125.974 118.719 112.39 108.323 102.36C97.5994 92.0146 85.7063 87.2112 75.6926 89.1831C61.7842 91.9219 54.3582 102.78 50.5785 111.406C46.4656 120.791 44.6761 132.403 45.7707 142.201ZM46.8694 143.583C44.0807 124.455 52.7284 94.6352 75.8692 90.0786C95.7829 86.1578 122.019 110.804 128.836 139.837C131.298 150.316 135.747 176.562 124.471 195.593L123.74 194.531C126.11 190.607 129.146 183.945 130.498 174.139C131.927 163.781 131.171 152.226 128.252 139.793C125.16 126.63 117.641 113.536 107.619 103.866C97.2803 93.8911 85.8122 89.2607 76.1564 91.1621C62.7446 93.803 55.5846 104.272 51.9402 112.59C47.7901 122.058 46.1082 133.877 47.471 143.586L46.8694 143.583Z" fill="#5C0B86"/>
<path d="M77.0852 89.4177C76.6485 89.476 76.2136 89.5468 75.781 89.6303C51.6628 94.3795 43.577 125.301 46.4757 144.037L32.4008 145.789C29.6074 127.733 40.7762 93.5428 64.307 90.9128C68.2975 90.4667 71.688 90.0088 76.7086 89.4476C76.8381 89.4331 76.9617 89.4254 77.0852 89.4177Z" fill="url(#paint3_linear_3004_74301)"/>
<path d="M31.7737 144.533C31.8244 144.987 31.8836 145.428 31.9501 145.86C31.9683 145.977 32.0316 146.083 32.1264 146.154C32.2212 146.226 32.3402 146.257 32.4581 146.243L46.5324 144.49C46.6545 144.475 46.7662 144.411 46.8404 144.312C46.9146 144.214 46.956 144.091 46.9269 143.967C43.9685 124.857 52.5741 94.6663 75.8696 90.0789C76.2934 89.9972 76.7195 89.9277 77.1474 89.8706C77.2645 89.8545 77.3708 89.7936 77.444 89.7008C77.5171 89.6079 77.5514 89.4904 77.5397 89.3728C77.5287 89.1375 77.3015 88.9467 77.0557 88.9625L77.0851 89.4181L77.0393 88.9637C76.9145 88.9716 76.7892 88.9801 76.6585 88.9947C74.0026 89.2915 71.8031 89.5594 69.7287 89.8121C67.8823 90.0369 66.1368 90.2497 64.2569 90.4598C56.4944 91.3274 49.3637 95.7419 43.6363 103.227C34.1437 115.63 30.5272 133.376 31.7737 144.533ZM32.7875 145.281C31.2638 134.384 34.7679 116.318 44.3618 103.78C49.9342 96.4984 56.8487 92.2055 64.3582 91.3662C66.2406 91.1558 67.9896 90.9425 69.8391 90.7174L70.6402 90.6199C59.9342 94.6774 53.8715 103.889 50.5781 111.405C46.2617 121.255 44.4973 133.558 45.9546 143.641L32.7875 145.281Z" fill="#5C0B86"/>
<path d="M127.807 139.898C134.261 167.385 128.859 185.338 123.195 194.546L107.945 196.25C113.609 187.041 120.57 170.93 114.115 143.443C108.57 119.826 83.7969 95.8932 60.7749 100.033C64.8812 95.8854 70.0052 92.8384 76.2437 91.61C96.6107 87.5999 121.51 113.084 127.807 139.898Z" fill="#5C0B86"/>
<path d="M48.7145 133.322L49.7824 125.731C49.7824 125.731 48.1037 124.425 46.6788 124.172C45.0112 124.424 33.5278 129.032 32.605 129.526C31.6066 135.765 31.7893 140.569 31.7893 140.569L48.5911 137.778L48.7145 133.322Z" fill="url(#paint4_linear_3004_74301)"/>
<path d="M31.3353 140.619C31.3485 140.738 31.408 140.847 31.501 140.922C31.5511 140.963 31.6094 140.993 31.6721 141.01C31.7347 141.026 31.8002 141.029 31.8641 141.019L48.6659 138.228C48.7705 138.21 48.8657 138.157 48.9354 138.077C49.005 137.998 49.0448 137.896 49.0478 137.79L49.171 133.36L50.235 125.795C50.2457 125.716 50.2354 125.635 50.2053 125.56C50.1752 125.486 50.1262 125.421 50.0633 125.371C49.9914 125.315 48.2772 123.992 46.7585 123.723C46.7096 123.714 46.6597 123.714 46.6106 123.721C44.8472 123.987 33.2327 128.672 32.3897 129.124C32.3276 129.157 32.2741 129.204 32.2333 129.261C32.1925 129.319 32.1655 129.385 32.1545 129.454C31.1604 135.665 31.3317 140.537 31.3334 140.585C31.3334 140.597 31.3341 140.608 31.3353 140.619ZM48.1444 137.389L32.2355 140.031C32.2218 138.653 32.2623 134.678 33.0191 129.832C34.7654 129.029 44.9275 124.974 46.6743 124.636C47.6741 124.841 48.8278 125.607 49.2919 125.938L48.2619 133.259C48.2594 133.276 48.2579 133.293 48.2572 133.31L48.1444 137.389Z" fill="#5C0B86"/>
<path d="M53.0547 147.382L50.6094 133.576C50.6094 133.576 46.5978 132.785 45.5676 132.9C37.7251 134.494 31.4798 137.8 31.4798 137.8L31.8585 149.1L53.0547 147.382Z" fill="url(#paint5_linear_3004_74301)"/>
<path d="M31.4036 149.151C31.4167 149.269 31.4753 149.377 31.5669 149.452C31.6585 149.528 31.776 149.565 31.8943 149.555L53.0912 147.838C53.1545 147.832 53.2161 147.814 53.272 147.784C53.3279 147.754 53.3769 147.712 53.4159 147.662C53.4553 147.612 53.4835 147.554 53.4987 147.492C53.5139 147.43 53.5157 147.366 53.5039 147.303L51.0581 133.497C51.042 133.406 50.999 133.322 50.9345 133.257C50.8701 133.191 50.7873 133.146 50.697 133.128C50.2796 133.046 46.5856 132.328 45.5161 132.447C37.6595 134.042 31.3283 137.363 31.2653 137.397C31.1897 137.437 31.1268 137.497 31.0839 137.571C31.0409 137.645 31.0195 137.73 31.0222 137.815L31.4009 149.115C31.4015 149.127 31.4024 149.139 31.4036 149.151ZM52.5178 146.968L32.2982 148.606L31.9459 138.075C33.1871 137.452 38.8484 134.732 45.6579 133.349C46.3438 133.274 48.944 133.723 50.2138 133.965L52.5178 146.968Z" fill="#5C0B86"/>
<path d="M91.9757 198.917C106.078 191.086 120.252 189.673 123.635 195.761C127.018 201.849 118.328 213.132 104.227 220.964C90.1247 228.795 75.9504 230.208 72.5675 224.12C69.1845 218.032 77.8739 206.748 91.9757 198.917Z" fill="url(#paint6_linear_3004_74301)"/>
<path d="M71.4224 221.969C71.518 222.824 71.7654 223.618 72.1675 224.342C75.6672 230.64 90.1489 229.303 104.448 221.362C111.321 217.545 117.146 212.795 120.849 207.986C124.632 203.073 125.765 198.652 124.034 195.538C120.534 189.239 106.052 190.576 91.7533 198.517C84.88 202.334 79.0554 207.085 75.3521 211.894C72.4484 215.665 71.1069 219.146 71.4224 221.969ZM123.874 198.025C124.162 200.599 122.88 203.85 120.125 207.429C116.497 212.141 110.771 216.806 104.004 220.564C90.1451 228.261 76.2217 229.757 72.9667 223.899C71.4254 221.123 72.5282 217.059 76.0763 212.451C79.7045 207.739 85.4303 203.074 92.1968 199.316C106.056 191.62 119.979 190.123 123.234 195.982C123.582 196.613 123.799 197.308 123.874 198.025ZM92.8759 230.728C92.883 230.794 92.9043 230.857 92.9384 230.914C92.9725 230.97 93.0186 231.019 93.0733 231.056C93.1281 231.093 93.1903 231.118 93.2556 231.128C93.3208 231.139 93.3877 231.135 93.4514 231.118C96.2399 230.346 99.1177 229.288 102.003 227.972C102.059 227.948 102.11 227.913 102.152 227.869C102.195 227.825 102.228 227.773 102.25 227.717C102.272 227.66 102.282 227.599 102.28 227.538C102.279 227.478 102.265 227.418 102.239 227.362C102.214 227.307 102.178 227.257 102.133 227.216C102.088 227.175 102.036 227.143 101.979 227.122C101.921 227.102 101.86 227.093 101.8 227.096C101.739 227.099 101.679 227.114 101.624 227.141C98.7818 228.437 95.9499 229.479 93.2078 230.238C93.1032 230.267 93.0123 230.332 92.9515 230.422C92.8907 230.512 92.8639 230.62 92.8759 230.728ZM106.104 225.211C106.112 225.285 106.139 225.357 106.182 225.419C106.224 225.481 106.282 225.531 106.349 225.566C106.415 225.6 106.49 225.617 106.565 225.616C106.64 225.615 106.714 225.595 106.78 225.559C108.659 224.516 110.487 223.385 112.258 222.168C112.308 222.134 112.35 222.09 112.382 222.04C112.415 221.99 112.437 221.933 112.448 221.874C112.459 221.815 112.458 221.755 112.446 221.696C112.433 221.638 112.409 221.582 112.375 221.533C112.341 221.483 112.297 221.441 112.247 221.409C112.197 221.376 112.14 221.354 112.081 221.343C112.022 221.332 111.962 221.333 111.903 221.345C111.845 221.358 111.789 221.382 111.74 221.416C109.993 222.617 108.19 223.733 106.336 224.761C106.258 224.804 106.193 224.87 106.152 224.95C106.111 225.031 106.094 225.121 106.104 225.211Z" fill="#5C0B86"/>
<path d="M129.607 204.533C129.745 207.969 127.108 213.091 125.702 214.517C122.93 217.329 120.544 210.664 122.783 207.937C125.021 205.209 127.988 200.542 127.163 197.245C127.063 196.82 126.91 196.41 126.706 196.024C127.697 197.635 129.435 200.225 129.607 204.533Z" fill="url(#paint7_linear_3004_74301)"/>
<path d="M121.485 211.653C121.64 213.045 122.188 214.361 122.992 215.084C123.919 215.918 125.054 215.826 126.028 214.838C127.53 213.314 130.205 208.032 130.064 204.515C129.894 200.307 128.241 197.636 127.253 196.039L127.096 195.785C127.034 195.685 126.936 195.612 126.821 195.582C126.707 195.553 126.586 195.568 126.483 195.626C126.38 195.684 126.303 195.78 126.269 195.893C126.235 196.006 126.246 196.128 126.3 196.233C126.487 196.588 126.628 196.965 126.719 197.356C127.431 200.219 124.973 204.549 122.43 207.648C121.586 208.675 121.323 210.205 121.485 211.653ZM129.151 204.552C129.28 207.781 126.745 212.809 125.377 214.197C124.743 214.84 124.163 214.908 123.603 214.405C122.406 213.328 121.734 209.935 123.136 208.226C124.266 206.849 127.558 202.531 127.751 198.79C128.441 200.242 129.053 202.108 129.151 204.552Z" fill="#5C0B86"/>
<path d="M120.063 208.241C122.301 205.514 125.268 200.847 124.443 197.549C123.84 195.142 121.794 193.489 119.672 193.041C119.511 192.976 120.075 192.757 120.075 192.757C122.801 192.062 126.338 193.948 127.163 197.245C127.988 200.543 125.021 205.21 122.783 207.937C120.882 210.253 122.316 215.41 124.489 215.189C123.608 215.287 122.157 215.453 121.772 215.493C119.597 215.718 118.161 210.558 120.063 208.241Z" fill="url(#paint8_linear_3004_74301)"/>
<path d="M118.772 211.949C118.871 212.83 119.123 213.674 119.487 214.351C120.082 215.457 120.932 216.039 121.82 215.947C122.079 215.92 122.817 215.837 123.541 215.755L124.541 215.643C124.661 215.63 124.771 215.569 124.846 215.475C124.922 215.381 124.957 215.261 124.945 215.141L124.944 215.138C124.931 215.019 124.871 214.909 124.777 214.834C124.684 214.758 124.564 214.723 124.445 214.735C123.733 214.807 123.204 213.973 123.01 213.611C122.188 212.085 122.045 209.556 123.137 208.227C124.439 206.64 128.611 201.147 127.606 197.135C127.187 195.46 126.102 194.028 124.551 193.103C123.089 192.232 121.417 191.944 119.962 192.315C119.464 192.505 119.188 192.679 119.186 193.008C119.191 193.106 119.223 193.2 119.279 193.281C119.335 193.362 119.412 193.426 119.501 193.465C119.526 193.475 119.551 193.483 119.577 193.489C121.353 193.863 123.409 195.299 124 197.66C124.711 200.523 122.254 204.853 119.71 207.952C118.862 208.985 118.612 210.513 118.772 211.949ZM122.824 214.917C122.334 214.972 121.909 215.019 121.726 215.038C121.014 215.112 120.486 214.279 120.291 213.918C119.469 212.391 119.323 209.861 120.417 208.53C121.719 206.943 125.895 201.453 124.887 197.438C124.402 195.502 123.013 193.895 121.189 193.063C122.131 193.051 123.152 193.332 124.083 193.887C125.423 194.686 126.36 195.918 126.72 197.356C127.433 200.218 124.973 204.548 122.43 207.647C121.064 209.312 121.249 212.263 122.204 214.042C122.371 214.36 122.579 214.654 122.824 214.917Z" fill="#5C0B86"/>
<path d="M90.3264 197.384C104.294 189.628 118.304 188.174 121.618 194.138C124.931 200.101 116.295 211.224 102.327 218.981C88.3592 226.738 74.3497 228.191 71.0358 222.228C67.7219 216.264 76.3586 205.141 90.3264 197.384Z" fill="#5C0B86"/>
<path d="M118.655 187.943C115.591 181.847 101.331 183.433 87.3634 191.191C73.3958 198.948 65.0601 209.913 68.073 216.034C73.4501 226.958 86.533 223.566 100.501 215.809C114.468 208.052 123.603 197.789 118.655 187.943Z" fill="#5C0B86"/>
<path d="M74.9604 209.448C74.9948 209.756 75.0846 210.044 75.2321 210.311C76.1135 211.897 78.7665 212.238 82.9052 211.298C86.8096 210.41 91.5704 208.472 96.3093 205.84C105.16 200.925 113.169 193.774 111.243 190.312C110.362 188.726 107.708 188.385 103.57 189.325C99.6656 190.213 94.9048 192.151 90.1653 194.783C81.9973 199.32 74.5483 205.762 74.9604 209.448ZM110.611 191.299C110.905 193.926 105.432 199.73 95.866 205.043C91.2003 207.634 86.5254 209.539 82.7029 210.408C79.16 211.213 76.6659 211.011 76.0314 209.869C74.7575 207.583 80.3168 201.298 90.6096 195.583C95.2758 192.991 99.9501 191.086 103.773 190.217C107.316 189.413 109.81 189.614 110.444 190.757C110.535 190.925 110.592 191.109 110.611 191.299Z" fill="url(#paint9_linear_3004_74301)"/>
<path d="M35.5456 173.922C36.6938 156.731 46.4542 143.384 57.346 144.11C68.2377 144.836 76.1364 159.361 74.9882 176.552C73.84 193.743 64.0797 207.09 53.1879 206.364C42.2961 205.638 34.3974 191.113 35.5456 173.922Z" fill="#5C0B86"/>
<path d="M28.7419 173.468C29.8901 156.277 39.6505 142.93 50.5423 143.656C61.434 144.382 69.3327 158.907 68.1845 176.098C67.0363 193.288 57.2759 206.636 46.3842 205.91C35.4924 205.184 27.5937 190.659 28.7419 173.468Z" fill="url(#paint10_linear_3004_74301)"/>
<path d="M28.465 182.038C29.9665 195.472 37.1191 205.75 46.3526 206.365C57.478 207.106 67.4756 193.542 68.6392 176.128C69.798 158.713 61.6964 143.942 50.571 143.2C45.1414 142.838 39.8309 145.812 35.6177 151.574C31.4496 157.274 28.8452 165.039 28.2845 173.438C28.0902 176.305 28.1506 179.183 28.465 182.038ZM67.5507 167.583C67.8614 170.4 67.9207 173.239 67.728 176.067C66.5976 192.979 57.0366 206.162 46.4138 205.454C35.7904 204.746 28.0649 190.412 29.1964 173.499C29.7455 165.269 32.2886 157.674 36.3557 152.112C40.377 146.613 45.4044 143.771 50.5105 144.112C59.2971 144.697 66.1001 154.606 67.5507 167.583Z" fill="#5C0B86"/>
<path d="M44.4765 142.074C54.9931 142.775 62.719 156.34 62.2059 172.749L68.2489 174.343C68.1004 176.563 66.4401 178.579 63.9778 177.838C61.7761 177.177 60.211 175.11 60.2466 172.968C60.4804 156.932 52.8381 143.809 42.4981 143.119C40.3229 142.974 38.1935 143.392 36.1683 144.288C38.7639 142.684 41.5802 141.882 44.4765 142.074Z" fill="url(#paint11_linear_3004_74301)"/>
<path d="M35.7149 144.34C35.7229 144.412 35.7476 144.48 35.7869 144.54C35.8263 144.6 35.8792 144.65 35.9415 144.686C36.0037 144.721 36.0735 144.742 36.1452 144.746C36.2169 144.749 36.2884 144.736 36.354 144.707C38.3592 143.819 40.4157 143.439 42.4686 143.576C52.4116 144.239 60.0187 157.147 59.7904 172.962C59.7545 175.321 61.4576 177.559 63.8469 178.277C64.9611 178.612 66.0144 178.468 66.8932 177.859C67.93 177.14 68.6081 175.838 68.7057 174.376C68.7121 174.27 68.6818 174.165 68.62 174.079C68.5581 173.993 68.4684 173.931 68.3661 173.904L62.6729 172.401C63.0731 155.815 55.1347 142.328 44.5082 141.62C41.5791 141.424 38.6928 142.192 35.9287 143.901C35.855 143.947 35.7958 144.012 35.7579 144.09C35.7201 144.168 35.7051 144.254 35.7149 144.34ZM60.4202 167.038C58.9126 153.551 51.6572 143.273 42.5285 142.665C42.2877 142.649 42.0483 142.639 41.8077 142.636C42.6809 142.507 43.5655 142.471 44.4463 142.53C54.6573 143.211 62.2549 156.478 61.7494 172.735C61.7462 172.838 61.7781 172.94 61.8398 173.022C61.9016 173.105 61.9897 173.165 62.0896 173.191L67.753 174.685C67.5964 175.707 67.0855 176.614 66.3722 177.108C65.7307 177.552 64.9484 177.654 64.11 177.401C62.1043 176.799 60.6687 174.937 60.7038 172.975C60.7329 170.944 60.6348 168.959 60.4202 167.038Z" fill="#5C0B86"/>
<path d="M70.2302 173.77C70.2336 173.887 70.2317 174.005 70.2244 174.123C70.0759 176.343 68.4156 178.359 65.9526 177.618C63.751 176.956 62.2144 174.898 62.2495 172.756L62.2058 172.749C62.7195 156.341 54.993 142.776 44.4764 142.075L44.679 142.088L52.519 142.611C63.1393 143.318 70.9122 157.145 70.2302 173.77Z" fill="url(#paint12_linear_3004_74301)"/>
<path d="M44.0227 142.125C44.0347 142.232 44.0837 142.33 44.161 142.404C44.2384 142.478 44.3392 142.522 44.446 142.53L44.4695 142.531C54.6691 143.231 62.256 156.49 61.749 172.735C61.7467 172.807 61.7619 172.88 61.7935 172.946C61.8444 175.232 63.5139 177.361 65.8203 178.055C66.9351 178.39 67.9883 178.246 68.8671 177.637C69.904 176.919 70.5821 175.616 70.6796 174.154C70.6881 174.027 70.6893 173.9 70.6869 173.774C71.3794 156.767 63.4151 142.879 52.5497 142.154L44.5263 141.619L44.5078 141.618C44.441 141.614 44.374 141.624 44.3116 141.648C44.2491 141.672 44.1928 141.71 44.1465 141.758C44.1002 141.807 44.0651 141.865 44.0437 141.928C44.0223 141.992 44.0152 142.059 44.0227 142.125ZM62.3947 165.9C61.1601 154.855 56.1159 146.021 49.2743 142.852L52.4886 143.066C62.8588 143.757 70.4508 157.237 69.773 173.751L69.7724 173.778C69.7741 173.882 69.7748 173.986 69.7675 174.091C69.6894 175.262 69.1448 176.333 68.3462 176.886C67.7047 177.331 66.9224 177.433 66.0841 177.18C64.0936 176.582 62.6727 174.726 62.7064 172.763C62.7073 172.697 62.6942 172.632 62.6679 172.572C62.731 170.344 62.6398 168.115 62.3947 165.9Z" fill="#5C0B86"/>
<path d="M20.6994 172.932C21.8476 155.741 31.608 142.394 42.4998 143.12C53.3915 143.846 61.2903 158.371 60.142 175.561C58.9938 192.752 49.2335 206.1 38.3417 205.373C27.4499 204.647 19.5512 190.123 20.6994 172.932Z" fill="url(#paint13_linear_3004_74301)"/>
<path d="M20.4224 181.503C21.9239 194.936 29.0764 205.214 38.31 205.829C43.7396 206.191 49.0501 203.217 53.2633 197.455C57.4314 191.755 60.0358 183.991 60.5965 175.591C61.7558 158.176 53.6543 143.405 42.5283 142.663C37.0987 142.302 31.7882 145.275 27.575 151.037C23.4069 156.737 20.8025 164.502 20.2418 172.902C20.0472 175.768 20.1077 178.647 20.4224 181.503ZM59.5073 167.047C59.8181 169.864 59.8774 172.703 59.6846 175.531C59.1355 183.76 56.5924 191.355 52.5254 196.917C48.5041 202.416 43.4767 205.259 38.3705 204.918C27.7477 204.21 20.0234 189.875 21.1531 172.962C21.7022 164.733 24.2453 157.138 28.3124 151.576C32.3337 146.076 37.361 143.234 42.4672 143.575C51.2537 144.161 58.0568 154.069 59.5073 167.047Z" fill="#5C0B86"/>
<path d="M18.6379 172.795C19.7861 155.604 29.5465 142.257 40.4382 142.983C51.33 143.709 59.2287 158.234 58.0805 175.425C56.9323 192.616 47.1719 205.963 36.2802 205.237C25.3884 204.511 17.4897 189.986 18.6379 172.795Z" fill="url(#paint14_linear_3004_74301)"/>
<path d="M18.3606 181.366C19.8621 194.799 27.0146 205.077 36.2482 205.692C41.6778 206.054 46.9883 203.08 51.2009 197.318C55.369 191.618 57.9734 183.854 58.5341 175.454C59.0961 167.054 57.5471 159.013 54.1739 152.81C50.7645 146.541 45.8967 142.888 40.4671 142.526C29.3412 141.785 19.3435 155.349 18.1805 172.764C17.9856 175.631 18.0458 178.509 18.3606 181.366ZM57.4463 166.872C57.754 169.625 57.817 172.487 57.6223 175.394C57.0731 183.623 54.5301 191.219 50.4636 196.78C46.4417 202.28 41.4149 205.122 36.3088 204.781C25.686 204.073 17.9586 189.738 19.0913 172.826C20.2206 155.915 29.7829 142.732 40.4054 143.438C45.5115 143.778 50.1159 147.262 53.3703 153.247C55.4998 157.162 56.8831 161.834 57.4463 166.872Z" fill="#5C0B86"/>
<path d="M21.7502 173.003C22.7161 158.542 31.1201 147.327 40.5211 147.954C49.9221 148.581 56.7601 160.811 55.7943 175.272C54.8284 189.733 46.4244 200.947 37.0234 200.321C27.6224 199.694 20.7843 187.463 21.7502 173.003Z" fill="#5C0B86"/>
<path d="M27.8693 151.167L38.6919 174.695L54.2935 156.599L53.8323 156.201L38.8497 173.579L28.4224 150.912L27.8693 151.167Z" fill="url(#paint15_linear_3004_74301)"/>
<path d="M38.4876 174.249L47.7088 197.738L48.2748 197.516L40.358 177.347L50.3069 193.783L50.8287 193.467L39.0311 173.98L38.4876 174.249Z" fill="url(#paint16_linear_3004_74301)"/>
<path d="M31.4215 201.026L38.7703 174.137L33.7728 201.382L31.4215 201.026Z" fill="url(#paint17_linear_3004_74301)"/>
<path d="M31.0377 201.276L34.0187 201.728L39.0701 174.192L38.4771 174.057L31.0377 201.276ZM33.5261 201.038L31.8049 200.777L37.1845 181.095L33.5261 201.038ZM63.592 97.292C63.5982 97.3457 63.6185 97.3969 63.651 97.4401C63.6835 97.4834 63.7268 97.5173 63.7767 97.5382C63.8266 97.5592 63.8811 97.5666 63.9348 97.5595C63.9884 97.5525 64.0392 97.5313 64.082 97.4982C67.712 94.6715 71.8235 92.7913 76.3033 91.9089C95.5603 88.1172 120.924 111.922 127.51 139.968C127.529 140.046 127.578 140.114 127.646 140.157C127.715 140.199 127.798 140.213 127.876 140.194C127.955 140.176 128.023 140.127 128.066 140.058C128.108 139.99 128.122 139.907 128.103 139.828C125.019 126.693 117.514 113.625 107.513 103.976C97.211 94.0361 85.7923 89.4204 76.1851 91.312C71.6118 92.2128 67.414 94.1326 63.7079 97.0187C63.6666 97.0504 63.6343 97.0922 63.6139 97.1401C63.5936 97.188 63.5861 97.2403 63.592 97.292Z" fill="url(#paint18_linear_3004_74301)"/>
</g>
<g clip-path="url(#clip2_3004_74301)">
<path d="M346.655 276.846L260.157 295.8C258.748 296.108 257.288 296.098 255.885 295.769C254.481 295.44 253.169 294.801 252.044 293.898L150.828 212.689C150.443 212.385 150.151 211.979 149.986 211.517C149.822 211.054 149.791 210.555 149.898 210.075C150.11 209.083 150.85 206.259 150.85 206.259L238.816 193.485C240.114 193.267 241.442 193.317 242.719 193.631C243.997 193.946 245.197 194.517 246.245 195.312L349.538 271.362C349.538 271.362 348.878 273.888 348.671 274.83C348.566 275.326 348.32 275.78 347.962 276.138C347.604 276.496 347.15 276.742 346.655 276.846Z" fill="#5C0B86"/>
<path d="M255.586 296.382C254.161 296.026 252.813 295.363 251.63 294.414L150.415 213.205C149.936 212.824 149.573 212.316 149.367 211.738C149.162 211.161 149.122 210.537 149.252 209.938C149.465 208.943 150.182 206.209 150.212 206.093C150.245 205.967 150.314 205.854 150.411 205.767C150.508 205.681 150.628 205.624 150.756 205.605L238.722 192.83C240.106 192.602 241.522 192.658 242.884 192.994C244.245 193.33 245.524 193.939 246.643 194.785L349.929 270.829C350.035 270.907 350.116 271.016 350.16 271.141C350.204 271.265 350.209 271.4 350.176 271.528C350.169 271.553 349.516 274.052 349.314 274.971C349.182 275.59 348.874 276.157 348.426 276.605C347.979 277.052 347.412 277.36 346.794 277.492L260.296 296.445C258.742 296.788 257.13 296.766 255.586 296.382ZM151.379 206.85C151.165 207.675 150.701 209.476 150.543 210.213C150.462 210.572 150.485 210.948 150.608 211.294C150.732 211.641 150.951 211.946 151.241 212.173L252.456 293.381C253.503 294.225 254.726 294.822 256.035 295.129C257.343 295.436 258.704 295.444 260.017 295.154L346.515 276.201C346.887 276.125 347.229 275.941 347.497 275.672C347.766 275.403 347.95 275.061 348.026 274.688C348.183 273.972 348.588 272.397 348.787 271.628L245.854 195.845C244.875 195.104 243.756 194.571 242.565 194.278C241.373 193.984 240.135 193.936 238.924 194.137L151.379 206.85Z" fill="#5C0B86"/>
<path d="M347.567 273.196L261.069 292.15C259.66 292.459 258.2 292.448 256.796 292.119C255.393 291.79 254.081 291.151 252.956 290.248L151.739 209.04C149.959 207.611 150.707 204.745 152.957 204.368L239.728 189.835C241.026 189.617 242.354 189.667 243.631 189.982C244.909 190.296 246.108 190.868 247.157 191.662L348.597 268.505C350.395 269.866 349.769 272.714 347.567 273.196Z" fill="#5C0B86"/>
<path d="M256.499 292.732C255.074 292.376 253.725 291.714 252.542 290.764L151.327 209.555C150.826 209.16 150.452 208.625 150.252 208.019C150.051 207.412 150.033 206.76 150.199 206.143C150.355 205.523 150.69 204.962 151.161 204.531C151.632 204.099 152.22 203.816 152.85 203.715L239.62 189.183C241.007 188.953 242.425 189.008 243.789 189.343C245.153 189.679 246.434 190.288 247.556 191.135L348.996 267.977C350.035 268.765 350.507 270.046 350.227 271.322C349.946 272.597 348.981 273.563 347.708 273.842L261.21 292.795C259.655 293.138 258.043 293.117 256.499 292.732ZM243.505 190.635C242.315 190.337 241.064 190.281 239.837 190.487L153.066 205.019C152.687 205.077 152.333 205.246 152.05 205.505C151.766 205.765 151.566 206.103 151.475 206.476C151.373 206.846 151.382 207.239 151.503 207.603C151.624 207.968 151.85 208.288 152.153 208.523L253.368 289.732C254.415 290.576 255.638 291.173 256.946 291.479C258.255 291.786 259.616 291.795 260.929 291.504L347.426 272.551C347.799 272.475 348.14 272.291 348.409 272.022C348.678 271.753 348.862 271.411 348.939 271.038C349.026 270.668 349.002 270.28 348.871 269.923C348.74 269.566 348.507 269.256 348.201 269.031L246.759 192.189C245.79 191.457 244.684 190.928 243.505 190.635Z" fill="#5C0B86"/>
<path d="M336.108 266.008L256.287 283.404C254.878 283.711 253.418 283.699 252.015 283.369C250.612 283.038 249.3 282.398 248.176 281.494L158.316 209.237C157.131 208.284 157.631 206.375 159.13 206.124L239.088 192.732C240.385 192.515 241.712 192.565 242.989 192.879C244.265 193.192 245.464 193.763 246.513 194.557L336.797 262.878C337.997 263.786 337.578 265.686 336.108 266.008Z" fill="#86D1FD"/>
<path d="M256.499 292.732C255.074 292.376 253.725 291.714 252.542 290.764L151.327 209.555C151.259 209.501 151.203 209.434 151.161 209.358C151.12 209.282 151.093 209.198 151.084 209.112C151.074 209.026 151.082 208.938 151.106 208.855C151.13 208.772 151.17 208.694 151.225 208.626C151.279 208.558 151.346 208.502 151.422 208.46C151.498 208.418 151.581 208.391 151.667 208.382C151.754 208.372 151.841 208.38 151.924 208.404C152.007 208.428 152.085 208.468 152.153 208.523L253.368 289.732C254.415 290.575 255.638 291.172 256.946 291.479C258.255 291.785 259.616 291.794 260.929 291.503L347.426 272.55C347.597 272.514 347.775 272.547 347.921 272.641C348.067 272.736 348.17 272.885 348.207 273.055C348.244 273.226 348.213 273.404 348.119 273.551C348.025 273.699 347.878 273.803 347.708 273.841L261.21 292.795C259.655 293.139 258.043 293.117 256.499 292.732Z" fill="url(#paint19_linear_3004_74301)"/>
</g>
<g clip-path="url(#clip3_3004_74301)">
<path d="M36.0432 278.08C35.9213 278.08 35.7995 278.019 35.7386 277.959L30.4998 272.724C30.317 272.541 30.317 272.237 30.4998 272.054C30.6825 271.872 30.9871 271.872 31.1699 272.054L36.4086 277.289C36.5914 277.472 36.5914 277.776 36.4086 277.959C36.2259 278.019 36.165 278.08 36.0432 278.08ZM38.1752 276.802C38.1143 276.802 38.0534 276.802 37.9925 276.741C36.6523 276.011 35.434 275.037 34.4593 273.88C34.2766 273.698 34.3375 273.393 34.5203 273.211C34.703 273.028 35.0076 273.089 35.1903 273.272C36.1041 274.367 37.2615 275.219 38.4798 275.889C38.7235 276.011 38.7844 276.254 38.6625 276.498C38.5407 276.741 38.358 276.802 38.1752 276.802ZM125.529 341.993H125.407L119.376 340.715C119.133 340.654 118.95 340.411 119.011 340.167C119.072 339.924 119.315 339.741 119.559 339.802L125.59 341.08C125.833 341.141 126.016 341.385 125.955 341.628C125.894 341.811 125.712 341.993 125.529 341.993ZM106.218 350.637C106.097 350.637 106.036 350.637 105.975 350.576L94.8881 342.602C94.7053 342.48 94.6444 342.176 94.7662 341.993C94.8881 341.811 95.1926 341.75 95.3754 341.872L106.462 349.846C106.645 349.967 106.706 350.272 106.584 350.454C106.462 350.576 106.34 350.637 106.218 350.637ZM155.804 315.759H155.682L144.474 311.985C144.23 311.924 144.108 311.62 144.169 311.376C144.23 311.133 144.535 311.011 144.717 311.072L155.926 314.846C156.17 314.906 156.291 315.211 156.231 315.454C156.17 315.698 155.987 315.759 155.804 315.759ZM215.441 264.202H215.319C215.075 264.141 214.954 263.837 215.015 263.593L217.329 256.898C217.39 256.654 217.695 256.533 217.939 256.593C218.182 256.654 218.304 256.959 218.243 257.202L215.928 263.898C215.806 264.08 215.624 264.202 215.441 264.202ZM220.131 264.811C220.071 264.811 220.01 264.811 219.949 264.75C219.705 264.628 219.583 264.385 219.705 264.141L220.314 262.619C220.436 262.376 220.68 262.254 220.923 262.376C221.167 262.498 221.289 262.741 221.167 262.985L220.558 264.506C220.436 264.689 220.314 264.811 220.131 264.811ZM152.88 166.019C152.697 166.019 152.576 165.898 152.454 165.776C150.992 162.793 148.738 160.176 145.997 158.35C145.814 158.228 145.753 157.924 145.875 157.741C145.997 157.558 146.301 157.498 146.484 157.619C149.408 159.567 151.723 162.245 153.246 165.411C153.367 165.654 153.246 165.898 153.063 166.019H152.88ZM154.829 161.819C154.647 161.819 154.464 161.698 154.403 161.576L153.185 158.837C153.063 158.593 153.185 158.35 153.428 158.228C153.672 158.106 153.916 158.228 154.038 158.472L155.256 161.211C155.378 161.454 155.256 161.698 155.012 161.819C154.951 161.758 154.89 161.819 154.829 161.819ZM222.324 84.8802C222.081 84.8802 221.898 84.6975 221.898 84.4541L221.289 79.2193C221.289 78.9758 221.411 78.7323 221.715 78.7323C221.959 78.7323 222.203 78.8541 222.203 79.1584L222.812 84.3932C222.812 84.6367 222.629 84.8802 222.324 84.8802ZM225.309 86.4628C225.066 86.4628 224.822 86.2802 224.822 85.9758V81.3497C224.822 81.1062 225.005 80.8628 225.309 80.8628C225.614 80.8628 225.797 81.0454 225.797 81.3497V85.9758C225.797 86.2193 225.614 86.4628 225.309 86.4628ZM158.728 45.741C158.606 45.741 158.484 45.6801 158.424 45.6193C158.241 45.4366 158.241 45.1323 158.424 44.9497C161.408 41.8453 165.368 39.7758 169.632 39.1671C169.876 39.1062 170.119 39.2888 170.119 39.5323C170.18 39.7758 169.998 40.0192 169.754 40.0192C165.733 40.6279 161.896 42.5758 159.094 45.4975C158.972 45.6801 158.85 45.741 158.728 45.741ZM14.2352 173.202C13.9915 173.202 13.8088 173.019 13.8088 172.776C13.5042 167.967 14.357 163.098 16.3063 158.715C16.4282 158.472 16.6718 158.35 16.9155 158.472C17.1592 158.593 17.2201 158.837 17.1592 159.08C15.2708 163.341 14.4179 168.028 14.7834 172.715C14.6616 172.958 14.4789 173.141 14.2352 173.202ZM16.6718 187.628C16.4891 187.628 16.3673 187.567 16.3063 187.385C15.088 185.498 14.4179 183.245 14.357 180.993C14.357 180.75 14.5398 180.506 14.7834 180.506C15.0271 180.506 15.2708 180.689 15.2708 180.932C15.3317 183.002 15.9409 185.072 17.0983 186.837C17.2201 187.08 17.1592 187.324 16.9764 187.445C16.8546 187.628 16.7328 187.628 16.6718 187.628Z" fill="#5C0B86"/>
<path d="M96.0454 108.741C95.9235 108.741 95.8626 108.68 95.8017 108.558C95.0098 107.098 94.3397 105.515 93.9133 103.872C93.8524 103.689 93.9742 103.567 94.157 103.506C94.3397 103.445 94.4616 103.567 94.5225 103.75C94.9489 105.332 95.558 106.854 96.3499 108.315C96.4109 108.437 96.35 108.619 96.2281 108.741H96.0454ZM100.066 111.541C99.944 111.541 99.8222 111.48 99.7613 111.358C99.2739 110.019 98.9693 108.68 98.8475 107.28C98.8475 107.098 98.9693 106.976 99.0912 106.976C99.2739 106.976 99.3958 107.098 99.3958 107.219C99.5176 108.558 99.8222 109.898 100.309 111.115C100.37 111.298 100.309 111.419 100.127 111.48C100.127 111.48 100.127 111.541 100.066 111.541Z" fill="url(#paint20_linear_3004_74301)"/>
<path d="M237.919 59.984H237.797C237.554 59.9231 237.432 59.6796 237.493 59.4361L238.528 55.784C238.589 55.5405 238.833 55.4188 239.077 55.4796C239.32 55.5405 239.442 55.784 239.381 56.0275L238.346 59.6796C238.285 59.8622 238.102 59.984 237.919 59.984ZM138.87 96.5666C138.748 96.5666 138.626 96.5058 138.504 96.384C137.53 95.1666 136.799 93.7057 136.494 92.184C136.433 91.9405 136.616 91.697 136.86 91.6362C137.103 91.5753 137.347 91.7579 137.408 92.0014C137.712 93.4014 138.322 94.6797 139.235 95.7753C139.418 95.9579 139.357 96.2623 139.174 96.4449C139.053 96.5666 138.992 96.5666 138.87 96.5666ZM136.068 99.9753C135.885 99.9753 135.702 99.8536 135.641 99.671L134.728 97.1753C134.667 96.9318 134.788 96.6884 135.032 96.5666C135.276 96.5058 135.519 96.6275 135.641 96.871L136.555 99.3666C136.616 99.6101 136.494 99.8536 136.25 99.9753H136.068ZM132.961 109.593H132.839L130.402 108.984C130.159 108.923 130.037 108.68 130.098 108.436C130.159 108.193 130.402 108.071 130.646 108.132L133.083 108.741C133.326 108.801 133.448 109.045 133.387 109.288C133.387 109.41 133.205 109.593 132.961 109.593ZM176.699 161.819H176.577C176.333 161.758 176.211 161.515 176.272 161.271C176.821 159.323 177.673 157.558 178.77 155.915C178.892 155.732 179.196 155.671 179.379 155.793C179.562 155.915 179.623 156.219 179.501 156.401C178.404 157.984 177.612 159.688 177.125 161.515C177.125 161.636 176.942 161.819 176.699 161.819ZM189.186 146.358C188.76 146.358 188.334 146.297 187.907 146.236C187.664 146.175 187.481 145.932 187.542 145.688C187.603 145.445 187.846 145.262 188.09 145.323C189.552 145.628 191.136 145.262 192.293 144.349C192.476 144.167 192.781 144.228 192.963 144.41C193.146 144.593 193.085 144.897 192.902 145.08C191.928 145.871 190.588 146.358 189.186 146.358ZM125.895 253.428C125.651 253.428 125.407 253.245 125.407 252.941V248.01C125.407 247.767 125.59 247.523 125.895 247.523C126.199 247.523 126.382 247.706 126.382 248.01V252.941C126.382 253.245 126.199 253.428 125.895 253.428ZM120.351 250.08C120.169 250.08 119.986 249.958 119.925 249.775L119.011 247.645C118.889 247.402 119.011 247.158 119.255 247.036C119.499 246.915 119.742 247.036 119.864 247.28L120.778 249.41C120.9 249.654 120.778 249.897 120.534 250.019C120.473 250.08 120.412 250.08 120.351 250.08ZM129.245 246.671C128.94 246.61 128.758 246.428 128.819 246.184C129.123 243.993 129.55 241.802 130.159 239.671C130.22 239.428 130.463 239.306 130.707 239.367C130.951 239.428 131.073 239.671 131.012 239.915C130.402 241.984 129.976 244.115 129.671 246.245C129.671 246.489 129.489 246.671 129.245 246.671ZM155.926 319.106L151.419 318.923C151.175 318.923 150.992 318.68 150.992 318.436C150.992 318.193 151.236 318.01 151.479 318.01L155.926 318.193C156.17 318.193 156.353 318.436 156.353 318.68C156.353 318.923 156.17 319.106 155.926 319.106Z" fill="#5C0B86"/>
</g>
<defs>
<linearGradient id="paint0_linear_3004_74301" x1="195.486" y1="36.4956" x2="143.616" y2="147.317" gradientUnits="userSpaceOnUse">
<stop stop-color="#C985FE"/>
<stop offset="1" stop-color="#999DFF"/>
</linearGradient>
<linearGradient id="paint1_linear_3004_74301" x1="175.727" y1="64.7614" x2="166.557" y2="80.4314" gradientUnits="userSpaceOnUse">
<stop stop-color="#C985FE"/>
<stop offset="1" stop-color="#999DFF"/>
</linearGradient>
<linearGradient id="paint2_linear_3004_74301" x1="128.707" y1="209.04" x2="84.5827" y2="218.468" gradientUnits="userSpaceOnUse">
<stop stop-color="#C985FE"/>
<stop offset="1" stop-color="#999DFF"/>
</linearGradient>
<linearGradient id="paint3_linear_3004_74301" x1="78.7922" y1="104.69" x2="39.4665" y2="111.278" gradientUnits="userSpaceOnUse">
<stop stop-color="#C985FE"/>
<stop offset="1" stop-color="#999DFF"/>
</linearGradient>
<linearGradient id="paint4_linear_3004_74301" x1="50.0617" y1="128.231" x2="34.9811" y2="131.049" gradientUnits="userSpaceOnUse">
<stop stop-color="#C985FE"/>
<stop offset="1" stop-color="#999DFF"/>
</linearGradient>
<linearGradient id="paint5_linear_3004_74301" x1="51.8729" y1="136.809" x2="35.4743" y2="139.931" gradientUnits="userSpaceOnUse">
<stop stop-color="#C985FE"/>
<stop offset="1" stop-color="#999DFF"/>
</linearGradient>
<linearGradient id="paint6_linear_3004_74301" x1="114.382" y1="215.324" x2="104.329" y2="198.195" gradientUnits="userSpaceOnUse">
<stop stop-color="#C985FE"/>
<stop offset="1" stop-color="#999DFF"/>
</linearGradient>
<linearGradient id="paint7_linear_3004_74301" x1="129.303" y1="201.43" x2="122.714" y2="202.333" gradientUnits="userSpaceOnUse">
<stop stop-color="#C985FE"/>
<stop offset="1" stop-color="#999DFF"/>
</linearGradient>
<linearGradient id="paint8_linear_3004_74301" x1="127.379" y1="198.815" x2="119.918" y2="199.824" gradientUnits="userSpaceOnUse">
<stop stop-color="#C985FE"/>
<stop offset="1" stop-color="#999DFF"/>
</linearGradient>
<linearGradient id="paint9_linear_3004_74301" x1="111.86" y1="194.259" x2="82.5238" y2="200.741" gradientUnits="userSpaceOnUse">
<stop stop-color="#C985FE"/>
<stop offset="1" stop-color="#999DFF"/>
</linearGradient>
<linearGradient id="paint10_linear_3004_74301" x1="69.0114" y1="163.718" x2="37.9092" y2="162.729" gradientUnits="userSpaceOnUse">
<stop stop-color="#C985FE"/>
<stop offset="1" stop-color="#999DFF"/>
</linearGradient>
<linearGradient id="paint11_linear_3004_74301" x1="65.6486" y1="151.08" x2="43.4455" y2="154.492" gradientUnits="userSpaceOnUse">
<stop stop-color="#C985FE"/>
<stop offset="1" stop-color="#999DFF"/>
</linearGradient>
<linearGradient id="paint12_linear_3004_74301" x1="68.2438" y1="150.931" x2="50.6081" y2="153.491" gradientUnits="userSpaceOnUse">
<stop stop-color="#C985FE"/>
<stop offset="1" stop-color="#999DFF"/>
</linearGradient>
<linearGradient id="paint13_linear_3004_74301" x1="60.9689" y1="163.182" x2="29.8667" y2="162.193" gradientUnits="userSpaceOnUse">
<stop stop-color="#C985FE"/>
<stop offset="1" stop-color="#999DFF"/>
</linearGradient>
<linearGradient id="paint14_linear_3004_74301" x1="58.9074" y1="163.045" x2="27.8052" y2="162.057" gradientUnits="userSpaceOnUse">
<stop stop-color="#C985FE"/>
<stop offset="1" stop-color="#999DFF"/>
</linearGradient>
<linearGradient id="paint15_linear_3004_74301" x1="54.1753" y1="155.541" x2="34.2839" y2="158.922" gradientUnits="userSpaceOnUse">
<stop stop-color="#C985FE"/>
<stop offset="1" stop-color="#999DFF"/>
</linearGradient>
<linearGradient id="paint16_linear_3004_74301" x1="49.354" y1="180.273" x2="41.4485" y2="181.339" gradientUnits="userSpaceOnUse">
<stop stop-color="#C985FE"/>
<stop offset="1" stop-color="#999DFF"/>
</linearGradient>
<linearGradient id="paint17_linear_3004_74301" x1="39.6575" y1="182.074" x2="31.6253" y2="183.146" gradientUnits="userSpaceOnUse">
<stop stop-color="#C985FE"/>
<stop offset="1" stop-color="#999DFF"/>
</linearGradient>
<linearGradient id="paint18_linear_3004_74301" x1="125.617" y1="117.566" x2="45.4849" y2="130.945" gradientUnits="userSpaceOnUse">
<stop stop-color="#C985FE"/>
<stop offset="1" stop-color="#999DFF"/>
</linearGradient>
<linearGradient id="paint19_linear_3004_74301" x1="291.51" y1="243.281" x2="280.082" y2="286.257" gradientUnits="userSpaceOnUse">
<stop stop-color="#C985FE"/>
<stop offset="1" stop-color="#999DFF"/>
</linearGradient>
<linearGradient id="paint20_linear_3004_74301" x1="98.3945" y1="103.49" x2="97.9592" y2="109.802" gradientUnits="userSpaceOnUse">
<stop stop-color="#C985FE"/>
<stop offset="1" stop-color="#999DFF"/>
</linearGradient>
<clipPath id="clip0_3004_74301">
<rect width="93.6843" height="188.585" fill="white" transform="matrix(-0.855792 -0.517321 -0.517321 0.855792 266.806 42.3218)"/>
</clipPath>
<clipPath id="clip1_3004_74301">
<rect width="147.827" height="116.193" fill="white" transform="matrix(-0.111079 -0.993812 -0.993812 0.111079 140.772 230.575)"/>
</clipPath>
<clipPath id="clip2_3004_74301">
<rect width="209.877" height="100.984" fill="white" transform="translate(159.637 168.313) rotate(14.029)"/>
</clipPath>
<clipPath id="clip3_3004_74301">
<rect width="225.694" height="311.47" fill="white" transform="translate(13.687 39.1665)"/>
</clipPath>
</defs>
</svg>
