<svg width="104" height="58" viewBox="0 0 104 58" fill="none" xmlns="http://www.w3.org/2000/svg">
<g id="Group 1000001479">
<path id="Vector" d="M1.96301 0.0739746H2.69576V9.26402H8.47927V9.927H1.96301V0.0739746Z" fill="#FCFCFC" fill-opacity="0.6"/>
<path id="Vector_2" d="M14.4188 0H15.121L19.7094 9.92283H18.9068L17.6551 7.16625H11.841L10.5892 9.92283H9.83032L14.4188 0ZM17.3454 6.50327L14.7546 0.802548L12.1507 6.50327H17.3454Z" fill="#FCFCFC" fill-opacity="0.6"/>
<path id="Vector_3" d="M1.96301 15.8025H8.90233V16.4655H2.69576V20.5349H8.26992V21.1979H2.69576V25.6599H1.96301V15.8069V15.8025Z" fill="#FCFCFC" fill-opacity="0.6"/>
<path id="Vector_4" d="M11.1987 15.8018H15.3379C15.9485 15.8018 16.4893 15.889 16.956 16.0635C17.4271 16.2379 17.8109 16.4735 18.1119 16.7744C18.3474 17.0099 18.5306 17.2847 18.6614 17.5988C18.7923 17.9128 18.8577 18.2487 18.8577 18.6063V18.6325C18.8577 19.0468 18.7836 19.4132 18.6396 19.736C18.4957 20.0588 18.2907 20.3379 18.0333 20.5734C17.776 20.809 17.4707 20.9965 17.1174 21.1448C16.7641 21.2888 16.3847 21.3891 15.9703 21.4458L19.2197 25.6548H18.2907L15.1503 21.5723H11.9271V25.6548H11.1943V15.8018H11.1987ZM15.2507 20.9093C15.665 20.9093 16.0445 20.8569 16.3977 20.7523C16.751 20.6476 17.052 20.4993 17.305 20.3074C17.5579 20.1155 17.7586 19.8799 17.9025 19.6008C18.0464 19.3216 18.1206 19.0076 18.1206 18.6499V18.6238C18.1206 17.9564 17.8763 17.4287 17.3835 17.0405C16.8906 16.6566 16.1928 16.4604 15.2943 16.4604H11.9315V20.9093H15.255H15.2507Z" fill="#FCFCFC" fill-opacity="0.6"/>
<path id="Vector_5" d="M21.3761 15.802H28.3852V16.465H22.1088V20.3643H27.7528V21.0273H22.1088V24.9964H28.455V25.6594H21.3761V15.8064V15.802Z" fill="#FCFCFC" fill-opacity="0.6"/>
<path id="Vector_6" d="M30.8009 15.8025H31.49L38.2898 24.3732V15.8025H38.992V25.6555H38.4425L31.5031 16.9016V25.6555H30.8009V15.8025Z" fill="#FCFCFC" fill-opacity="0.6"/>
<path id="Vector_7" d="M46.3839 25.8244C45.6817 25.8244 45.0274 25.6935 44.4255 25.4318C43.8236 25.1701 43.3046 24.8125 42.8684 24.3545C42.4323 23.9009 42.0921 23.36 41.8478 22.745C41.6036 22.1257 41.4814 21.4627 41.4814 20.7605V20.7343C41.4814 20.0408 41.6036 19.3822 41.8566 18.7628C42.1052 18.1435 42.4497 17.6026 42.8859 17.1359C43.3221 16.6736 43.8411 16.3072 44.443 16.0368C45.0449 15.7707 45.6991 15.6355 46.4144 15.6355C46.855 15.6355 47.2519 15.6748 47.6095 15.7489C47.9672 15.823 48.2987 15.9321 48.604 16.0717C48.9093 16.2112 49.1972 16.377 49.4632 16.5733C49.7293 16.7652 49.991 16.9789 50.2439 17.2144L49.7249 17.7509C49.5112 17.5459 49.2844 17.354 49.0489 17.1752C48.8133 16.9963 48.5647 16.8437 48.2943 16.7172C48.0282 16.5907 47.736 16.4904 47.422 16.4162C47.1079 16.3421 46.7677 16.3028 46.4014 16.3028C45.8082 16.3028 45.263 16.4162 44.7527 16.6387C44.2467 16.8655 43.8062 17.1752 43.4355 17.5764C43.0647 17.9734 42.7725 18.4401 42.5631 18.9765C42.3538 19.513 42.2447 20.0888 42.2447 20.7081V20.7343C42.2447 21.3537 42.3538 21.9338 42.5675 22.4746C42.7812 23.0155 43.0778 23.4822 43.4485 23.8834C43.8193 24.2803 44.2554 24.5944 44.7658 24.8256C45.2717 25.0567 45.8213 25.1701 46.4144 25.1701C47.1254 25.1701 47.7447 25.0393 48.2725 24.7776C48.7959 24.5159 49.3106 24.1364 49.8078 23.6392L50.3006 24.119C50.0389 24.3719 49.7685 24.6031 49.4894 24.8168C49.2102 25.0262 48.918 25.2094 48.604 25.3577C48.2899 25.506 47.9497 25.6237 47.5833 25.711C47.217 25.7938 46.8201 25.8375 46.3883 25.8375L46.3839 25.8244Z" fill="#FCFCFC" fill-opacity="0.6"/>
<path id="Vector_8" d="M52.3098 15.8015H53.0426V20.3769H59.3495V15.8015H60.0822V25.6545H59.3495V21.0399H53.0426V25.6545H52.3098V15.8015Z" fill="#FCFCFC" fill-opacity="0.6"/>
<path id="Vector_9" d="M69.9548 16.465H66.5222V15.802H74.1245V16.465H70.6919V25.655H69.9592V16.465H69.9548Z" fill="#FCFCFC" fill-opacity="0.6"/>
<path id="Vector_10" d="M76.3507 15.8018H83.3598V16.4647H77.0835V20.3641H82.7274V21.027H77.0835V24.9962H83.4296V25.6591H76.3507V15.8061V15.8018Z" fill="#FCFCFC" fill-opacity="0.6"/>
<path id="Vector_11" d="M90.2394 25.8246C89.5371 25.8246 88.8829 25.6938 88.281 25.4321C87.6791 25.1704 87.1601 24.8127 86.7239 24.3547C86.2877 23.9011 85.9475 23.3603 85.7033 22.7453C85.459 22.1259 85.3369 21.4629 85.3369 20.7607V20.7345C85.3369 20.041 85.459 19.3824 85.712 18.7631C85.9606 18.1437 86.3052 17.6029 86.7413 17.1362C87.1775 16.6738 87.6965 16.3074 88.2984 16.037C88.9003 15.771 89.5546 15.6357 90.2699 15.6357C90.7104 15.6357 91.1073 15.675 91.465 15.7491C91.8226 15.8233 92.1541 15.9323 92.4594 16.0719C92.7647 16.2115 93.0526 16.3772 93.3187 16.5735C93.5847 16.7654 93.8464 16.9791 94.0994 17.2147L93.5804 17.7512C93.3666 17.5462 93.1398 17.3542 92.9043 17.1754C92.6688 16.9966 92.4202 16.8439 92.1498 16.7174C91.8837 16.5909 91.5915 16.4906 91.2774 16.4165C90.9634 16.3423 90.6232 16.3031 90.2568 16.3031C89.6636 16.3031 89.1184 16.4165 88.6081 16.6389C88.1022 16.8657 87.6616 17.1754 87.2909 17.5767C86.9202 17.9736 86.6279 18.4403 86.4186 18.9768C86.2092 19.5133 86.1002 20.089 86.1002 20.7084V20.7345C86.1002 21.3539 86.2092 21.934 86.423 22.4749C86.6367 23.0157 86.9332 23.4824 87.304 23.8837C87.6747 24.2806 88.1109 24.5946 88.6212 24.8258C89.1271 25.057 89.6767 25.1704 90.2699 25.1704C90.9808 25.1704 91.6002 25.0395 92.1279 24.7778C92.6513 24.5161 93.166 24.1367 93.6632 23.6394L94.1561 24.1192C93.8944 24.3722 93.624 24.6034 93.3448 24.8171C93.0657 25.0264 92.7735 25.2096 92.4594 25.3579C92.1454 25.5062 91.8052 25.624 91.4388 25.7112C91.0724 25.7941 90.6755 25.8377 90.2437 25.8377L90.2394 25.8246Z" fill="#FCFCFC" fill-opacity="0.6"/>
<path id="Vector_12" d="M96.1672 15.802H96.9V20.3774H103.207V15.802H103.94V25.655H103.207V21.0404H96.9V25.655H96.1672V15.802Z" fill="#FCFCFC" fill-opacity="0.6"/>
<path id="Vector_13" d="M1.37817 31.5346H6.03638C6.7953 31.5346 7.44081 31.6306 7.96421 31.8181C8.4876 32.0057 8.91504 32.2674 9.24652 32.6076C9.82662 33.1703 10.1188 33.9336 10.1188 34.9018V34.928C10.1188 35.687 9.93565 36.315 9.56928 36.8123C9.2029 37.3095 8.71003 37.689 8.09068 37.9507L10.4416 41.3833H7.28816L5.30363 38.3999H4.10852V41.3833H1.37817V31.5303V31.5346ZM5.90987 36.2627C6.38093 36.2627 6.7386 36.158 6.99157 35.9443C7.24455 35.7349 7.37103 35.4514 7.37103 35.0938V35.0676C7.37103 34.675 7.24017 34.3784 6.97848 34.1865C6.71678 33.9946 6.35477 33.8987 5.8968 33.8987H4.10852V36.2627H5.90987Z" fill="#FCFCFC" fill-opacity="0.6"/>
<path id="Vector_14" d="M11.4968 31.5349H19.4088V33.8553H14.188V35.347H18.9159V37.5017H14.188V39.0631H19.4786V41.3835H11.4968V31.5305V31.5349Z" fill="#FCFCFC" fill-opacity="0.6"/>
<path id="Vector_15" d="M20.8784 31.5344H23.4299L27.4906 36.7423V31.5344H30.1774V41.3875H27.7785L23.5608 35.9833V41.3875H20.874V31.5344H20.8784Z" fill="#FCFCFC" fill-opacity="0.6"/>
<path id="Vector_16" d="M31.9272 31.5344H34.4788L38.5394 36.7423V31.5344H41.2262V41.3875H38.8273L34.6096 35.9833V41.3875H31.9229V31.5344H31.9272Z" fill="#FCFCFC" fill-opacity="0.6"/>
<path id="Vector_17" d="M42.9725 31.5344H50.8845V33.8548H45.6637V35.3465H50.3916V37.5012H45.6637V39.0626H50.9543V41.3831H42.9725V31.53V31.5344Z" fill="#FCFCFC" fill-opacity="0.6"/>
<path id="Vector_18" d="M56.2336 41.5534C55.3526 41.5534 54.5151 41.4182 53.7213 41.1434C52.9275 40.8686 52.2253 40.4586 51.619 39.9134L53.1369 38.0946C54.1226 38.8841 55.1868 39.2766 56.3339 39.2766C56.7003 39.2766 56.9795 39.2199 57.1714 39.1022C57.3633 38.9844 57.4592 38.8186 57.4592 38.6049V38.5787C57.4592 38.4741 57.4374 38.3825 57.3895 38.304C57.3415 38.2255 57.2542 38.1469 57.1277 38.0728C57.0013 37.9986 56.8312 37.9245 56.6218 37.8547C56.4124 37.7849 56.1377 37.7108 55.7975 37.6366C55.2697 37.5145 54.7856 37.3793 54.332 37.2354C53.8827 37.0914 53.4902 36.9039 53.1587 36.6727C52.8272 36.4415 52.5611 36.158 52.3692 35.8178C52.1773 35.4776 52.0813 35.0502 52.0813 34.5442V34.518C52.0813 34.0601 52.1686 33.637 52.3431 33.2531C52.5175 32.8693 52.7705 32.5378 53.102 32.2543C53.4335 31.9752 53.8347 31.7571 54.3058 31.6001C54.7768 31.4474 55.3046 31.3689 55.8978 31.3689C56.7439 31.3689 57.4941 31.4779 58.1571 31.7004C58.82 31.9228 59.4176 32.25 59.9497 32.6861L58.5845 34.6183C58.1353 34.2999 57.673 34.0557 57.1975 33.8943C56.7221 33.7286 56.2641 33.6501 55.8236 33.6501C55.4965 33.6501 55.2479 33.7111 55.0865 33.8332C54.9251 33.9554 54.8423 34.1037 54.8423 34.2825V34.3087C54.8423 34.4221 54.8684 34.518 54.9208 34.6053C54.9731 34.6881 55.0603 34.7666 55.1868 34.8364C55.3133 34.9062 55.4878 34.976 55.7059 35.0458C55.9283 35.1156 56.2075 35.1897 56.5433 35.2639C57.1059 35.386 57.6163 35.5299 58.0699 35.6913C58.5235 35.8571 58.9116 36.0533 59.23 36.2889C59.5484 36.5244 59.7927 36.8079 59.9628 37.1394C60.1329 37.4709 60.2158 37.8678 60.2158 38.3258V38.3519C60.2158 38.8579 60.1198 39.3071 59.9279 39.6997C59.736 40.0923 59.4656 40.4281 59.1166 40.7029C58.7677 40.9777 58.3534 41.1914 57.8649 41.3353C57.3764 41.4793 56.8312 41.5534 56.2336 41.5534Z" fill="#FCFCFC" fill-opacity="0.6"/>
<path id="Vector_19" d="M5.24289 57.2868C4.36185 57.2868 3.52441 57.1516 2.7306 56.8768C1.93678 56.602 1.23456 56.192 0.628296 55.6468L2.14613 53.828C3.13186 54.6175 4.1961 55.01 5.3432 55.01C5.70958 55.01 5.98871 54.9533 6.18062 54.8356C6.37254 54.7178 6.46851 54.552 6.46851 54.3383V54.3121C6.46851 54.2075 6.44668 54.1159 6.39871 54.0374C6.35073 53.9589 6.26351 53.8803 6.13702 53.8062C6.01053 53.732 5.84041 53.6579 5.63106 53.5881C5.4217 53.5183 5.14694 53.4442 4.80673 53.37C4.27898 53.2479 3.79482 53.1127 3.34121 52.9688C2.89196 52.8248 2.49942 52.6373 2.16793 52.4061C1.83645 52.1749 1.57039 51.8914 1.37848 51.5512C1.18657 51.211 1.09063 50.7836 1.09063 50.2776V50.2514C1.09063 49.7935 1.17785 49.3704 1.35231 48.9865C1.52678 48.6027 1.77975 48.2712 2.11123 47.9877C2.44271 47.7086 2.84399 47.4905 3.31504 47.3335C3.78609 47.1808 4.31386 47.1023 4.90704 47.1023C5.75319 47.1023 6.50339 47.2113 7.16635 47.4338C7.82932 47.6562 8.42685 47.9834 8.95897 48.4195L7.59378 50.3517C7.14454 50.0333 6.68221 49.7891 6.20679 49.6277C5.73138 49.462 5.27342 49.3835 4.8329 49.3835C4.50578 49.3835 4.25717 49.4445 4.09579 49.5666C3.93441 49.6888 3.85154 49.8371 3.85154 50.0159V50.0421C3.85154 50.1555 3.8777 50.2514 3.93004 50.3387C3.98238 50.4215 4.06961 50.5 4.19609 50.5698C4.32258 50.6396 4.49705 50.7094 4.71513 50.7792C4.93757 50.849 5.21671 50.9231 5.55255 50.9973C6.1152 51.1194 6.62551 51.2633 7.07912 51.4247C7.53272 51.5905 7.92092 51.7867 8.23932 52.0223C8.55772 52.2578 8.80197 52.5413 8.97207 52.8728C9.14217 53.2043 9.22505 53.6012 9.22505 54.0592V54.0853C9.22505 54.5913 9.12908 55.0405 8.93717 55.4331C8.74526 55.8257 8.47484 56.1615 8.12592 56.4363C7.77699 56.7111 7.36263 56.9248 6.87413 57.0687C6.38563 57.2127 5.84043 57.2868 5.24289 57.2868Z" fill="#FCFCFC" fill-opacity="0.6"/>
<path id="Vector_20" d="M13.9555 47.1931H16.5856L20.7815 57.1159H17.8548L17.1352 55.3582H13.3362L12.634 57.1159H9.76404L13.9599 47.1931H13.9555ZM16.3501 53.2471L15.251 50.4469L14.1387 53.2471H16.3501Z" fill="#FCFCFC" fill-opacity="0.6"/>
<path id="Vector_21" d="M21.7996 47.2632H24.543V57.1162H21.7996V47.2632Z" fill="#FCFCFC" fill-opacity="0.6"/>
<path id="Vector_22" d="M26.3423 47.2632H28.8938L32.9545 52.471V47.2632H35.6412V57.1162H33.2423L29.0246 51.7121V57.1162H26.3379V47.2632H26.3423Z" fill="#FCFCFC" fill-opacity="0.6"/>
<path id="Vector_23" d="M39.7962 49.6575H36.839V47.2629H45.4793V49.6575H42.5222V57.116H39.7918V49.6575H39.7962Z" fill="#FCFCFC" fill-opacity="0.6"/>
<path id="Vector_24" d="M46.3671 51.5415H50.9817V53.8924H46.3671V51.5415Z" fill="#FCFCFC" fill-opacity="0.6"/>
<path id="Vector_25" d="M52.4176 47.2632H55.305L57.6559 51.0797L60.0068 47.2632H62.8942V57.1162H60.1769V51.4591L57.6646 55.3148H57.6079L55.1087 51.4853V57.1162H52.422V47.2632H52.4176Z" fill="#FCFCFC" fill-opacity="0.6"/>
<path id="Vector_26" d="M68.0423 47.1936H70.6724L74.8683 57.1164H71.9416L71.2219 55.3587H67.423L66.7208 57.1164H63.8508L68.0467 47.1936H68.0423ZM70.4369 53.2476L69.3377 50.4474L68.2255 53.2476H70.4369Z" fill="#FCFCFC" fill-opacity="0.6"/>
<path id="Vector_27" d="M75.8291 47.2629H78.5595V54.7214H83.3311V57.116H75.8291V47.2629Z" fill="#FCFCFC" fill-opacity="0.6"/>
<path id="Vector_28" d="M89.4503 57.3122C88.6914 57.3122 87.9848 57.177 87.3393 56.911C86.6938 56.6449 86.1355 56.2785 85.6644 55.8205C85.1934 55.3626 84.827 54.8217 84.5609 54.2024C84.2949 53.583 84.1597 52.92 84.1597 52.2178V52.1916C84.1597 51.4894 84.2949 50.8221 84.5609 50.1983C84.827 49.5746 85.2021 49.0294 85.6819 48.5671C86.1616 48.1004 86.7243 47.7384 87.3698 47.4679C88.0153 47.2019 88.7219 47.0667 89.4808 47.0667C90.2398 47.0667 90.9463 47.2019 91.5919 47.4679C92.2374 47.734 92.7957 48.1004 93.2667 48.5583C93.7378 49.0163 94.1041 49.5572 94.3702 50.1765C94.6363 50.7959 94.7715 51.4589 94.7715 52.1611V52.1873C94.7715 52.8895 94.6363 53.5568 94.3702 54.1805C94.1041 54.8043 93.729 55.3495 93.2493 55.8118C92.7695 56.2741 92.2068 56.6405 91.5613 56.911C90.9158 57.177 90.2092 57.3122 89.4503 57.3122ZM89.4721 54.8479C89.8472 54.8479 90.1918 54.7781 90.5014 54.6385C90.8111 54.4989 91.0772 54.307 91.2909 54.0671C91.509 53.8273 91.6747 53.5481 91.7969 53.2297C91.919 52.9113 91.98 52.5711 91.98 52.2178V52.1916C91.98 51.834 91.919 51.4981 91.7969 51.1797C91.6747 50.8613 91.5003 50.5778 91.2735 50.3335C91.0467 50.0893 90.7806 49.893 90.4709 49.7491C90.1612 49.6051 89.8167 49.531 89.4416 49.531C89.0665 49.531 88.7219 49.6008 88.4166 49.7404C88.1113 49.8799 87.8452 50.0718 87.6272 50.3117C87.4047 50.5516 87.2346 50.8308 87.1212 51.1492C87.0034 51.4676 86.9467 51.8078 86.9467 52.1611V52.1873C86.9467 52.5449 87.0078 52.8808 87.1299 53.1992C87.2521 53.5176 87.4222 53.8011 87.6446 54.0453C87.867 54.2896 88.1331 54.4859 88.4428 54.6298C88.7525 54.7737 89.097 54.8479 89.4721 54.8479Z" fill="#FCFCFC" fill-opacity="0.6"/>
</g>
</svg>
