<svg width="200" height="73" viewBox="0 0 200 73" fill="none" xmlns="http://www.w3.org/2000/svg">
<path d="M73.6562 0.0913086H74.5619V11.4503H81.7105V12.2698H73.6562V0.0913086Z" fill="#FCFCFC" fill-opacity="0.6"/>
<path d="M89.0542 0H89.9222L95.5936 12.2648H94.6016L93.0544 8.85759H85.8681L84.3209 12.2648H83.3828L89.0542 0ZM92.6716 8.03815L89.4693 0.991962L86.2509 8.03815H92.6716Z" fill="#FCFCFC" fill-opacity="0.6"/>
<path d="M73.6562 19.5327H82.2334V20.3522H74.5619V25.3821H81.4517V26.2015H74.5619V31.7166H73.6562V19.5381V19.5327Z" fill="#FCFCFC" fill-opacity="0.6"/>
<path d="M85.0747 19.5317H90.1908C90.9456 19.5317 91.6141 19.6396 92.1909 19.8552C92.7732 20.0708 93.2476 20.362 93.6196 20.734C93.9107 21.0251 94.1371 21.3647 94.2988 21.7529C94.4606 22.141 94.5414 22.5561 94.5414 22.9982V23.0306C94.5414 23.5427 94.4498 23.9956 94.2719 24.3945C94.094 24.7935 93.8406 25.1385 93.5225 25.4296C93.2044 25.7207 92.8271 25.9525 92.3904 26.1358C91.9537 26.3137 91.4847 26.4377 90.9726 26.5078L94.9889 31.7102H93.8406L89.959 26.6642H85.975V31.7102H85.0693V19.5317H85.0747ZM90.0831 25.8447C90.5952 25.8447 91.0642 25.78 91.5009 25.6506C91.9375 25.5213 92.3095 25.338 92.6222 25.1007C92.9349 24.8635 93.1829 24.5724 93.3608 24.2274C93.5387 23.8824 93.6303 23.4942 93.6303 23.0521V23.0198C93.6303 22.1949 93.3284 21.5426 92.7193 21.0628C92.1101 20.5884 91.2475 20.3458 90.1369 20.3458H85.9804V25.8447H90.0884H90.0831Z" fill="#FCFCFC" fill-opacity="0.6"/>
<path d="M97.6523 19.5317H106.316V20.3512H98.558V25.1708H105.534V25.9903H98.558V30.8962H106.402V31.7156H97.6523V19.5371V19.5317Z" fill="#FCFCFC" fill-opacity="0.6"/>
<path d="M109.301 19.5327H110.153L118.557 30.1262V19.5327H119.425V31.7112H118.746L110.169 20.8913V31.7112H109.301V19.5327Z" fill="#FCFCFC" fill-opacity="0.6"/>
<path d="M128.562 31.9198C127.695 31.9198 126.886 31.758 126.142 31.4346C125.398 31.1111 124.756 30.669 124.217 30.103C123.678 29.5423 123.258 28.8738 122.956 28.1137C122.654 27.3481 122.503 26.5287 122.503 25.6607V25.6284C122.503 24.7712 122.654 23.9571 122.967 23.1916C123.274 22.4261 123.7 21.7576 124.239 21.1807C124.778 20.6093 125.42 20.1564 126.163 19.8222C126.907 19.4933 127.716 19.3262 128.6 19.3262C129.145 19.3262 129.635 19.3747 130.077 19.4663C130.519 19.558 130.929 19.6928 131.307 19.8653C131.684 20.0378 132.04 20.2427 132.369 20.4853C132.697 20.7225 133.021 20.9866 133.334 21.2777L132.692 21.9409C132.428 21.6875 132.148 21.4503 131.856 21.2292C131.565 21.0082 131.258 20.8195 130.924 20.6632C130.595 20.5068 130.234 20.3828 129.846 20.2912C129.457 20.1995 129.037 20.151 128.584 20.151C127.851 20.151 127.177 20.2912 126.546 20.5661C125.921 20.8465 125.376 21.2292 124.918 21.7252C124.46 22.2158 124.099 22.7926 123.84 23.4558C123.581 24.1189 123.446 24.8305 123.446 25.596V25.6284C123.446 26.3939 123.581 27.1109 123.845 27.7794C124.109 28.4479 124.476 29.0248 124.934 29.5207C125.393 30.0113 125.932 30.3995 126.562 30.6852C127.188 30.9709 127.867 31.1111 128.6 31.1111C129.479 31.1111 130.245 30.9494 130.897 30.6259C131.544 30.3025 132.18 29.8334 132.794 29.2188L133.404 29.8119C133.08 30.1245 132.746 30.4103 132.401 30.6744C132.056 30.9332 131.695 31.1596 131.307 31.3429C130.918 31.5262 130.498 31.6718 130.045 31.7796C129.592 31.882 129.102 31.936 128.568 31.936L128.562 31.9198Z" fill="#FCFCFC" fill-opacity="0.6"/>
<path d="M135.886 19.5317H136.791V25.187H144.587V19.5317H145.493V31.7102H144.587V26.0065H136.791V31.7102H135.886V19.5317Z" fill="#FCFCFC" fill-opacity="0.6"/>
<path d="M157.697 20.3512H153.454V19.5317H162.851V20.3512H158.608V31.7102H157.702V20.3512H157.697Z" fill="#FCFCFC" fill-opacity="0.6"/>
<path d="M165.601 19.5317H174.264V20.3512H166.506V25.1708H173.482V25.9903H166.506V30.8962H174.35V31.7156H165.601V19.5371V19.5317Z" fill="#FCFCFC" fill-opacity="0.6"/>
<path d="M182.768 31.9203C181.9 31.9203 181.091 31.7585 180.347 31.4351C179.603 31.1116 178.961 30.6695 178.422 30.1035C177.883 29.5428 177.463 28.8743 177.161 28.1142C176.859 27.3486 176.708 26.5292 176.708 25.6612V25.6289C176.708 24.7717 176.859 23.9576 177.172 23.1921C177.479 22.4265 177.905 21.758 178.444 21.1812C178.983 20.6097 179.625 20.1569 180.369 19.8226C181.112 19.4938 181.921 19.3267 182.805 19.3267C183.35 19.3267 183.84 19.3752 184.282 19.4668C184.725 19.5585 185.134 19.6933 185.512 19.8658C185.889 20.0383 186.245 20.2431 186.574 20.4857C186.903 20.723 187.226 20.9871 187.539 21.2782L186.897 21.9413C186.633 21.688 186.353 21.4508 186.061 21.2297C185.77 21.0087 185.463 20.82 185.129 20.6637C184.8 20.5073 184.439 20.3833 184.051 20.2917C183.662 20.2 183.242 20.1515 182.789 20.1515C182.056 20.1515 181.382 20.2917 180.751 20.5666C180.126 20.8469 179.581 21.2297 179.123 21.7257C178.665 22.2163 178.304 22.7931 178.045 23.4562C177.786 24.1193 177.651 24.831 177.651 25.5965V25.6289C177.651 26.3944 177.786 27.1114 178.05 27.7799C178.315 28.4484 178.681 29.0252 179.139 29.5212C179.598 30.0118 180.137 30.4 180.767 30.6857C181.393 30.9714 182.072 31.1116 182.805 31.1116C183.684 31.1116 184.45 30.9499 185.102 30.6264C185.749 30.3029 186.385 29.8339 187 29.2193L187.609 29.8123C187.285 30.125 186.951 30.4108 186.606 30.6749C186.261 30.9337 185.9 31.1601 185.512 31.3434C185.123 31.5267 184.703 31.6723 184.25 31.7801C183.797 31.8825 183.307 31.9364 182.773 31.9364L182.768 31.9203Z" fill="#FCFCFC" fill-opacity="0.6"/>
<path d="M190.094 19.5317H190.999V25.187H198.795V19.5317H199.701V31.7102H198.795V26.0065H190.999V31.7102H190.094V19.5317Z" fill="#FCFCFC" fill-opacity="0.6"/>
<path d="M72.9316 38.9771H78.6893C79.6273 38.9771 80.4252 39.0957 81.0721 39.3275C81.7191 39.5593 82.2474 39.8828 82.6571 40.3033C83.3741 40.9987 83.7353 41.9422 83.7353 43.139V43.1713C83.7353 44.1094 83.5089 44.8857 83.056 45.5003C82.6032 46.1149 81.994 46.5839 81.2285 46.9074L84.1343 51.1502H80.2365L77.7836 47.4627H76.3064V51.1502H72.9316V38.9717V38.9771ZM78.5329 44.821C79.1152 44.821 79.5573 44.6916 79.8699 44.4275C80.1826 44.1687 80.339 43.8183 80.339 43.3762V43.3439C80.339 42.8587 80.1772 42.4921 79.8537 42.2549C79.5303 42.0176 79.0828 41.899 78.5168 41.899H76.3064V44.821H78.5329Z" fill="#FCFCFC" fill-opacity="0.6"/>
<path d="M85.4404 38.9771H95.2198V41.8451H88.7667V43.6889H94.6106V46.3521H88.7667V48.2821H95.3061V51.1502H85.4404V38.9717V38.9771Z" fill="#FCFCFC" fill-opacity="0.6"/>
<path d="M97.0366 38.9775H100.19L105.209 45.4145V38.9775H108.53V51.156H105.565L100.352 44.4765V51.156H97.0312V38.9775H97.0366Z" fill="#FCFCFC" fill-opacity="0.6"/>
<path d="M110.694 38.9771H113.848L118.867 45.414V38.9771H122.188V51.1555H119.223L114.009 44.476V51.1555H110.688V38.9771H110.694Z" fill="#FCFCFC" fill-opacity="0.6"/>
<path d="M124.348 38.9771H134.127V41.8451H127.674V43.6889H133.518V46.3521H127.674V48.2821H134.213V51.1502H124.348V38.9717V38.9771Z" fill="#FCFCFC" fill-opacity="0.6"/>
<path d="M140.738 51.3607C139.649 51.3607 138.614 51.1936 137.633 50.8539C136.652 50.5143 135.784 50.0075 135.034 49.3336L136.91 47.0855C138.129 48.0613 139.444 48.5465 140.862 48.5465C141.315 48.5465 141.66 48.4764 141.897 48.3309C142.134 48.1853 142.253 47.9805 142.253 47.7163V47.6839C142.253 47.5546 142.226 47.4414 142.167 47.3443C142.107 47.2473 141.999 47.1502 141.843 47.0586C141.687 46.9669 141.477 46.8753 141.218 46.789C140.959 46.7028 140.619 46.6111 140.199 46.5195C139.547 46.3685 138.948 46.2014 138.387 46.0235C137.832 45.8456 137.347 45.6138 136.937 45.328C136.528 45.0423 136.199 44.6919 135.961 44.2714C135.724 43.8509 135.606 43.3225 135.606 42.6972V42.6648C135.606 42.0988 135.713 41.5758 135.929 41.1014C136.145 40.627 136.457 40.2173 136.867 39.8669C137.277 39.5218 137.773 39.2523 138.355 39.0582C138.937 38.8695 139.59 38.7725 140.323 38.7725C141.369 38.7725 142.296 38.9072 143.115 39.1822C143.935 39.4571 144.673 39.8615 145.331 40.4006L143.644 42.7888C143.088 42.3953 142.517 42.0934 141.929 41.8939C141.342 41.689 140.776 41.592 140.231 41.592C139.827 41.592 139.52 41.6675 139.32 41.8184C139.121 41.9694 139.018 42.1527 139.018 42.3737V42.4061C139.018 42.5462 139.051 42.6648 139.115 42.7727C139.18 42.8751 139.288 42.9721 139.444 43.0584C139.6 43.1446 139.816 43.2309 140.086 43.3172C140.361 43.4034 140.706 43.4951 141.121 43.5867C141.816 43.7377 142.447 43.9156 143.008 44.115C143.568 44.3199 144.048 44.5625 144.442 44.8536C144.835 45.1447 145.137 45.4952 145.347 45.9049C145.558 46.3146 145.66 46.8052 145.66 47.3713V47.4036C145.66 48.029 145.541 48.5843 145.304 49.0695C145.067 49.5547 144.733 49.9698 144.301 50.3094C143.87 50.6491 143.358 50.9132 142.754 51.0911C142.15 51.269 141.477 51.3607 140.738 51.3607Z" fill="#FCFCFC" fill-opacity="0.6"/>
<path d="M77.7096 70.807C76.6206 70.807 75.5855 70.6398 74.6044 70.3002C73.6232 69.9606 72.7552 69.4538 72.0059 68.7799L73.8819 66.5318C75.1003 67.5076 76.4157 67.9928 77.8336 67.9928C78.2864 67.9928 78.6315 67.9227 78.8687 67.7772C79.1059 67.6316 79.2245 67.4268 79.2245 67.1626V67.1302C79.2245 67.0009 79.1975 66.8876 79.1382 66.7906C79.0789 66.6936 78.9711 66.5965 78.8148 66.5049C78.6584 66.4132 78.4482 66.3216 78.1894 66.2353C77.9306 66.1491 77.591 66.0574 77.1705 65.9658C76.5182 65.8148 75.9198 65.6477 75.3591 65.4698C74.8038 65.2919 74.3186 65.0601 73.9089 64.7743C73.4992 64.4886 73.1703 64.1382 72.9331 63.7177C72.6959 63.2972 72.5773 62.7688 72.5773 62.1435V62.1111C72.5773 61.5451 72.6851 61.0221 72.9008 60.5477C73.1164 60.0733 73.4291 59.6636 73.8388 59.3131C74.2485 58.9681 74.7445 58.6986 75.3267 58.5045C75.909 58.3158 76.5613 58.2188 77.2945 58.2188C78.3404 58.2188 79.2676 58.3535 80.0871 58.6285C80.9065 58.9034 81.6451 59.3078 82.3028 59.8469L80.6154 62.2351C80.0601 61.8416 79.4886 61.5397 78.901 61.3402C78.3134 61.1353 77.7474 61.0383 77.2029 61.0383C76.7985 61.0383 76.4912 61.1138 76.2918 61.2647C76.0923 61.4157 75.9899 61.599 75.9899 61.82V61.8524C75.9899 61.9925 76.0222 62.1111 76.0869 62.2189C76.1516 62.3214 76.2594 62.4184 76.4157 62.5047C76.5721 62.5909 76.7877 62.6772 77.0573 62.7634C77.3322 62.8497 77.6772 62.9414 78.0924 63.033C78.7878 63.184 79.4186 63.3619 79.9792 63.5613C80.5399 63.7662 81.0197 64.0088 81.4133 64.2999C81.8068 64.591 82.1087 64.9415 82.319 65.3512C82.5292 65.7609 82.6317 66.2515 82.6317 66.8176V66.8499C82.6317 67.4753 82.513 68.0306 82.2758 68.5157C82.0386 69.0009 81.7044 69.4161 81.2731 69.7557C80.8418 70.0953 80.3297 70.3595 79.7259 70.5374C79.1221 70.7153 78.4482 70.807 77.7096 70.807Z" fill="#FCFCFC" fill-opacity="0.6"/>
<path d="M88.4787 58.3315H91.7295L96.9157 70.5963H93.2983L92.4087 68.4237H87.7131L86.8452 70.5963H83.2979L88.4841 58.3315H88.4787ZM91.4383 65.8144L90.0798 62.3533L88.7051 65.8144H91.4383Z" fill="#FCFCFC" fill-opacity="0.6"/>
<path d="M98.1748 58.418H101.566V70.5965H98.1748V58.418Z" fill="#FCFCFC" fill-opacity="0.6"/>
<path d="M103.793 58.418H106.946L111.965 64.8549V58.418H115.286V70.5965H112.321L107.108 63.9169V70.5965H103.787V58.418H103.793Z" fill="#FCFCFC" fill-opacity="0.6"/>
<path d="M120.42 61.3772H116.765V58.4175H127.444V61.3772H123.789V70.596H120.414V61.3772H120.42Z" fill="#FCFCFC" fill-opacity="0.6"/>
<path d="M128.542 63.7061H134.246V66.6119H128.542V63.7061Z" fill="#FCFCFC" fill-opacity="0.6"/>
<path d="M136.02 58.418H139.588L142.494 63.1352L145.4 58.418H148.969V70.5965H145.61V63.6042L142.505 68.3699H142.435L139.346 63.6366V70.5965H136.025V58.418H136.02Z" fill="#FCFCFC" fill-opacity="0.6"/>
<path d="M155.33 58.3315H158.581L163.767 70.5963H160.15L159.26 68.4237H154.565L153.697 70.5963H150.149L155.336 58.3315H155.33ZM158.29 65.8144L156.931 62.3533L155.557 65.8144H158.29Z" fill="#FCFCFC" fill-opacity="0.6"/>
<path d="M164.958 58.4175H168.333V67.6363H174.231V70.596H164.958V58.4175Z" fill="#FCFCFC" fill-opacity="0.6"/>
<path d="M181.792 70.8385C180.854 70.8385 179.981 70.6714 179.183 70.3425C178.385 70.0137 177.695 69.5608 177.113 68.9947C176.531 68.4287 176.078 67.7602 175.749 66.9946C175.42 66.2291 175.253 65.4097 175.253 64.5417V64.5093C175.253 63.6414 175.42 62.8165 175.749 62.0456C176.078 61.2747 176.541 60.6008 177.134 60.0293C177.727 59.4525 178.423 59.005 179.221 58.6708C180.019 58.3419 180.892 58.1748 181.83 58.1748C182.768 58.1748 183.641 58.3419 184.439 58.6708C185.237 58.9996 185.927 59.4525 186.509 60.0186C187.092 60.5846 187.545 61.2531 187.873 62.0187C188.202 62.7842 188.369 63.6036 188.369 64.4716V64.504C188.369 65.3719 188.202 66.1968 187.873 66.9677C187.545 67.7386 187.081 68.4125 186.488 68.984C185.895 69.5554 185.199 70.0083 184.402 70.3425C183.604 70.6714 182.73 70.8385 181.792 70.8385ZM181.819 67.7925C182.283 67.7925 182.709 67.7063 183.092 67.5338C183.474 67.3612 183.803 67.124 184.067 66.8275C184.337 66.531 184.542 66.186 184.693 65.7924C184.844 65.3989 184.919 64.9784 184.919 64.5417V64.5093C184.919 64.0673 184.844 63.6522 184.693 63.2586C184.542 62.8651 184.326 62.5146 184.046 62.2127C183.765 61.9108 183.437 61.6682 183.054 61.4903C182.671 61.3124 182.245 61.2208 181.781 61.2208C181.318 61.2208 180.892 61.307 180.515 61.4796C180.137 61.6521 179.808 61.8893 179.539 62.1858C179.264 62.4823 179.054 62.8273 178.913 63.2209C178.768 63.6144 178.698 64.0349 178.698 64.4716V64.504C178.698 64.946 178.773 65.3611 178.924 65.7547C179.075 66.1482 179.285 66.4987 179.56 66.8006C179.835 67.1025 180.164 67.3451 180.547 67.523C180.93 67.7009 181.356 67.7925 181.819 67.7925Z" fill="#FCFCFC" fill-opacity="0.6"/>
<path d="M30.9394 72.7467L9.69859 51.5057C4.02719 45.8343 0.900391 38.2867 0.900391 30.2648C0.900391 22.2428 4.02719 14.6953 9.69859 9.02386C15.37 3.35242 22.9175 0.225586 30.9394 0.225586C38.9613 0.225586 46.5088 3.35242 52.1802 9.02386C57.8516 14.6953 60.9784 22.2428 60.9784 30.2648C60.9784 38.2867 57.8516 45.8343 52.1802 51.5057L30.9394 72.7467ZM30.9394 0.764696C23.0577 0.764696 15.6503 3.83223 10.0814 9.40662C4.50701 14.9756 1.4395 22.3884 1.4395 30.2648C1.4395 38.1412 4.50701 45.554 10.0814 51.123L30.9394 71.9811L51.7974 51.123C57.3718 45.554 60.4393 38.1412 60.4393 30.2648C60.4393 22.3884 57.3718 14.9756 51.7974 9.40662C46.2285 3.83223 38.8157 0.764696 30.9394 0.764696Z" fill="#FCFCFC" fill-opacity="0.6"/>
<mask id="mask0_2022_16188" style="mask-type:luminance" maskUnits="userSpaceOnUse" x="32" y="49" width="4" height="7">
<path d="M34.3877 49.3179L32.5332 50.8597L33.7354 54.6605L35.2611 55.2589L34.3931 49.3179H34.3877Z" fill="white"/>
</mask>
<g mask="url(#mask0_2022_16188)">
<path d="M35.2611 49.3179H32.5332V55.2589H35.2611V49.3179Z" fill="#FCFCFC" fill-opacity="0.6"/>
</g>
<mask id="mask1_2022_16188" style="mask-type:luminance" maskUnits="userSpaceOnUse" x="27" y="17" width="7" height="18">
<path d="M32.8028 17.2677L27.374 32.6862V34.5677L28.4576 33.0474L33.4497 17.106L32.8028 17.2677Z" fill="white"/>
</mask>
<g mask="url(#mask1_2022_16188)">
<path d="M33.4497 17.106H27.374V34.5677H33.4497V17.106Z" fill="#FCFCFC" fill-opacity="0.6"/>
</g>
<mask id="mask2_2022_16188" style="mask-type:luminance" maskUnits="userSpaceOnUse" x="28" y="8" width="8" height="11">
<path d="M34.0033 8.13965L31.5558 10.4255L28.499 11.2611L33.103 18.248L35.626 15.1481L34.0033 8.13965Z" fill="white"/>
</mask>
<g mask="url(#mask2_2022_16188)">
<path d="M35.626 8.05859H28.499V18.2424H35.626V8.05859Z" fill="#FCFCFC" fill-opacity="0.6"/>
</g>
<mask id="mask3_2022_16188" style="mask-type:luminance" maskUnits="userSpaceOnUse" x="14" y="36" width="12" height="1">
<path d="M14.4131 36.5948L25.5564 36.115L15.5452 36.0449L14.4131 36.5948Z" fill="white"/>
</mask>
<g mask="url(#mask3_2022_16188)">
<path d="M25.5564 36.0449H14.4131V36.6002H25.5564V36.0449Z" fill="#FCFCFC" fill-opacity="0.6"/>
</g>
<mask id="mask4_2022_16188" style="mask-type:luminance" maskUnits="userSpaceOnUse" x="14" y="36" width="14" height="10">
<path d="M27.1953 36.0449L14.4131 36.5948L27.3948 45.1181L27.2114 36.0449H27.1953Z" fill="white"/>
</mask>
<g mask="url(#mask4_2022_16188)">
<path d="M27.3948 36.0449H14.4131V45.1235H27.3948V36.0449Z" fill="#FCFCFC" fill-opacity="0.6"/>
</g>
<mask id="mask5_2022_16188" style="mask-type:luminance" maskUnits="userSpaceOnUse" x="28" y="15" width="14" height="23">
<path d="M33.9804 15.4288L28.46 33.0469L41.3015 37.7749V37.7695L35.6193 15.1484L33.9804 15.4288Z" fill="white"/>
</mask>
<g mask="url(#mask5_2022_16188)">
<path d="M38.0884 9.58496L18.6611 20.8011L31.6698 43.3329L51.097 32.1167L38.0884 9.58496Z" fill="#FCFCFC" fill-opacity="0.6"/>
</g>
<mask id="mask6_2022_16188" style="mask-type:luminance" maskUnits="userSpaceOnUse" x="18" y="25" width="10" height="15">
<path d="M18.1318 25.4067L25.7764 38.933L27.3775 39.0516V32.6847L18.1318 25.4067Z" fill="white"/>
</mask>
<g mask="url(#mask6_2022_16188)">
<path d="M27.3775 25.4067H18.1318V39.0516H27.3775V25.4067Z" fill="#FCFCFC" fill-opacity="0.6"/>
</g>
<mask id="mask7_2022_16188" style="mask-type:luminance" maskUnits="userSpaceOnUse" x="11" y="25" width="15" height="15">
<path d="M11.2002 25.2734L19.6857 39.2094L25.7776 38.9345L18.1331 25.4082L11.2002 25.2734Z" fill="white"/>
</mask>
<g mask="url(#mask7_2022_16188)">
<path d="M25.7776 25.2734H11.2002V39.2148H25.7776V25.2734Z" fill="#FCFCFC" fill-opacity="0.6"/>
</g>
<mask id="mask8_2022_16188" style="mask-type:luminance" maskUnits="userSpaceOnUse" x="9" y="25" width="6" height="9">
<path d="M9.77832 33.317L14.323 30.4004L11.2016 25.2734L9.77832 33.317Z" fill="white"/>
</mask>
<g mask="url(#mask8_2022_16188)">
<path d="M14.323 25.2734H9.77832V33.317H14.323V25.2734Z" fill="#FCFCFC" fill-opacity="0.6"/>
</g>
<mask id="mask9_2022_16188" style="mask-type:luminance" maskUnits="userSpaceOnUse" x="27" y="53" width="13" height="4">
<path d="M27.3584 55.0269L34.3883 56.7359H39.2457H39.2511L33.4126 53.6845L29.628 53.043L27.3584 55.0269Z" fill="white"/>
</mask>
<g mask="url(#mask9_2022_16188)">
<path d="M33.3024 47.0981L25.5107 54.89L33.3024 62.6818L41.0942 54.89L33.3024 47.0981Z" fill="#FCFCFC" fill-opacity="0.6"/>
</g>
<mask id="mask10_2022_16188" style="mask-type:luminance" maskUnits="userSpaceOnUse" x="33" y="8" width="8" height="8">
<path d="M36.7034 9.91871L33.9971 8.13965L35.6198 15.1481L39.7655 12.7221L40.2183 9.25022L36.7034 9.91871Z" fill="white"/>
</mask>
<g mask="url(#mask10_2022_16188)">
<path d="M40.2175 8.11865H33.9639V15.1433H40.2175V8.11865Z" fill="#FCFCFC" fill-opacity="0.6"/>
</g>
<mask id="mask11_2022_16188" style="mask-type:luminance" maskUnits="userSpaceOnUse" x="35" y="12" width="5" height="9">
<path d="M35.6182 15.1477L38.1843 20.4687L39.7639 12.7217L35.6182 15.1477Z" fill="white"/>
</mask>
<g mask="url(#mask11_2022_16188)">
<path d="M39.7639 12.7217H35.6182V21.4984H39.7639V12.7217Z" fill="#FCFCFC" fill-opacity="0.6"/>
</g>
<mask id="mask12_2022_16188" style="mask-type:luminance" maskUnits="userSpaceOnUse" x="38" y="14" width="5" height="3">
<path d="M38.8682 16.9871L42.7713 16.8308L39.3318 14.7983L38.8682 16.9871Z" fill="white"/>
</mask>
<g mask="url(#mask12_2022_16188)">
<path d="M42.7659 14.7983H38.8682V16.9871H42.7659V14.7983Z" fill="#FCFCFC" fill-opacity="0.6"/>
</g>
<mask id="mask13_2022_16188" style="mask-type:luminance" maskUnits="userSpaceOnUse" x="38" y="16" width="5" height="4">
<path d="M38.9213 16.8306L38.4092 19.359L42.8029 16.8306H38.9213Z" fill="white"/>
</mask>
<g mask="url(#mask13_2022_16188)">
<path d="M42.8029 16.8306H38.4092V19.359H42.8029V16.8306Z" fill="#FCFCFC" fill-opacity="0.6"/>
</g>
<mask id="mask14_2022_16188" style="mask-type:luminance" maskUnits="userSpaceOnUse" x="14" y="38" width="14" height="12">
<path d="M14.6318 39.1236L27.3925 49.3182V38.5684L14.6318 39.1236Z" fill="white"/>
</mask>
<g mask="url(#mask14_2022_16188)">
<path d="M27.3925 38.5684H14.6318V49.3182H27.3925V38.5684Z" fill="#FCFCFC" fill-opacity="0.6"/>
</g>
<mask id="mask15_2022_16188" style="mask-type:luminance" maskUnits="userSpaceOnUse" x="35" y="15" width="11" height="32">
<path d="M35.6182 15.1479L41.5106 38.9335L39.7639 46.5026L45.2843 40.3244L41.6562 27.6661L35.6182 15.1479Z" fill="white"/>
</mask>
<g mask="url(#mask15_2022_16188)">
<path d="M45.2843 15.1479H35.6182V46.508H45.2843V15.1479Z" fill="#FCFCFC" fill-opacity="0.6"/>
</g>
<mask id="mask16_2022_16188" style="mask-type:luminance" maskUnits="userSpaceOnUse" x="27" y="33" width="13" height="17">
<path d="M35.6169 49.3167L39.7627 46.5026L28.4576 33.0464L27.374 33.6017V49.3167H35.6169Z" fill="white"/>
</mask>
<g mask="url(#mask16_2022_16188)">
<path d="M36.6627 27.6929L20.3311 37.1219L30.4717 54.6861L46.8033 45.257L36.6627 27.6929Z" fill="#FCFCFC" fill-opacity="0.6"/>
</g>
<mask id="mask17_2022_16188" style="mask-type:luminance" maskUnits="userSpaceOnUse" x="28" y="33" width="17" height="14">
<path d="M39.765 46.5026L44.4553 38.9335L28.46 33.0464L39.765 46.5026Z" fill="white"/>
</mask>
<g mask="url(#mask17_2022_16188)">
<path d="M44.4553 33.0464H28.46V46.5026H44.4553V33.0464Z" fill="#FCFCFC" fill-opacity="0.6"/>
</g>
<mask id="mask18_2022_16188" style="mask-type:luminance" maskUnits="userSpaceOnUse" x="14" y="38" width="14" height="2">
<path d="M15.6723 38.5684L14.6318 39.1236L27.3763 38.5684H15.6723Z" fill="white"/>
</mask>
<g mask="url(#mask18_2022_16188)">
<path d="M27.3763 38.5684H14.6318V39.1236H27.3763V38.5684Z" fill="#FCFCFC" fill-opacity="0.6"/>
</g>
<path d="M37.0791 15.9146C37.0791 16.2866 37.381 16.5885 37.7476 16.5885C38.1142 16.5885 38.4107 16.2866 38.4107 15.9146C38.4107 15.5426 38.1142 15.2407 37.7476 15.2407C37.381 15.2407 37.0791 15.5426 37.0791 15.9146Z" fill="white"/>
<mask id="mask19_2022_16188" style="mask-type:luminance" maskUnits="userSpaceOnUse" x="28" y="49" width="7" height="8">
<path d="M28.6523 49.3164L29.8923 54.0228L31.2131 54.8854L34.3884 56.74L33.7307 54.659L32.5285 50.8583L32.5231 50.8637L32.0379 49.3164H28.6523Z" fill="white"/>
</mask>
<g mask="url(#mask19_2022_16188)">
<path d="M31.515 46.4155L24.9238 53.0066L31.515 59.5978L38.1061 53.0066L31.515 46.4155Z" fill="#FCFCFC" fill-opacity="0.6"/>
</g>
<mask id="mask20_2022_16188" style="mask-type:luminance" maskUnits="userSpaceOnUse" x="28" y="54" width="7" height="3">
<path d="M28.0459 56.7347H34.6014H34.6068L29.9004 54.0229L28.0459 56.7347Z" fill="white"/>
</mask>
<g mask="url(#mask20_2022_16188)">
<path d="M32.9592 51.166L26.8662 54.6838L29.6803 59.5579L35.7733 56.0402L32.9592 51.166Z" fill="#FCFCFC" fill-opacity="0.6"/>
</g>
<mask id="mask21_2022_16188" style="mask-type:luminance" maskUnits="userSpaceOnUse" x="32" y="49" width="3" height="2">
<path d="M32.0459 49.3179L32.5311 50.8597L34.3856 49.3179H32.0459Z" fill="#FCFCFC" fill-opacity="0.1"/>
</mask>
<g mask="url(#mask21_2022_16188)">
<path d="M34.5063 51.0596H31.7568V49.1188H34.5063V51.0596Z" fill="#FCFCFC" fill-opacity="0.6"/>
</g>
</svg>
