<svg width="184" height="53" viewBox="0 0 184 53" fill="none" xmlns="http://www.w3.org/2000/svg">
<path d="M91.3696 0.749825C86.76 0.749825 83.0182 2.22575 80.373 5.23995C81.3085 6.67949 82.062 8.3373 82.6493 10.1718C84.8163 6.11823 88.4074 5.46861 91.3644 5.46861C95.948 5.46861 102.039 7.01209 102.039 20.3473C102.039 33.6826 95.948 35.2261 91.3644 35.2261C88.4074 35.2261 84.8163 34.5765 82.6493 30.5281C82.062 32.3626 81.3085 34.0204 80.373 35.4599C83.0182 38.4741 86.7548 39.9501 91.3696 39.9501C100.916 39.9501 106.763 33.693 106.763 20.3473C106.763 7.0017 100.911 0.744629 91.3696 0.744629" fill="#FCFCFC" fill-opacity="0.6"/>
<path d="M65.8648 35.2315C61.2811 35.2315 55.1904 33.688 55.1904 20.3527C55.1904 7.01746 61.2811 5.47398 65.8648 5.47398C70.4484 5.47398 76.5391 7.01746 76.5391 20.3527C76.5391 33.688 70.4484 35.2315 65.8648 35.2315ZM65.8648 0.75C56.4065 0.75 50.5808 6.89793 50.4717 19.9941V52.0018H55.1956V35.8447C57.82 38.6146 61.4474 39.9606 65.8699 39.9606C75.4166 39.9606 81.263 33.7036 81.263 20.3579C81.263 7.01227 75.4114 0.755198 65.8699 0.755198" fill="#FCFCFC" fill-opacity="0.6"/>
<path d="M116.878 0.750313C112.269 0.750313 108.527 2.22624 105.882 5.24044C106.817 6.67998 107.571 8.33779 108.158 10.1723C110.325 6.11871 113.916 5.4691 116.873 5.4691C121.457 5.4691 127.548 7.01258 127.548 20.3478C127.548 33.6831 121.457 35.2266 116.873 35.2266C113.916 35.2266 110.325 34.577 108.158 30.5286C107.571 32.3631 106.817 34.0209 105.882 35.4604C108.527 38.4746 112.264 39.9506 116.878 39.9506C126.425 39.9506 132.271 33.6935 132.271 20.3478C132.271 7.00219 126.42 0.745117 116.878 0.745117" fill="#FCFCFC" fill-opacity="0.6"/>
<path d="M142.386 0.750313C137.777 0.750313 134.035 2.22624 131.39 5.24044C132.325 6.67998 133.079 8.33779 133.666 10.1723C135.833 6.11871 139.424 5.4691 142.381 5.4691C146.965 5.4691 153.055 7.01258 153.055 20.3478C153.055 33.6831 146.965 35.2266 142.381 35.2266C139.424 35.2266 135.833 34.577 133.666 30.5286C133.079 32.3631 132.325 34.0209 131.39 35.4604C134.035 38.4746 137.771 39.9506 142.386 39.9506C151.933 39.9506 157.779 33.6935 157.779 20.3478C157.779 7.00219 151.928 0.745117 142.386 0.745117" fill="#FCFCFC" fill-opacity="0.6"/>
<path d="M161.99 1.37891V34.7326V39.4566H166.714H183.9V34.7326H166.714V1.37891H161.99Z" fill="#FCFCFC" fill-opacity="0.6"/>
<path d="M34.438 15.9561H19.4814V20.68H34.438V15.9561Z" fill="#FCFCFC" fill-opacity="0.6"/>
<path d="M34.438 24.9258H19.4814V29.6498H34.438V24.9258Z" fill="#FCFCFC" fill-opacity="0.6"/>
<path d="M34.438 33.9062H19.4814V38.6302H34.438V33.9062Z" fill="#FCFCFC" fill-opacity="0.6"/>
<path d="M0 15.9512V33.9065V38.6253H4.72394H14.9565V33.9065H4.72394V15.9512H0Z" fill="#FCFCFC" fill-opacity="0.6"/>
</svg>
