<svg width="25" height="25" viewBox="0 0 25 25" fill="none" xmlns="http://www.w3.org/2000/svg">
<g id="Country=germany" clip-path="url(#clip0_30168_246254)">
<path id="Vector" d="M1.14648 16.3738C2.842 20.9433 7.24051 24.1999 12.4001 24.1999C17.5597 24.1999 21.9582 20.9433 23.6537 16.3738L12.4001 15.3303L1.14648 16.3738Z" fill="#FFDA44"/>
<path id="Vector_2" d="M12.4001 0.199951C7.24051 0.199951 2.842 3.45645 1.14648 8.02606L12.4001 9.0695L23.6537 8.02601C21.9582 3.45645 17.5597 0.199951 12.4001 0.199951Z" fill="black"/>
<path id="Vector_3" d="M1.14678 8.02612C0.664438 9.32611 0.400391 10.7322 0.400391 12.2C0.400391 13.6679 0.664438 15.0739 1.14678 16.3739H23.654C24.1364 15.0739 24.4004 13.6679 24.4004 12.2C24.4004 10.7322 24.1364 9.32611 23.654 8.02612H1.14678Z" fill="#D80027"/>
</g>
<defs>
<clipPath id="clip0_30168_246254">
<rect width="24" height="24" fill="white" transform="translate(0.400391 0.199951)"/>
</clipPath>
</defs>
</svg>
