<svg width="24" height="25" viewBox="0 0 24 25" fill="none" xmlns="http://www.w3.org/2000/svg">
<g id="Country=italy" clip-path="url(#clip0_30168_246428)">
<path id="Vector" d="M12 24.3999C18.6274 24.3999 24 19.0273 24 12.3999C24 5.77248 18.6274 0.399902 12 0.399902C5.37258 0.399902 0 5.77248 0 12.3999C0 19.0273 5.37258 24.3999 12 24.3999Z" fill="#F0F0F0"/>
<path id="Vector_2" d="M23.9999 12.3998C23.9999 7.24027 20.7434 2.84176 16.1738 1.14624V23.6535C20.7434 21.9579 23.9999 17.5594 23.9999 12.3998Z" fill="#D80027"/>
<path id="Vector_3" d="M0 12.3998C0 17.5594 3.2565 21.9579 7.82611 23.6535V1.14624C3.2565 2.84176 0 7.24027 0 12.3998Z" fill="#6DA544"/>
</g>
<defs>
<clipPath id="clip0_30168_246428">
<rect width="24" height="24" fill="white" transform="translate(0 0.399902)"/>
</clipPath>
</defs>
</svg>
