<svg width="24" height="25" viewBox="0 0 24 25" fill="none" xmlns="http://www.w3.org/2000/svg">
<g id="Country=russia" clip-path="url(#clip0_30168_246992)">
<path id="Vector" d="M12 24.5999C18.6274 24.5999 24 19.2273 24 12.5999C24 5.97244 18.6274 0.599854 12 0.599854C5.37258 0.599854 0 5.97244 0 12.5999C0 19.2273 5.37258 24.5999 12 24.5999Z" fill="#F0F0F0"/>
<path id="Vector_2" d="M23.2536 16.7737C23.736 15.4737 24 14.0676 24 12.5998C24 11.132 23.736 9.72589 23.2536 8.4259H0.746391C0.264047 9.72589 0 11.132 0 12.5998C0 14.0676 0.264047 15.4737 0.746391 16.7737L12 17.8172L23.2536 16.7737Z" fill="#0052B4"/>
<path id="Vector_3" d="M12.0002 24.5999C17.1598 24.5999 21.5583 21.3434 23.2538 16.7738H0.746582C2.4421 21.3434 6.84061 24.5999 12.0002 24.5999Z" fill="#D80027"/>
</g>
<defs>
<clipPath id="clip0_30168_246992">
<rect width="24" height="24" fill="white" transform="translate(0 0.599854)"/>
</clipPath>
</defs>
</svg>
