<svg width="25" height="24" viewBox="0 0 25 24" fill="none" xmlns="http://www.w3.org/2000/svg">
<g clip-path="url(#clip0_30168_247455)">
<path d="M12.5996 23.9998C19.227 23.9998 24.5996 18.6272 24.5996 11.9998C24.5996 5.37234 19.227 -0.000244141 12.5996 -0.000244141C5.97219 -0.000244141 0.599609 5.37234 0.599609 11.9998C0.599609 18.6272 5.97219 23.9998 12.5996 23.9998Z" fill="#F0F0F0"/>
<path d="M3.07993 4.69385C2.13732 5.92024 1.42655 7.33375 1.0127 8.86933H7.25541L3.07993 4.69385Z" fill="#0052B4"/>
<path d="M24.186 8.86929C23.7721 7.33375 23.0613 5.92024 22.1187 4.69385L17.9434 8.86929H24.186Z" fill="#0052B4"/>
<path d="M1.0127 15.1302C1.4266 16.6658 2.13737 18.0793 3.07993 19.3056L7.25527 15.1302H1.0127Z" fill="#0052B4"/>
<path d="M19.9049 2.48037C18.6785 1.53776 17.2651 0.826992 15.7295 0.413086V6.65576L19.9049 2.48037Z" fill="#0052B4"/>
<path d="M5.29395 21.519C6.52034 22.4616 7.93385 23.1723 9.46938 23.5863V17.3436L5.29395 21.519Z" fill="#0052B4"/>
<path d="M9.46934 0.413086C7.9338 0.826992 6.52029 1.53776 5.29395 2.48032L9.46934 6.65571V0.413086Z" fill="#0052B4"/>
<path d="M15.7295 23.5863C17.265 23.1723 18.6785 22.4616 19.9049 21.519L15.7295 17.3436V23.5863Z" fill="#0052B4"/>
<path d="M17.9434 15.1302L22.1187 19.3057C23.0613 18.0793 23.7721 16.6658 24.186 15.1302H17.9434Z" fill="#0052B4"/>
<path d="M24.498 10.4346H14.1649H14.1649V0.101334C13.6525 0.0346309 13.1301 -0.000244141 12.5996 -0.000244141C12.069 -0.000244141 11.5468 0.0346309 11.0344 0.101334V10.4345V10.4345H0.701188C0.634484 10.9469 0.599609 11.4693 0.599609 11.9998C0.599609 12.5303 0.634484 13.0526 0.701188 13.565H11.0343H11.0344V23.8982C11.5468 23.9649 12.069 23.9998 12.5996 23.9998C13.1301 23.9998 13.6525 23.9649 14.1648 23.8982V13.5651V13.565H24.498C24.5647 13.0526 24.5996 12.5303 24.5996 11.9998C24.5996 11.4693 24.5647 10.9469 24.498 10.4346Z" fill="#D80027"/>
<path d="M15.7305 15.1303L21.0853 20.4851C21.3316 20.2389 21.5665 19.9815 21.7907 19.7147L17.2062 15.1302H15.7305V15.1303Z" fill="#D80027"/>
<path d="M9.46912 15.1302H9.46902L4.11426 20.485C4.36045 20.7313 4.61784 20.9662 4.88465 21.1904L9.46912 16.6058V15.1302Z" fill="#D80027"/>
<path d="M9.46937 8.86936V8.86926L4.11455 3.5144C3.86827 3.76059 3.63334 4.01798 3.40918 4.28479L7.9937 8.86931H9.46937V8.86936Z" fill="#D80027"/>
<path d="M15.7305 8.86944L21.0853 3.51453C20.8391 3.26825 20.5817 3.03331 20.3149 2.8092L15.7305 7.39372V8.86944Z" fill="#D80027"/>
</g>
<defs>
<clipPath id="clip0_30168_247455">
<rect width="24" height="24" fill="white" transform="translate(0.599609 -0.000244141)"/>
</clipPath>
</defs>
</svg>
