<svg width="15" height="19" viewBox="0 0 15 19" fill="none" xmlns="http://www.w3.org/2000/svg">
<path d="M7.73632 4.95243C8.51595 4.95243 9.49324 4.42535 10.0752 3.72258C10.6023 3.0857 10.9866 2.19626 10.9866 1.30682C10.9866 1.18603 10.9756 1.06524 10.9537 0.966415C10.0862 0.999358 9.04303 1.5484 8.41713 2.28411C7.92299 2.84412 7.47278 3.72258 7.47278 4.62301C7.47278 4.75478 7.49474 4.88654 7.50572 4.93047C7.56063 4.94145 7.64847 4.95243 7.73632 4.95243ZM4.99113 18.2391C6.05626 18.2391 6.52843 17.5254 7.85711 17.5254C9.20774 17.5254 9.50422 18.2172 10.6901 18.2172C11.8541 18.2172 12.6337 17.1411 13.3694 16.0869C14.193 14.879 14.5334 13.6931 14.5554 13.6382C14.4785 13.6162 12.2494 12.7048 12.2494 10.1463C12.2494 7.92821 14.0063 6.92897 14.1052 6.8521C12.9412 5.18302 11.1733 5.1391 10.6901 5.1391C9.38343 5.1391 8.3183 5.92972 7.64847 5.92972C6.92374 5.92972 5.96842 5.18302 4.8374 5.18302C2.68517 5.18302 0.5 6.96191 0.5 10.322C0.5 12.4084 1.31258 14.6155 2.31182 16.043C3.16832 17.2509 3.91501 18.2391 4.99113 18.2391Z" fill="white"/>
</svg>
