<svg width="27" height="22" viewBox="0 0 27 22" fill="none" xmlns="http://www.w3.org/2000/svg">
<path id="Union" fill-rule="evenodd" clip-rule="evenodd" d="M13.2497 4.69814C13.1713 4.86914 13.0881 5.0385 13.0001 5.2061C12.2365 6.66163 11.1395 7.94226 9.80647 8.99465C8.77195 9.81137 7.60447 10.4838 6.35037 10.9999C7.60447 11.5161 8.77195 12.1885 9.80647 13.0052C11.1395 14.0576 12.2365 15.3382 13.0001 16.7938C13.0881 16.9614 13.1713 17.1307 13.2497 17.3017C13.3281 17.1307 13.4113 16.9614 13.4993 16.7938C14.2629 15.3382 15.3599 14.0576 16.6929 13.0052C17.7274 12.1885 18.8949 11.5161 20.149 10.9999C18.8949 10.4838 17.7274 9.81137 16.6929 8.99465C15.3599 7.94226 14.2629 6.66163 13.4993 5.2061C13.4113 5.0385 13.3281 4.86914 13.2497 4.69814ZM12.3257 0.523193H14.1737H14.7908C14.7908 1.73713 15.0937 2.93921 15.6822 4.06079C16.2706 5.18232 17.1331 6.2014 18.2204 7.05982C19.3077 7.91822 20.5985 8.59914 22.0192 9.06371C23.4398 9.52827 24.9625 9.76738 26.5001 9.76738V12.2325C24.9625 12.2325 23.4398 12.4716 22.0192 12.9362C20.5985 13.4007 19.3077 14.0817 18.2204 14.9401C17.1331 15.7985 16.2706 16.8176 15.6822 17.9391C15.0937 19.0607 14.7908 20.2627 14.7908 21.4767H14.1737H12.3257H11.7085C11.7085 20.2627 11.4057 19.0607 10.8172 17.9391C10.2288 16.8176 9.3663 15.7985 8.27897 14.9401C7.19167 14.0817 5.90085 13.4007 4.4802 12.9362C3.05956 12.4716 1.53693 12.2325 -0.000759125 12.2325V9.76738C1.53693 9.76738 3.05956 9.52827 4.4802 9.06371C5.90085 8.59914 7.19167 7.91822 8.27897 7.05982C9.3663 6.2014 10.2288 5.18232 10.8172 4.06079C11.4057 2.93921 11.7085 1.73713 11.7085 0.523193H12.3257Z" fill="url(#paint0_linear_2649_52206)"/>
<defs>
<linearGradient id="paint0_linear_2649_52206" x1="18.5193" y1="0.523188" x2="17.8011" y2="16.9963" gradientUnits="userSpaceOnUse">
<stop stop-color="#C985FE"/>
<stop offset="1" stop-color="#999DFF"/>
</linearGradient>
</defs>
</svg>
