<svg width="22" height="22" viewBox="0 0 22 22" fill="none" xmlns="http://www.w3.org/2000/svg">
<path fill-rule="evenodd" clip-rule="evenodd" d="M-1.41859e-05 0.523193C-1.41859e-05 2.15366 0.408014 3.74708 1.17351 5.2061C1.93719 6.66163 3.03416 7.94226 4.36718 8.99465C5.3604 9.77876 6.47617 10.4299 7.6735 10.9374V11.0625C6.47617 11.57 5.3604 12.2211 4.36718 13.0052C3.03416 14.0576 1.93719 15.3382 1.17351 16.7938C0.408014 18.2528 -1.41859e-05 19.8462 -1.41859e-05 21.4767H2.4651C2.4651 20.2627 2.76796 19.0607 3.35642 17.9391C3.94485 16.8176 4.80734 15.7985 5.89468 14.9401C6.98198 14.0817 8.2728 13.4007 9.69345 12.9362C10.0961 12.8045 10.5069 12.6909 10.924 12.5958C11.341 12.6909 11.7518 12.8045 12.1545 12.9362C13.5751 13.4007 14.8659 14.0817 15.9532 14.9401C17.0406 15.7985 17.903 16.8176 18.4915 17.9391C19.0799 19.0607 19.3828 20.2627 19.3828 21.4767H21.8479C21.8479 19.8462 21.4399 18.2528 20.6744 16.7938C19.9107 15.3382 18.8137 14.0576 17.4807 13.0052C16.4875 12.2211 15.3717 11.57 14.1744 11.0625V10.9374C15.3717 10.4299 16.4875 9.77876 17.4807 8.99465C18.8137 7.94226 19.9107 6.66163 20.6744 5.2061C21.4399 3.74708 21.8479 2.15366 21.8479 0.523193H19.3828C19.3828 1.73713 19.0799 2.93921 18.4915 4.06079C17.903 5.18232 17.0406 6.2014 15.9532 7.05982C14.8659 7.91822 13.5751 8.59914 12.1545 9.06371C11.7518 9.19537 11.341 9.30893 10.924 9.40406C10.5069 9.30893 10.0961 9.19537 9.69345 9.06371C8.2728 8.59914 6.98198 7.91822 5.89468 7.05982C4.80734 6.2014 3.94485 5.18232 3.35642 4.06079C2.76796 2.93921 2.4651 1.73713 2.4651 0.523193H-1.41859e-05Z" fill="url(#paint0_linear_2649_52288)"/>
<defs>
<linearGradient id="paint0_linear_2649_52288" x1="15.2686" y1="0.523188" x2="14.3983" y2="16.9816" gradientUnits="userSpaceOnUse">
<stop stop-color="#C985FE"/>
<stop offset="1" stop-color="#999DFF"/>
</linearGradient>
</defs>
</svg>
