<svg width="35" height="35" viewBox="0 0 35 35" fill="none" xmlns="http://www.w3.org/2000/svg">
<path fill-rule="evenodd" clip-rule="evenodd" d="M4.375 17.5C4.375 23.9896 9.11458 29.3854 15.3125 30.4792L15.3857 30.4206C15.3613 30.4159 15.3369 30.4111 15.3125 30.4062V21.1458H12.0312V17.5H15.3125V14.5833C15.3125 11.3021 17.4271 9.47917 20.4167 9.47917C21.3646 9.47917 22.3854 9.625 23.3333 9.77083V13.125H21.6563C20.0521 13.125 19.6875 13.9271 19.6875 14.9479V17.5H23.1875L22.6042 21.1458H19.6875V30.4062C19.6631 30.4111 19.6387 30.4159 19.6143 30.4206L19.6875 30.4792C25.8854 29.3854 30.625 23.9896 30.625 17.5C30.625 10.2813 24.7188 4.375 17.5 4.375C10.2813 4.375 4.375 10.2813 4.375 17.5Z" fill="#5A5477"/>
</svg>
