<svg viewBox="0 0 19 18" fill="none" xmlns="http://www.w3.org/2000/svg">
<path fill-rule="evenodd" clip-rule="evenodd" d="M0.755207 2.02135C0.333008 2.83411 0.333008 3.90191 0.333008 6.0375V11.9625C0.333008 14.0981 0.333008 15.1659 0.755207 15.9787C1.11099 16.6636 1.66944 17.222 2.35435 17.5778C3.16712 18 4.23492 18 6.37051 18H7.08027C7.08155 17.8561 7.09467 16.349 7.09011 15.5756C4.58672 16.1193 4.05853 14.3689 4.05853 14.3689C3.64913 13.3297 3.05905 13.0529 3.05905 13.0529C2.2419 12.4943 3.12093 12.5053 3.12093 12.5053C4.02428 12.5694 4.49943 13.433 4.49943 13.433C5.30222 14.8082 6.60612 14.4109 7.11884 14.1811C7.20062 13.5993 7.43267 13.2026 7.69013 12.9777C5.69173 12.7507 3.59056 11.9783 3.59056 8.52953C3.59056 7.54718 3.9414 6.74384 4.51711 6.11454C4.42429 5.88691 4.11544 4.97197 4.60496 3.7327C4.60496 3.7327 5.36078 3.4907 7.08017 4.65538C7.79787 4.45593 8.56806 4.35593 9.33328 4.35261C10.0974 4.35593 10.8676 4.45593 11.5864 4.65538C13.3047 3.4907 14.0588 3.7327 14.0588 3.7327C14.55 4.97197 14.2412 5.88691 14.1483 6.11454C14.7252 6.74384 15.0738 7.54718 15.0738 8.52953C15.0738 11.9871 12.9693 12.7479 10.9643 12.9706C11.2875 13.2485 11.5753 13.7976 11.5753 14.6375C11.5753 15.7161 11.5855 17.8287 11.5863 18H12.2955C14.4311 18 15.4989 18 16.3117 17.5778C16.9966 17.222 17.555 16.6636 17.9108 15.9787C18.333 15.1659 18.333 14.0981 18.333 11.9625V6.0375C18.333 3.90191 18.333 2.83411 17.9108 2.02135C17.555 1.33643 16.9966 0.777983 16.3117 0.4222C15.4989 0 14.4311 0 12.2955 0H6.37051C4.23492 0 3.16712 0 2.35435 0.4222C1.66944 0.777983 1.11099 1.33643 0.755207 2.02135Z" fill="#A8A7B2"/>
</svg>
