<svg width="24" height="24" viewBox="0 0 24 24" fill="none" xmlns="http://www.w3.org/2000/svg">
<path fill-rule="evenodd" clip-rule="evenodd" d="M20.208 12.1607C20.208 11.5545 20.1536 10.9715 20.0525 10.4119H12V13.7192H16.6015C16.4032 14.7879 15.8009 15.6934 14.8953 16.2997V18.445H17.6585C19.2753 16.9565 20.208 14.7646 20.208 12.1607Z" fill="white"/>
<path fill-rule="evenodd" clip-rule="evenodd" d="M12 20.5164C14.3085 20.5164 16.2439 19.7508 17.6585 18.445L14.8953 16.2997C14.1297 16.8127 13.1504 17.1158 12 17.1158C9.77312 17.1158 7.88823 15.6118 7.21589 13.5909H4.35941V15.8061C5.76628 18.6004 8.65773 20.5164 12 20.5164Z" fill="white"/>
<path fill-rule="evenodd" clip-rule="evenodd" d="M7.21588 13.5909C7.04488 13.0779 6.94772 12.53 6.94772 11.9664C6.94772 11.4029 7.04488 10.8549 7.21588 10.3419V8.12671H4.35941C3.78034 9.28096 3.45 10.5868 3.45 11.9664C3.45 13.3461 3.78034 14.6519 4.35941 15.8062L7.21588 13.5909Z" fill="white"/>
<path fill-rule="evenodd" clip-rule="evenodd" d="M12 6.817C13.2553 6.817 14.3823 7.24838 15.2684 8.09561L17.7207 5.64331C16.24 4.26365 14.3046 3.41643 12 3.41643C8.65773 3.41643 5.76628 5.3324 4.35941 8.1267L7.21589 10.3419C7.88823 8.32102 9.77312 6.817 12 6.817Z" fill="white"/>
</svg>
