<svg width="22" height="13" viewBox="0 0 22 13" fill="none" xmlns="http://www.w3.org/2000/svg">
<path d="M9.12978 9.8422L8.34178 12.7822L6.41078 12.2642L7.19778 9.3252C6.01975 8.89073 4.9249 8.25756 3.96078 7.4532L1.80778 9.6072L0.392781 8.1922L2.54678 6.0392C1.33086 4.58296 0.513869 2.83596 0.175781 0.969199L1.07578 0.804199C3.965 2.88738 7.43787 4.0058 10.9998 4.0002C14.7038 4.0002 18.1308 2.8152 20.9238 0.804199L21.8238 0.968199C21.4861 2.83522 20.6695 4.58257 19.4538 6.0392L21.6068 8.1922L20.1918 9.6072L18.0388 7.4532C17.0747 8.25756 15.9798 8.89073 14.8018 9.3252L15.5888 12.2652L13.6578 12.7822L12.8698 9.8422C11.6321 10.0543 10.3674 10.0543 9.12978 9.8422Z" fill="#fcfcfc"/>
</svg>
