<svg viewBox="0 0 20 21" fill="none" xmlns="http://www.w3.org/2000/svg">
<g id="info.circle 1" opacity="0.6" clip-path="url(#clip0_2294_43973)">
<g id="Group">
<path id="Vector" d="M10 20.4561C15.4493 20.4561 19.961 15.9346 19.961 10.4951C19.961 5.0459 15.4395 0.53418 9.99023 0.53418C4.55078 0.53418 0.0390625 5.0459 0.0390625 10.4951C0.0390625 15.9346 4.56054 20.4561 10 20.4561ZM10 18.7959C5.39062 18.7959 1.70898 15.1045 1.70898 10.4951C1.70898 5.88574 5.38086 2.19434 9.99023 2.19434C14.5996 2.19434 18.3008 5.88574 18.3008 10.4951C18.3008 15.1045 14.6094 18.7959 10 18.7959ZM8.29101 15.9639H12.2657C12.6661 15.9639 12.9786 15.6709 12.9786 15.2705C12.9786 14.8897 12.6661 14.5869 12.2657 14.5869H11.0547V9.61621C11.0547 9.08887 10.7911 8.7373 10.293 8.7373H8.45703C8.05664 8.7373 7.74414 9.04004 7.74414 9.4209C7.74414 9.82129 8.05664 10.1143 8.45703 10.1143H9.50195V14.5869H8.29101C7.89062 14.5869 7.57812 14.8897 7.57812 15.2705C7.57812 15.6709 7.89062 15.9639 8.29101 15.9639ZM9.91211 7.11621C10.625 7.11621 11.1817 6.5498 11.1817 5.83691C11.1817 5.12402 10.625 4.55762 9.91211 4.55762C9.20898 4.55762 8.64258 5.12402 8.64258 5.83691C8.64258 6.5498 9.20898 7.11621 9.91211 7.11621Z" fill="#FCFCFC"/>
</g>
</g>
<defs>
<clipPath id="clip0_2294_43973">
<rect width="19.9219" height="19.9316" fill="white" transform="translate(0.0390625 0.53418)"/>
</clipPath>
</defs>
</svg>
