<svg width="35" height="35" viewBox="0 0 35 35" fill="none" xmlns="http://www.w3.org/2000/svg">
<path d="M17.5014 4.77246C14.045 4.77246 13.6112 4.78757 12.2537 4.84936C10.8988 4.9114 9.97396 5.12591 9.16474 5.44064C8.32769 5.76572 7.61763 6.20057 6.91023 6.90826C6.2023 7.61568 5.76746 8.32576 5.44133 9.16257C5.12581 9.97208 4.91105 10.8972 4.85006 12.2516C4.78935 13.6092 4.77344 14.0432 4.77344 17.4997C4.77344 20.9562 4.78882 21.3887 4.85033 22.7463C4.91264 24.1012 5.12714 25.0261 5.4416 25.8353C5.76693 26.6724 6.20177 27.3825 6.90943 28.0899C7.61657 28.7978 8.32663 29.2337 9.16315 29.5588C9.9729 29.8736 10.898 30.0881 12.2526 30.1501C13.6101 30.2119 14.0436 30.227 17.4998 30.227C20.9565 30.227 21.3889 30.2119 22.7465 30.1501C24.1013 30.0881 25.0272 29.8736 25.837 29.5588C26.6738 29.2337 27.3828 28.7978 28.0899 28.0899C28.7978 27.3825 29.2327 26.6724 29.5588 25.8356C29.8717 25.0261 30.0864 24.1009 30.1501 22.7465C30.211 21.389 30.2269 20.9562 30.2269 17.4997C30.2269 14.0432 30.211 13.6094 30.1501 12.2519C30.0864 10.8969 29.8717 9.97208 29.5588 9.16284C29.2327 8.32576 28.7978 7.61568 28.0899 6.90826C27.382 6.2003 26.674 5.76545 25.8362 5.44064C25.0248 5.12591 24.0995 4.9114 22.7446 4.84936C21.3871 4.78757 20.9549 4.77246 17.4974 4.77246H17.5014ZM16.3597 7.06602C16.6985 7.06549 17.0766 7.06602 17.5014 7.06602C20.8995 7.06602 21.3022 7.07822 22.6441 7.1392C23.885 7.19595 24.5584 7.40329 25.0071 7.5775C25.601 7.80818 26.0244 8.08394 26.4696 8.52939C26.915 8.97485 27.1908 9.39909 27.422 9.99303C27.5962 10.4411 27.8038 11.1146 27.8603 12.3555C27.9213 13.6972 27.9345 14.1002 27.9345 17.4968C27.9345 20.8934 27.9213 21.2964 27.8603 22.6381C27.8035 23.879 27.5962 24.5525 27.422 25.0006C27.1913 25.5945 26.915 26.0175 26.4696 26.4626C26.0242 26.9081 25.6013 27.1839 25.0071 27.4145C24.559 27.5895 23.885 27.7964 22.6441 27.8531C21.3025 27.9141 20.8995 27.9273 17.5014 27.9273C14.103 27.9273 13.7003 27.9141 12.3587 27.8531C11.1178 27.7958 10.4443 27.5885 9.99544 27.4143C9.40152 27.1836 8.97729 26.9078 8.53185 26.4624C8.08641 26.0169 7.81066 25.5937 7.57945 24.9995C7.40525 24.5514 7.19764 23.878 7.14117 22.637C7.08019 21.2954 7.06799 20.8923 7.06799 17.4936C7.06799 14.0949 7.08019 13.694 7.14117 12.3523C7.19791 11.1114 7.40525 10.438 7.57945 9.98932C7.81013 9.39538 8.08641 8.97113 8.53185 8.52568C8.97729 8.08023 9.40152 7.80447 9.99544 7.57326C10.4441 7.39826 11.1178 7.19144 12.3587 7.13443C13.5327 7.0814 13.9877 7.06549 16.3597 7.06284V7.06602ZM24.2949 9.17928C23.4517 9.17928 22.7677 9.86257 22.7677 10.706C22.7677 11.5492 23.4517 12.2333 24.2949 12.2333C25.138 12.2333 25.8221 11.5492 25.8221 10.706C25.8221 9.86284 25.138 9.17875 24.2949 9.17875V9.17928ZM17.5014 10.9637C13.892 10.9637 10.9656 13.8902 10.9656 17.4997C10.9656 21.1092 13.892 24.0344 17.5014 24.0344C21.1108 24.0344 24.0361 21.1092 24.0361 17.4997C24.0361 13.8902 21.1105 10.9637 17.5011 10.9637H17.5014ZM17.5014 13.2573C19.8442 13.2573 21.7437 15.1566 21.7437 17.4997C21.7437 19.8426 19.8442 21.7422 17.5014 21.7422C15.1583 21.7422 13.2591 19.8426 13.2591 17.4997C13.2591 15.1566 15.1583 13.2573 17.5014 13.2573Z" fill="#5A5477"/>
</svg>
