<svg viewBox="0 0 35 35" fill="none" xmlns="http://www.w3.org/2000/svg">
<path fill-rule="evenodd" clip-rule="evenodd" d="M6.86519 5.10449C5.89332 5.10449 5.10547 5.89234 5.10547 6.86421V28.1364C5.10547 29.1082 5.89332 29.8961 6.86519 29.8961H28.1374C29.1093 29.8961 29.8971 29.1082 29.8971 28.1364V6.86421C29.8971 5.89235 29.1093 5.10449 28.1374 5.10449H6.86519ZM10.6701 12.8036C11.8578 12.8036 12.8207 11.8407 12.8207 10.6529C12.8207 9.4651 11.8578 8.50221 10.6701 8.50221C9.48228 8.50221 8.51939 9.4651 8.51939 10.6529C8.51939 11.8407 9.48228 12.8036 10.6701 12.8036ZM14.7904 14.393H18.3547V16.0258C18.3547 16.0258 19.322 14.0913 21.9537 14.0913C24.3013 14.0913 26.246 15.2478 26.246 18.7729V26.2062H22.5523V19.6736C22.5523 17.5942 21.4422 17.3654 20.5962 17.3654C18.8405 17.3654 18.54 18.8798 18.54 19.9448V26.2062H14.7904V14.393ZM12.5449 14.393H8.79526V26.2062H12.5449V14.393Z" fill="#5A5477"/>
</svg>
