<svg width="19" height="18" viewBox="0 0 19 18" fill="none" xmlns="http://www.w3.org/2000/svg">
<g id="LinkedIn">
<path id="Container" fill-rule="evenodd" clip-rule="evenodd" d="M0.755207 2.02135C0.333008 2.83411 0.333008 3.90191 0.333008 6.0375V11.9625C0.333008 14.0981 0.333008 15.1659 0.755207 15.9787C1.11099 16.6636 1.66944 17.222 2.35435 17.5778C3.16712 18 4.23492 18 6.37051 18H12.2955C14.4311 18 15.4989 18 16.3117 17.5778C16.9966 17.222 17.555 16.6636 17.9108 15.9787C18.333 15.1659 18.333 14.0981 18.333 11.9625V6.0375C18.333 3.90191 18.333 2.83411 17.9108 2.02135C17.555 1.33643 16.9966 0.777983 16.3117 0.4222C15.4989 0 14.4311 0 12.2955 0H6.37051C4.23492 0 3.16712 0 2.35435 0.4222C1.66944 0.777983 1.11099 1.33643 0.755207 2.02135ZM4.37319 5.58997C5.23558 5.58997 5.93468 4.89087 5.93468 4.02848C5.93468 3.16609 5.23558 2.46698 4.37319 2.46698C3.51079 2.46698 2.81169 3.16609 2.81169 4.02848C2.81169 4.89087 3.51079 5.58997 4.37319 5.58997ZM7.36475 6.74397H9.95265V7.9295C9.95265 7.9295 10.6549 6.52497 12.5657 6.52497C14.2701 6.52497 15.6821 7.36464 15.6821 9.92401V15.321H13.0003V10.578C13.0003 9.06819 12.1943 8.90214 11.5801 8.90214C10.3054 8.90214 10.0871 10.0016 10.0871 10.7749V15.321H7.36475V6.74397ZM5.73439 6.74397H3.01199V15.321H5.73439V6.74397Z" fill="#A8A7B2"/>
</g>
</svg>
