<svg viewBox="0 0 126 25" fill="none" xmlns="http://www.w3.org/2000/svg">
<path d="M14.7128 12.1729C14.7128 12.5896 14.5893 12.9202 14.3447 13.1544C14.2242 13.2697 14.082 13.3599 13.9264 13.42C13.7708 13.48 13.6048 13.5086 13.4381 13.5042C13.273 13.5085 13.1087 13.4797 12.9549 13.4195C12.8011 13.3593 12.6609 13.2689 12.5426 13.1536C12.3036 12.9194 12.1794 12.5896 12.1794 12.1729C12.1794 11.7563 12.3012 11.4256 12.541 11.189C12.659 11.0725 12.7992 10.9809 12.9533 10.9199C13.1075 10.8588 13.2724 10.8295 13.4381 10.8337C13.6055 10.8292 13.7721 10.8582 13.9281 10.9191C14.084 10.98 14.2263 11.0715 14.3463 11.1882C14.5893 11.4256 14.7128 11.7579 14.7128 12.1729Z" fill="#FCFCFC"/>
<path d="M9.66903 13.3649C9.63955 12.3005 9.64114 11.2138 9.6762 10.1447C10.5573 9.634 11.4464 9.10899 12.2335 8.64293L13.3839 7.96416L15.4497 6.76914C17.0239 5.87527 18.783 4.93678 20.225 4.44841C20.3079 4.4212 20.3831 4.37441 20.4441 4.31201C20.5051 4.24961 20.5502 4.17342 20.5755 4.0899C20.6552 3.82541 20.558 3.48682 20.2935 3.13389C19.9844 2.72599 19.4681 2.30853 19.0292 2.47264C17.1801 3.15699 14.6427 4.71848 11.7045 6.52695C11.1524 6.86633 10.484 7.27822 9.81163 7.68692C9.9845 5.49649 10.2856 3.31808 10.7135 1.1629V1.14298C10.7772 0.814751 10.723 0.519183 10.5653 0.331963C10.5111 0.266537 10.4426 0.214365 10.3652 0.179432C10.2877 0.144499 10.2033 0.12773 10.1184 0.130403C9.61566 0.14315 9.13844 0.724725 8.98548 1.25691C7.92296 5.03994 7.42972 8.96011 7.52199 12.8884L10.3661 14.4866C10.1645 14.3738 9.99486 14.2118 9.87295 14.0156C9.75103 13.8194 9.68087 13.5955 9.66903 13.3649Z" fill="#FCFCFC"/>
<path d="M13.7411 16.5374L13.3666 16.7605L12.6679 16.3478C11.9294 15.912 11.0921 15.4181 10.2636 14.9377L7.41945 13.3387C5.10113 12.0879 3.24248 11.2363 1.59018 10.6675C1.3453 10.5894 1.0822 10.5894 0.837327 10.6675C0.593829 10.7369 0.374683 10.8733 0.204767 11.061C0.0910767 11.1846 0.0196487 11.3411 0.000818064 11.508C-0.000354068 11.5305 -0.000354068 11.5531 0.000818064 11.5757C0.000818064 11.8832 0.215124 12.1533 0.55849 12.2799C2.6155 13.0288 4.99119 14.2055 8.03448 15.9813C8.07683 16.0111 8.1213 16.0377 8.16753 16.061C9.28287 16.7151 10.3711 17.3787 11.3271 17.9666C9.69236 18.9227 8.02014 19.8508 6.68332 20.3647C6.61666 20.3898 6.55573 20.4281 6.50414 20.4772C6.45255 20.5263 6.41135 20.5853 6.38298 20.6507C6.30889 20.8212 6.31924 21.0315 6.41325 21.2593C6.47676 21.4093 6.55979 21.5502 6.66022 21.6784C6.97889 22.0863 7.49752 22.4958 7.92374 22.3157C9.35935 21.6927 11.2754 20.5208 13.8207 18.9346C13.8654 18.9118 13.9081 18.8851 13.9482 18.8549L14.1577 18.7251C15.042 18.1746 15.9534 17.6097 16.8887 17.0369L17.0481 14.5895C15.9192 15.234 14.811 15.8945 13.7411 16.5374Z" fill="#FCFCFC"/>
<path d="M17.3419 24.2397C17.6662 24.0565 17.9793 23.6303 18.1043 23.204C19.1832 19.4798 19.7119 15.6178 19.6738 11.7406C21.9722 12.9994 23.7998 13.8542 25.4098 14.423C25.844 14.5768 26.4455 14.4127 26.7873 14.0478C26.8758 13.9615 26.9413 13.8543 26.9778 13.7362C27.0142 13.618 27.0205 13.4926 26.996 13.3714C26.9395 13.1324 26.757 12.9396 26.479 12.8337C22.9991 11.5287 18.8827 9.00321 15.798 7.09277L13.7322 8.28779L14.7455 8.89008C15.4387 9.30117 16.1429 9.71943 16.8528 10.1345C17.051 10.2457 17.2176 10.4056 17.3369 10.5991C17.4562 10.7926 17.5243 11.0132 17.5347 11.2403C17.553 12.315 17.5403 13.3977 17.4965 14.4597L17.3371 16.9071C17.1496 19.0779 16.8365 21.236 16.3994 23.3705C16.3254 23.7545 16.417 24.0796 16.6432 24.2421C16.738 24.309 16.9898 24.4413 17.3419 24.2397Z" fill="#FCFCFC"/>
<path d="M37.7282 9.27782C36.9668 9.26962 36.2191 9.48137 35.5751 9.88765C34.9234 10.3043 34.4027 10.8967 34.0729 11.5964C33.7027 12.3887 33.5181 13.2549 33.5332 14.1293V14.3982C33.5332 15.7932 33.9482 16.931 34.7626 17.7552C35.5771 18.5794 36.6604 19.008 37.9795 19.008C38.7041 19.0191 39.4213 18.861 40.0741 18.5463C40.6232 18.279 41.0988 17.8817 41.4594 17.3889L40.5573 16.5238C40.2578 16.8812 39.8819 17.1669 39.4574 17.3598C39.0328 17.5526 38.5704 17.6478 38.1042 17.6383C37.7513 17.6479 37.4002 17.5855 37.0722 17.4549C36.7442 17.3242 36.4463 17.1281 36.1967 16.8784C35.6744 16.3264 35.3698 15.6037 35.3394 14.8443L35.3238 14.6378H41.6738V13.95C41.6738 12.4537 41.325 11.2866 40.6411 10.48C39.9572 9.67333 38.981 9.27782 37.7282 9.27782ZM35.3472 13.424L35.3764 13.2018C35.4383 12.522 35.6992 11.8755 36.1265 11.3431C36.3274 11.1289 36.5689 10.9568 36.8371 10.8371C37.1052 10.7174 37.3945 10.6523 37.6881 10.6458C37.9817 10.6393 38.2736 10.6914 38.5468 10.799C38.82 10.9067 39.069 11.0679 39.2791 11.273C39.6474 11.6802 39.8637 12.2783 39.9104 13.0538V13.424H35.3472Z" fill="#FCFCFC"/>
<path d="M46.04 9.27783C45.5296 9.26064 45.0228 9.36909 44.5642 9.59365C44.1055 9.81822 43.709 10.152 43.4096 10.5657C42.7471 11.4366 42.4101 12.6154 42.4101 14.0728C42.4101 15.6023 42.751 16.8239 43.4233 17.7046C43.7165 18.1169 44.1065 18.4509 44.559 18.6772C45.0116 18.9034 45.5128 19.015 46.0186 19.0022C46.4869 19.0216 46.9531 18.9305 47.3797 18.7362C47.8062 18.5419 48.1809 18.2499 48.4736 17.8838L48.7698 17.5253L48.9081 18.8229H50.5078V5.36353H48.7211V10.6787L48.3801 10.289C48.0909 9.95568 47.7304 9.69168 47.3254 9.51663C46.9203 9.34158 46.481 9.25997 46.04 9.27783ZM48.7035 11.9588L48.725 11.9997V16.2589L48.7035 16.3017C48.5178 16.7048 48.2167 17.0438 47.8383 17.2758C47.4599 17.5078 47.0213 17.6224 46.5778 17.6052C46.2273 17.6184 45.8794 17.5408 45.5678 17.38C45.2561 17.2193 44.9912 16.9807 44.7989 16.6875C44.3994 16.103 44.1968 15.2827 44.1968 14.2559C44.1968 13.0869 44.4014 12.2004 44.8047 11.6081C44.9978 11.3121 45.2642 11.0712 45.5779 10.9087C45.8917 10.7462 46.2422 10.6676 46.5953 10.6807C47.0332 10.6617 47.4668 10.773 47.8414 11.0005C48.216 11.228 48.5147 11.5615 48.6996 11.9588H48.7035Z" fill="#FCFCFC"/>
<path d="M53.2688 7.6892C53.4104 7.7004 53.5528 7.68212 53.6869 7.6355C53.8211 7.58889 53.9441 7.51495 54.0482 7.41837C54.1371 7.32788 54.2066 7.22024 54.2525 7.10198C54.2984 6.98373 54.3197 6.85736 54.3152 6.7306C54.32 6.60129 54.2987 6.47233 54.2525 6.35147C54.2063 6.2306 54.1362 6.12032 54.0463 6.02723C53.9425 5.93 53.8196 5.85551 53.6854 5.80854C53.5512 5.76157 53.4086 5.74315 53.2669 5.75446C53.127 5.74347 52.9863 5.76208 52.854 5.80908C52.7217 5.85607 52.6008 5.93041 52.4992 6.02723C52.411 6.12124 52.3423 6.23181 52.2972 6.35255C52.252 6.47329 52.2313 6.60178 52.2362 6.7306C52.2314 6.85734 52.2522 6.98376 52.2974 7.10227C52.3426 7.22078 52.4112 7.32895 52.4992 7.42032C52.6018 7.51609 52.7232 7.58946 52.8557 7.63575C52.9882 7.68204 53.1289 7.70024 53.2688 7.6892Z" fill="#FCFCFC"/>
<path d="M54.1573 9.45728H52.3706V18.8212H54.1573V9.45728Z" fill="#FCFCFC"/>
<path d="M58.5881 17.265C58.3865 16.9969 58.2908 16.664 58.3192 16.3298V10.6912H60.0299V9.4559H58.3153V7.08667H56.5286V9.4559H54.9348V10.6892H56.5286V16.4116C56.5286 18.1535 57.2846 19.001 58.8414 19.001C59.2595 18.998 59.6757 18.9437 60.0806 18.8393V17.5319C59.8932 17.5628 59.7036 17.5785 59.5136 17.5787C59.0791 17.5787 58.7751 17.4774 58.5881 17.265Z" fill="#FCFCFC"/>
<path d="M68.5388 6.08643L65.4174 12.5589L62.294 6.08643H60.2228L64.4743 14.1352V18.821H66.3585V14.1352L70.6022 6.08643H68.5388Z" fill="#FCFCFC"/>
<path d="M77.7452 10.4879C76.9659 9.68522 75.9468 9.27801 74.7018 9.27801C73.9133 9.26171 73.1358 9.46402 72.4552 9.86253C71.7983 10.2656 71.2729 10.8512 70.9432 11.5479C70.571 12.3287 70.3836 13.1847 70.3957 14.0496V14.1568C70.3957 15.6278 70.7854 16.8163 71.5765 17.6911C72.3675 18.5659 73.4158 19.0024 74.7193 19.0024C75.5148 19.0205 76.2997 18.8182 76.9873 18.4179C77.6413 18.0176 78.1636 17.4344 78.4895 16.7403C78.8539 15.9609 79.0358 15.1086 79.0215 14.2483V13.7378C78.9494 12.3876 78.5227 11.2965 77.7452 10.4879ZM76.5937 16.6935C76.3774 16.9871 76.0954 17.2259 75.7703 17.391C75.4451 17.5561 75.0859 17.6429 74.7213 17.6444C74.3567 17.6459 73.9967 17.5621 73.6702 17.3997C73.3438 17.2373 73.0598 17.0008 72.841 16.7091C72.4065 16.111 72.1863 15.279 72.1863 14.2386C72.1863 13.0696 72.4104 12.1753 72.8508 11.5771C73.0673 11.287 73.3488 11.0516 73.6727 10.8899C73.9966 10.7282 74.3539 10.6447 74.7159 10.646C75.078 10.6473 75.4346 10.7335 75.7574 10.8976C76.0801 11.0616 76.3598 11.299 76.5742 11.5907C77.0185 12.1986 77.2426 13.0267 77.2426 14.0496C77.2426 15.1972 77.0204 16.0798 76.5937 16.6935Z" fill="#FCFCFC"/>
<path d="M82.0533 15.5533V9.45483H80.2665V15.5786C80.2665 16.697 80.5237 17.5581 81.0284 18.1368C81.533 18.7155 82.2812 19.0019 83.2691 19.0019C84.3953 19.0019 85.237 18.6531 85.843 17.9361L86.1586 17.562L86.2307 18.8226H87.9025V9.45483H86.1158V16.3092L86.0963 16.3482C85.691 17.1821 84.9136 17.603 83.7796 17.603C82.9924 17.6049 82.0533 17.2484 82.0533 15.5533Z" fill="#FCFCFC"/>
<path d="M91.6708 10.4569L91.3415 10.9868L91.2655 9.45733H89.5684V18.8212H91.3551V12.3039L91.3726 12.2649C91.7623 11.4232 92.4891 10.9965 93.5666 10.9965C93.7978 10.996 94.0289 11.0103 94.2583 11.0394V9.34628C94.0675 9.29678 93.8708 9.27383 93.6737 9.27809C92.8242 9.27809 92.1637 9.66192 91.6708 10.4569Z" fill="#FCFCFC"/>
<path d="M94.6987 16.7075C94.8712 16.6967 95.0441 16.7221 95.2062 16.7822C95.3683 16.8423 95.516 16.9356 95.6398 17.0563C95.7497 17.1721 95.8355 17.3085 95.8923 17.4576C95.9492 17.6068 95.9759 17.7657 95.971 17.9252C95.9758 18.0821 95.9489 18.2384 95.892 18.3847C95.8351 18.531 95.7493 18.6643 95.6398 18.7767C95.3783 18.9945 95.0487 19.1137 94.7084 19.1137C94.3681 19.1137 94.0386 18.9945 93.7771 18.7767C93.6639 18.6657 93.5751 18.5323 93.5163 18.385C93.4576 18.2377 93.4303 18.0798 93.4361 17.9214C93.4327 17.7615 93.4611 17.6025 93.5196 17.4536C93.5781 17.3048 93.6657 17.1691 93.7771 17.0543C93.8984 16.936 94.0429 16.8442 94.2016 16.7845C94.3602 16.7248 94.5294 16.6986 94.6987 16.7075Z" fill="#FCFCFC"/>
<path d="M104.938 14H100.207V19.0171H98.1628V7.17871H105.637V8.83678H100.207V12.3575H104.943L104.938 14Z" fill="#FCFCFC"/>
<path d="M106.218 7.9344C106.213 7.79571 106.236 7.65747 106.285 7.5277C106.335 7.39793 106.409 7.27921 106.504 7.17843C106.613 7.07378 106.741 6.99286 106.883 6.94085C107.024 6.88885 107.174 6.86691 107.325 6.87643C107.475 6.86708 107.627 6.88909 107.768 6.94107C107.91 6.99305 108.04 7.07387 108.149 7.17843C108.246 7.27851 108.321 7.39701 108.371 7.52689C108.421 7.65677 108.444 7.79536 108.439 7.9344C108.444 8.07135 108.42 8.20777 108.37 8.33538C108.32 8.46299 108.245 8.57912 108.149 8.67674C108.039 8.78031 107.91 8.86022 107.768 8.91151C107.626 8.96279 107.475 8.98435 107.325 8.97484C107.175 8.98452 107.024 8.96302 106.883 8.91171C106.742 8.8604 106.613 8.7804 106.504 8.67674C106.409 8.57841 106.335 8.46205 106.286 8.33456C106.237 8.20706 106.214 8.071 106.218 7.9344ZM108.303 19.0168H106.339V10.2179H108.303V19.0168Z" fill="#FCFCFC"/>
<path d="M111.685 19.0175H109.721V6.53418H111.685V19.0175Z" fill="#FCFCFC"/>
<path d="M114.82 10.2175L114.877 11.1371C115.491 10.4162 116.331 10.0558 117.398 10.0558C118.567 10.0558 119.367 10.5058 119.796 11.406C120.092 10.9716 120.494 10.6197 120.963 10.3835C121.433 10.1473 121.954 10.0345 122.479 10.0558C123.445 10.0558 124.162 10.324 124.632 10.8604C125.103 11.3969 125.344 12.1886 125.355 13.2355V19.0164H123.393V13.292C123.393 12.7328 123.271 12.3178 123.029 12.0645C122.787 11.8113 122.386 11.6749 121.825 11.6749C121.428 11.6581 121.038 11.787 120.73 12.0373C120.446 12.2886 120.243 12.618 120.145 12.9842V19.0242H118.181V13.2258C118.154 12.1866 117.628 11.6671 116.605 11.6671C115.826 11.6671 115.26 11.9905 114.933 12.6413V19.0164H112.969V10.2175H114.82Z" fill="#FCFCFC"/>
</svg>
