<svg viewBox="0 0 60 53" fill="none" xmlns="http://www.w3.org/2000/svg">
<g clip-path="url(#clip0_4074_780)">
<path d="M32.6892 26.3602C32.6892 27.272 32.4149 27.9954 31.8717 28.508C31.6039 28.7601 31.2882 28.9576 30.9426 29.089C30.597 29.2203 30.2284 29.283 29.8581 29.2733C29.4912 29.2825 29.1261 29.2194 28.7843 29.0877C28.4424 28.956 28.1308 28.7583 27.8676 28.5062C27.3368 27.9937 27.0625 27.272 27.0625 26.3602C27.0625 25.4485 27.3332 24.725 27.8658 24.2072C28.1277 23.9522 28.4391 23.7519 28.7815 23.6183C29.1238 23.4847 29.49 23.4205 29.8581 23.4297C30.2296 23.4198 30.5994 23.4834 30.9455 23.6166C31.2916 23.7499 31.6072 23.9501 31.8735 24.2055C32.4149 24.725 32.6892 25.4519 32.6892 26.3602Z" fill="#D7CCE7"/>
<path d="M21.4867 28.9663C21.4194 26.6372 21.4247 24.2593 21.5026 21.9198C23.4595 20.8024 25.4342 19.6535 27.1823 18.6337L29.7373 17.1484L34.3253 14.5334C37.8217 12.5774 41.7285 10.5238 44.931 9.45518C45.1152 9.39564 45.2821 9.29326 45.4177 9.15671C45.5532 9.02016 45.6533 8.85345 45.7096 8.67069C45.8865 8.09192 45.6689 7.35101 45.0832 6.57873C44.3967 5.68615 43.2501 4.77266 42.2752 5.13178C38.1685 6.62928 32.5312 10.0462 25.9968 14.0035C24.7706 14.7461 23.2861 15.6474 21.7945 16.5417C22.1799 11.7484 22.8511 6.9815 23.8045 2.26579L23.8134 2.22221C23.9532 1.50396 23.8329 0.857199 23.4825 0.447522C23.3621 0.304356 23.2101 0.190192 23.038 0.113752C22.866 0.037312 22.6785 0.000614538 22.4899 0.0064633C21.3716 0.0343562 20.3135 1.30697 19.9738 2.4715C17.614 10.7496 16.5185 19.3277 16.7235 27.9238L23.0402 31.4208C22.5915 31.1747 22.2136 30.8204 21.9418 30.3911C21.6701 29.9618 21.5135 29.4715 21.4867 28.9663Z" fill="url(#paint0_linear_4074_780)"/>
<path d="M30.5222 35.9125L29.6905 36.4006L28.1335 35.4906C26.495 34.537 24.6354 33.4562 22.7952 32.4049L16.4767 28.9061C11.3296 26.1691 7.2016 24.3055 3.53189 23.0608C2.98742 22.8899 2.4025 22.8899 1.85804 23.0608C1.31755 23.2135 0.831012 23.5118 0.453145 23.922C0.202006 24.1931 0.0441103 24.5353 0.00195245 24.9C-0.000650817 24.9494 -0.000650817 24.9988 0.00195245 25.0482C0.00195245 25.7211 0.476149 26.3121 1.24053 26.5893C5.81086 28.228 11.0872 30.8028 17.8462 34.6887C17.9403 34.7538 18.0391 34.8121 18.1417 34.863C20.6189 36.2943 23.0341 37.7464 25.1591 39.033C21.5283 41.125 17.8126 43.1559 14.8454 44.2803C14.6972 44.3351 14.5617 44.4188 14.4471 44.5263C14.3325 44.6338 14.2411 44.763 14.1783 44.9062C14.0137 45.2793 14.0367 45.7395 14.2438 46.2381C14.3862 46.5655 14.5706 46.8737 14.7923 47.1551C15.5 48.0476 16.6537 48.9437 17.5985 48.5497C20.8029 47.1986 25.0547 44.636 30.7062 41.1633C30.8054 41.1133 30.9001 41.055 30.9893 40.989L31.4546 40.7048C33.4186 39.5002 35.4411 38.2642 37.5183 37.0108L37.8722 31.6553C35.3685 33.0604 32.9108 34.5056 30.5222 35.9125Z" fill="url(#paint1_linear_4074_780)"/>
<path d="M38.5285 52.7651C39.2486 52.3642 39.944 51.4315 40.2218 50.4988C42.616 42.3484 43.7891 33.8971 43.7039 25.4126C48.8068 28.1671 52.8676 30.0376 56.4435 31.2824C57.4061 31.6188 58.7437 31.2597 59.5028 30.4613C59.6992 30.2723 59.8444 30.0378 59.9251 29.7792C60.0058 29.5206 60.0194 29.2463 59.9646 28.9812C59.839 28.4582 59.4338 28.0363 58.8163 27.8045C51.0894 24.9489 41.9469 19.4226 35.0958 15.2422L30.5078 17.8571L32.7603 19.1768C34.2996 20.0764 35.8655 20.9916 37.4403 21.8999C37.8809 22.1428 38.2513 22.4925 38.5164 22.916C38.7815 23.3395 38.9324 23.8226 38.9549 24.3196C38.9973 26.6713 38.9673 29.0405 38.87 31.3643L38.5161 36.7197C38.1049 41.4707 37.4149 46.1943 36.4494 50.8667C36.2849 51.7069 36.4866 52.4182 36.9909 52.7738C37.1873 52.9168 37.7464 53.2062 38.5285 52.7651Z" fill="url(#paint2_linear_4074_780)"/>
</g>
<defs>
<linearGradient id="paint0_linear_4074_780" x1="31.2343" y1="0.00585974" x2="18.1216" y2="32.9959" gradientUnits="userSpaceOnUse">
<stop stop-color="white"/>
<stop offset="1" stop-color="white" stop-opacity="0.77"/>
</linearGradient>
<linearGradient id="paint1_linear_4074_780" x1="-7.25432" y1="31.99" x2="39.5409" y2="34.8631" gradientUnits="userSpaceOnUse">
<stop stop-color="white"/>
<stop offset="1" stop-color="white" stop-opacity="0.77"/>
</linearGradient>
<linearGradient id="paint2_linear_4074_780" x1="49.2775" y1="51.6895" x2="33.4036" y2="14.0379" gradientUnits="userSpaceOnUse">
<stop stop-color="white"/>
<stop offset="1" stop-color="white" stop-opacity="0.77"/>
</linearGradient>
<clipPath id="clip0_4074_780">
<rect width="60" height="53" fill="white"/>
</clipPath>
</defs>
</svg>
