<svg width="175" height="36" viewBox="0 0 175 36" fill="none" xmlns="http://www.w3.org/2000/svg">
<path d="M21.7436 17.906C21.7436 18.5076 21.5653 18.985 21.2122 19.3231C21.0381 19.4895 20.8328 19.6198 20.6082 19.7065C20.3835 19.7932 20.1439 19.8345 19.9032 19.8281C19.6648 19.8343 19.4276 19.7927 19.2055 19.7058C18.9834 19.6189 18.781 19.4884 18.6102 19.322C18.2651 18.9838 18.0857 18.5076 18.0857 17.906C18.0857 17.3044 18.2617 16.827 18.6079 16.4854C18.7782 16.3171 18.9806 16.1849 19.2032 16.0968C19.4258 16.0086 19.6638 15.9663 19.9032 15.9723C20.1448 15.9658 20.3854 16.0077 20.6106 16.0956C20.8358 16.1835 21.0411 16.3157 21.2145 16.4842C21.5653 16.827 21.7436 17.3067 21.7436 17.906Z" fill="white"/>
<path d="M14.4612 19.6256C14.4186 18.0888 14.4209 16.5198 14.4715 14.9761C15.7438 14.2388 17.0275 13.4808 18.164 12.8079L19.825 11.8278L22.8077 10.1024C25.0807 8.81174 27.6205 7.4567 29.7025 6.75157C29.8223 6.71229 29.9308 6.64473 30.0189 6.55463C30.107 6.46453 30.1721 6.35453 30.2087 6.23394C30.3237 5.85205 30.1834 5.36317 29.8015 4.85359C29.3551 4.26464 28.6098 3.66189 27.976 3.89885C25.3061 4.88695 21.6425 7.14152 17.4002 9.75268C16.603 10.2427 15.6379 10.8374 14.6671 11.4275C14.9167 8.26485 15.3515 5.11954 15.9692 2.00778V1.97902C16.0612 1.5051 15.983 1.07834 15.7553 0.808023C15.677 0.713558 15.5781 0.638229 15.4663 0.587791C15.3545 0.537353 15.2326 0.513141 15.11 0.517C14.3841 0.535405 13.6951 1.37511 13.4742 2.14351C11.9401 7.60565 11.2279 13.2658 11.3612 18.9377L15.4677 21.2452C15.1766 21.0824 14.9316 20.8485 14.7556 20.5652C14.5796 20.2819 14.4783 19.9587 14.4612 19.6256Z" fill="white"/>
<path d="M20.3403 24.2084L19.7997 24.5304L18.7909 23.9346C17.7246 23.3054 16.5156 22.5922 15.3193 21.8986L11.2128 19.5899C7.86543 17.784 5.18179 16.5543 2.79609 15.733C2.44252 15.6202 2.06264 15.6202 1.70907 15.733C1.3575 15.8333 1.04108 16.0302 0.795743 16.3013C0.631591 16.4797 0.528458 16.7057 0.501269 16.9466C0.499577 16.9791 0.499577 17.0118 0.501269 17.0443C0.501269 17.4884 0.810697 17.8783 1.30647 18.0612C4.27652 19.1425 7.70668 20.8415 12.1008 23.4054C12.1619 23.4484 12.2261 23.4869 12.2929 23.5205C13.9033 24.4649 15.4746 25.4231 16.8549 26.272C14.4945 27.6523 12.0801 28.9924 10.1499 29.7343C10.0537 29.7706 9.96568 29.8259 9.89119 29.8968C9.8167 29.9678 9.75721 30.0529 9.71624 30.1473C9.60927 30.3935 9.62422 30.6971 9.75995 31.0261C9.85164 31.2426 9.97154 31.4461 10.1165 31.6312C10.5767 32.2201 11.3255 32.8114 11.9409 32.5514C14.0137 31.6519 16.7802 29.9598 20.4554 27.6696C20.5199 27.6366 20.5815 27.5981 20.6394 27.5545L20.9419 27.3671C22.2187 26.5722 23.5347 25.7566 24.8851 24.9296L25.1152 21.3959C23.4852 22.3265 21.8852 23.2801 20.3403 24.2084Z" fill="white"/>
<path d="M25.5397 35.328C26.0078 35.0634 26.4599 34.448 26.6405 33.8326C28.1983 28.4553 28.9617 22.8792 28.9066 17.2811C32.2251 19.0986 34.8639 20.3328 37.1886 21.1541C37.8156 21.3761 38.684 21.1392 39.1775 20.6123C39.3053 20.4877 39.3999 20.333 39.4525 20.1624C39.5052 19.9918 39.5142 19.8108 39.4789 19.6358C39.3972 19.2907 39.1338 19.0123 38.7323 18.8593C33.7079 16.9751 27.7643 13.3287 23.3104 10.5703L20.3277 12.2957L21.7909 13.1654C22.7916 13.7589 23.8085 14.3628 24.8334 14.9621C25.1196 15.1227 25.3601 15.3536 25.5324 15.6329C25.7047 15.9123 25.803 16.2309 25.818 16.5587C25.8445 18.1105 25.8261 19.6737 25.7628 21.207L25.5328 24.7407C25.262 27.875 24.8099 30.991 24.1789 34.073C24.0719 34.6275 24.2042 35.0968 24.5309 35.3315C24.6677 35.4281 25.0312 35.619 25.5397 35.328Z" fill="white"/>
<path d="M55.2304 13.9564C54.1905 13.9452 53.1695 14.2344 52.2899 14.7893C51.3998 15.3584 50.6886 16.1673 50.2383 17.123C49.7327 18.2051 49.4806 19.3882 49.5012 20.5824V20.9496C49.5012 22.8549 50.068 24.409 51.1803 25.5346C52.2926 26.6603 53.7722 27.2457 55.5737 27.2457C56.5633 27.2608 57.5428 27.0449 58.4343 26.615C59.1843 26.25 59.8338 25.7074 60.3264 25.0343L59.0943 23.8528C58.6852 24.341 58.1719 24.7311 57.5921 24.9945C57.0123 25.258 56.3807 25.388 55.744 25.375C55.262 25.3881 54.7824 25.3029 54.3345 25.1244C53.8866 24.946 53.4797 24.6781 53.1388 24.3371C52.4255 23.5831 52.0095 22.5962 51.968 21.559L51.9467 21.2769H60.6191V20.3376C60.6191 18.2939 60.1427 16.6999 59.2087 15.5982C58.2747 14.4966 56.9415 13.9564 55.2304 13.9564ZM51.9786 19.6191L52.0185 19.3157C52.103 18.3872 52.4594 17.5042 53.043 16.7771C53.3173 16.4845 53.6472 16.2495 54.0134 16.086C54.3796 15.9225 54.7748 15.8336 55.1757 15.8247C55.5767 15.8158 55.9754 15.887 56.3485 16.034C56.7216 16.1811 57.0616 16.4012 57.3486 16.6813C57.8516 17.2375 58.1469 18.0544 58.2108 19.1135V19.6191H51.9786Z" fill="white"/>
<path d="M66.5825 13.9564C65.8854 13.9329 65.1933 14.0811 64.5669 14.3878C63.9405 14.6945 63.399 15.1504 62.9901 15.7154C62.0853 16.9049 61.6249 18.5148 61.6249 20.5053C61.6249 22.5942 62.0906 24.2627 63.0087 25.4655C63.4091 26.0287 63.9418 26.4848 64.5599 26.7938C65.1779 27.1029 65.8624 27.2553 66.5532 27.2378C67.1928 27.2643 67.8296 27.1398 68.4121 26.8744C68.9946 26.6091 69.5064 26.2103 69.9062 25.7103L70.3106 25.2207L70.4996 26.993H72.6843V8.61035H70.2441V15.8697L69.7784 15.3375C69.3835 14.8822 68.8912 14.5217 68.3379 14.2826C67.7847 14.0435 67.1847 13.932 66.5825 13.9564ZM70.2202 17.618L70.2494 17.6739V23.491L70.2202 23.5495C69.9665 24.1001 69.5553 24.563 69.0385 24.8799C68.5217 25.1968 67.9227 25.3533 67.3169 25.3298C66.8383 25.3478 66.3632 25.2419 65.9375 25.0223C65.5119 24.8027 65.1501 24.4769 64.8874 24.0764C64.3419 23.2781 64.0651 22.1578 64.0651 20.7554C64.0651 19.1588 64.3445 17.948 64.8954 17.139C65.1591 16.7349 65.5229 16.4058 65.9514 16.1838C66.3799 15.9619 66.8586 15.8546 67.3409 15.8724C67.9389 15.8464 68.5311 15.9985 69.0427 16.3092C69.5543 16.6199 69.9622 17.0754 70.2148 17.618H70.2202Z" fill="white"/>
<path d="M76.455 11.785C76.6484 11.8003 76.8428 11.7754 77.026 11.7117C77.2092 11.648 77.3772 11.5471 77.5194 11.4151C77.6408 11.2916 77.7358 11.1445 77.7985 10.983C77.8612 10.8215 77.8903 10.6489 77.884 10.4758C77.8906 10.2992 77.8616 10.1231 77.7985 9.95799C77.7353 9.79291 77.6395 9.64229 77.5168 9.51516C77.3751 9.38236 77.2072 9.28062 77.0239 9.21647C76.8406 9.15232 76.6459 9.12715 76.4524 9.1426C76.2612 9.1276 76.0691 9.15301 75.8884 9.2172C75.7078 9.28139 75.5427 9.38292 75.4039 9.51516C75.2834 9.64355 75.1897 9.79457 75.128 9.95947C75.0663 10.1244 75.038 10.2999 75.0447 10.4758C75.0381 10.6489 75.0665 10.8216 75.1283 10.9834C75.19 11.1453 75.2838 11.293 75.4039 11.4178C75.544 11.5486 75.7099 11.6488 75.8908 11.712C76.0718 11.7753 76.2639 11.8001 76.455 11.785Z" fill="white"/>
<path d="M77.6685 14.2012H75.2283V26.9902H77.6685V14.2012Z" fill="white"/>
<path d="M83.7197 24.8643C83.4444 24.4981 83.3137 24.0434 83.3525 23.587V15.8858H85.6889V14.1987H83.3472V10.9629H80.907V14.1987H78.7302V15.8832H80.907V23.6987C80.907 26.0777 81.9395 27.2353 84.0656 27.2353C84.6367 27.2312 85.2051 27.157 85.7581 27.0144V25.2288C85.5021 25.271 85.2431 25.2924 84.9837 25.2927C84.3903 25.2927 83.9752 25.1543 83.7197 24.8643Z" fill="white"/>
<path d="M97.3098 9.59766L93.0468 18.4377L88.7811 9.59766H85.9524L91.7588 20.5905V26.9903H94.3321V20.5905L100.128 9.59766H97.3098Z" fill="white"/>
<path d="M109.883 15.6088C108.819 14.5125 107.427 13.9563 105.727 13.9563C104.65 13.9341 103.588 14.2104 102.658 14.7546C101.761 15.3051 101.044 16.1049 100.593 17.0564C100.085 18.1228 99.8292 19.292 99.8457 20.4733V20.6196C99.8457 22.6287 100.378 24.252 101.458 25.4468C102.539 26.6416 103.97 27.2377 105.751 27.2377C106.837 27.2624 107.909 26.9861 108.848 26.4393C109.741 25.8927 110.455 25.0961 110.9 24.1482C111.397 23.0836 111.646 21.9196 111.626 20.7447V20.0475C111.528 18.2034 110.945 16.7132 109.883 15.6088ZM108.311 24.0843C108.015 24.4852 107.63 24.8114 107.186 25.0369C106.742 25.2624 106.251 25.3809 105.753 25.383C105.255 25.385 104.764 25.2706 104.318 25.0488C103.872 24.827 103.484 24.504 103.185 24.1056C102.592 23.2886 102.291 22.1524 102.291 20.7314C102.291 19.1347 102.597 17.9133 103.199 17.0964C103.494 16.7001 103.879 16.3787 104.321 16.1578C104.764 15.937 105.252 15.8229 105.746 15.8247C106.24 15.8265 106.728 15.9442 107.168 16.1683C107.609 16.3923 107.991 16.7166 108.284 17.115C108.891 17.9453 109.197 19.0762 109.197 20.4733C109.197 22.0406 108.893 23.2461 108.311 24.0843Z" fill="white"/>
<path d="M115.767 22.5278V14.1987H113.327V22.5624C113.327 24.0899 113.678 25.2661 114.367 26.0564C115.056 26.8467 116.078 27.2379 117.427 27.2379C118.965 27.2379 120.115 26.7616 120.943 25.7823L121.374 25.2714L121.472 26.9931H123.755V14.1987H121.315V23.5603L121.289 23.6136C120.735 24.7525 119.673 25.3273 118.125 25.3273C117.049 25.3299 115.767 24.843 115.767 22.5278Z" fill="white"/>
<path d="M128.902 15.5662L128.452 16.29L128.348 14.2011H126.031V26.9901H128.471V18.0889L128.495 18.0356C129.027 16.8861 130.019 16.3033 131.491 16.3033C131.807 16.3026 132.122 16.3221 132.436 16.3618V14.0494C132.175 13.9818 131.906 13.9504 131.637 13.9562C130.477 13.9562 129.575 14.4805 128.902 15.5662Z" fill="white"/>
<path d="M133.037 24.1029C133.273 24.0881 133.509 24.1229 133.73 24.2049C133.952 24.287 134.153 24.4145 134.322 24.5793C134.473 24.7374 134.59 24.9237 134.667 25.1274C134.745 25.3311 134.782 25.5482 134.775 25.7661C134.781 25.9804 134.745 26.1938 134.667 26.3936C134.589 26.5934 134.472 26.7755 134.322 26.929C133.965 27.2264 133.515 27.3892 133.05 27.3892C132.586 27.3892 132.136 27.2264 131.778 26.929C131.624 26.7774 131.503 26.5952 131.422 26.394C131.342 26.1929 131.305 25.9772 131.313 25.7608C131.308 25.5424 131.347 25.3253 131.427 25.122C131.507 24.9187 131.626 24.7333 131.778 24.5766C131.944 24.415 132.142 24.2896 132.358 24.208C132.575 24.1265 132.806 24.0907 133.037 24.1029Z" fill="white"/>
<path d="M147.021 20.4043H140.56V27.2565H137.769V11.0879H147.976V13.3525H140.56V18.161H147.029L147.021 20.4043Z" fill="white"/>
<path d="M148.769 12.1203C148.763 11.9308 148.794 11.742 148.861 11.5648C148.929 11.3876 149.03 11.2254 149.161 11.0878C149.308 10.9448 149.484 10.8343 149.677 10.7633C149.87 10.6923 150.076 10.6623 150.281 10.6753C150.487 10.6625 150.693 10.6926 150.887 10.7636C151.081 10.8346 151.258 10.945 151.406 11.0878C151.538 11.2245 151.642 11.3863 151.71 11.5637C151.778 11.7411 151.81 11.9304 151.803 12.1203C151.809 12.3073 151.777 12.4936 151.709 12.6679C151.641 12.8422 151.538 13.0008 151.406 13.1341C151.257 13.2756 151.08 13.3847 150.886 13.4548C150.692 13.5248 150.486 13.5543 150.281 13.5413C150.076 13.5545 149.871 13.5251 149.678 13.4551C149.485 13.385 149.309 13.2757 149.161 13.1341C149.031 12.9998 148.93 12.8409 148.862 12.6668C148.795 12.4927 148.764 12.3068 148.769 12.1203ZM151.617 27.2564H148.934V15.239H151.617V27.2564Z" fill="white"/>
<path d="M156.236 27.2564H153.554V10.207H156.236V27.2564Z" fill="white"/>
<path d="M160.518 15.239L160.595 16.495C161.434 15.5104 162.582 15.0181 164.038 15.0181C165.635 15.0181 166.727 15.6328 167.314 16.8622C167.718 16.269 168.266 15.7884 168.908 15.4657C169.549 15.1431 170.261 14.989 170.979 15.0181C172.297 15.0181 173.277 15.3845 173.919 16.1171C174.561 16.8498 174.89 17.9311 174.906 19.361V27.2563H172.227V19.4381C172.227 18.6744 172.059 18.1076 171.729 17.7617C171.399 17.4157 170.851 17.2295 170.084 17.2295C169.542 17.2065 169.01 17.3825 168.589 17.7244C168.201 18.0677 167.924 18.5175 167.791 19.0177V27.267H165.108V19.3477C165.071 17.9284 164.353 17.2188 162.955 17.2188C161.891 17.2188 161.119 17.6605 160.672 18.5493V27.2563H157.99V15.239H160.518Z" fill="white"/>
</svg>
