<svg viewBox="0 0 21 21" fill="none" xmlns="http://www.w3.org/2000/svg">
<g id="maximize">
<path id="Vector" d="M7.31573 3.33594H4.92786C4.50565 3.33594 4.10074 3.50366 3.8022 3.8022C3.50366 4.10074 3.33594 4.50565 3.33594 4.92786V7.31573M17.6632 7.31573V4.92786C17.6632 4.50565 17.4955 4.10074 17.1969 3.8022C16.8984 3.50366 16.4935 3.33594 16.0713 3.33594H13.6834M13.6834 17.6632H16.0713C16.4935 17.6632 16.8984 17.4955 17.1969 17.1969C17.4955 16.8984 17.6632 16.4935 17.6632 16.0713V13.6834M3.33594 13.6834V16.0713C3.33594 16.4935 3.50366 16.8984 3.8022 17.1969C4.10074 17.4955 4.50565 17.6632 4.92786 17.6632H7.31573" stroke="#EFEDFD" stroke-opacity="0.7" stroke-width="2" stroke-linecap="round" stroke-linejoin="round"/>
</g>
</svg>
