<svg width="32" height="32" viewBox="0 0 32 32" fill="none" xmlns="http://www.w3.org/2000/svg">
<circle cx="16" cy="16" r="15.5" stroke="#8987FE"/>
<path d="M15.0957 19.0195H16.3945V18.2871C16.3945 17.2031 16.7559 16.6465 18.0352 15.8262C19.373 14.9668 20.0957 13.9414 20.0957 12.4961V12.4863C20.0957 10.4941 18.4355 9 16.0918 9C13.5723 9 12.1758 10.6113 12.0098 12.5645L12 12.6816H13.2695L13.2793 12.584C13.416 11.1387 14.4902 10.1621 16.043 10.1621C17.6055 10.1621 18.7188 11.1582 18.7188 12.5547V12.5645C18.7188 13.6094 18.2402 14.293 17.0195 15.1035C15.6523 15.9922 15.0957 16.8125 15.0957 18.1016V19.0195ZM15.7598 23.3066C16.2773 23.3066 16.6777 22.9062 16.6777 22.3984C16.6777 21.8809 16.2773 21.4805 15.7598 21.4805C15.252 21.4805 14.8516 21.8809 14.8516 22.3984C14.8516 22.9062 15.252 23.3066 15.7598 23.3066Z" fill="#8987FE"/>
</svg>
