<svg width="22" height="23" viewBox="0 0 22 23" fill="none" xmlns="http://www.w3.org/2000/svg">
<path fill-rule="evenodd" clip-rule="evenodd" d="M3.14697 17.0917C6.47246 20.6578 11.8243 21.2026 15.7686 18.6097C15.7958 18.6814 15.8253 18.7578 15.857 18.8381C16.0563 19.3433 16.3461 20.0131 16.704 20.6545C17.0564 21.2862 17.499 21.935 18.018 22.3589C18.5514 22.7948 19.2519 23.0497 19.9947 22.6629C20.5205 22.3892 20.8188 22.1345 21.1727 21.66C21.6746 20.9871 21.5346 20.2532 21.1884 19.6553C20.8516 19.0738 20.2799 18.5318 19.7105 18.0816C19.1324 17.6246 18.5153 17.2304 18.0467 16.9521C17.9654 16.9039 17.8884 16.8589 17.8165 16.8176C21.0847 13.0549 21.0527 7.35707 17.5802 3.63326L17.5802 3.63324C13.8661 -0.349141 7.62463 -0.563704 3.6396 3.15239C-0.345477 6.86854 -0.566831 13.1091 3.14697 17.0917ZM5.22465 4.85215C8.27177 2.01066 13.0426 2.17548 15.8805 5.21834C18.718 8.26123 18.5497 13.0313 15.5024 15.8729C12.4552 18.7144 7.68432 18.5496 4.84672 15.5066C2.00913 12.4637 2.17745 7.6937 5.22465 4.85215Z" fill="white"/>
</svg>
