<svg width="20" height="20" viewBox="0 0 20 20" fill="none" xmlns="http://www.w3.org/2000/svg">
<g id="trash">
<path id="Vector" d="M3.28479 5.22424H4.87671M4.87671 5.22424H17.6121M4.87671 5.22424V16.3677C4.87671 16.7899 5.04443 17.1948 5.34297 17.4933C5.64151 17.7919 6.04642 17.9596 6.46863 17.9596H14.4282C14.8504 17.9596 15.2553 17.7919 15.5539 17.4933C15.8524 17.1948 16.0201 16.7899 16.0201 16.3677V5.22424H4.87671ZM7.26458 5.22424V3.63232C7.26458 3.21012 7.4323 2.80521 7.73085 2.50667C8.02939 2.20812 8.4343 2.04041 8.8565 2.04041H12.0403C12.4625 2.04041 12.8675 2.20812 13.166 2.50667C13.4645 2.80521 13.6323 3.21012 13.6323 3.63232V5.22424" stroke="#EFEDFD" stroke-opacity="0.7" stroke-width="2" stroke-linecap="round" stroke-linejoin="round"/>
</g>
</svg>
