<svg width="35" height="35" viewBox="0 0 35 35" fill="none" xmlns="http://www.w3.org/2000/svg">
<path fill-rule="evenodd" clip-rule="evenodd" d="M28.8351 11.7966C28.845 12.0517 28.8483 12.3066 28.8483 12.5616C28.8483 20.294 23.4089 29.2206 13.4622 29.2206C10.4068 29.2206 7.56568 28.2468 5.17188 26.589C5.59502 26.6354 6.02477 26.6702 6.4611 26.6702C8.99449 26.6702 11.3278 25.731 13.1787 24.1544C10.8124 24.1196 8.81424 22.4155 8.12512 20.0969C8.45594 20.1665 8.79664 20.2014 9.14504 20.2014C9.63633 20.2014 10.1133 20.1319 10.5706 19.9928C8.09432 19.4595 6.2292 17.0946 6.2292 14.2544C6.2292 14.2196 6.2292 14.208 6.2292 14.1848C6.95899 14.6137 7.79428 14.8802 8.68124 14.915C7.22825 13.8601 6.27314 12.0632 6.27314 10.0345C6.27314 8.96796 6.53911 7.95934 7.00732 7.08988C9.67369 10.6373 13.6601 12.9674 18.1542 13.2109C18.0619 12.782 18.0146 12.33 18.0146 11.8778C18.0146 8.64346 20.4359 6.02344 23.4232 6.02344C24.9784 6.02344 26.383 6.7307 27.3689 7.86679C28.6032 7.61175 29.7594 7.12489 30.8058 6.45251C30.4002 7.82045 29.544 8.9679 28.4251 9.68665C29.5198 9.54754 30.564 9.23477 31.5323 8.77106C30.8058 9.94193 29.8913 10.9735 28.8351 11.7966Z" fill="#5A5477"/>
</svg>
