<svg viewBox="0 0 35 35" fill="none" xmlns="http://www.w3.org/2000/svg">
<path fill-rule="evenodd" clip-rule="evenodd" d="M29.0545 7.46059C30.3195 7.80114 31.3168 8.79849 31.6574 10.0634C32.2898 12.3743 32.2655 17.1908 32.2655 17.1908C32.2655 17.1908 32.2655 21.9829 31.6574 24.2938C31.3168 25.5587 30.3195 26.5561 29.0545 26.8966C26.7436 27.5048 17.4999 27.5048 17.4999 27.5048C17.4999 27.5048 8.28058 27.5048 5.94534 26.8723C4.68041 26.5318 3.68307 25.5344 3.34251 24.2695C2.73438 21.9829 2.73438 17.1665 2.73438 17.1665C2.73438 17.1665 2.73438 12.3743 3.34251 10.0634C3.68307 8.79849 4.70474 7.77682 5.94534 7.43626C8.25626 6.82812 17.4999 6.82812 17.4999 6.82812C17.4999 6.82812 26.7436 6.82812 29.0545 7.46059ZM22.2434 16.9975L14.5565 21.4248V12.5703L22.2434 16.9975Z" fill="#A8A7B2"/>
</svg>
