<svg width="24" height="24" viewBox="0 0 24 24" fill="none" xmlns="http://www.w3.org/2000/svg">
<g id="video">
<g id="Vector">
<path d="M23 7L16 12L23 17V7Z" stroke="url(#paint0_linear_159_37930)" stroke-width="2" stroke-linecap="round" stroke-linejoin="round"/>
<path d="M23 7L16 12L23 17V7Z" stroke="black" stroke-opacity="0.2" stroke-width="2" stroke-linecap="round" stroke-linejoin="round"/>
<path d="M14 5H3C1.89543 5 1 5.89543 1 7V17C1 18.1046 1.89543 19 3 19H14C15.1046 19 16 18.1046 16 17V7C16 5.89543 15.1046 5 14 5Z" stroke="url(#paint1_linear_159_37930)" stroke-width="2" stroke-linecap="round" stroke-linejoin="round"/>
<path d="M14 5H3C1.89543 5 1 5.89543 1 7V17C1 18.1046 1.89543 19 3 19H14C15.1046 19 16 18.1046 16 17V7C16 5.89543 15.1046 5 14 5Z" stroke="black" stroke-opacity="0.2" stroke-width="2" stroke-linecap="round" stroke-linejoin="round"/>
</g>
</g>
<defs>
<linearGradient id="paint0_linear_159_37930" x1="13.8592" y1="9.95833" x2="13.8592" y2="18.125" gradientUnits="userSpaceOnUse">
<stop offset="0.0520833" stop-color="#999DFF"/>
<stop offset="1" stop-color="#C985FE"/>
</linearGradient>
<linearGradient id="paint1_linear_159_37930" x1="13.8592" y1="9.95833" x2="13.8592" y2="18.125" gradientUnits="userSpaceOnUse">
<stop offset="0.0520833" stop-color="#999DFF"/>
<stop offset="1" stop-color="#C985FE"/>
</linearGradient>
</defs>
</svg>
