<svg width="334" height="182" viewBox="0 0 334 182" fill="none" xmlns="http://www.w3.org/2000/svg">
<g clip-path="url(#clip0_2998_54039)">
<mask id="mask0_2998_54039" style="mask-type:luminance" maskUnits="userSpaceOnUse" x="-24" y="-76" width="366" height="334">
<path d="M-23.4741 -75.1682H341.474V257.33H-23.4741V-75.1682Z" fill="white"/>
</mask>
<g mask="url(#mask0_2998_54039)">
<path d="M97.9521 -24.7051C97.8069 -34.0621 38.4042 -30.7612 37.9027 -24.7051C36.8498 -12.0037 43.3326 4.99405 45.8711 9.06495L45.8739 9.0689C47.7959 14.3137 56.935 18.2886 67.9274 18.2886C78.7921 18.2886 87.8506 14.407 89.9156 9.25251L89.9177 9.25024C91.9372 5.99736 98.2116 -7.9887 97.9521 -24.7051Z" fill="#5C0B86"/>
<path d="M67.9272 18.7113C56.9019 18.7113 47.4316 14.7234 45.382 9.22381C43.0778 5.51616 36.2976 -11.7137 37.3764 -24.7338C37.732 -29.0278 60.48 -31.2763 75.9868 -30.9384C84.353 -30.756 98.4001 -29.7041 98.4773 -24.7106C98.7417 -7.6451 92.2008 6.49857 90.4023 9.41419C88.2116 14.8031 78.7702 18.7113 67.9272 18.7113ZM72.6802 -30.1266C55.9682 -30.1266 38.6572 -27.4601 38.4265 -24.6773C37.3596 -11.803 44.0647 5.22521 46.3402 8.87411C46.3493 8.89106 46.3704 8.93004 46.3774 8.94812C48.2706 14.1144 57.3333 17.8639 67.9265 17.8639C78.3472 17.8639 87.3846 14.1873 89.4139 9.12156C89.4266 9.08995 89.4438 9.05963 89.4651 9.03117C91.2875 6.04606 97.6854 -7.87503 97.4251 -24.7004C97.3774 -27.7838 89.3522 -29.7995 75.9581 -30.0916C74.8657 -30.1152 73.773 -30.1269 72.6802 -30.1266Z" fill="#86D1FD"/>
<path d="M296.913 5.21763C297.79 7.30337 309.549 27.6122 311.377 29.8877C313.205 32.1627 365.219 22.3927 369.872 20.5188C374.524 18.645 348.684 -81.9341 348.684 -81.9341L250.721 -84.7446L296.913 5.21763Z" fill="#5C0B86"/>
<path d="M313.529 30.6344C311.35 30.6344 311.081 30.2994 310.935 30.1175C309.116 27.8532 297.409 7.6879 296.421 5.3666L250.235 -84.5827C250.201 -84.6481 250.189 -84.7194 250.198 -84.7899C250.208 -84.8604 250.239 -84.9279 250.289 -84.986C250.339 -85.0451 250.406 -85.0929 250.485 -85.1248C250.564 -85.1567 250.652 -85.1715 250.74 -85.1679L348.703 -82.3574C348.821 -82.354 348.934 -82.3189 349.024 -82.2576C349.114 -82.1964 349.176 -82.1125 349.2 -82.0196C349.264 -81.7682 355.728 -56.5806 361.54 -31.4874C373.37 19.5843 371.083 20.5051 370.108 20.8983C367.734 21.8542 353.798 24.728 339.676 27.1736C323.626 29.9531 316.636 30.6344 313.529 30.6344ZM251.52 -84.2979L297.399 5.05532L297.412 5.0813C298.27 7.12184 310.055 27.4628 311.819 29.657C312.689 30.2372 321.734 29.4271 339.931 26.2618C353.531 23.8958 367.413 21.035 369.637 20.1396C371.172 18.8092 366.776 -9.39341 348.253 -81.523L251.52 -84.2979Z" fill="#86D1FD"/>
<path d="M125.256 -79.3688C129.375 -73.0336 138.122 -60.9994 138.717 -58.4454C139.216 -56.3037 132.586 -53.8948 131.073 -52.6904C129.56 -51.486 133.399 -43.4554 134.562 -43.4554C135.725 -43.4554 142.539 -44.7938 143.204 -43.4554C143.868 -42.1171 159.157 -17.6086 163.145 -9.25153C167.133 -0.894478 178.6 24.0112 178.932 25.2156C179.264 26.4201 174.643 27.903 173.163 29.2306C171.834 30.4232 177.633 39.1119 178.947 38.9893C180.262 38.8667 185.912 37.1267 186.742 38.1972C187.574 39.2678 193.057 49.5614 194.22 50.4981C195.383 51.4347 205.853 48.3564 205.853 48.3564L135.965 -83.6069L125.256 -79.3688Z" fill="#5C0B86"/>
<path d="M195.157 51.069C194.544 51.069 194.085 50.9877 193.849 50.7979C193.11 50.203 191.151 46.8139 188.665 42.4459C187.597 40.5692 186.588 38.797 186.297 38.4213C185.902 37.9095 182.159 38.7524 180.93 39.0292C180.078 39.2213 179.406 39.3727 179.009 39.4094C177.801 39.5128 175.838 36.7299 174.763 35.0571C173.562 33.1861 171.706 29.9038 172.773 28.9468C173.401 28.3836 174.509 27.8164 175.58 27.2673C176.688 26.6995 178.542 25.7493 178.42 25.3064C178.111 24.1856 166.975 -0.0489655 162.655 -9.10033C159.75 -15.1864 150.773 -29.9656 145.951 -37.9057C144.115 -40.927 142.903 -42.9235 142.716 -43.2986C142.486 -43.7607 140.343 -43.7341 136.344 -43.2195C135.5 -43.111 134.89 -43.0325 134.564 -43.0325C134.279 -43.0325 133.525 -43.0325 131.995 -46.0306C131.698 -46.6125 129.141 -51.7488 130.703 -52.9923C131.191 -53.3804 132.104 -53.851 133.161 -54.3961C135.282 -55.4893 138.486 -57.1411 138.201 -58.3676C137.802 -60.0788 133.379 -66.5371 129.476 -72.235C127.712 -74.8106 126.046 -77.2426 124.792 -79.1724C124.759 -79.2225 124.739 -79.2774 124.733 -79.3338C124.727 -79.3901 124.736 -79.4469 124.757 -79.5007C124.779 -79.5545 124.814 -79.6042 124.86 -79.6468C124.907 -79.6895 124.963 -79.7243 125.026 -79.7492L135.735 -83.9873C135.799 -84.0129 135.869 -84.0277 135.94 -84.0307C136.012 -84.0337 136.083 -84.0249 136.15 -84.0048C136.218 -83.9848 136.279 -83.9539 136.33 -83.9141C136.382 -83.8742 136.423 -83.8263 136.451 -83.7732L206.339 48.1907C206.367 48.2436 206.382 48.3006 206.382 48.3581C206.382 48.4157 206.367 48.4726 206.338 48.5255C206.31 48.5783 206.268 48.6258 206.216 48.6652C206.164 48.7046 206.103 48.735 206.035 48.7545C203.396 49.5302 197.826 51.069 195.157 51.069ZM185.489 37.4265C186.297 37.4265 186.887 37.5824 187.189 37.9722C187.516 38.3942 188.445 40.0263 189.621 42.0922C191.336 45.1073 193.93 49.664 194.593 50.1979C195.312 50.5877 200.528 49.4415 205.151 48.1099L135.699 -83.0298L125.974 -79.1809C127.191 -77.3251 128.751 -75.0473 130.396 -72.6446C134.531 -66.6094 138.804 -60.3686 139.234 -58.5241C139.651 -56.7355 136.367 -55.043 133.728 -53.6826C132.763 -53.1849 131.851 -52.7149 131.443 -52.3895C131.409 -52.3624 131.118 -52.0906 131.326 -50.8664C131.789 -48.1361 133.917 -44.3002 134.633 -43.8816C134.918 -43.894 135.532 -43.9731 136.178 -44.0561C139.93 -44.5386 143.085 -44.8386 143.693 -43.6132C143.865 -43.2669 145.136 -41.1744 146.895 -38.278C151.725 -30.3266 160.716 -15.5253 163.637 -9.40426C167.65 -0.995224 179.098 23.8601 179.446 25.1228C179.728 26.1459 178.067 26.9972 176.144 27.9825C175.132 28.5005 174.087 29.0361 173.556 29.5129C173.553 29.5151 173.349 29.7479 173.699 30.8009C174.629 33.5951 178.013 38.214 178.944 38.562C179.281 38.5207 179.945 38.3716 180.646 38.2134C182.59 37.775 184.283 37.4265 185.489 37.4265Z" fill="#86D1FD"/>
<path d="M410.394 194.411H410.428L409.743 184.614L398.277 184.589L206.363 96.3118C198.61 92.7454 188.773 94.3769 183.401 100.12L104.956 183.973L97.9744 183.958L98.6814 194.086H98.6983C98.8378 197.139 100.841 200.091 104.431 201.742L302.807 292.992C310.56 296.558 320.397 294.927 325.77 289.183L408.194 201.076C410.065 199.077 410.748 196.686 410.394 194.411Z" fill="#5C0B86"/>
<path d="M311.574 295.289C308.408 295.29 305.296 294.625 302.547 293.36L104.171 202.11C100.605 200.47 98.3724 197.521 98.1781 194.205C98.1662 194.174 98.1589 194.142 98.1563 194.11L97.4486 183.982C97.4446 183.925 97.4552 183.867 97.4799 183.813C97.5046 183.758 97.5428 183.709 97.5921 183.667C97.6414 183.625 97.7009 183.592 97.7668 183.569C97.8327 183.546 97.9037 183.535 97.9754 183.535L104.694 183.549L182.979 99.8653C188.497 93.9679 198.661 92.2816 206.624 95.9441L398.418 184.166L409.745 184.19C409.879 184.19 410.008 184.232 410.106 184.306C410.203 184.381 410.262 184.482 410.269 184.59L410.954 194.388C410.957 194.43 410.952 194.472 410.939 194.514C411.27 196.956 410.448 199.372 408.614 201.332L326.19 289.438C322.637 293.237 317.154 295.289 311.574 295.289ZM99.2001 193.961C99.2141 193.996 99.2225 194.032 99.2239 194.07C99.3635 197.133 101.408 199.864 104.692 201.374L303.068 292.624C310.572 296.075 320.151 294.487 325.35 288.928L407.774 200.821C409.478 199.004 410.232 196.722 409.873 194.463C409.863 194.403 409.87 194.342 409.893 194.284L409.247 185.036L398.277 185.013C398.185 185.013 398.096 184.994 398.017 184.957L206.103 96.6796C198.599 93.2279 189.02 94.817 183.821 100.375L105.376 184.228C105.327 184.28 105.264 184.323 105.191 184.352C105.118 184.381 105.038 184.397 104.956 184.397H104.955L98.5309 184.383L99.2001 193.961Z" fill="#86D1FD"/>
<path d="M302.069 282.419L103.693 191.17C97.7214 188.423 96.0989 182.079 100.237 177.655L182.662 89.5484C188.035 83.8047 197.871 82.1738 205.624 85.7402L404 176.99C409.972 179.737 411.594 186.081 407.456 190.504L325.031 278.611C319.659 284.354 309.823 285.986 302.069 282.419Z" fill="#5C0B86"/>
<path d="M310.836 284.717C307.669 284.719 304.557 284.053 301.808 282.788L103.432 191.538C101.96 190.861 100.684 189.939 99.6884 188.834C98.693 187.728 98.0013 186.465 97.6591 185.127C97.3175 183.79 97.3332 182.409 97.7054 181.077C98.0775 179.745 98.7975 178.492 99.8175 177.401L182.242 89.2939C187.759 83.396 197.924 81.7102 205.886 85.3727L404.262 176.622C405.734 177.299 407.011 178.221 408.006 179.326C409.002 180.432 409.694 181.695 410.036 183.033C410.378 184.37 410.362 185.751 409.99 187.083C409.617 188.416 408.897 189.669 407.877 190.759L325.452 278.866C321.898 282.665 316.415 284.717 310.836 284.717ZM196.857 84.2897C191.598 84.2897 186.432 86.2229 183.083 89.8035L100.659 177.91C99.7284 178.905 99.0719 180.048 98.7326 181.263C98.3934 182.477 98.3792 183.736 98.691 184.956C99.0028 186.176 99.6335 187.328 100.541 188.336C101.449 189.344 102.612 190.185 103.955 190.802L302.331 282.052C309.834 285.503 319.413 283.915 324.612 278.356L407.036 190.249C407.966 189.255 408.623 188.112 408.962 186.897C409.301 185.682 409.316 184.423 409.004 183.204C408.692 181.984 408.061 180.832 407.154 179.824C406.246 178.816 405.083 177.976 403.74 177.358L205.364 86.1082C202.774 84.9152 199.841 84.2883 196.857 84.2897Z" fill="#86D1FD"/>
<path d="M75.9472 40.5472C73.5307 38.9326 68.756 38.1852 67.0942 36.5791C65.4325 34.973 51.8041 29.8875 47.4846 29.8875C43.1651 29.8875 42.8326 29.0847 40.5059 27.2108C38.1792 25.3369 24.8854 21.7236 20.897 22.9281C16.9085 24.1325 13.9176 26.6753 11.0921 25.6047C8.26743 24.5342 6.43946 21.0542 1.78606 21.0542C-2.86733 21.0542 -28.4582 20.9203 -36.7675 27.2108C-45.0769 33.5014 -64.0208 46.4835 -51.7238 63.0796C-39.4267 79.6756 -32.9454 84.6934 -24.3042 90.6161C-15.6631 96.5389 5.60754 108.029 11.7564 109.923C17.9053 111.817 79.4825 42.9098 75.9472 40.5472Z" fill="#5C0B86"/>
<path d="M11.943 110.37C11.8056 110.37 11.6807 110.353 11.5685 110.318C5.20425 108.358 -16.3638 96.6147 -24.6451 90.9388C-33.296 85.0098 -39.8854 79.8825 -52.1755 63.2966C-64.133 47.1593 -47.3397 34.5641 -38.3184 27.7979C-37.9024 27.4861 -37.5047 27.1872 -37.128 26.9025C-31.708 22.7994 -18.3973 20.6306 1.36523 20.6306H1.7854C4.98119 20.6306 6.91648 22.1492 8.6238 23.4886C9.52726 24.1976 10.3809 24.8671 11.3153 25.2213C12.9461 25.8399 14.7018 25.0444 16.9254 24.0377C18.1095 23.5016 19.3342 22.9474 20.7111 22.5311C24.7823 21.3006 38.3294 24.8591 40.877 26.911C41.1737 27.1499 41.4389 27.372 41.6837 27.577C43.3215 28.9498 43.9346 29.4634 47.4839 29.4634C52.0174 29.4634 65.7791 34.646 67.4983 36.3075C68.3064 37.0883 70.0046 37.6741 71.8024 38.2938C73.4241 38.8531 75.1006 39.431 76.2832 40.2208C76.8802 40.6197 77.1621 41.5348 72.9198 47.3813C66.5984 56.0915 52.9033 71.9819 39.6158 86.0234C28.9896 97.2531 15.7596 110.37 11.943 110.37ZM1.37085 21.4775C-17.8474 21.4775 -31.2597 23.6219 -36.407 27.5194C-36.7843 27.8053 -37.1835 28.1047 -37.6008 28.4177C-46.4054 35.0212 -62.794 47.313 -51.2713 62.8622C-39.0647 79.3362 -32.5336 84.4189 -23.9626 90.2931C-15.057 96.3972 6.08456 107.721 11.9452 109.527C12.0328 109.554 12.9131 109.715 16.501 106.941C25.2235 100.196 41.3954 83.0512 52.594 70.4182C68.2573 52.7488 75.9802 42.2032 75.5685 40.8451C74.503 40.1474 72.9205 39.6016 71.3892 39.0734C69.4715 38.4125 67.6603 37.7882 66.6909 36.851C65.093 35.3065 51.6989 30.3113 47.4853 30.3113C43.4878 30.3113 42.632 29.5938 40.9268 28.1646C40.6862 27.9634 40.4267 27.7454 40.1349 27.5104C37.8419 25.6636 24.6813 22.2378 21.0822 23.3248C19.781 23.718 18.5921 24.2564 17.4424 24.7767C15.1529 25.8133 12.9896 26.7918 10.8691 25.9884C9.77488 25.5738 8.86019 24.8558 7.89149 24.0959C6.25151 22.809 4.55541 21.478 1.78751 21.478H1.50201L1.37085 21.4775Z" fill="#86D1FD"/>
<path d="M-14.1529 42.1384C-14.3178 42.1384 -14.4714 42.1175 -14.6173 42.0746C-15.0823 41.939 -15.384 41.604 -15.5144 41.0786C-16.2608 38.0737 -13.5875 34.2135 -11.9272 32.1803C-9.47216 29.1726 -6.11644 26.2638 -3.17107 24.5888C-3.05701 24.527 -2.91745 24.5036 -2.78225 24.5236C-2.64705 24.5436 -2.52695 24.6055 -2.44766 24.6959C-2.36837 24.7863 -2.33618 24.8982 -2.35798 25.0075C-2.37978 25.1168 -2.45385 25.2149 -2.56432 25.2808C-5.41008 26.8988 -8.66059 29.7206 -11.049 32.6458C-13.7622 35.9693 -14.9813 38.9053 -14.4833 40.9125C-14.4587 41.0097 -14.3886 41.2402 -14.2588 41.278C-13.5826 41.4769 -11.1304 39.8905 -8.53713 38.2116C-2.94099 34.5886 6.42472 28.5252 19.7262 24.8023C19.8561 24.7714 19.9957 24.7819 20.1162 24.8317C20.2366 24.8815 20.3286 24.9668 20.3731 25.0697C20.4176 25.1727 20.4111 25.2856 20.3551 25.3848C20.299 25.4841 20.1977 25.5621 20.0721 25.6028C6.94239 29.2777 -2.33424 35.2835 -7.87707 38.872C-11.11 40.9645 -12.9226 42.1384 -14.1529 42.1384ZM-1.26313 59.7141C-1.84884 59.7141 -2.28444 59.5683 -2.6064 59.3649C-4.5922 58.1102 -3.45445 53.7811 0.291272 48.3369C5.6391 40.5645 20.3863 30.946 38.2255 27.601C38.2932 27.5874 38.3636 27.5848 38.4326 27.5934C38.5015 27.602 38.5677 27.6215 38.6272 27.6508C38.6867 27.6802 38.7384 27.7188 38.7792 27.7644C38.82 27.81 38.8492 27.8616 38.8649 27.9164C38.8807 27.9711 38.8828 28.0279 38.8711 28.0833C38.8594 28.1387 38.8341 28.1917 38.7967 28.2391C38.7593 28.2866 38.7106 28.3276 38.6534 28.3597C38.5961 28.3919 38.5315 28.4145 38.4633 28.4264C25.5118 30.855 8.05348 38.8025 1.21157 48.7476C-2.51171 54.1591 -3.19983 57.9131 -1.95757 58.6983C-1.59562 58.9271 -0.0650635 59.4141 4.41858 56.0759L6.16027 54.7743C15.2812 47.9431 29.0639 37.6206 43.2121 34.9621C43.348 34.9365 43.4909 34.9555 43.6094 35.0148C43.728 35.0742 43.8124 35.169 43.8441 35.2784C43.8758 35.3879 43.8522 35.503 43.7786 35.5985C43.7049 35.6939 43.5872 35.7619 43.4513 35.7874C29.576 38.3946 15.916 48.625 6.87715 55.3946L5.13336 56.6984C2.01964 59.0164 0.0184097 59.7141 -1.26313 59.7141Z" fill="#86D1FD"/>
<path d="M86.3896 131.211C85.8389 129.981 80.5963 131.169 78.8511 131.872C77.1059 132.575 78.7354 135.586 80.7871 136.389C82.8395 137.192 87.0124 132.604 86.3896 131.211Z" fill="#5C0B86"/>
<path d="M81.3155 136.908C81.0528 136.909 80.7931 136.862 80.5565 136.77C78.9832 136.154 77.5943 134.396 77.5845 133.006C77.5796 132.3 77.9451 131.763 78.6142 131.493C80.0459 130.917 84.3002 129.855 86.0482 130.419C86.5743 130.588 86.7924 130.866 86.8829 131.068C87.4307 132.293 85.4674 134.71 83.8183 135.904C82.9001 136.569 82.0492 136.908 81.3155 136.908ZM84.7379 131.097C83.0726 131.097 80.3075 131.759 79.0856 132.251C78.9734 132.296 78.6332 132.433 78.6374 133.001C78.6451 134.071 79.8018 135.532 81.0167 136.008C81.4565 136.18 82.2421 135.905 83.1161 135.273C84.8466 134.02 86.1695 131.971 85.8939 131.355C85.8679 131.298 85.7886 131.247 85.6582 131.205C85.4253 131.13 85.1089 131.097 84.7379 131.097Z" fill="#86D1FD"/>
<path d="M98.373 131.069C98.3989 130.038 102.032 129.563 102.032 131.069C102.032 132.574 98.3281 132.875 98.373 131.069Z" fill="#5C0B86"/>
<path d="M100.066 132.737C99.6013 132.737 99.1475 132.649 98.7785 132.471C98.1626 132.176 97.8323 131.675 97.8477 131.06C97.8694 130.198 99.2386 129.667 100.497 129.686C101.75 129.696 102.559 130.239 102.559 131.068C102.559 131.632 102.175 132.131 101.504 132.438C101.064 132.635 100.569 132.738 100.066 132.737ZM98.8991 131.078C98.8914 131.388 99.0275 131.605 99.3158 131.744C99.7549 131.954 100.471 131.936 100.983 131.702C101.222 131.593 101.506 131.394 101.506 131.069C101.506 130.61 100.867 130.536 100.485 130.533C99.642 130.524 98.9048 130.863 98.8991 131.078Z" fill="#86D1FD"/>
<path d="M55.4202 142.512C54.0103 141.503 49.5652 144.821 49.5014 146.628C49.4376 148.434 52.0546 144.81 54.5476 144.564C57.0405 144.318 56.5418 143.315 55.4202 142.512Z" fill="#5C0B86"/>
<path d="M49.7616 147.558C49.6585 147.558 49.5561 147.539 49.4537 147.502C48.9501 147.317 48.969 146.789 48.9753 146.616C49.03 145.07 51.6057 142.814 53.5971 142.121C54.7475 141.721 55.4139 141.94 55.7695 142.196C56.6597 142.833 57.0202 143.453 56.8126 143.989C56.6007 144.535 55.8811 144.861 54.6107 144.985C53.5614 145.089 52.3633 145.979 51.4879 146.628C50.7402 147.183 50.2358 147.558 49.7616 147.558ZM54.7433 142.749C54.5497 142.749 54.3 142.799 54.0131 142.899C52.2826 143.501 50.2007 145.422 50.0359 146.533C50.2604 146.386 50.543 146.176 50.7738 146.005C51.7537 145.277 53.0963 144.28 54.4824 144.144C55.3774 144.056 55.7555 143.869 55.8067 143.736C55.8621 143.593 55.6552 143.248 55.0695 142.829C54.9951 142.775 54.8843 142.749 54.7433 142.749Z" fill="#86D1FD"/>
<path d="M135.041 102.36C133.244 102.116 136.183 98.0442 137.928 97.6426C139.673 97.2409 140.047 98.847 139.922 100.002C139.797 101.156 136.516 102.561 135.041 102.36Z" fill="#5C0B86"/>
<path d="M135.355 102.804C135.215 102.804 135.08 102.795 134.952 102.778C134.364 102.698 133.991 102.338 133.955 101.815C133.857 100.386 136.181 97.6042 137.782 97.2358C138.651 97.0364 139.22 97.2528 139.547 97.4691C140.564 98.1448 140.492 99.6069 140.445 100.039C140.376 100.682 139.681 101.242 139.11 101.597C138.112 102.218 136.538 102.804 135.355 102.804ZM135.128 101.942C135.885 102.046 137.416 101.58 138.466 100.925C139.021 100.579 139.37 100.22 139.397 99.9645C139.487 99.1284 139.279 98.3877 138.877 98.1216C138.806 98.0742 138.59 97.9307 138.072 98.0493C136.941 98.3092 134.935 100.742 135.006 101.767C135.017 101.928 135.064 101.934 135.128 101.942Z" fill="#86D1FD"/>
<path d="M27.7091 109.922C24.6143 111.083 16.0763 113.536 11.7561 109.922C7.43585 106.308 2.11748 100.62 3.11494 94.4297C4.1124 88.2397 4.33546 76.8168 6.43839 70.3387C8.10012 65.2204 22.5822 51.9196 30.867 47.5538C44.5795 40.3266 66.5951 38.4527 73.0765 39.5232C79.5572 40.5938 89.0183 51.684 85.706 61.9308C82.3938 72.1775 62.4412 88.3069 53.9656 94.4302C45.49 100.554 30.5541 108.855 27.7091 109.922Z" fill="#5C0B86"/>
<path d="M18.1603 112.252C15.6723 112.252 13.2018 111.742 11.3773 110.216C4.74864 104.673 1.79274 99.3432 2.59309 94.3763C2.9389 92.2279 3.19423 89.4162 3.46429 86.4395C3.97213 80.8371 4.54802 74.4878 5.92987 70.2327C7.58388 65.1376 21.8667 51.7922 30.5794 47.2004C43.923 40.1675 66.0572 37.9327 73.1825 39.1094C76.1952 39.6071 79.7683 42.1171 82.5068 45.6593C84.4154 48.1286 88.5982 54.6671 86.2146 62.0384C82.9922 72.0094 63.9402 87.7931 54.3171 94.7463C45.7664 100.924 30.7562 109.248 27.9314 110.307C26.7341 110.755 22.4216 112.252 18.1603 112.252ZM68.6315 39.6794C59.7652 39.6794 42.7179 41.8143 31.1546 47.9083C22.7751 52.3243 8.52242 65.5946 6.94697 70.4463C5.58967 74.6262 5.01799 80.9348 4.51295 86.5006C4.24149 89.4896 3.98616 92.3126 3.63614 94.4848C2.87928 99.1839 5.73908 104.279 12.1349 109.628C16.6823 113.431 26.3953 109.948 27.4867 109.538C30.2715 108.493 45.1246 100.249 53.6142 94.1147C63.1567 87.2208 82.0368 71.5999 85.1968 61.8243C86.7786 56.9308 85.4388 51.0549 81.6138 46.1067C79.0227 42.7549 75.7105 40.3913 72.9706 39.9387C71.957 39.771 70.47 39.6794 68.6315 39.6794Z" fill="#86D1FD"/>
<path d="M23.7473 62.3687C23.6421 62.3689 23.537 62.3624 23.4331 62.3495C22.3914 62.2207 21.6142 61.7286 21.2439 60.9637C20.6883 59.8158 21.1029 58.1599 22.2294 57.0256C23.7803 55.4641 26.8442 54.3235 28.3221 55.2494C29.3905 55.9183 29.5335 57.1798 28.7157 58.7091C27.7329 60.5468 25.562 62.3687 23.7473 62.3687ZM26.9712 55.7624C25.8944 55.7624 24.1549 56.4442 23.0515 57.5549C22.174 58.4385 21.8106 59.8005 22.2245 60.6558C22.4588 61.1405 22.9196 61.4281 23.593 61.5117C24.7946 61.6597 26.8077 60.1344 27.7498 58.3735C28.0402 57.8306 28.6139 56.5053 27.6768 55.9177C27.5078 55.8126 27.2644 55.7624 26.9712 55.7624ZM35.6579 60.1496C34.8575 60.1496 34.2136 59.7593 33.9618 59.0921C33.6552 58.2837 34.0235 57.1775 35.1514 56.799C35.6565 56.6301 36.2001 56.712 36.6441 57.0239C37.3098 57.4928 37.6507 58.4068 37.4192 59.1056C37.2431 59.6384 36.7549 60.0061 36.0801 60.1146C35.9412 60.1376 35.7997 60.1494 35.6579 60.1496ZM35.6747 57.5594C35.6337 57.5599 35.5933 57.5674 35.5562 57.5815C34.9901 57.7713 34.7951 58.3882 34.9684 58.8452C35.1072 59.2113 35.4117 59.3582 35.8739 59.2847C36.1601 59.2384 36.3285 59.1124 36.4028 58.8881C36.5326 58.4955 36.3221 57.9232 35.9518 57.6628C35.836 57.5809 35.7435 57.5594 35.6747 57.5594ZM28.0816 69.9891C27.8964 69.9891 27.714 69.9541 27.5393 69.8829C26.7193 69.5496 26.37 68.5717 26.4584 67.8203C26.5433 67.0961 27.0069 66.5848 27.7308 66.4187C28.6301 66.2119 29.4438 66.4549 29.8541 67.0537C30.3164 67.7277 30.1943 68.8366 29.0657 69.6513C28.757 69.8744 28.4161 69.9891 28.0816 69.9891ZM28.0198 67.2339C27.6298 67.3237 27.5302 67.6904 27.5057 67.9005C27.4425 68.4395 27.7308 69.0123 28.0128 69.1264C28.0493 69.1406 28.1433 69.1795 28.3635 69.0208C29.0748 68.5067 29.1877 67.835 28.9331 67.4638C28.7178 67.1492 28.3172 67.1655 28.0198 67.2339ZM14.3893 78.8258C13.8688 78.8258 13.288 78.5478 12.7521 78.0337C11.6726 76.9982 11.0048 75.2475 11.9469 73.6708C12.2436 73.1736 12.7641 73.0996 13.1548 73.1962C14.4994 73.5301 15.8701 76.1791 15.5586 77.8428C15.4303 78.5269 14.9596 78.7314 14.6909 78.7924C14.5927 78.815 14.4924 78.8258 14.3893 78.8258ZM12.9037 74.0238L12.8945 74.0385C12.1538 75.2786 12.7276 76.7044 13.5742 77.5044C14.0014 77.9083 14.3339 77.9914 14.4047 77.9772C14.404 77.9772 14.4777 77.9275 14.517 77.7168C14.7919 76.2525 13.4873 74.2504 12.9037 74.0238ZM93.4332 61.9309C91.3717 57.9826 85.2074 48.9589 79.7234 48.0555C74.2395 47.1522 63.4478 46.55 60.6175 46.65C57.7878 46.7505 44.9499 56.9888 40.8374 61.2049C36.7248 65.421 26.006 78.5049 24.2608 83.8576C22.5156 89.2104 18.5279 98.7464 19.0259 104.869C19.5246 110.993 20.0233 124.644 26.504 127.756C32.9847 130.867 39.715 130.867 48.0658 127.756C56.4165 124.644 69.3785 111.495 75.984 105.773C82.5896 100.051 97.7064 87.6173 97.9379 82.7425C98.1687 77.8676 95.5179 65.9238 93.4332 61.9309Z" fill="#86D1FD"/>
<path d="M36.586 130.498C32.9448 130.498 29.5379 129.705 26.2354 128.12C20.0108 125.131 19.1396 113.421 18.6191 106.424C18.5785 105.877 18.5406 105.365 18.502 104.897C18.0924 99.8593 20.6793 92.5305 22.569 87.1794C22.9774 86.0393 23.3721 84.896 23.753 83.7497C25.4947 78.4071 36.1876 65.2865 40.4243 60.9428C44.3875 56.8809 57.4365 46.3387 60.5951 46.2263C63.4065 46.1268 74.314 46.7313 79.8295 47.6397C85.824 48.6272 92.1686 58.4147 93.9187 61.7659C96.103 65.9481 98.6942 77.9156 98.4641 82.7582C98.2487 87.2997 85.9503 97.8425 78.6026 104.142C77.7882 104.84 77.0363 105.484 76.3706 106.061C74.9537 107.288 73.2794 108.825 71.3406 110.606C64.4201 116.959 54.9421 125.66 48.2882 128.14C44.069 129.712 40.2111 130.498 36.586 130.498ZM61.359 47.0629C61.0812 47.0629 60.8406 47.0663 60.6407 47.0737C58.2046 47.1601 45.7125 56.8939 41.2506 61.467C37.0546 65.7684 26.4767 78.7286 24.7694 83.9655C24.3868 85.1173 23.9902 86.2661 23.5798 87.4116C21.7111 92.7033 19.1522 99.9509 19.5507 104.842C19.5885 105.312 19.6271 105.824 19.6678 106.374C20.1427 112.756 21.0272 124.633 26.7735 127.392C33.1244 130.441 39.6226 130.435 47.8449 127.372C54.2968 124.967 63.6899 116.344 70.5486 110.047C72.4923 108.262 74.1716 106.721 75.599 105.485C76.3424 104.843 77.0879 104.202 77.8353 103.562C84.607 97.7572 97.212 86.9517 97.4126 82.7272C97.6336 78.0693 95.0473 66.1147 92.9486 62.0958C90.8183 58.0159 84.7564 49.3181 79.6183 48.4713C74.5623 47.6375 64.9342 47.0629 61.359 47.0629Z" fill="#86D1FD"/>
<path d="M95.8511 83.8581C97.9105 79.3483 94.2777 65.6221 90.9269 59.4988C87.5761 53.3755 78.4776 48.2566 70.5008 49.8627C63.0227 51.3683 55.2955 63.8154 47.9423 69.8382C40.5883 75.8604 28.2071 96.2889 26.5047 101.557C24.1366 108.885 23.5137 123.339 29.2466 127.053C34.9795 130.767 51.8051 126.752 59.533 119.224C67.2608 111.695 93.5307 88.9386 95.8511 83.8581Z" fill="#5C0B86"/>
<path d="M35.6103 128.902C32.8761 128.902 30.5262 128.427 28.9171 127.384C22.7815 123.409 23.7545 108.388 25.9963 101.451C27.6068 96.465 40.0406 75.7048 47.5672 69.5408C50.1892 67.3935 52.9311 64.3406 55.5826 61.3883C60.4113 56.0118 65.4042 50.4523 70.3733 49.4518C78.7969 47.7559 88.049 53.1894 91.4083 59.3285C94.8159 65.5558 98.4592 79.3763 96.345 84.0048C94.6574 87.6995 81.0851 100.075 70.1797 110.018C65.8735 113.945 62.1551 117.335 59.9386 119.494C54.2148 125.07 43.3697 128.902 35.6103 128.902ZM73.4077 50.0105C72.4376 50.0105 71.504 50.0975 70.6286 50.2738C66.0313 51.1991 61.1528 56.6315 56.4348 61.8849C53.7609 64.8626 50.9951 67.9415 48.317 70.1352C40.888 76.2201 28.6071 96.735 27.0141 101.665C24.5246 109.368 24.277 123.291 29.5765 126.724C34.8113 130.116 51.2757 126.604 59.127 118.954C61.3541 116.785 65.0781 113.389 69.3906 109.457C79.6653 100.088 93.7378 87.2577 95.3567 83.7122C97.3551 79.3379 93.7083 65.6338 90.4452 59.6703C87.0389 53.447 79.5096 50.0105 73.4077 50.0105Z" fill="#86D1FD"/>
<path d="M44.8192 96.8322C44.3209 96.8319 43.8336 96.7138 43.4177 96.4927C42.9793 96.2645 42.764 95.8815 42.8117 95.4143C42.9029 94.525 43.9593 93.4302 45.1188 93.0246C45.9072 92.7489 46.6703 92.8071 47.2694 93.189C48.1792 93.7675 48.2556 94.7578 47.4602 95.6521C46.8618 96.3249 45.8616 96.8322 44.8192 96.8322ZM46.0804 93.6997C45.9324 93.6997 45.7536 93.7268 45.5389 93.8014C44.6593 94.1093 43.9151 94.9584 43.8611 95.4837C43.8386 95.7024 43.9445 95.7577 43.9894 95.7815C44.963 96.2877 46.1043 95.7216 46.6058 95.1578C46.7805 94.9612 47.2981 94.2861 46.6184 93.8533C46.5462 93.8076 46.3764 93.6997 46.0804 93.6997ZM45.5249 107.837C45.2801 107.84 45.0381 107.795 44.8199 107.706C44.6016 107.617 44.4138 107.486 44.2728 107.325C44.0476 107.071 43.8814 106.616 44.371 105.898C45.1952 104.689 47.632 103.135 48.9732 103.185C49.4165 103.205 49.7623 103.393 49.923 103.704C50.508 104.835 48.4871 106.787 46.8913 107.502C46.3421 107.748 45.891 107.837 45.5249 107.837ZM45.1286 106.832C45.3853 107.122 45.95 106.954 46.3792 106.762C47.9007 106.08 49.1815 104.476 48.9508 104.029C48.612 103.913 46.8885 104.654 45.7178 105.811C45.1377 106.384 45.0486 106.742 45.1286 106.832ZM61.2808 76.6562C60.895 76.6562 60.533 76.5206 60.2483 76.2545C59.5763 75.6258 59.4177 74.288 60.2279 73.57C60.8536 73.0158 61.4611 73.0587 61.7676 73.1344C62.4136 73.2932 62.918 73.8677 63.0512 74.5987C63.1922 75.371 62.871 76.0495 62.1913 76.4144C61.8896 76.5766 61.5782 76.6562 61.2808 76.6562ZM61.0065 74.1406C60.6025 74.4987 60.6846 75.3631 61.0465 75.702C61.1524 75.802 61.2843 75.8834 61.6091 75.7088C62.1015 75.4444 62.0411 74.8863 62.0117 74.7213C61.9345 74.3004 61.6715 73.9959 61.4618 73.9445C61.3018 73.905 61.1075 74.0507 61.0065 74.1406ZM70.2509 128.949C68.2567 130.065 65.016 131.471 61.2773 130.065C57.5386 128.659 51.0572 121.834 52.3037 115.811C53.5501 109.788 58.3789 92.0563 61.1987 83.858C64.0192 75.6597 70.0012 67.228 78.227 63.4136C86.4529 59.5992 106.145 56.387 109.635 56.387C113.125 56.387 114.87 58.3947 116.614 57.5914C118.36 56.7886 134.397 72.0458 135.04 74.3547C135.683 76.6636 136.752 79.3815 135.04 80.6785C133.328 81.9756 91.6871 107.981 91.6871 107.981L70.2509 128.949Z" fill="#86D1FD"/>
<path d="M64.485 131.075C63.4146 131.075 62.2586 130.901 61.055 130.448C57.042 128.94 50.5185 121.86 51.7846 115.741C53.0942 109.412 57.9223 91.7956 60.6923 83.7441C63.9442 74.2905 70.401 66.5532 77.9654 63.0455C86.561 59.0594 106.317 55.9624 109.636 55.9624C111.444 55.9624 112.807 56.4652 113.903 56.8685C115.078 57.3019 115.721 57.5143 116.354 57.2228C116.76 57.0358 117.227 57.2013 117.38 57.2555C120.95 58.5238 134.938 72.0472 135.554 74.2612C135.627 74.5233 135.706 74.7911 135.785 75.0611C136.42 77.2208 137.139 79.6693 135.401 80.9861C133.704 82.2725 94.3288 106.867 92.0568 108.287L70.6571 129.217C70.6263 129.247 70.5907 129.274 70.5511 129.296C69.6407 129.807 67.3722 131.075 64.485 131.075ZM109.635 56.8109C106.477 56.8109 86.7679 59.9418 78.4894 63.7811C71.16 67.1803 64.8849 74.7278 61.7052 83.9712C58.9429 92.0018 54.1275 109.57 52.8214 115.881C51.6324 121.627 57.7399 128.268 61.499 129.681C64.9599 130.982 67.9361 129.721 69.8904 128.634L91.281 107.713C91.306 107.688 91.3343 107.666 91.3652 107.647C91.7811 107.387 133.006 81.6392 134.679 80.3703C135.974 79.3891 135.357 77.2886 134.761 75.2577C134.68 74.9843 134.601 74.7131 134.527 74.4481C133.865 72.0686 118.947 58.2238 116.813 57.9883C115.703 58.4662 114.615 58.0651 113.464 57.6408C112.409 57.2516 111.215 56.8109 109.635 56.8109Z" fill="#86D1FD"/>
<path d="M66.0137 128.459C71.2486 130.868 78.9757 123.842 87.2016 119.425C95.4275 115.008 105.149 106.175 111.38 102.16C117.612 98.1452 126.586 86.5014 134.313 81.2814C139.057 78.0771 119.114 62.7883 117.618 61.9849C116.123 61.1822 118.344 69.6296 118.344 69.6296C118.344 69.6296 114.87 63.4137 111.878 63.0126C108.888 62.6109 88.8458 64.0119 79.4738 75.0581C69.2537 87.1036 70.7492 94.1302 67.7582 98.5469C64.7672 102.963 59.6481 125.53 66.0137 128.459Z" fill="#5C0B86"/>
<path d="M68.3321 129.368C67.4273 129.368 66.5652 129.201 65.7522 128.827C61.7841 127.001 62.2331 118.764 62.8538 114.016C63.6682 107.788 65.661 100.758 67.2961 98.3439C68.2662 96.9118 68.7467 95.1966 69.3549 93.025C70.5543 88.7451 72.1971 82.8834 79.039 74.8189C88.4139 63.7694 108.391 62.1147 111.964 62.5949C113.855 62.8486 115.793 64.9964 117.131 66.8336C116.113 62.1119 116.792 61.7419 117.039 61.6063C117.293 61.4673 117.619 61.4769 117.909 61.6328C119.294 62.3763 135.2 74.4579 135.559 79.7045C135.615 80.5214 135.309 81.1609 134.65 81.606C130.704 84.2714 126.439 88.6202 122.315 92.8256C118.435 96.7813 114.771 100.518 111.708 102.491C109.279 104.056 106.271 106.394 103.086 108.869C98.1359 112.715 92.5257 117.075 87.4922 119.777C85.2777 120.967 83.0927 122.351 80.9799 123.689C76.396 126.593 72.014 129.368 68.3321 129.368ZM66.2741 128.091C69.7813 129.705 74.9054 126.459 80.3304 123.022C82.4593 121.674 84.6604 120.28 86.9093 119.072C91.8636 116.412 97.438 112.08 102.356 108.258C105.559 105.769 108.584 103.418 111.051 101.828C114.02 99.9155 117.648 96.2158 121.489 92.2997C125.647 88.061 129.945 83.6777 133.974 80.9564C134.371 80.688 134.546 80.2937 134.509 79.7502C134.201 75.2409 120.149 64.2259 117.63 62.5282C117.52 63.5688 118.132 66.7799 118.858 69.5419C118.885 69.6442 118.864 69.7511 118.799 69.8417C118.735 69.9324 118.63 70.0006 118.507 70.0331C118.383 70.0655 118.249 70.0601 118.13 70.0177C118.012 69.9753 117.916 69.899 117.863 69.8035C116.928 68.1318 114.016 63.7287 111.792 63.4304C109.795 63.1615 89.5291 63.9564 79.9074 75.2969C73.1784 83.2274 71.5616 88.9982 70.3811 93.2115C69.7792 95.3588 69.2595 97.2129 68.2192 98.7495C66.8416 100.784 64.799 107.233 63.8997 114.105C62.8896 121.833 63.7552 126.931 66.2741 128.091Z" fill="#86D1FD"/>
<path d="M83.3598 103.288C82.6997 103.288 82.1021 103.072 81.6237 102.658C80.3232 101.532 80.1352 99.1987 80.3225 97.992C80.5512 96.517 82.7544 95.2436 84.6687 94.9792C86.221 94.7651 87.4513 95.1916 88.0454 96.1486C88.9159 97.5508 88.1962 99.475 87.2332 100.808C86.397 101.965 84.9745 103.223 83.4895 103.286C83.4463 103.288 83.403 103.288 83.3598 103.288ZM85.4361 95.7718C85.2319 95.7718 85.032 95.7888 84.8468 95.8142C83.1753 96.0447 81.5164 97.1328 81.367 98.0971C81.1958 99.1976 81.4048 101.225 82.3946 102.081C82.6927 102.339 83.0378 102.457 83.4341 102.44C84.299 102.403 85.4606 101.576 86.3241 100.381C87.3615 98.9468 87.6681 97.4339 87.1048 96.5277C86.7379 95.9373 86.0702 95.7718 85.4361 95.7718ZM97.2161 93.259C97.125 93.2589 97.0341 93.2519 96.9447 93.2381C96.0321 93.0997 95.1006 92.2353 94.679 91.136C94.2462 90.0084 94.4742 88.9779 95.3047 88.309C95.8841 87.8418 96.6788 87.8639 97.3782 88.3672C98.6106 89.2536 99.5365 91.5862 98.3497 92.7873C98.0439 93.0963 97.6489 93.259 97.2161 93.259ZM96.2608 88.8214C96.157 88.8214 96.0945 88.8712 96.0482 88.9084C95.2738 89.5321 95.5355 90.4993 95.6835 90.8863C96.0104 91.7376 96.6929 92.3382 97.139 92.4054C97.2484 92.4218 97.3719 92.4156 97.5255 92.2596C98.2999 91.4761 97.5507 89.6282 96.6767 88.9994C96.4887 88.8638 96.3569 88.8214 96.2608 88.8214ZM97.7044 79.2458C97.5963 79.2458 97.4855 79.2413 97.3726 79.2317C96.441 79.1537 95.6751 78.7735 95.4197 78.2634C95.3019 78.0267 95.1904 77.5471 95.7726 76.9923C96.7357 76.0754 98.0614 76.1969 98.8863 76.698C99.7105 77.1985 99.9434 78.0007 99.4404 78.6058C99.1002 79.0153 98.4654 79.2458 97.7044 79.2458ZM96.5764 77.5397C96.4039 77.7041 96.3428 77.8414 96.3962 77.9471C96.4845 78.1244 96.8949 78.3397 97.4813 78.3888C97.98 78.4312 98.4037 78.3306 98.5664 78.1346C98.8147 77.8358 98.4865 77.5166 98.2529 77.3748C97.8299 77.1172 97.1369 77.0059 96.5764 77.5397ZM109.676 86.5832C109.47 86.5838 109.265 86.5539 109.073 86.495C108.563 86.3374 108.25 85.9776 108.189 85.4816C108.069 84.5065 108.932 83.158 110.034 82.5959C110.706 82.2535 111.413 82.2281 112.024 82.5241C112.951 82.9716 113.166 83.8444 112.587 84.8008C112.009 85.7561 110.795 86.5832 109.676 86.5832ZM109.45 85.7041C110.042 85.8872 111.148 85.2437 111.641 84.4296C111.877 84.0404 112.041 83.5201 111.484 83.2506C111.386 83.2038 111.091 83.0603 110.597 83.3117C109.777 83.7297 109.163 84.8087 109.235 85.3985C109.266 85.6471 109.395 85.6866 109.45 85.7041ZM120.572 74.2789C120.391 74.2789 120.134 74.2253 119.897 73.9795C119.289 73.3513 118.956 71.5362 119.46 70.6103C119.686 70.1956 120.076 69.9498 120.559 69.9171C120.977 69.8888 121.516 70.0843 121.685 71.1763C121.774 71.7514 121.877 74.1106 120.689 74.2704C120.65 74.2762 120.611 74.2791 120.572 74.2789ZM120.526 70.8148C120.463 70.876 120.417 70.9466 120.388 71.0227C120.126 71.6322 120.318 72.6338 120.542 73.1558C120.734 72.5146 120.742 71.2458 120.526 70.8148ZM123.164 82.706C122.78 82.706 122.353 82.5467 122.022 82.1016C121.702 81.6722 121.71 81.2044 122.042 80.8169C122.414 80.3853 123.121 80.1367 123.729 80.2254C124.17 80.2904 124.497 80.5339 124.603 80.8779C124.813 81.553 124.336 82.3908 123.602 82.636C123.463 82.6819 123.314 82.7057 123.164 82.706ZM123.467 81.0593C123.342 81.0593 123.149 81.105 122.993 81.2203C122.764 81.3903 122.836 81.5474 122.923 81.6654C122.973 81.7321 123.099 81.8852 123.198 81.8524C123.411 81.7818 123.678 81.3926 123.582 81.083C123.562 81.0677 123.521 81.0593 123.467 81.0593ZM310.695 237.554C310.615 237.554 310.537 237.54 310.465 237.512C310.394 237.484 310.331 237.443 310.282 237.393C310.232 237.343 310.198 237.284 310.181 237.222C310.164 237.159 310.164 237.094 310.183 237.032C310.593 235.657 309.273 234.618 308.399 233.93C307.958 233.583 307.667 233.353 307.585 233.089C307.561 233.013 307.558 232.934 307.578 232.857C307.597 232.78 307.637 232.708 307.696 232.646C307.981 232.343 308.575 232.33 309.655 232.306C311.764 232.26 312.092 232.089 312.099 231.99C312.113 231.801 310.787 231.428 310.288 231.287C308.799 230.868 307.112 230.393 306.91 229.266C306.89 229.155 306.926 229.042 307.009 228.952C307.093 228.862 307.217 228.802 307.355 228.786C307.494 228.77 307.634 228.799 307.746 228.866C307.858 228.933 307.932 229.033 307.952 229.145C308.063 229.763 309.489 230.164 310.635 230.487C311.96 230.86 313.212 231.212 313.149 232.042C313.071 233.079 311.192 233.12 309.684 233.153C309.454 233.159 309.181 233.165 308.947 233.176L309.136 233.325C310.116 234.096 311.756 235.388 311.208 237.23C311.179 237.322 311.114 237.404 311.021 237.463C310.928 237.522 310.813 237.554 310.695 237.554Z" fill="#86D1FD"/>
<path d="M439.577 257.986C439.577 257.986 357.07 218.437 331.644 205.589C306.219 192.741 250.632 162.225 250.632 162.225L234.928 175.274C234.928 175.274 265.588 190.063 290.016 202.243C314.444 214.422 414.152 259.994 429.856 267.02C436.088 266.82 439.577 257.986 439.577 257.986Z" fill="#5C0B86"/>
<path d="M429.856 267.444C429.767 267.444 429.679 267.425 429.601 267.391C414.076 260.445 314.512 214.953 289.74 202.603C265.594 190.565 234.965 175.786 234.658 175.638C234.52 175.572 234.427 175.458 234.407 175.33C234.387 175.201 234.439 175.073 234.551 174.979L250.255 161.93C250.341 161.858 250.456 161.813 250.579 161.803C250.703 161.793 250.827 161.818 250.929 161.875C251.485 162.18 306.799 192.532 331.924 205.229C357.054 217.928 439.022 257.226 439.847 257.622C439.949 257.671 440.027 257.746 440.07 257.835C440.112 257.925 440.115 258.023 440.079 258.114C439.932 258.487 436.402 267.233 429.877 267.443L429.856 267.444ZM235.768 175.186C240.08 177.268 267.959 190.747 290.294 201.882C314.984 214.192 414.033 259.45 429.98 266.59C435.043 266.306 438.26 259.709 438.941 258.174C432.907 255.28 355.64 218.214 331.365 205.947C307.299 193.786 255.577 165.449 250.702 162.776L235.768 175.186Z" fill="#86D1FD"/>
<path d="M435.555 264.611C435.459 264.611 435.365 264.59 435.282 264.55L247.733 172.716C247.614 172.658 247.528 172.564 247.495 172.455C247.462 172.345 247.484 172.23 247.557 172.134C247.629 172.038 247.746 171.969 247.882 171.943C248.017 171.916 248.16 171.934 248.28 171.992L435.83 263.825C435.928 263.873 436.004 263.946 436.046 264.032C436.088 264.118 436.094 264.213 436.063 264.302C436.032 264.391 435.965 264.47 435.874 264.525C435.782 264.581 435.67 264.611 435.555 264.611ZM434.002 265.949C433.908 265.949 433.816 265.929 433.735 265.89L289.999 197.823C289.879 197.766 289.791 197.672 289.756 197.564C289.721 197.455 289.741 197.339 289.812 197.242C289.883 197.145 289.999 197.075 290.134 197.047C290.269 197.019 290.412 197.035 290.533 197.092L434.269 265.16C434.369 265.207 434.446 265.279 434.49 265.365C434.534 265.452 434.541 265.547 434.51 265.637C434.48 265.727 434.414 265.806 434.322 265.862C434.23 265.919 434.117 265.949 434.002 265.949ZM438.463 260.666C438.371 260.666 438.281 260.647 438.201 260.61C435.079 259.163 430.317 256.977 424.369 254.246C402.783 244.334 366.654 227.745 335.899 213.034C301.617 196.635 255.572 168.334 248.786 163.805C248.68 163.733 248.613 163.63 248.601 163.519C248.588 163.407 248.631 163.297 248.72 163.211C248.808 163.124 248.935 163.07 249.074 163.059C249.212 163.048 249.35 163.082 249.457 163.153C256.233 167.674 302.206 195.931 336.437 212.305C367.183 227.012 403.307 243.599 424.89 253.509C429.507 255.625 434.118 257.747 438.726 259.875C438.827 259.921 438.905 259.993 438.95 260.079C438.995 260.166 439.003 260.262 438.973 260.352C438.943 260.442 438.877 260.522 438.785 260.579C438.692 260.636 438.58 260.666 438.463 260.666Z" fill="#86D1FD"/>
<path d="M419.636 267.02C403.767 259.476 356.49 234.04 320.212 216.63C283.934 199.22 231.908 176.653 229.665 175.248C228.066 176.289 223.711 180.795 222.34 184.61C224.833 186.416 294.157 218.838 321.126 233.694C348.096 248.55 407.423 283.884 411.411 285.289C415.399 286.694 424.124 274.649 424.622 273.845C425.12 273.043 421.88 271.437 419.636 267.02Z" fill="#5C0B86"/>
<path d="M412.084 285.822C411.776 285.822 411.48 285.776 411.2 285.677C409.098 284.936 393.165 275.678 372.992 263.957C354.682 253.318 333.93 241.26 320.83 234.044C303.703 224.611 269.067 207.886 246.147 196.819C230.894 189.454 222.893 185.58 221.989 184.925C221.915 184.871 221.862 184.802 221.835 184.726C221.808 184.649 221.808 184.568 221.835 184.492C223.264 180.515 227.797 175.92 229.334 174.918C229.427 174.858 229.541 174.825 229.66 174.824C229.779 174.823 229.894 174.855 229.988 174.913C230.781 175.41 238.554 178.885 249.313 183.695C268.514 192.279 297.53 205.251 320.482 216.266C341.825 226.509 367.034 239.56 387.29 250.047C401.288 257.294 413.376 263.552 419.905 266.655C420.004 266.702 420.081 266.774 420.124 266.86C421.355 269.284 422.906 270.854 423.932 271.893C424.886 272.859 425.462 273.441 425.093 274.035C425.013 274.163 416.965 285.822 412.084 285.822ZM222.948 184.454C224.797 185.522 234.543 190.228 246.688 196.092C269.618 207.164 304.271 223.897 321.423 233.345C334.534 240.566 355.292 252.628 373.607 263.27C392.933 274.499 409.622 284.197 411.621 284.901C414.857 286.042 423.014 275.488 424.151 273.657C424.166 273.493 423.58 272.899 423.108 272.421C422.063 271.363 420.493 269.774 419.217 267.313C412.638 264.178 400.619 257.956 386.721 250.76C366.471 240.277 341.27 227.23 319.943 216.994C297.004 205.986 267.997 193.017 248.802 184.436C238.564 179.859 231.501 176.701 229.707 175.782C228.074 177.016 224.33 180.937 222.948 184.454Z" fill="#86D1FD"/>
<path d="M416.547 283.504C416.49 283.504 416.433 283.496 416.379 283.482C411.47 282.152 396.269 273.474 375.227 261.464C350.82 247.531 320.444 230.192 289.988 214.983C261.122 200.567 224.322 183.174 223.209 182.771C223.082 182.725 222.983 182.642 222.931 182.539C222.88 182.435 222.881 182.32 222.934 182.217C222.985 182.114 223.085 182.033 223.211 181.99C223.338 181.947 223.48 181.946 223.607 181.987C224.483 182.269 260.729 199.374 290.543 214.262C321.026 229.486 351.417 246.834 375.836 260.772C396.803 272.741 411.952 281.388 416.714 282.679C416.833 282.711 416.933 282.776 416.998 282.862C417.062 282.948 417.086 283.05 417.066 283.149C417.046 283.248 416.983 283.338 416.888 283.403C416.792 283.468 416.672 283.504 416.547 283.504ZM420.259 279.791H420.241C416.282 279.681 361.723 250.375 343.488 239.861C313.591 222.625 228.237 180.664 225.499 179.461C225.438 179.434 225.385 179.398 225.341 179.355C225.298 179.311 225.266 179.262 225.246 179.208C225.227 179.155 225.22 179.099 225.228 179.044C225.235 178.988 225.256 178.935 225.289 178.886C225.322 178.837 225.367 178.794 225.421 178.759C225.475 178.724 225.536 178.698 225.603 178.682C225.669 178.666 225.738 178.661 225.807 178.667C225.876 178.673 225.942 178.69 226.003 178.717C228.744 179.921 314.178 221.921 344.1 239.172C365.637 251.589 417.032 278.853 420.277 278.944C420.414 278.949 420.542 278.997 420.635 279.078C420.729 279.158 420.779 279.264 420.777 279.374C420.775 279.484 420.719 279.589 420.623 279.667C420.526 279.745 420.395 279.789 420.259 279.791ZM423.5 275.823C423.417 275.823 423.336 275.807 423.263 275.777C399.356 266.051 376.239 252.935 353.882 240.251C342.769 233.946 331.277 227.425 319.69 221.312C292.197 206.802 234.376 179.708 230.233 178.085C230.168 178.061 230.11 178.028 230.062 177.987C230.014 177.945 229.977 177.896 229.953 177.843C229.929 177.789 229.918 177.732 229.922 177.676C229.925 177.619 229.943 177.563 229.974 177.512C230.005 177.461 230.048 177.416 230.101 177.378C230.155 177.341 230.217 177.312 230.284 177.295C230.351 177.277 230.422 177.271 230.492 177.275C230.562 177.28 230.631 177.297 230.693 177.323C234.845 178.95 292.747 206.08 320.267 220.603C331.868 226.725 343.367 233.249 354.488 239.559C377.84 252.808 399.899 265.323 423.737 275.021C423.842 275.064 423.926 275.134 423.976 275.221C424.026 275.307 424.038 275.405 424.011 275.497C423.983 275.59 423.918 275.672 423.825 275.731C423.732 275.79 423.618 275.823 423.5 275.823Z" fill="#86D1FD"/>
<path d="M414.483 299.738C414.414 299.738 414.343 299.727 414.275 299.703C394.443 292.8 342.354 260.292 313.068 241.529L312.42 241.114C297.97 231.859 241.014 206.586 239.026 205.839C238.9 205.792 238.802 205.706 238.754 205.6C238.707 205.494 238.713 205.378 238.772 205.276C238.831 205.174 238.938 205.095 239.069 205.057C239.201 205.018 239.345 205.023 239.472 205.071C241.441 205.811 298.109 230.865 313.075 240.45L313.723 240.866C381.855 284.518 406.228 295.979 414.692 298.926C414.804 298.964 414.895 299.032 414.951 299.119C415.007 299.206 415.024 299.305 415 299.401C414.975 299.496 414.91 299.582 414.816 299.644C414.722 299.705 414.605 299.739 414.483 299.738ZM218.377 215.161L218.233 215.161C214.76 215.128 211.892 213.976 210.157 211.919C207.235 208.454 207.88 204.969 208.524 203.199C209.381 200.845 211.195 198.837 213.038 198.202C214.141 197.823 215.485 198.204 216.548 199.194C217.677 200.247 218.43 201.989 217.413 203.326C216.25 204.853 216.099 206.214 216.974 207.259C218.128 208.637 220.691 209.12 222.519 208.875C223.677 208.72 224.862 209.182 225.537 210.053C226.288 211.023 226.226 212.222 225.373 213.183C224.382 214.302 221.329 215.161 218.377 215.161ZM213.933 198.903C213.77 198.903 213.609 198.928 213.451 198.982C212.188 199.417 210.423 200.997 209.534 203.437C208.942 205.064 208.349 208.266 211.027 211.443C213.1 213.9 216.438 214.296 218.245 214.313C221.107 214.347 223.804 213.496 224.518 212.691C225.127 212.004 225.175 211.186 224.645 210.502C224.196 209.923 223.429 209.613 222.693 209.712C220.486 210.008 217.517 209.423 216.102 207.733C215.319 206.798 214.756 205.198 216.516 202.884C217.223 201.954 216.667 200.602 215.752 199.749C215.278 199.307 214.596 198.903 213.933 198.903ZM195.904 218.736C194.969 218.736 193.947 218.628 192.834 218.378C189.4 217.611 186.879 216.087 185.338 213.848C183.214 210.761 183.641 207.262 184.163 205.843C184.409 205.174 185.491 204.761 186.924 204.788C188.381 204.817 189.997 205.335 190.327 206.428C191.407 210.003 193.583 211.011 195.218 211.226C197.079 211.471 198.773 210.759 199.232 210.174C199.775 209.481 200.817 209.36 202.022 209.851C203.585 210.488 205.359 212.208 204.698 213.562C204.407 214.16 201.972 218.736 195.904 218.736ZM186.79 205.634C185.888 205.634 185.253 205.862 185.171 206.083C184.692 207.384 184.303 210.596 186.258 213.438C187.657 215.47 189.964 216.858 193.115 217.562C200.406 219.191 203.227 214.258 203.718 213.253C204.104 212.462 202.846 211.137 201.545 210.607C201.146 210.445 200.429 210.23 200.12 210.626C199.401 211.544 197.257 212.354 195.047 212.062C193.451 211.852 190.583 210.867 189.304 206.628C189.106 205.975 187.918 205.656 186.897 205.635L186.79 205.634ZM187.018 188.364C185.348 188.366 183.7 188.062 182.198 187.474C178.25 185.942 176.088 182.887 175.496 181.485C175.144 180.652 176.159 179.714 177.322 179.156C178.473 178.603 180.04 178.305 180.989 179.128C183.322 181.152 185.686 181.837 187.819 181.109C189.814 180.428 190.95 178.718 190.904 178.013C190.85 177.195 191.615 176.611 192.95 176.451C194.68 176.245 197.364 176.824 197.796 178.237C198.016 178.955 199.709 185.328 191.565 187.686C190.003 188.138 188.484 188.364 187.018 188.364ZM179.441 179.47C178.95 179.47 178.363 179.642 177.861 179.883C176.867 180.361 176.394 180.979 176.492 181.212C177.035 182.497 179.02 185.3 182.655 186.711C185.254 187.72 188.132 187.779 191.209 186.888C198.335 184.825 197.095 179.487 196.775 178.438C196.523 177.613 194.546 177.116 193.104 177.289C192.662 177.342 191.924 177.5 191.954 177.967C192.025 179.049 190.643 181.065 188.229 181.888C186.431 182.501 183.58 182.62 180.216 179.704C180.028 179.539 179.753 179.47 179.441 179.47ZM206.184 196.148C203.66 196.148 197.124 195.277 196.449 194.885C196.1 194.683 196.15 194.42 196.174 194.344C196.329 193.844 200.885 180.335 201.08 179.761C201.108 179.676 201.169 179.6 201.253 179.544C201.338 179.488 201.442 179.455 201.551 179.449C210.17 178.967 210.718 179.379 210.899 179.514C211.006 179.595 211.096 179.754 211.096 179.871C211.096 180.013 207.968 195.608 207.108 196.051C206.977 196.118 206.648 196.148 206.184 196.148ZM197.283 194.278C198.71 194.689 205.08 195.348 206.464 195.311C207.108 193.689 209.651 182.126 210.003 180.128C208.937 180.004 205.338 180.095 201.996 180.274C201.365 182.145 197.899 192.426 197.283 194.278Z" fill="#86D1FD"/>
<path d="M209.884 183.723C209.822 183.723 209.761 183.714 209.703 183.697C209.135 183.528 206.642 183.338 204.639 183.185C202.446 183.018 201.076 182.91 200.586 182.789C200.453 182.757 200.341 182.683 200.275 182.583C200.209 182.484 200.195 182.368 200.236 182.261C200.277 182.153 200.369 182.063 200.492 182.01C200.615 181.957 200.759 181.946 200.893 181.979C201.306 182.08 203.129 182.219 204.738 182.341C207.536 182.555 209.419 182.709 210.066 182.901C210.183 182.935 210.28 183.001 210.342 183.087C210.404 183.174 210.426 183.275 210.405 183.373C210.383 183.471 210.319 183.56 210.224 183.624C210.128 183.688 210.008 183.723 209.884 183.723ZM207.549 193.663C204.977 193.489 200.232 193.135 197.307 192.728C197.175 192.704 197.06 192.64 196.986 192.55C196.911 192.459 196.882 192.349 196.905 192.242C196.928 192.135 197.001 192.04 197.109 191.975C197.217 191.91 197.352 191.881 197.486 191.893C200.371 192.295 205.082 192.645 207.634 192.819L207.549 193.663ZM164.986 188.493L164.952 188.493C162.439 188.365 156.652 186.586 154.597 185.708C154.486 185.661 154.4 185.583 154.354 185.49C154.308 185.396 154.305 185.292 154.346 185.197C154.688 184.392 157.364 177.438 158.802 173.702C159.134 172.836 159.468 171.97 159.803 171.105C159.834 171.023 159.896 170.952 159.98 170.899C160.063 170.846 160.165 170.815 160.27 170.81C162.638 170.687 169.212 172.023 170.615 172.91C170.698 172.963 170.759 173.034 170.791 173.115C170.823 173.196 170.824 173.283 170.793 173.365C170.744 173.499 165.806 186.803 165.502 188.146C165.48 188.243 165.416 188.332 165.322 188.395C165.228 188.459 165.109 188.493 164.986 188.493ZM155.484 185.12C157.565 185.938 162.193 187.346 164.574 187.61C165.296 185.251 168.961 175.344 169.673 173.426C168.109 172.732 163.022 171.665 160.694 171.648L159.806 173.953C158.403 177.6 156.138 183.486 155.484 185.12Z" fill="#86D1FD"/>
<path d="M166.228 184.795C160.763 184.795 156.377 182.524 155.895 182.266C155.836 182.235 155.786 182.195 155.747 182.149C155.708 182.103 155.68 182.051 155.666 181.996C155.652 181.941 155.652 181.884 155.665 181.829C155.679 181.774 155.705 181.722 155.744 181.675C155.782 181.629 155.832 181.589 155.89 181.558C155.948 181.527 156.013 181.505 156.081 181.495C156.15 181.484 156.22 181.484 156.288 181.496C156.356 181.507 156.421 181.529 156.478 181.561C156.933 181.805 161.073 183.947 166.228 183.947H166.228C166.368 183.947 166.502 183.992 166.6 184.072C166.699 184.151 166.754 184.259 166.754 184.371C166.754 184.483 166.699 184.591 166.6 184.671C166.502 184.75 166.368 184.795 166.228 184.795H166.228ZM168.983 177.208C168.851 177.208 168.723 177.168 168.626 177.095C167.786 176.471 162.41 174.879 159.218 174.022C159.151 174.005 159.088 173.978 159.033 173.942C158.979 173.906 158.934 173.861 158.902 173.811C158.869 173.76 158.85 173.705 158.844 173.649C158.839 173.592 158.847 173.535 158.87 173.481C158.892 173.428 158.928 173.378 158.974 173.335C159.021 173.293 159.078 173.258 159.141 173.234C159.205 173.209 159.274 173.195 159.344 173.192C159.415 173.19 159.485 173.199 159.551 173.218C159.897 173.311 168.035 175.503 169.34 176.473C169.417 176.531 169.472 176.607 169.495 176.69C169.519 176.773 169.511 176.859 169.472 176.939C169.434 177.018 169.366 177.086 169.279 177.134C169.192 177.182 169.089 177.208 168.983 177.208ZM258.746 153.914C258.633 153.914 258.523 153.885 258.432 153.83C258.342 153.776 258.275 153.7 258.243 153.613C257.989 152.935 255.598 147.193 254.314 144.109C253.844 142.98 253.504 142.166 253.437 142.001C253.37 141.837 253.434 141.657 253.598 141.545C255.185 140.465 259.31 138.864 260.911 138.858H260.913C261.137 138.858 261.337 138.973 261.41 139.143C263.044 142.937 266.264 150.324 266.75 151.133C266.805 151.226 266.817 151.331 266.783 151.43C266.749 151.529 266.672 151.615 266.565 151.672C264.702 152.66 260.814 153.621 258.839 153.908C258.808 153.912 258.777 153.914 258.746 153.914ZM254.552 142.016L255.311 143.84C256.544 146.8 258.52 151.547 259.105 153.002C260.97 152.681 263.948 151.915 265.615 151.147C264.648 149.207 261.287 141.437 260.553 139.736C259.137 139.939 256.059 141.102 254.552 142.016Z" fill="#86D1FD"/>
<path d="M257.591 151.088C257.456 151.087 257.326 151.044 257.229 150.968C257.132 150.892 257.075 150.79 257.07 150.681C257.064 150.572 257.111 150.466 257.2 150.384C257.289 150.302 257.414 150.252 257.549 150.242L257.623 150.237C258.615 150.173 261.251 150.004 264.567 148.009C264.678 147.942 264.819 147.913 264.957 147.929C265.095 147.945 265.219 148.005 265.303 148.095C265.387 148.185 265.422 148.298 265.402 148.409C265.382 148.521 265.308 148.621 265.196 148.688C261.637 150.83 258.781 151.013 257.706 151.082L257.633 151.086L257.591 151.088ZM254.754 144.258C254.63 144.258 254.509 144.223 254.414 144.158C254.319 144.094 254.255 144.004 254.234 143.906C254.213 143.807 254.237 143.705 254.3 143.619C254.363 143.533 254.462 143.467 254.579 143.434L254.693 143.402C258.754 142.251 261.281 141.693 262.204 141.75C262.494 141.768 262.711 141.971 262.689 142.205C262.668 142.438 262.407 142.608 262.125 142.595C261.778 142.574 260.379 142.689 255.042 144.202L254.927 144.234C254.872 144.25 254.813 144.258 254.754 144.258ZM195.402 173.831C193.306 173.831 186.669 171.009 185.9 170.679C185.788 170.631 185.701 170.552 185.656 170.457C185.61 170.362 185.609 170.256 185.652 170.16C185.918 169.572 192.172 155.725 192.865 154.43C192.909 154.352 192.98 154.285 193.071 154.24C193.162 154.194 193.267 154.172 193.374 154.175C195.519 154.259 200.08 155.848 201.645 157.057C201.726 157.119 201.779 157.199 201.799 157.287C201.819 157.376 201.803 157.466 201.755 157.547C198.416 163.117 197.014 169.24 196.34 172.182C196.204 172.776 196.101 173.227 196.02 173.501C195.995 173.586 195.938 173.663 195.857 173.721C195.775 173.779 195.673 173.815 195.565 173.824C195.511 173.829 195.456 173.831 195.402 173.831ZM186.799 170.103C189.464 171.229 193.543 172.782 195.086 172.967C195.147 172.719 195.219 172.403 195.305 172.028C195.976 169.1 197.357 163.063 200.634 157.47C199.124 156.493 195.587 155.261 193.687 155.05C192.631 157.206 187.74 168.019 186.799 170.103Z" fill="#86D1FD"/>
<path d="M199.836 160.461C199.71 160.461 199.588 160.425 199.493 160.358C197.835 159.207 191.979 157.656 191.92 157.64C191.787 157.605 191.677 157.529 191.614 157.429C191.551 157.328 191.54 157.212 191.584 157.105C191.627 156.998 191.722 156.91 191.846 156.859C191.971 156.808 192.115 156.799 192.248 156.834C192.496 156.9 198.364 158.455 200.18 159.717C200.262 159.773 200.32 159.848 200.346 159.932C200.373 160.016 200.367 160.104 200.33 160.185C200.292 160.266 200.225 160.336 200.137 160.386C200.048 160.435 199.943 160.461 199.836 160.461ZM196.074 170.754C194.372 170.754 188.922 169.381 186.917 168.126C186.86 168.093 186.812 168.05 186.776 168.002C186.74 167.953 186.716 167.899 186.707 167.843C186.697 167.787 186.701 167.73 186.719 167.675C186.738 167.62 186.769 167.569 186.812 167.524C186.855 167.48 186.909 167.442 186.971 167.415C187.032 167.387 187.1 167.37 187.17 167.363C187.239 167.357 187.31 167.362 187.378 167.378C187.445 167.394 187.508 167.421 187.562 167.457C189.593 168.727 195.276 170.014 196.161 169.904C196.299 169.887 196.44 169.914 196.552 169.98C196.665 170.046 196.741 170.146 196.762 170.257C196.784 170.368 196.75 170.481 196.667 170.572C196.585 170.663 196.462 170.724 196.324 170.741C196.241 170.751 196.158 170.755 196.074 170.754ZM207.564 166.617C204.172 166.617 201.023 165.5 200.145 164.654C200.013 164.527 199.613 164.142 200.012 162.6C200.035 162.51 200.591 160.393 201.445 160.05C201.707 159.944 202.06 159.958 202.833 159.997C205.185 160.119 207.75 160.096 208.421 158.273C209.312 155.85 206.903 154.08 205.748 153.75C204.424 153.372 204.874 151.4 205.044 150.805C205.237 150.128 205.8 148.56 206.848 148.658C208.05 148.765 213.098 149.819 215.832 153.027C217.583 155.082 217.996 157.575 217.058 160.437C215.705 164.568 212.47 165.965 209.995 166.409C209.188 166.554 208.369 166.617 207.564 166.617ZM201.916 160.818C201.426 161.251 200.623 163.691 200.957 164.115C201.768 164.896 205.943 166.268 209.765 165.582C212.951 165.011 215.062 163.207 216.04 160.221C216.896 157.608 216.534 155.35 214.963 153.507C212.545 150.669 208.007 149.645 206.819 149.51C206.438 149.789 205.756 151.427 205.9 152.492C205.946 152.834 206.063 152.942 206.1 152.953C207.743 153.422 210.5 155.602 209.43 158.514C208.465 161.138 204.616 160.939 202.766 160.844C202.454 160.827 202.075 160.808 201.916 160.818ZM239.006 136.284C235.622 136.284 232.525 135.103 231.801 134.222C231.703 134.102 231.404 133.738 231.928 132.562C231.937 132.544 232.762 130.709 233.628 130.496C233.827 130.447 234.088 130.455 234.658 130.477C236.139 130.536 239.22 130.658 240.162 129.076C241.316 127.138 240.347 124.473 239.576 124.162C239.338 124.066 238.825 123.755 239.2 122.94C239.614 122.041 241.759 119.849 242.881 120.073C243.822 120.264 246.187 121.839 247.546 124.302C248.567 126.152 249.311 129.075 247.054 132.494C245.1 135.455 241.897 136.184 239.555 136.273C239.371 136.281 239.188 136.284 239.006 136.284ZM233.955 131.308C233.503 131.608 232.517 133.379 232.69 133.772C233.207 134.399 236.277 135.553 239.503 135.427C241.573 135.348 244.402 134.705 246.124 132.096C248.182 128.978 247.51 126.324 246.584 124.646C245.342 122.394 243.267 121.079 242.675 120.908C241.975 121.073 240.123 122.908 240.116 123.434C241.46 124.067 242.449 127.192 241.11 129.442C239.867 131.531 236.315 131.391 234.607 131.323C234.357 131.313 234.079 131.302 233.955 131.308Z" fill="#86D1FD"/>
<path d="M212.571 176.387C213.297 175.838 223.258 165.521 223.812 164.094C222.78 162.67 216.702 159.805 215.277 159.734C214.796 160.736 212.648 165.788 205.312 172.55C206.017 173.516 210.988 176.09 212.571 176.387Z" fill="#5C0B86"/>
<path d="M212.572 176.811C212.531 176.811 212.491 176.808 212.452 176.8C210.784 176.486 205.657 173.859 204.859 172.765C204.803 172.688 204.779 172.599 204.789 172.51C204.799 172.422 204.844 172.338 204.917 172.271C209.501 168.045 212.793 163.837 214.702 159.763L214.788 159.581C214.828 159.497 214.9 159.426 214.995 159.377C215.089 159.328 215.2 159.305 215.311 159.311C216.847 159.387 223.124 162.301 224.269 163.88C224.306 163.931 224.329 163.988 224.337 164.046C224.345 164.105 224.338 164.164 224.317 164.22C223.69 165.835 213.547 176.231 212.934 176.696C212.835 176.77 212.706 176.811 212.572 176.811ZM205.991 172.567C207.057 173.501 210.793 175.454 212.406 175.906C213.887 174.517 222.161 165.932 223.221 164.143C222.042 162.883 217.299 160.618 215.612 160.217C213.69 164.253 210.454 168.406 205.991 172.567Z" fill="#86D1FD"/>
<path d="M214.935 174.47C214.877 174.47 214.819 174.462 214.763 174.447C212.833 173.909 207.856 171.9 206.867 170.933C206.778 170.846 206.736 170.734 206.749 170.622C206.763 170.51 206.831 170.407 206.939 170.336C207.047 170.265 207.185 170.231 207.324 170.242C207.463 170.253 207.591 170.307 207.679 170.394C208.457 171.155 213.162 173.104 215.108 173.646C215.226 173.679 215.325 173.744 215.389 173.83C215.452 173.916 215.476 174.018 215.455 174.117C215.434 174.216 215.371 174.306 215.276 174.37C215.18 174.435 215.06 174.47 214.935 174.47ZM173.209 163.33C173.101 163.33 172.995 163.303 172.907 163.253C172.818 163.203 172.751 163.132 172.715 163.05L172.573 162.736C171.472 160.299 169.966 156.962 171.613 155.03C173.908 152.337 177.36 151.663 178.029 151.555C178.817 151.428 179.624 152.094 180.164 152.675C181.102 153.686 182.238 155.586 181.525 156.675C180.681 157.965 174.29 162.685 173.564 163.218C173.467 163.29 173.34 163.33 173.209 163.33ZM178.229 152.387H178.228C177.636 152.482 174.545 153.086 172.48 155.509C171.197 157.014 172.476 160.034 173.433 162.163C175.661 160.505 180.008 157.174 180.594 156.279C180.891 155.825 180.508 154.689 179.702 153.636C179.025 152.751 178.411 152.387 178.229 152.387Z" fill="#86D1FD"/>
<path d="M181.22 165.499C181.088 165.498 180.961 165.459 180.864 165.387L177.074 162.587C177.006 162.537 176.956 162.474 176.928 162.404C176.9 162.333 176.895 162.259 176.914 162.186L178.211 157.298C178.233 157.215 178.286 157.139 178.362 157.081C178.438 157.022 178.535 156.983 178.639 156.969C178.742 156.955 178.849 156.966 178.945 157.002C179.041 157.037 179.121 157.095 179.176 157.167C180.138 158.452 180.271 158.591 181.17 158.523C181.613 158.489 182.976 158.386 184.831 163.689C184.923 163.951 184.869 164.211 184.677 164.44C184.023 165.219 181.729 165.457 181.276 165.497L181.22 165.499ZM178.006 162.126L181.397 164.63C182.419 164.517 183.569 164.247 183.805 163.965C182.618 160.487 181.582 159.37 181.268 159.366C180.108 159.454 179.561 159.161 178.971 158.49L178.006 162.126Z" fill="#86D1FD"/>
<path d="M178.717 154.798C175.792 155.929 171.967 158.348 173.002 162.274C174.037 166.201 178.722 167.332 183.047 166.672C184.831 166.4 185.153 163.41 183.749 163.675C182.345 163.94 176.962 161.293 180.707 157.154C182.006 155.717 179.491 154.499 178.717 154.798Z" fill="#5C0B86"/>
<path d="M180.775 167.27C177.009 167.27 173.405 165.849 172.487 162.362C171.273 157.754 176.28 155.27 178.489 154.416C179.232 154.129 180.436 154.595 181.053 155.192C181.757 155.874 181.786 156.68 181.132 157.403C179.379 159.34 179.868 160.788 180.587 161.661C181.551 162.832 183.169 163.347 183.629 163.261C184.055 163.182 184.443 163.274 184.724 163.523C185.274 164.009 185.231 164.924 184.944 165.616C184.608 166.428 183.951 166.965 183.144 167.088C182.363 167.208 181.57 167.269 180.775 167.27ZM178.941 155.181C176.954 155.95 172.457 158.168 173.516 162.186C174.546 166.095 179.24 166.822 182.948 166.256C183.573 166.161 183.989 165.485 184.079 164.866C184.154 164.346 183.983 164.101 183.93 164.083C182.848 164.279 180.81 163.466 179.709 162.13C178.97 161.232 178.06 159.358 180.28 156.905C180.628 156.52 180.635 156.157 180.302 155.795C179.883 155.339 179.132 155.13 178.941 155.181ZM198.699 149.502C198.659 149.502 198.619 149.498 198.579 149.491C198.322 149.443 198.064 149.397 197.806 149.352C193.913 148.666 189.731 147.822 188.229 146.757C188.162 146.71 188.11 146.649 188.08 146.581C188.05 146.513 188.042 146.44 188.057 146.369C188.208 145.641 188.353 142.265 188.48 139.285C188.601 136.455 188.705 134.011 188.817 133.374C188.837 133.265 188.909 133.167 189.017 133.1C189.125 133.032 189.261 133.001 189.397 133.013C192.407 133.283 198.534 134.276 200.114 134.944C200.205 134.983 200.28 135.041 200.329 135.114C200.513 135.38 200.943 136.004 199.286 148.63L199.223 149.121C199.21 149.225 199.149 149.322 199.052 149.393C198.956 149.463 198.83 149.502 198.699 149.502ZM189.136 146.256C190.888 147.266 196.039 148.173 198.032 148.525L198.238 148.561L198.241 148.541C199.549 138.573 199.541 136.177 199.432 135.62C197.877 135.072 192.924 134.229 189.81 133.907C189.719 134.902 189.624 137.14 189.531 139.314C189.409 142.197 189.282 145.171 189.136 146.256Z" fill="#86D1FD"/>
<path d="M199.73 140.83C199.636 140.831 199.544 140.81 199.463 140.772C198.92 140.516 192.711 138.986 188.926 138.081C188.86 138.066 188.798 138.039 188.745 138.004C188.691 137.969 188.646 137.926 188.613 137.877C188.581 137.828 188.56 137.775 188.553 137.719C188.546 137.664 188.552 137.608 188.572 137.555C188.591 137.501 188.624 137.452 188.667 137.408C188.711 137.365 188.765 137.329 188.825 137.303C188.886 137.276 188.953 137.26 189.021 137.254C189.09 137.248 189.16 137.253 189.226 137.269C190.883 137.665 199.194 139.659 199.998 140.042C200.097 140.089 200.174 140.162 200.217 140.248C200.26 140.334 200.267 140.429 200.236 140.518C200.206 140.608 200.14 140.687 200.048 140.743C199.957 140.799 199.845 140.83 199.73 140.83ZM176.006 136.528C175.971 136.528 175.942 136.526 175.914 136.525C174.626 136.43 172.414 133.503 171.517 131.957C170.119 129.549 170.668 128.909 170.849 128.7C172.047 127.305 183.507 122.085 184.488 121.763C184.594 121.728 184.712 121.722 184.822 121.746C184.933 121.77 185.031 121.822 185.102 121.894C185.776 122.59 186.515 123.264 187.296 123.978C188.292 124.888 189.323 125.829 190.308 126.897C190.387 126.983 190.423 127.089 190.409 127.195C190.395 127.301 190.332 127.399 190.232 127.469L189.9 127.705C178.139 136.061 176.515 136.528 176.006 136.528ZM184.533 122.68C182.232 123.605 172.583 128.17 171.714 129.182C171.615 129.297 171.568 129.757 172.023 130.746C173.064 133.004 175.423 135.556 176.025 135.682C176.288 135.636 178.203 134.885 189.173 127.091C188.301 126.176 187.391 125.344 186.508 124.538C185.813 123.904 185.152 123.302 184.533 122.68Z" fill="#86D1FD"/>
<path d="M180.072 134.307C179.935 134.307 179.804 134.264 179.706 134.187C177.177 132.217 174.736 127.004 174.633 126.783C174.584 126.678 174.589 126.561 174.647 126.459C174.705 126.357 174.811 126.277 174.942 126.238C175.072 126.198 175.217 126.202 175.344 126.249C175.471 126.296 175.57 126.381 175.619 126.486C175.643 126.539 178.079 131.741 180.438 133.578C180.513 133.637 180.565 133.712 180.587 133.795C180.608 133.878 180.599 133.964 180.56 134.042C180.52 134.12 180.453 134.187 180.366 134.234C180.279 134.281 180.176 134.307 180.072 134.307Z" fill="#86D1FD"/>
<path d="M135.966 -77.5845C138.717 -72.4984 156.332 -38.2103 163.311 -24.7056C170.394 -11.002 188.131 22.8692 194.286 33.3244C200.535 43.9401 204.524 51.7028 208.844 57.1358C212.762 62.062 235.433 61.6067 263.684 52.5056C291.934 43.4045 307.222 37.2479 306.226 30.2884C305.229 23.329 286.949 -18.9641 281.299 -28.0647C275.649 -37.1657 258.698 -73.5695 256.704 -77.5845C254.71 -81.6 135.966 -77.5845 135.966 -77.5845Z" fill="#5C0B86"/>
<path d="M222.198 60.7092C214.983 60.7092 210.103 59.5048 208.402 57.3648C205.245 53.3944 202.262 48.1846 198.486 41.5896C197.028 39.0434 195.521 36.4103 193.81 33.5065C187.722 23.1643 170.306 -10.0685 162.825 -24.5421C160.826 -28.4113 157.953 -33.9866 154.807 -40.0924C147.072 -55.1061 137.444 -73.7896 135.483 -77.4153C135.449 -77.4784 135.434 -77.5473 135.441 -77.6159C135.447 -77.6845 135.474 -77.7509 135.519 -77.8093C135.565 -77.8676 135.627 -77.9162 135.701 -77.9508C135.775 -77.9854 135.858 -78.005 135.943 -78.0079C136.24 -78.0181 165.977 -79.0175 195.575 -79.5141C255.811 -80.5242 256.779 -78.5746 257.192 -77.7424C257.6 -76.921 258.63 -74.7517 260.056 -71.749C265.648 -59.977 277.282 -35.482 281.768 -28.2548C287.28 -19.3758 305.712 23.018 306.747 30.2395C307.771 37.3893 293.113 43.4799 263.878 52.8984C246.953 58.3517 232.291 60.7092 222.198 60.7092ZM136.751 -77.1871C139.258 -72.4801 148.383 -54.7711 155.779 -40.4178C158.925 -34.3126 161.797 -28.7373 163.797 -24.8686C171.274 -10.4012 188.681 22.8146 194.762 33.1427C196.473 36.051 197.982 38.6858 199.441 41.2343C203.2 47.7999 206.169 52.986 209.287 56.9072C211.142 59.2398 217.798 60.268 227.096 59.6584C237.597 58.9698 250.521 56.2897 263.488 52.112C279.925 46.8164 289.242 43.3748 295.648 40.2321C302.96 36.6442 306.155 33.4997 305.702 30.3367C304.673 23.1603 286.318 -19.0306 280.827 -27.8758C276.317 -35.1402 264.671 -59.6617 259.073 -71.4462C257.648 -74.4455 256.619 -76.6126 256.215 -77.4278C254.939 -78.8983 222.044 -80.0575 136.751 -77.1871Z" fill="#86D1FD"/>
<path d="M295.732 2.86367C295.616 2.86343 295.504 2.83253 295.412 2.77574C295.32 2.71895 295.254 2.63943 295.224 2.54945C295.194 2.45947 295.202 2.36403 295.246 2.27788C295.29 2.19172 295.368 2.11964 295.468 2.07275C298.138 0.829903 302.375 -1.65694 302.375 -3.03764C302.375 -5.14709 298.021 -14.8351 296.673 -16.2034C296.534 -16.3452 296.31 -16.4209 295.993 -16.4333C294.078 -16.5102 290.048 -14.3013 288.938 -13.3844C288.841 -13.3038 288.708 -13.2578 288.568 -13.2563C288.429 -13.2548 288.294 -13.298 288.194 -13.3765C288.094 -13.4549 288.037 -13.5621 288.035 -13.6745C288.033 -13.7869 288.087 -13.8953 288.184 -13.9759C289.158 -14.7803 293.501 -17.3835 296.046 -17.2796C296.675 -17.2542 297.162 -17.0689 297.497 -16.7299C299.012 -15.1927 303.427 -5.37251 303.427 -3.03764C303.427 -0.718582 296.754 2.45239 295.993 2.80605C295.914 2.84402 295.824 2.86395 295.732 2.86367ZM323.675 17.5418C322.629 17.5418 321.843 17.4514 321.386 17.2508C321.06 17.1079 320.849 16.9124 320.76 16.6689C318.213 9.70953 304.555 -16.8152 296.395 -32.6633C293.308 -38.6601 290.869 -43.3965 289.866 -45.4438C286.17 -52.9862 273.295 -78.9511 273.166 -79.2121C273.14 -79.2638 273.127 -79.319 273.128 -79.3747C273.129 -79.4303 273.143 -79.4853 273.171 -79.5364C273.198 -79.5876 273.237 -79.6339 273.287 -79.6728C273.336 -79.7116 273.395 -79.7423 273.459 -79.7629C273.588 -79.8047 273.733 -79.8032 273.861 -79.7589C273.925 -79.737 273.982 -79.7052 274.031 -79.6654C274.079 -79.6255 274.117 -79.5785 274.143 -79.5268C274.272 -79.2652 287.148 -53.2992 290.845 -45.7551C291.844 -43.7145 294.282 -38.9809 297.368 -32.9881C306.064 -16.0983 319.206 9.4265 321.769 16.4288C321.772 16.4368 321.8 16.4673 321.889 16.5062C324.885 17.8174 348.26 12.9782 363.242 9.40446C363.375 9.37476 363.517 9.3883 363.637 9.44215C363.758 9.49601 363.848 9.58587 363.887 9.69239C363.926 9.79891 363.912 9.91357 363.847 10.0117C363.782 10.1097 363.672 10.1834 363.541 10.2168C360.089 11.0405 332.55 17.5418 323.675 17.5418Z" fill="#86D1FD"/>
<path d="M198.126 -3.03663C173.76 -13.7009 204.168 -43.9406 221.119 -37.9179C238.069 -31.8951 230.033 10.9274 198.126 -3.03663Z" fill="white"/>
<path d="M210.047 0.160511C206.273 0.160511 202.175 -0.782364 197.874 -2.66472C188.313 -6.84919 185.882 -14.7215 191.373 -23.7226C197.343 -33.5101 211.423 -41.8259 221.331 -38.3058C226.291 -36.5432 229.521 -31.7029 230.191 -25.0265C231.32 -13.786 225.203 -5.19167 219.043 -1.96307C216.34 -0.546787 213.315 0.160511 210.047 0.160511ZM198.377 -3.4093C206.04 -0.0558548 212.988 0.198929 218.469 -2.67376C224.377 -5.76959 230.236 -14.0634 229.143 -24.9587C228.514 -31.2215 225.435 -35.9218 220.906 -37.5307C213.169 -40.2791 199.301 -34.7981 192.317 -23.3492C187.106 -14.8046 189.371 -7.35084 198.377 -3.4093Z" fill="#86D1FD"/>
<path d="M220.943 40.1929C195.209 31.8698 221.072 -0.999174 238.773 3.40448C256.475 7.80814 254.641 51.0916 220.943 40.1929Z" fill="white"/>
<path d="M231.015 42.3609C227.852 42.3609 224.409 41.7711 220.747 40.5865C210.649 37.3206 207.105 29.7273 211.266 20.2749C215.791 9.99704 228.585 0.425932 238.928 2.99977C244.109 4.28838 248.012 8.79542 249.637 15.3645C252.371 26.4247 247.53 35.5309 241.875 39.3114C238.838 41.3412 235.169 42.3609 231.015 42.3609ZM235.584 3.45793C227.59 3.45793 216.928 9.94958 212.258 20.5585C208.308 29.5307 211.628 36.724 221.139 39.8001C229.233 42.4174 236.17 42.0237 241.202 38.6601C246.625 35.0349 251.255 26.2507 248.604 15.5306C247.08 9.36826 243.347 4.98608 238.617 3.80989C237.668 3.57318 236.65 3.45793 235.584 3.45793Z" fill="#86D1FD"/>
<path d="M236.639 -55.9192C233.608 -55.9192 230.294 -56.5554 226.769 -57.8304C214.516 -62.2634 214.493 -72.6339 218.559 -80.861C220.94 -85.6799 224.847 -90.135 229.277 -93.0845C234.128 -96.3137 239.14 -97.4351 243.388 -96.243C248.476 -94.8149 252.37 -89.6706 253.805 -82.4813C255.442 -74.275 253.587 -63.2103 245.645 -58.3072C243.067 -56.7164 240.03 -55.9192 236.639 -55.9192ZM227.199 -58.6038C234.394 -56.0011 240.383 -56.1277 245.004 -58.98C252.603 -63.6718 254.355 -74.3818 252.765 -82.3474C251.393 -89.2238 247.758 -94.1195 243.042 -95.4431C234.558 -97.8237 224.041 -89.6633 219.537 -80.5481C215.652 -72.6853 215.624 -62.7911 227.199 -58.6038ZM231.562 43.1622C229.208 43.1622 226.787 42.9763 224.437 42.591C217.608 41.4713 212.357 38.8918 209.651 35.3282C202.814 26.3226 206.36 15.3855 209.678 11.7937C211.239 10.1034 211.74 8.55548 211.09 7.43352C210.546 6.49574 209.192 5.9099 207.376 5.82572C203.265 5.63591 191.349 1.03057 186.927 -7.03781C182.837 -14.5023 186.484 -20.2358 188.898 -24.0299C190.125 -25.9586 191.094 -27.4822 190.452 -28.3081C189.594 -29.4131 187.66 -29.6493 185.21 -29.9492C180.356 -30.5424 173.022 -31.439 167.494 -40.3898C162.133 -49.0705 170.73 -59.1959 175.426 -61.4211C177.036 -62.1838 177.886 -63.2012 177.539 -63.952C177.195 -64.6972 175.52 -65.3813 171.93 -64.8548C168.007 -64.2803 161.802 -65.8988 158.207 -69.6025C156.064 -71.8097 154.119 -75.5275 157.018 -80.7034C157.045 -80.7551 157.085 -80.8017 157.136 -80.8407C157.186 -80.8798 157.245 -80.9103 157.311 -80.9306C157.376 -80.951 157.445 -80.9606 157.515 -80.9591C157.585 -80.9576 157.653 -80.9449 157.717 -80.9218C157.781 -80.8986 157.838 -80.8655 157.886 -80.8244C157.933 -80.7832 157.97 -80.7349 157.994 -80.6821C158.018 -80.6293 158.029 -80.5732 158.026 -80.517C158.023 -80.4609 158.006 -80.4057 157.977 -80.3549C155.294 -75.5648 157.072 -72.1475 159.036 -70.1239C162.342 -66.7185 168.207 -65.1695 171.742 -65.6881C175.965 -66.3072 178.017 -65.3497 178.526 -64.2469C179.065 -63.0798 178.058 -61.6838 175.961 -60.6901C172.019 -58.8224 163.309 -49.0717 168.437 -40.7666C173.721 -32.2101 180.453 -31.3876 185.368 -30.7865C188.085 -30.4543 190.231 -30.1922 191.345 -28.7572C192.303 -27.5234 191.268 -25.8959 189.835 -23.6429C187.373 -19.7737 184.002 -14.4746 187.891 -7.37959C192.395 0.838493 204.279 4.83426 207.438 4.98001C209.653 5.08227 211.332 5.84606 212.045 7.07479C212.867 8.49221 212.327 10.3475 210.524 12.2993C204.268 19.0734 207.169 30.4314 210.551 34.8859C213.103 38.2467 218.109 40.6883 224.648 41.7606C232.099 42.9825 240.226 42.1526 244.415 39.7432C248.409 37.4456 253.115 33.6301 252.85 28.4993C252.734 26.2599 254.272 24.4979 256.863 23.9013C258.293 23.5846 259.814 23.6654 261.181 24.1308C262.547 24.5962 263.678 25.4189 264.392 26.4661C265.995 28.7439 269.484 30.4517 273.964 31.1528C280.744 32.2126 288.14 30.8319 293.27 27.548C293.38 27.4844 293.516 27.4573 293.65 27.4722C293.784 27.4872 293.906 27.5431 293.99 27.6283C294.074 27.7136 294.114 27.8217 294.102 27.9302C294.09 28.0387 294.027 28.1393 293.925 28.2112C288.562 31.6449 280.836 33.0911 273.764 31.9844C268.98 31.2364 265.231 29.3772 263.477 26.8836C262.879 26.0019 261.93 25.3083 260.782 24.9149C259.634 24.5215 258.355 24.4512 257.152 24.7154C255.506 25.0945 253.788 26.2786 253.901 28.4637C254.126 32.8244 251.057 36.9632 245.026 40.4324C241.96 42.1961 236.933 43.1622 231.562 43.1622Z" fill="#86D1FD"/>
<path d="M212.838 -60.7347C211.578 -60.7347 210.437 -61.259 209.658 -62.2312C208.562 -63.5995 205.667 -64.5565 201.504 -64.9254C197.723 -65.2604 193.934 -65.022 192.015 -64.6582C189.554 -64.1921 188.767 -64.9022 188.516 -65.3677C187.922 -66.4699 189.192 -68.1438 191.603 -69.4386C195.214 -71.378 196.758 -81.183 196.16 -82.1468C196.103 -82.2467 196.097 -82.3603 196.143 -82.4638C196.188 -82.5673 196.282 -82.6526 196.404 -82.7017C196.525 -82.7507 196.666 -82.7598 196.796 -82.7269C196.926 -82.694 197.035 -82.6217 197.101 -82.5253C198.027 -81.0328 196.061 -70.8142 192.186 -68.7336C189.991 -67.5551 189.204 -66.2179 189.481 -65.7055C189.679 -65.3383 190.557 -65.253 191.774 -65.4835C196.067 -66.297 207.629 -66.3281 210.542 -62.6911C211.565 -61.4126 212.935 -61.5104 213.66 -61.6821C215.044 -62.0103 216.128 -63.0362 216.128 -64.017C216.128 -64.9316 215.83 -66.0129 215.514 -67.158C214.786 -69.803 213.879 -73.0954 216.2 -76.2771C216.272 -76.3721 216.387 -76.4406 216.521 -76.4677C216.655 -76.4948 216.797 -76.4784 216.916 -76.422C217.035 -76.3657 217.122 -76.2739 217.158 -76.1664C217.194 -76.059 217.175 -75.9446 217.107 -75.8478C214.995 -72.9536 215.817 -69.9719 216.541 -67.3416C216.87 -66.1501 217.18 -65.0242 217.18 -64.017C217.18 -62.6583 215.794 -61.3047 213.957 -60.8692C213.578 -60.7788 213.203 -60.7347 212.838 -60.7347ZM190.767 -43.1811C189.561 -43.1767 188.379 -43.4542 187.364 -43.9799C184.967 -45.2143 183.467 -47.7288 183.631 -50.2377C183.761 -52.2251 184.961 -53.8182 186.923 -54.6086C192.049 -56.6723 196.531 -54.9289 198.31 -52.1404C199.895 -49.6552 199.421 -46.0532 194.633 -44.0178C193.321 -43.4602 192.012 -43.1811 190.767 -43.1811ZM191.408 -54.6797C190.184 -54.6797 188.834 -54.4306 187.394 -53.851C185.184 -52.9612 184.746 -51.1772 184.682 -50.1936C184.539 -48.0141 185.875 -45.7527 187.93 -44.6945C189.717 -43.7743 191.864 -43.8003 194.141 -44.768C198.32 -46.5441 198.775 -49.5564 197.374 -51.754C196.335 -53.3827 194.199 -54.6797 191.408 -54.6797ZM274.37 24.4121C265.606 24.4121 254.421 21.4094 251.437 12.1524C247.676 0.486557 255.035 -4.35435 258.988 -6.95586C259.298 -7.15981 259.589 -7.35132 259.854 -7.53266C260.901 -8.24787 261.277 -9.11279 260.857 -9.8455C260.383 -10.6726 258.83 -11.3657 256.424 -11.0511C252.506 -10.5381 247.11 -12.0284 242.346 -14.9412C237.184 -18.0975 233.783 -22.2836 233.249 -26.1399C231.798 -36.6154 237.899 -45.1821 241.732 -48.5926C243.258 -49.9496 243.738 -51.2082 243.084 -52.1358C242.437 -53.0544 240.751 -53.4979 238.985 -53.2132C235.291 -52.6183 224.825 -53.1482 222.125 -56.2068C220.909 -57.5846 219.252 -57.7422 218.148 -57.2869C217.38 -56.97 216.714 -56.2632 217.152 -55.2306C217.947 -53.3516 217.835 -52.4725 217.562 -50.3484C217.446 -49.4451 217.302 -48.3209 217.179 -46.7758C216.745 -41.3434 212.85 -39.0062 209.72 -37.1284C209.607 -37.0683 209.471 -37.0451 209.338 -37.0636C209.205 -37.0821 209.086 -37.1409 209.006 -37.2279C208.925 -37.3149 208.889 -37.4235 208.905 -37.5313C208.92 -37.6391 208.987 -37.7379 209.09 -37.8074C212.201 -39.6734 215.726 -41.7885 216.128 -46.8294C216.253 -48.3909 216.398 -49.5242 216.515 -50.4348C216.785 -52.5432 216.876 -53.2538 216.155 -54.9566C215.624 -56.2096 216.233 -57.4485 217.668 -58.0405C219.125 -58.6416 221.409 -58.4784 222.982 -56.6971C225.303 -54.0679 235.263 -53.4776 238.777 -54.0431C240.981 -54.3978 243.129 -53.786 243.997 -52.5533C244.516 -51.8172 245.013 -50.2495 242.51 -48.0231C238.795 -44.7177 232.883 -36.4087 234.293 -26.2331C234.796 -22.6034 238.043 -18.6342 242.98 -15.6157C247.523 -12.8385 252.608 -11.4104 256.254 -11.8872C258.847 -12.2273 261.029 -11.5646 261.81 -10.2003C262.44 -9.10148 261.962 -7.86259 260.533 -6.88638C260.263 -6.70221 259.967 -6.50732 259.652 -6.29998C255.617 -3.6448 248.862 0.798973 252.454 11.9389C255.854 22.4851 270.569 24.4714 279.044 23.246C279.182 23.2262 279.323 23.2511 279.438 23.3153C279.552 23.3795 279.631 23.4777 279.655 23.5884C279.68 23.699 279.649 23.813 279.569 23.9053C279.49 23.9976 279.368 24.0606 279.23 24.0804C277.763 24.2929 276.114 24.4121 274.37 24.4121Z" fill="#86D1FD"/>
<path d="M284.622 24.4297C284.549 24.4297 284.477 24.4174 284.41 24.3935L276.099 21.4412L273.515 20.661L259.604 18.7041C259.535 18.6946 259.469 18.6741 259.411 18.6439C259.352 18.6137 259.301 18.5744 259.261 18.5282C259.222 18.482 259.194 18.4299 259.179 18.3749C259.165 18.32 259.164 18.2633 259.177 18.2081C259.205 18.0911 261.919 6.51508 262.164 4.94005C262.175 4.86548 262.202 4.69092 261.793 4.49714C260.485 3.87685 257.29 4.09209 256.649 4.46946C256.184 4.74233 255.826 4.56889 255.688 4.42314C254.951 3.64635 258.169 -0.710416 260.114 -1.96344C262.215 -3.31702 267.458 -4.24294 269.468 -4.5593C268.924 -5.27451 268.262 -6.38687 268.745 -7.09021C268.937 -7.36928 269.378 -7.6896 270.385 -7.63311C273.104 -7.48114 278.378 -4.41751 279.317 -3.86048L290.118 -3.66276C290.203 -3.66104 290.286 -3.64264 290.361 -3.60915C290.436 -3.57565 290.499 -3.52806 290.546 -3.47047C290.592 -3.41288 290.621 -3.34702 290.629 -3.27856C290.637 -3.2101 290.624 -3.1411 290.592 -3.07749C289.688 -1.30925 287.459 3.42942 287.38 5.26206C289.269 5.59651 293.575 5.77163 293.621 5.77333C293.697 5.77636 293.77 5.79235 293.837 5.82024C293.904 5.84813 293.962 5.88725 294.009 5.93497C294.055 5.98269 294.089 6.0379 294.106 6.09685C294.124 6.1558 294.126 6.21713 294.112 6.27669L291.619 16.628C291.596 16.7232 291.533 16.8091 291.441 16.8714C291.401 16.8986 287.433 19.5814 286.196 20.3786C285.434 20.87 285.148 22.8631 285.147 24.0037C285.147 24.1467 285.057 24.2805 284.908 24.3585C284.824 24.4052 284.724 24.4301 284.622 24.4297ZM260.311 17.9443L273.744 19.834C273.777 19.8385 273.808 19.8453 273.839 19.8549L276.497 20.6576L284.122 23.3654C284.194 22.3338 284.472 20.4079 285.54 19.7198C286.634 19.0148 289.899 16.8104 290.623 16.3218L292.965 6.59418C291.559 6.52639 288.113 6.33261 286.718 6.00213C286.617 5.97837 286.528 5.931 286.461 5.86608C286.394 5.80117 286.353 5.72166 286.342 5.63774C286.124 3.87967 288.492 -1.11999 289.334 -2.82835L279.126 -3.01534C279.016 -3.01723 278.91 -3.04687 278.822 -3.10008C277.193 -4.08419 272.487 -6.66538 270.313 -6.78684C269.971 -6.80548 269.725 -6.76424 269.666 -6.67893C269.449 -6.36427 270.077 -5.28242 270.775 -4.50789C270.828 -4.44957 270.861 -4.38137 270.872 -4.30975C270.883 -4.23812 270.871 -4.16546 270.837 -4.09864C270.803 -4.03182 270.749 -3.97305 270.679 -3.92791C270.609 -3.88277 270.526 -3.85276 270.438 -3.84071C270.365 -3.83054 263.129 -2.81931 260.771 -1.3002C259.13 -0.242645 257.38 2.31141 256.8 3.50342C258.327 3.12774 261.027 3.15147 262.327 3.76838C262.975 4.07571 263.288 4.52935 263.207 5.04683C262.984 6.49193 260.812 15.8049 260.311 17.9443Z" fill="#86D1FD"/>
<path d="M251.945 12.4699C251.813 12.4698 251.685 12.4297 251.588 12.3574C251.491 12.2852 251.431 12.1862 251.421 12.0801C250.447 2.36268 256.305 -4.04423 269.329 -7.50727C269.459 -7.53585 269.598 -7.52314 269.716 -7.47178C269.835 -7.42041 269.925 -7.3343 269.967 -7.23118C270.01 -7.12806 270.001 -7.01579 269.944 -6.91749C269.887 -6.81919 269.785 -6.74235 269.659 -6.70281C256.99 -3.33411 251.528 2.61238 252.47 12.0117C252.475 12.0701 252.466 12.1288 252.443 12.1842C252.419 12.2396 252.381 12.2904 252.332 12.3335C252.283 12.3765 252.223 12.4109 252.156 12.4344C252.089 12.4578 252.018 12.4699 251.945 12.4699Z" fill="#86D1FD"/>
<path d="M270.788 2.44015C265.553 -1.31778 260.693 1.07866 258.685 3.696C260.594 3.61803 262.849 3.94796 262.687 4.99309C262.438 6.59919 259.696 18.2871 259.696 18.2871L273.655 20.2508L276.312 21.0536L279.233 22.0914C286.454 17.7448 275.866 6.08567 270.788 2.44015Z" fill="#BA72E2"/>
<path d="M309.881 51.9705L306.271 57.9932L300.409 58.6627C300.409 58.6627 300.908 64.3369 307.555 67.2547C314.201 70.1726 316.029 66.1576 316.029 64.2838C316.029 62.4099 309.881 51.9705 309.881 51.9705Z" fill="#5C0B86"/>
<path d="M311.711 68.7125C310.425 68.7125 308.952 68.3498 307.303 67.6261C300.482 64.6314 299.906 58.9335 299.885 58.6922C299.875 58.5852 299.916 58.4793 300 58.3958C300.084 58.3124 300.204 58.2576 300.336 58.2425L305.92 57.6053L309.408 51.7859C309.453 51.7147 309.52 51.6548 309.604 51.6125C309.688 51.5703 309.785 51.5474 309.884 51.5464C309.983 51.5467 310.08 51.5696 310.164 51.6123C310.247 51.6551 310.315 51.7161 310.357 51.7882C310.991 52.8655 316.557 62.3688 316.557 64.2828C316.557 65.2991 316.03 67.2713 314.056 68.2153C313.362 68.5469 312.58 68.7125 311.711 68.7125ZM300.998 59.0233C301.257 60.3238 302.492 64.5495 307.807 66.8826C310.22 67.9419 312.142 68.1458 313.518 67.4877C315.089 66.7363 315.504 65.0635 315.504 64.2839C315.504 63.0603 312.297 57.1217 309.876 52.9553L306.745 58.1781C306.708 58.2408 306.652 58.2951 306.582 58.3361C306.512 58.3772 306.431 58.4039 306.346 58.4137L300.998 59.0233Z" fill="#86D1FD"/>
<path d="M253.847 67.2546C253.847 67.2546 251.885 74.8473 255.375 75.5213C258.865 76.1953 260.444 70.4403 260.444 70.4403L253.847 67.2546Z" fill="#5C0B86"/>
<path d="M255.939 76C255.712 76 255.484 75.9774 255.252 75.9327C251.378 75.1848 253.12 67.9858 253.332 67.1678C253.349 67.1015 253.386 67.0395 253.439 66.987C253.492 66.9345 253.56 66.8929 253.637 66.8658C253.714 66.8387 253.798 66.8268 253.881 66.8312C253.965 66.8356 254.047 66.8561 254.119 66.891L260.714 70.0766C260.908 70.1704 261.006 70.3535 260.958 70.5314C260.914 70.6902 259.865 74.43 257.496 75.6237C256.997 75.874 256.476 76 255.939 76ZM254.225 67.931C253.758 70.1523 253.278 74.6803 255.497 75.1091C256.001 75.2062 256.472 75.1396 256.937 74.9051C258.451 74.1425 259.469 71.7952 259.84 70.6433L254.225 67.931Z" fill="#86D1FD"/>
<path d="M272.657 90.7832C272.657 90.7832 280.892 91.3849 281.677 94.4299C282.462 97.4748 281.963 103.498 279.969 104.033C277.975 104.569 270.181 97.4082 270.181 97.4082L272.823 94.4299L272.657 90.7832Z" fill="#5C0B86"/>
<path d="M279.849 104.468C278.94 104.468 276.325 103.696 269.785 97.688C269.707 97.6162 269.661 97.5252 269.655 97.4298C269.65 97.3345 269.684 97.2403 269.753 97.1626L272.291 94.3018L272.131 90.7992C272.128 90.7391 272.142 90.6791 272.17 90.6233C272.198 90.5676 272.241 90.5173 272.295 90.4759C272.349 90.4345 272.414 90.4029 272.484 90.3833C272.555 90.3636 272.63 90.3563 272.704 90.3619C273.057 90.3874 281.337 91.0303 282.192 94.3447C282.959 97.3202 282.608 103.772 280.135 104.436C280.042 104.459 279.946 104.47 279.849 104.468ZM270.853 97.3807C274.457 100.654 278.841 103.886 279.803 103.631C281.23 103.248 282.029 97.8818 281.163 94.5159C280.631 92.4545 275.696 91.5206 273.206 91.2585L273.35 94.4136C273.354 94.5073 273.32 94.5994 273.252 94.6758L270.853 97.3807Z" fill="#86D1FD"/>
<path d="M276.106 56.7886C276.106 56.7886 275.852 61.3391 274.837 62.5436C273.821 63.748 271.494 65.8897 271.494 65.8897C271.494 65.8897 275.649 75.6596 283.459 79.2735C291.269 82.8874 303.234 80.7457 304.398 80.4779C305.561 80.2101 299.579 67.6297 299.246 66.6924C298.914 65.7558 291.916 67.8867 285.121 64.4174C278.806 61.1934 276.106 56.7886 276.106 56.7886Z" fill="#5C0B86"/>
<path d="M295 81.7643C291.138 81.7643 286.759 81.2891 283.197 79.6407C275.306 75.9895 271.169 66.432 270.997 66.0269C270.967 65.9564 270.96 65.8808 270.978 65.8077C270.996 65.7346 271.037 65.6666 271.098 65.6105C271.121 65.5891 273.415 63.4745 274.401 62.3057C275.165 61.3995 275.511 58.002 275.58 56.7693C275.586 56.6754 275.629 56.5854 275.705 56.5137C275.78 56.4419 275.884 56.3925 275.998 56.3731C276.112 56.3538 276.231 56.3656 276.336 56.4068C276.441 56.4479 276.526 56.516 276.578 56.6004C276.605 56.6434 279.297 60.9419 285.403 64.0592C289.778 66.2924 294.232 66.1309 296.895 66.0348C298.536 65.9749 299.526 65.9399 299.752 66.576C299.816 66.7562 300.146 67.4906 300.563 68.42C304.273 76.6855 305.424 79.8729 304.962 80.6005C304.92 80.6686 304.862 80.729 304.79 80.7779C304.717 80.8268 304.634 80.8631 304.543 80.8846C304.47 80.9022 300.203 81.7643 295 81.7643ZM272.094 65.9795C272.774 67.4567 276.828 75.7166 283.721 78.9057C291.129 82.3331 302.318 80.4355 304.03 80.1135C304.076 78.7424 300.707 71.2345 299.573 68.7081C299.164 67.798 298.88 67.1641 298.771 66.8913C298.497 66.8252 297.674 66.8551 296.941 66.8817C294.155 66.9828 289.493 67.1517 284.839 64.775C280.437 62.5277 277.776 59.7482 276.516 58.1856C276.355 59.6754 276.001 61.9176 275.272 62.7814C274.415 63.7965 272.688 65.4253 272.094 65.9795ZM284.621 24.4297C284.548 24.4296 284.476 24.4173 284.41 24.3936L276.099 21.4412L273.515 20.6611L259.604 18.7041C259.535 18.6946 259.469 18.6742 259.41 18.644C259.352 18.6138 259.301 18.5744 259.261 18.5282C259.221 18.482 259.194 18.4299 259.179 18.375C259.165 18.32 259.164 18.2633 259.177 18.2081C259.205 18.0912 261.919 6.51512 262.163 4.94009C262.175 4.86552 262.202 4.69096 261.793 4.49718C260.485 3.87689 257.29 4.09213 256.648 4.4695C256.593 4.50229 256.529 4.52591 256.462 4.539C256.395 4.55209 256.325 4.5544 256.257 4.54579C256.189 4.53719 256.123 4.51784 256.064 4.48886C256.005 4.45987 255.954 4.42181 255.913 4.37685C255.873 4.3319 255.843 4.28092 255.827 4.22684C255.811 4.17275 255.808 4.11662 255.819 4.06164C255.829 4.00666 255.853 3.95391 255.889 3.90642C255.925 3.85892 255.973 3.81759 256.028 3.7848C257.12 3.14304 260.752 3.01932 262.327 3.76673C262.976 4.07405 263.288 4.52769 263.208 5.04517C262.983 6.4914 260.811 15.8038 260.31 17.9432L273.743 19.8329C273.776 19.8374 273.807 19.8442 273.838 19.8538L276.496 20.6565L284.834 23.6174C284.962 23.6628 285.062 23.7471 285.112 23.8519C285.162 23.9567 285.159 24.0733 285.103 24.1761C285.062 24.2515 284.995 24.3157 284.909 24.3607C284.824 24.4058 284.724 24.4298 284.621 24.4297ZM70.9917 13.2503C69.2093 13.2503 67.7054 12.9689 66.588 12.4051C59.2291 8.68843 50.957 8.61272 46.5898 10.4584C46.5264 10.4854 46.4567 10.5016 46.3852 10.5061C46.3137 10.5106 46.2417 10.5032 46.1739 10.4844C46.1061 10.4656 46.0437 10.4358 45.9907 10.3968C45.9378 10.3578 45.8953 10.3105 45.8659 10.2578C45.677 9.92206 45.5155 9.57671 45.3826 9.22398C44.9098 8.46471 44.3164 7.28231 43.6753 5.81969C43.636 5.73023 43.6353 5.63272 43.6732 5.54287C45.3756 1.4923 48.6948 -1.47642 52.7793 -2.60177C56.7257 -3.6887 61.1806 -2.99948 65.6635 -0.607552C68.719 1.02285 73.2034 1.25221 78.2881 0.0393C86.286 -1.86905 93.586 -6.72635 96.4535 -12.0463C96.505 -12.1393 96.5962 -12.2142 96.7105 -12.2575C96.8249 -12.3008 96.9548 -12.3096 97.0765 -12.2822C97.1982 -12.2548 97.3036 -12.1931 97.3735 -12.1083C97.4434 -12.0235 97.4731 -11.9213 97.4573 -11.8203C96.7254 -7.49778 95.6182 -3.22187 94.1436 0.975953L94.1324 1.0025C91.6472 6.60721 83.8717 10.5205 77.969 12.1695C75.3919 12.8887 73.0133 13.2503 70.9917 13.2503ZM53.3321 8.415C58.1756 8.415 63.3551 9.77197 67.1471 11.6871C69.229 12.7384 73.1451 12.6192 77.6239 11.3685C83.7503 9.65728 90.9198 5.70558 93.1357 0.730208C94.3166 -2.62899 95.2583 -6.03978 95.9562 -9.48548C92.362 -4.85698 85.7396 -0.856122 78.5856 0.851107C73.1963 2.13746 68.3999 1.86968 65.0813 0.0986156C60.8804 -2.14248 56.7446 -2.79949 53.1188 -1.80069C49.3921 -0.773642 46.3408 1.94707 44.7281 5.67563C45.3272 7.03091 45.8975 8.16247 46.3408 8.87316C46.3499 8.89011 46.3709 8.92908 46.3779 8.94716C46.4453 9.13077 46.5238 9.31664 46.6136 9.50306C48.6317 8.74605 50.9416 8.415 53.3321 8.415Z" fill="#86D1FD"/>
<path d="M48.8688 0.169796C48.7815 0.169411 48.6956 0.151558 48.6189 0.117842C48.5423 0.0841274 48.4772 0.0356083 48.4296 -0.023365C48.3819 -0.0823383 48.3532 -0.14992 48.346 -0.220036C48.3388 -0.29015 48.3534 -0.360603 48.3883 -0.425076C50.3461 -4.00223 55.0724 -6.93367 59.8808 -7.55341C63.6027 -8.0336 66.9907 -7.10033 69.4191 -4.92647C71.2134 -3.32036 74.2963 -2.76672 78.0974 -3.36725C85.0957 -4.47226 94.0876 -9.53971 97.0217 -16.1054C97.044 -16.1588 97.0794 -16.2082 97.1257 -16.2505C97.172 -16.2928 97.2283 -16.3272 97.2914 -16.3518C97.3544 -16.3763 97.4229 -16.3905 97.4928 -16.3935C97.5627 -16.3964 97.6327 -16.3881 97.6986 -16.369C97.7645 -16.3499 97.825 -16.3204 97.8765 -16.2822C97.928 -16.244 97.9696 -16.1979 97.9987 -16.1467C98.0279 -16.0954 98.044 -16.0399 98.0462 -15.9836C98.0484 -15.9272 98.0366 -15.871 98.0115 -15.8184C94.9511 -8.96913 85.586 -3.68587 78.2994 -2.53567C74.1202 -1.87583 70.688 -2.52324 68.637 -4.35984C65.841 -6.86306 62.4222 -7.0235 60.0471 -6.71674C55.5712 -6.13994 51.1731 -3.41188 49.3507 -0.0832939C49.3096 -0.00797844 49.2421 0.0560627 49.1565 0.101007C49.071 0.14595 48.971 0.169849 48.8688 0.169796Z" fill="#86D1FD"/>
<path d="M171.143 67.2546C171.143 67.2546 240.53 155.243 243.725 159.259C240.875 160.2 227.644 157.05 211.358 138.112C193.669 117.542 158.792 72.5825 158.792 72.5825L171.143 67.2546Z" fill="#5C0B86"/>
<path d="M242.626 159.816C238.004 159.816 225.65 155.476 210.925 138.353C193.432 118.01 158.695 73.2563 158.346 72.8066C158.307 72.7574 158.282 72.7024 158.271 72.6449C158.26 72.5874 158.264 72.5288 158.283 72.4726C158.302 72.4165 158.334 72.3641 158.379 72.3186C158.424 72.2731 158.48 72.2356 158.544 72.2084L170.894 66.8805C171.012 66.83 171.148 66.8171 171.276 66.8442C171.405 66.8713 171.516 66.9366 171.587 67.0268C172.281 67.907 241.01 155.061 244.168 159.029C244.21 159.081 244.237 159.14 244.247 159.202C244.257 159.263 244.25 159.326 244.227 159.385C244.204 159.445 244.164 159.499 244.112 159.545C244.06 159.59 243.996 159.626 243.925 159.65C243.604 159.756 243.168 159.816 242.626 159.816ZM159.536 72.7417C162.982 77.1764 195.176 118.55 211.79 137.871C226.673 155.177 239.118 159.273 242.883 158.983C236.647 151.109 175.509 73.5812 170.96 67.8132L159.536 72.7417Z" fill="#86D1FD"/>
<path d="M169.692 69.0356C166.701 64.2173 131.212 19.1316 128.928 17.2323C125.064 14.0201 113.624 22.8116 115.87 29.888C116.704 32.5155 121.067 32.2714 125.02 34.1447C128.973 36.0186 140.546 45.3231 143.54 53.2864C147.09 62.7326 153.923 73.1845 160.667 75.2809C160.344 74.5064 160.428 73.9206 161.424 73.6285C164.107 72.841 170.354 70.1022 169.692 69.0356Z" fill="#86D1FD"/>
<path d="M160.665 75.7036C160.6 75.7037 160.536 75.6941 160.476 75.6753C153.418 73.4811 146.487 62.5948 143.034 53.4085C140.123 45.6615 128.906 36.4791 124.752 34.5092C123.342 33.8409 121.837 33.4403 120.51 33.0867C118.067 32.4364 115.957 31.8743 115.359 29.9914C113.681 24.7025 119.104 18.917 123.494 16.9398C125.891 15.8602 128.009 15.859 129.304 16.9358C131.638 18.8758 167.149 63.9931 170.161 68.8447C170.256 68.9972 170.335 69.2492 170.17 69.5814C169.445 71.0485 163.766 73.3907 161.604 74.0251C161.069 74.1822 160.854 74.398 161.165 75.1448C161.191 75.2086 161.199 75.2766 161.186 75.3431C161.174 75.4096 161.142 75.4728 161.093 75.5274C161.044 75.582 160.98 75.6265 160.905 75.6571C160.831 75.6877 160.749 75.7037 160.665 75.7036ZM126.817 16.9697C125.793 16.9697 124.715 17.3612 124.008 17.6798C119.817 19.5673 114.888 25.0844 116.379 29.7818C116.833 31.2156 118.602 31.6862 120.84 32.2822C122.217 32.6489 123.779 33.0646 125.285 33.7787C129.548 35.7995 141.056 45.2186 144.041 53.1627C147.274 61.7655 153.546 71.8665 159.972 74.5624C159.977 73.9223 160.401 73.4755 161.242 73.2291C164.459 72.2857 169.203 69.8938 169.212 69.2136C166.165 64.3218 130.865 19.4526 128.547 17.5262C128.058 17.1188 127.448 16.9697 126.817 16.9697Z" fill="#86D1FD"/>
<path d="M172.6 69.1017C168.071 60.1278 132.859 16.0268 130.574 14.1281C126.711 10.9159 114.777 20.9914 115.951 26.8091C116.491 29.4858 121.636 28.1141 125.589 29.988C129.542 31.8619 141.941 41.6013 144.934 49.5647C148.484 59.0109 157.942 72.0885 161.215 73.6997C163.812 72.7151 169.946 70.2322 172.6 69.1017Z" fill="#5C0B86"/>
<path d="M161.215 74.123C161.118 74.123 161.023 74.1015 160.941 74.0609C157.38 72.3085 147.904 58.9303 144.43 49.6874C141.397 41.6179 128.909 32.053 125.322 30.3531C123.73 29.5989 121.891 29.3955 120.269 29.217C117.973 28.9634 115.804 28.7244 115.431 26.8776C114.51 22.309 121.07 15.6462 125.84 13.7175C127.996 12.8452 129.813 12.8865 130.952 13.8339C133.437 15.8993 168.593 60.0387 173.087 68.9431C173.136 69.0404 173.138 69.1488 173.094 69.2475C173.049 69.3461 172.961 69.4279 172.846 69.477C170.266 70.5764 164.155 73.0553 161.439 74.0835C161.369 74.1093 161.292 74.1228 161.215 74.123ZM128.657 13.9339C127.867 13.9339 127.014 14.1898 126.311 14.4739C121.444 16.4422 115.687 22.8672 116.47 26.7409C116.706 27.912 118.052 28.1165 120.412 28.377C122.132 28.5668 124.082 28.782 125.856 29.6226C130.238 31.6999 142.488 41.5964 145.437 49.4416C148.937 58.7534 158.011 71.2356 161.263 73.2123C163.895 72.2062 169.292 70.0193 171.928 68.9075C166.757 59.2884 132.636 16.4495 130.198 14.4225C129.77 14.0678 129.23 13.9339 128.657 13.9339Z" fill="#86D1FD"/>
<path d="M128.886 24.5137C130.298 23.3769 130.495 21.6927 129.327 20.752C128.159 19.8113 126.068 19.9702 124.656 21.1071C123.245 22.2439 123.047 23.9281 124.215 24.8688C125.383 25.8096 127.474 25.6506 128.886 24.5137Z" fill="#86D1FD"/>
<path d="M126.149 25.9029C125.281 25.9029 124.458 25.6617 123.845 25.1685C122.473 24.064 122.671 22.1077 124.285 20.8078C125.9 19.5073 128.33 19.3485 129.7 20.453C130.377 20.9987 130.696 21.7614 130.598 22.5997C130.503 23.4081 130.028 24.1945 129.258 24.8137C128.366 25.5329 127.224 25.9029 126.149 25.9029ZM127.395 20.5614C126.594 20.5614 125.72 20.8507 125.03 21.4071C123.826 22.3771 123.628 23.7957 124.59 24.5696C125.551 25.3436 127.312 25.1843 128.516 24.2149C129.113 23.7347 129.481 23.1325 129.552 22.5201C129.62 21.9376 129.409 21.4162 128.957 21.0524C128.546 20.7213 127.991 20.5614 127.395 20.5614ZM234.929 175.274L238.442 172.355L431.46 266.769L427.144 268.654C427.144 268.654 339.42 225.934 325.185 219.033L234.929 175.274Z" fill="#86D1FD"/>
<path d="M427.144 269.078C427.048 269.078 426.954 269.057 426.872 269.017C425.995 268.59 338.986 226.219 324.914 219.396L234.657 175.637C234.589 175.604 234.531 175.56 234.488 175.506C234.444 175.453 234.416 175.392 234.406 175.329C234.396 175.266 234.403 175.201 234.428 175.141C234.453 175.08 234.495 175.025 234.55 174.979L238.064 172.059C238.147 171.991 238.257 171.946 238.375 171.934C238.493 171.922 238.613 171.942 238.715 171.992L431.733 266.407C431.812 266.445 431.877 266.5 431.922 266.566C431.966 266.631 431.988 266.705 431.986 266.779C431.984 266.854 431.957 266.926 431.909 266.99C431.86 267.053 431.792 267.106 431.711 267.141L427.394 269.026C427.318 269.06 427.231 269.078 427.144 269.078ZM235.767 175.186L325.457 218.67C339.148 225.308 421.876 265.594 427.158 268.166L430.404 266.749L238.528 172.893L235.767 175.186Z" fill="#86D1FD"/>
</g>
<path d="M341.474 257.754H-23.4739C-23.6134 257.754 -23.7473 257.709 -23.8459 257.63C-23.9446 257.55 -24 257.442 -24 257.33V-75.1679C-24 -75.2802 -23.9446 -75.388 -23.8459 -75.4675C-23.7473 -75.5469 -23.6134 -75.5916 -23.4739 -75.5916H341.474C341.613 -75.5916 341.747 -75.5469 341.846 -75.4675C341.945 -75.388 342 -75.2802 342 -75.1679V257.33C342 257.442 341.945 257.55 341.846 257.63C341.747 257.709 341.613 257.754 341.474 257.754ZM-22.9478 256.906H340.948V-74.7442H-22.9478V256.906Z" fill="#86D1FD"/>
</g>
<defs>
<clipPath id="clip0_2998_54039">
<rect width="366" height="333.345" fill="white" transform="translate(-24 -75.5916)"/>
</clipPath>
</defs>
</svg>
