<svg width="68" height="92" viewBox="0 0 68 92" fill="none" xmlns="http://www.w3.org/2000/svg">
<g opacity="0.48" filter="url(#filter0_d_430_108514)">
<path fill-rule="evenodd" clip-rule="evenodd" d="M35.7701 59.6363C50.4892 58.7158 62.1443 46.4016 62.1443 31.3458C62.1443 15.6908 49.5432 3 33.9989 3C18.4546 3 5.85352 15.6908 5.85352 31.3458C5.85352 46.4013 17.5081 58.7154 32.2269 59.6363L32.2269 80.0652C32.2269 81.0437 33.02 81.8368 33.9985 81.8368C34.9769 81.8368 35.7701 81.0437 35.7701 80.0652V59.6363Z" fill="url(#paint0_linear_430_108514)"/>
<path d="M35.7701 59.6363L35.6378 57.5212L33.6508 57.6455V59.6363H35.7701ZM32.2269 59.6363H34.3461V57.6455L32.3592 57.5212L32.2269 59.6363ZM32.2269 80.0652H30.1076H32.2269ZM60.025 31.3458C60.025 45.2884 49.2342 56.6709 35.6378 57.5212L35.9024 61.7515C51.7442 60.7607 64.2635 47.5148 64.2635 31.3458H60.025ZM33.9989 5.11925C48.3586 5.11925 60.025 16.8471 60.025 31.3458H64.2635C64.2635 14.5346 50.7277 0.880752 33.9989 0.880752V5.11925ZM7.97276 31.3458C7.97276 16.8471 19.6392 5.11925 33.9989 5.11925V0.880752C17.2701 0.880752 3.73427 14.5346 3.73427 31.3458H7.97276ZM32.3592 57.5212C18.7632 56.6705 7.97276 45.2881 7.97276 31.3458H3.73427C3.73427 47.5145 16.2531 60.7602 32.0945 61.7514L32.3592 57.5212ZM34.3461 80.0652L34.3461 59.6363H30.1076L30.1076 80.0652H34.3461ZM33.9985 79.7176C34.1905 79.7176 34.3461 79.8732 34.3461 80.0652H30.1076C30.1076 82.2141 31.8496 83.9561 33.9985 83.9561V79.7176ZM33.6508 80.0652C33.6508 79.8732 33.8065 79.7176 33.9985 79.7176V83.9561C36.1473 83.9561 37.8893 82.2141 37.8893 80.0652H33.6508ZM33.6508 59.6363V80.0652H37.8893V59.6363H33.6508Z" fill="url(#paint1_linear_430_108514)"/>
</g>
<defs>
<filter id="filter0_d_430_108514" x="0.191153" y="0.880753" width="67.6155" height="90.1618" filterUnits="userSpaceOnUse" color-interpolation-filters="sRGB">
<feFlood flood-opacity="0" result="BackgroundImageFix"/>
<feColorMatrix in="SourceAlpha" type="matrix" values="0 0 0 0 0 0 0 0 0 0 0 0 0 0 0 0 0 0 127 0" result="hardAlpha"/>
<feOffset dy="3.54322"/>
<feGaussianBlur stdDeviation="1.77161"/>
<feColorMatrix type="matrix" values="0 0 0 0 0 0 0 0 0 0 0 0 0 0 0 0 0 0 0.25 0"/>
<feBlend mode="normal" in2="BackgroundImageFix" result="effect1_dropShadow_430_108514"/>
<feBlend mode="normal" in="SourceGraphic" in2="effect1_dropShadow_430_108514" result="shape"/>
</filter>
<linearGradient id="paint0_linear_430_108514" x1="33.9989" y1="66.3351" x2="33.9989" y2="81.8367" gradientUnits="userSpaceOnUse">
<stop stop-color="#C3B5EB"/>
<stop offset="1" stop-color="white" stop-opacity="0"/>
</linearGradient>
<linearGradient id="paint1_linear_430_108514" x1="33.9989" y1="3" x2="33.9989" y2="81.8367" gradientUnits="userSpaceOnUse">
<stop stop-color="white"/>
<stop offset="1" stop-color="white" stop-opacity="0"/>
</linearGradient>
</defs>
</svg>
