<svg viewBox="0 0 375 40" fill="none" xmlns="http://www.w3.org/2000/svg">
<path d="M17.8072 15.9423C14.7062 15.909 11.6614 16.7714 9.03854 18.4261C6.3842 20.1231 4.26337 22.5356 2.92035 25.3855C1.41268 28.6123 0.660893 32.1404 0.722222 35.7015V36.7966C0.722222 42.4784 2.41247 47.1127 5.72948 50.4694C9.04649 53.8261 13.4586 55.5719 18.8309 55.5719C21.782 55.617 24.7029 54.973 27.3615 53.6912C29.5979 52.6027 31.5347 50.9846 33.0036 48.9775L29.3295 45.4542C28.1097 46.9098 26.5788 48.0732 24.8498 48.8588C23.1207 49.6444 21.2375 50.032 19.3388 49.9933C17.9015 50.0325 16.4713 49.7783 15.1356 49.2462C13.7998 48.7141 12.5866 47.9152 11.5699 46.8984C9.44265 44.6499 8.20224 41.7067 8.07839 38.6138L8.01489 37.7727H33.8765V34.9715C33.8765 28.8771 32.456 24.1238 29.6707 20.8385C26.8853 17.5532 22.9097 15.9423 17.8072 15.9423ZM8.11011 32.8289L8.22916 31.9243C8.48115 29.1553 9.5438 26.5221 11.2843 24.3539C12.1022 23.4813 13.0859 22.7807 14.178 22.293C15.27 21.8053 16.4484 21.5405 17.6441 21.5139C18.8397 21.4873 20.0287 21.6995 21.1413 22.1381C22.254 22.5767 23.2679 23.2329 24.1238 24.0682C25.6236 25.7267 26.5044 28.1629 26.6949 31.3212V32.8289H8.11011Z" fill="#0E0E0F"/>
<path d="M51.6597 15.9423C49.581 15.8723 47.517 16.314 45.649 17.2286C43.781 18.1432 42.1663 19.5027 40.9469 21.1876C38.2488 24.7348 36.876 29.5357 36.876 35.4714C36.876 41.7007 38.2647 46.6762 41.0024 50.2631C42.1965 51.9424 43.785 53.3027 45.6281 54.2242C47.4711 55.1458 49.5124 55.6004 51.5724 55.548C53.4796 55.6271 55.3786 55.2559 57.1156 54.4646C58.8527 53.6732 60.379 52.484 61.571 50.9931L62.7772 49.533L63.3406 54.818H69.8556V0H62.5789V21.6479L61.1902 20.0608C60.0125 18.7031 58.5443 17.6279 56.8945 16.9149C55.2447 16.202 53.4555 15.8696 51.6597 15.9423ZM62.5074 26.8614L62.5947 27.0281V44.3749L62.5074 44.5495C61.7509 46.1912 60.5246 47.5718 58.9837 48.5167C57.4427 49.4617 55.6562 49.9285 53.8499 49.8583C52.4226 49.912 51.0057 49.5961 49.7363 48.9413C48.467 48.2865 47.3883 47.3149 46.6048 46.1207C44.9781 43.7401 44.1528 40.3993 44.1528 36.2173C44.1528 31.4561 44.986 27.8454 46.6286 25.4331C47.415 24.2278 48.4999 23.2464 49.7778 22.5846C51.0557 21.9227 52.4831 21.6027 53.9213 21.6558C55.7045 21.5785 57.4707 22.0318 58.9962 22.9584C60.5217 23.885 61.7382 25.2433 62.4916 26.8614H62.5074Z" fill="#0E0E0F"/>
<path d="M81.1012 9.46679C81.6778 9.51243 82.2576 9.43796 82.8039 9.24811C83.3503 9.05825 83.8513 8.75712 84.2754 8.36375C84.6374 7.99522 84.9206 7.55679 85.1075 7.07516C85.2944 6.59354 85.3812 6.07886 85.3625 5.56257C85.3823 5.03593 85.2956 4.51071 85.1074 4.01844C84.9192 3.52617 84.6335 3.077 84.2675 2.69789C83.8449 2.30188 83.3443 1.99849 82.7977 1.80718C82.2511 1.61587 81.6706 1.54084 81.0933 1.58691C80.5233 1.54216 79.9504 1.61795 79.4117 1.80936C78.873 2.00078 78.3806 2.30355 77.9667 2.69789C77.6075 3.08076 77.3278 3.53111 77.1439 4.02285C76.96 4.51459 76.8756 5.03794 76.8954 5.56257C76.8759 6.07878 76.9607 6.59364 77.1448 7.07632C77.3288 7.559 77.6084 7.99956 77.9667 8.37169C78.3846 8.76176 78.8791 9.06059 79.4187 9.24912C79.9584 9.43766 80.5313 9.51178 81.1012 9.46679Z" fill="#0E0E0F"/>
<path d="M84.7192 16.6724H77.4424V54.8101H84.7192V16.6724Z" fill="#0E0E0F"/>
<path d="M102.765 48.4698C101.944 47.378 101.554 46.022 101.67 44.6608V21.6957H108.637V16.6646H101.654V7.01514H94.3769V16.6646H87.8857V21.6877H94.3769V44.9941C94.3769 52.0884 97.4559 55.5403 103.796 55.5403C105.499 55.5281 107.194 55.3069 108.843 54.8816V49.557C108.08 49.6829 107.308 49.7466 106.534 49.7474C104.764 49.7474 103.526 49.3348 102.765 48.4698Z" fill="#0E0E0F"/>
<path d="M143.289 2.94385L130.577 29.3053L117.856 2.94385H109.421L126.736 35.7251V54.8098H134.41V35.7251L151.693 2.94385H143.289Z" fill="#0E0E0F"/>
<path d="M180.784 20.8701C177.61 17.6007 173.46 15.9422 168.389 15.9422C165.178 15.8758 162.011 16.6998 159.24 18.3228C156.564 19.9644 154.424 22.3495 153.082 25.1869C151.566 28.367 150.803 31.8535 150.852 35.3761V35.8125C150.852 41.8038 152.439 46.6444 155.661 50.2074C158.883 53.7704 163.152 55.5479 168.461 55.5479C171.7 55.6218 174.897 54.7978 177.697 53.1673C180.361 51.5372 182.488 49.1617 183.816 46.3349C185.3 43.1603 186.04 39.6892 185.982 36.1854V34.1064C185.688 28.6071 183.951 24.1633 180.784 20.8701ZM176.094 46.1445C175.213 47.3399 174.065 48.3127 172.741 48.9851C171.417 49.6575 169.954 50.011 168.469 50.0171C166.984 50.0233 165.518 49.682 164.188 49.0206C162.858 48.3592 161.702 47.396 160.811 46.2079C159.041 43.7717 158.145 40.3833 158.145 36.1458C158.145 31.3845 159.057 27.7422 160.85 25.306C161.732 24.1243 162.879 23.1658 164.198 22.5072C165.517 21.8487 166.972 21.5085 168.447 21.5139C169.921 21.5193 171.374 21.8701 172.688 22.5383C174.003 23.2065 175.142 24.1735 176.015 25.3616C177.824 27.8374 178.737 31.21 178.737 35.3761C178.737 40.05 177.832 43.6448 176.094 46.1445Z" fill="#0E0E0F"/>
<path d="M198.329 41.5025V16.6646H191.052V41.6056C191.052 46.1606 192.099 49.668 194.155 52.0248C196.21 54.3817 199.257 55.5482 203.28 55.5482C207.867 55.5482 211.295 54.1278 213.763 51.2075L215.049 49.6839L215.342 54.8181H222.151V16.6646H214.874V44.5814L214.795 44.7401C213.144 48.1365 209.978 49.8505 205.359 49.8505C202.153 49.8585 198.329 48.4063 198.329 41.5025Z" fill="#0E0E0F"/>
<path d="M237.499 20.7429L236.158 22.9013L235.848 16.672H228.937V54.8097H236.213V28.2657L236.285 28.107C237.872 24.6789 240.832 22.941 245.22 22.941C246.162 22.9389 247.103 22.9972 248.037 23.1156V16.2197C247.26 16.0181 246.459 15.9247 245.656 15.942C242.197 15.942 239.507 17.5052 237.499 20.7429Z" fill="#0E0E0F"/>
<path d="M291.532 35.1697H272.265V55.6034H263.94V7.3877H294.381V14.1408H272.265V28.4801H291.556L291.532 35.1697Z" fill="#0E0E0F"/>
<path d="M296.746 10.4662C296.727 9.90132 296.82 9.33829 297.02 8.80975C297.22 8.28121 297.524 7.79769 297.912 7.38724C298.353 6.961 298.877 6.63143 299.453 6.41963C300.028 6.20783 300.641 6.11848 301.253 6.15726C301.867 6.11917 302.482 6.2088 303.06 6.4205C303.638 6.6322 304.166 6.96138 304.61 7.38724C305.003 7.79484 305.311 8.27749 305.514 8.80646C305.717 9.33543 305.812 9.8999 305.792 10.4662C305.81 11.024 305.715 11.5796 305.511 12.0993C305.308 12.619 305.001 13.092 304.61 13.4896C304.163 13.9114 303.635 14.2369 303.058 14.4458C302.48 14.6547 301.866 14.7425 301.253 14.7037C300.642 14.7431 300.03 14.6556 299.455 14.4466C298.88 14.2376 298.355 13.9118 297.912 13.4896C297.526 13.0891 297.223 12.6152 297.023 12.096C296.822 11.5767 296.728 11.0225 296.746 10.4662ZM305.237 55.603H297.238V19.7665H305.237V55.603Z" fill="#0E0E0F"/>
<path d="M319.012 55.6036H311.013V4.76123H319.012V55.6036Z" fill="#0E0E0F"/>
<path d="M331.782 19.7671L332.012 23.5127C334.514 20.5765 337.937 19.1085 342.28 19.1085C347.042 19.1085 350.298 20.9416 352.049 24.6077C353.253 22.8386 354.889 21.4054 356.8 20.4432C358.712 19.4811 360.838 19.0218 362.976 19.1085C366.907 19.1085 369.83 20.2009 371.745 22.3858C373.66 24.5707 374.641 27.7952 374.689 32.0591V55.6035H366.698V32.2892C366.698 30.0118 366.198 28.3215 365.214 27.2899C364.23 26.2583 362.595 25.7028 360.31 25.7028C358.693 25.6344 357.107 26.1593 355.85 27.1788C354.695 28.2026 353.867 29.5439 353.469 31.0354V55.6353H345.47V32.0194C345.359 27.7872 343.219 25.6711 339.051 25.6711C335.877 25.6711 333.575 26.9883 332.242 29.6388V55.6035H324.243V19.7671H331.782Z" fill="#0E0E0F"/>
</svg>
